M48
; DRILL file {KiCad 8.0.7} date 2025-04-22T23:12:26-0400
; FORMAT={-:-/ absolute / inch / decimal}
; #@! TF.CreationDate,2025-04-22T23:12:26-04:00
; #@! TF.GenerationSoftware,Kicad,Pcbnew,8.0.7
; #@! TF.FileFunction,Plated,1,2,PTH
FMAT,2
INCH
; #@! TA.AperFunction,Plated,PTH,ViaDrill
T1C0.0118
; #@! TA.AperFunction,Plated,PTH,ComponentDrill
T2C0.0157
; #@! TA.AperFunction,Plated,PTH,ComponentDrill
T3C0.0433
; #@! TA.AperFunction,Plated,PTH,ComponentDrill
T4C0.0472
; #@! TA.AperFunction,Plated,PTH,ComponentDrill
T5C0.0476
; #@! TA.AperFunction,Plated,PTH,ComponentDrill
T6C0.0590
; #@! TA.AperFunction,Plated,PTH,ViaDrill
T7C0.1181
; #@! TA.AperFunction,Plated,PTH,ComponentDrill
T8C0.1299
%
G90
G05
T1
X3.0709Y-1.6142
X3.0709Y-1.6929
X3.1398Y-1.7421
X3.1693Y-1.3189
X3.2087Y-1.2598
X3.2283Y-1.8307
X3.248Y-1.2598
X3.4252Y-1.8307
X3.4449Y-1.2598
X3.4449Y-2.1654
X3.5039Y-1.1811
X3.5131Y-1.8596
X3.5827Y-1.3189
X3.6411Y-1.6573
X3.6417Y-1.2795
X3.6417Y-1.4567
X3.6614Y-1.6929
X3.6614Y-1.8504
X3.6811Y-1.4173
X3.6811Y-1.5354
X3.6811Y-1.5748
X3.6811Y-1.6142
X3.7205Y-1.1811
X3.7795Y-1.1614
X3.9764Y-1.1614
X3.9764Y-1.3435
X3.9764Y-1.375
X4.0891Y-1.3928
X4.1181Y-1.3805
X4.311Y-1.7323
X4.3504Y-1.437
X4.3504Y-1.811
X4.4488Y-1.6732
X4.4685Y-1.4961
T2
X3.9941Y-1.2382
X4.0197Y-1.2106
X4.0512Y-1.2106
X4.0669Y-1.2382
X4.0827Y-1.2106
X4.0984Y-1.2382
X4.1299Y-1.2382
X4.1457Y-1.2106
X4.1614Y-1.2382
X4.1772Y-1.2106
X4.2087Y-1.2106
X4.2343Y-1.2382
T3
X2.47Y-1.0827
X2.57Y-1.0827
X2.67Y-1.0827
X2.77Y-1.0827
X2.87Y-1.0827
T4
X2.5394Y-1.2992
X2.5394Y-1.8701
X2.6378Y-1.8701
X2.7362Y-1.2992
X2.7362Y-1.8701
T5
X3.937Y-1.2697
X4.2913Y-1.2697
T6
X2.4643Y-2.42
X2.4643Y-3.16
X2.7143Y-2.32
X2.7143Y-3.06
X3.2083Y-2.42
X3.2083Y-3.16
X3.4583Y-2.32
X3.4583Y-3.06
X3.9524Y-2.42
X3.9524Y-3.16
X4.2024Y-2.32
X4.2024Y-3.06
T7
X2.1632Y-2.3699
T8
X2.4547Y-1.5748
X2.8209Y-1.5748
M30
