G04 #@! TF.GenerationSoftware,KiCad,Pcbnew,8.0.7*
G04 #@! TF.CreationDate,2025-04-22T23:12:23-04:00*
G04 #@! TF.ProjectId,custom-keypad,63757374-6f6d-42d6-9b65-797061642e6b,rev?*
G04 #@! TF.SameCoordinates,Original*
G04 #@! TF.FileFunction,Legend,Bot*
G04 #@! TF.FilePolarity,Positive*
%FSLAX46Y46*%
G04 Gerber Fmt 4.6, Leading zero omitted, Abs format (unit mm)*
G04 Created by KiCad (PCBNEW 8.0.7) date 2025-04-22 23:12:23*
%MOMM*%
%LPD*%
G01*
G04 APERTURE LIST*
G04 Aperture macros list*
%AMRoundRect*
0 Rectangle with rounded corners*
0 $1 Rounding radius*
0 $2 $3 $4 $5 $6 $7 $8 $9 X,Y pos of 4 corners*
0 Add a 4 corners polygon primitive as box body*
4,1,4,$2,$3,$4,$5,$6,$7,$8,$9,$2,$3,0*
0 Add four circle primitives for the rounded corners*
1,1,$1+$1,$2,$3*
1,1,$1+$1,$4,$5*
1,1,$1+$1,$6,$7*
1,1,$1+$1,$8,$9*
0 Add four rect primitives between the rounded corners*
20,1,$1+$1,$2,$3,$4,$5,0*
20,1,$1+$1,$4,$5,$6,$7,0*
20,1,$1+$1,$6,$7,$8,$9,0*
20,1,$1+$1,$8,$9,$2,$3,0*%
G04 Aperture macros list end*
%ADD10C,0.150000*%
%ADD11C,0.254000*%
%ADD12C,0.120000*%
%ADD13C,0.200000*%
%ADD14C,1.701800*%
%ADD15C,3.987800*%
%ADD16C,2.286000*%
%ADD17C,3.200000*%
%ADD18R,1.650000X1.650000*%
%ADD19C,1.650000*%
%ADD20C,1.800000*%
%ADD21C,4.950000*%
%ADD22C,0.650000*%
%ADD23C,1.000000*%
%ADD24C,1.815000*%
%ADD25RoundRect,0.250000X0.337500X0.475000X-0.337500X0.475000X-0.337500X-0.475000X0.337500X-0.475000X0*%
%ADD26RoundRect,0.250000X0.097227X-0.574524X0.574524X-0.097227X-0.097227X0.574524X-0.574524X0.097227X0*%
%ADD27RoundRect,0.250000X-0.475000X0.337500X-0.475000X-0.337500X0.475000X-0.337500X0.475000X0.337500X0*%
%ADD28RoundRect,0.250000X-0.350000X-0.450000X0.350000X-0.450000X0.350000X0.450000X-0.350000X0.450000X0*%
%ADD29RoundRect,0.250000X0.574524X0.097227X0.097227X0.574524X-0.574524X-0.097227X-0.097227X-0.574524X0*%
%ADD30RoundRect,0.250000X0.475000X-0.337500X0.475000X0.337500X-0.475000X0.337500X-0.475000X-0.337500X0*%
%ADD31R,1.850000X0.900000*%
%ADD32R,1.850000X3.200000*%
%ADD33RoundRect,0.250000X0.350000X0.450000X-0.350000X0.450000X-0.350000X-0.450000X0.350000X-0.450000X0*%
%ADD34C,0.600000*%
%ADD35C,6.000000*%
G04 APERTURE END LIST*
D10*
X88666666Y-33859580D02*
X88714285Y-33907200D01*
X88714285Y-33907200D02*
X88857142Y-33954819D01*
X88857142Y-33954819D02*
X88952380Y-33954819D01*
X88952380Y-33954819D02*
X89095237Y-33907200D01*
X89095237Y-33907200D02*
X89190475Y-33811961D01*
X89190475Y-33811961D02*
X89238094Y-33716723D01*
X89238094Y-33716723D02*
X89285713Y-33526247D01*
X89285713Y-33526247D02*
X89285713Y-33383390D01*
X89285713Y-33383390D02*
X89238094Y-33192914D01*
X89238094Y-33192914D02*
X89190475Y-33097676D01*
X89190475Y-33097676D02*
X89095237Y-33002438D01*
X89095237Y-33002438D02*
X88952380Y-32954819D01*
X88952380Y-32954819D02*
X88857142Y-32954819D01*
X88857142Y-32954819D02*
X88714285Y-33002438D01*
X88714285Y-33002438D02*
X88666666Y-33050057D01*
X87809523Y-33288152D02*
X87809523Y-33954819D01*
X88047618Y-32907200D02*
X88285713Y-33621485D01*
X88285713Y-33621485D02*
X87666666Y-33621485D01*
X78372112Y-30136411D02*
X78439456Y-30136411D01*
X78439456Y-30136411D02*
X78574143Y-30069067D01*
X78574143Y-30069067D02*
X78641486Y-30001724D01*
X78641486Y-30001724D02*
X78708830Y-29867037D01*
X78708830Y-29867037D02*
X78708830Y-29732350D01*
X78708830Y-29732350D02*
X78675158Y-29631335D01*
X78675158Y-29631335D02*
X78574143Y-29462976D01*
X78574143Y-29462976D02*
X78473128Y-29361961D01*
X78473128Y-29361961D02*
X78304769Y-29260945D01*
X78304769Y-29260945D02*
X78203754Y-29227274D01*
X78203754Y-29227274D02*
X78069067Y-29227274D01*
X78069067Y-29227274D02*
X77934380Y-29294617D01*
X77934380Y-29294617D02*
X77867036Y-29361961D01*
X77867036Y-29361961D02*
X77799693Y-29496648D01*
X77799693Y-29496648D02*
X77799693Y-29563991D01*
X77766021Y-30877189D02*
X78170082Y-30473128D01*
X77968051Y-30675159D02*
X77260945Y-29968052D01*
X77260945Y-29968052D02*
X77429303Y-30001724D01*
X77429303Y-30001724D02*
X77563990Y-30001724D01*
X77563990Y-30001724D02*
X77665006Y-29968052D01*
X79666666Y-37359580D02*
X79714285Y-37407200D01*
X79714285Y-37407200D02*
X79857142Y-37454819D01*
X79857142Y-37454819D02*
X79952380Y-37454819D01*
X79952380Y-37454819D02*
X80095237Y-37407200D01*
X80095237Y-37407200D02*
X80190475Y-37311961D01*
X80190475Y-37311961D02*
X80238094Y-37216723D01*
X80238094Y-37216723D02*
X80285713Y-37026247D01*
X80285713Y-37026247D02*
X80285713Y-36883390D01*
X80285713Y-36883390D02*
X80238094Y-36692914D01*
X80238094Y-36692914D02*
X80190475Y-36597676D01*
X80190475Y-36597676D02*
X80095237Y-36502438D01*
X80095237Y-36502438D02*
X79952380Y-36454819D01*
X79952380Y-36454819D02*
X79857142Y-36454819D01*
X79857142Y-36454819D02*
X79714285Y-36502438D01*
X79714285Y-36502438D02*
X79666666Y-36550057D01*
X78809523Y-36454819D02*
X78999999Y-36454819D01*
X78999999Y-36454819D02*
X79095237Y-36502438D01*
X79095237Y-36502438D02*
X79142856Y-36550057D01*
X79142856Y-36550057D02*
X79238094Y-36692914D01*
X79238094Y-36692914D02*
X79285713Y-36883390D01*
X79285713Y-36883390D02*
X79285713Y-37264342D01*
X79285713Y-37264342D02*
X79238094Y-37359580D01*
X79238094Y-37359580D02*
X79190475Y-37407200D01*
X79190475Y-37407200D02*
X79095237Y-37454819D01*
X79095237Y-37454819D02*
X78904761Y-37454819D01*
X78904761Y-37454819D02*
X78809523Y-37407200D01*
X78809523Y-37407200D02*
X78761904Y-37359580D01*
X78761904Y-37359580D02*
X78714285Y-37264342D01*
X78714285Y-37264342D02*
X78714285Y-37026247D01*
X78714285Y-37026247D02*
X78761904Y-36931009D01*
X78761904Y-36931009D02*
X78809523Y-36883390D01*
X78809523Y-36883390D02*
X78904761Y-36835771D01*
X78904761Y-36835771D02*
X79095237Y-36835771D01*
X79095237Y-36835771D02*
X79190475Y-36883390D01*
X79190475Y-36883390D02*
X79238094Y-36931009D01*
X79238094Y-36931009D02*
X79285713Y-37026247D01*
X105666666Y-27454819D02*
X105999999Y-26978628D01*
X106238094Y-27454819D02*
X106238094Y-26454819D01*
X106238094Y-26454819D02*
X105857142Y-26454819D01*
X105857142Y-26454819D02*
X105761904Y-26502438D01*
X105761904Y-26502438D02*
X105714285Y-26550057D01*
X105714285Y-26550057D02*
X105666666Y-26645295D01*
X105666666Y-26645295D02*
X105666666Y-26788152D01*
X105666666Y-26788152D02*
X105714285Y-26883390D01*
X105714285Y-26883390D02*
X105761904Y-26931009D01*
X105761904Y-26931009D02*
X105857142Y-26978628D01*
X105857142Y-26978628D02*
X106238094Y-26978628D01*
X104809523Y-26788152D02*
X104809523Y-27454819D01*
X105047618Y-26407200D02*
X105285713Y-27121485D01*
X105285713Y-27121485D02*
X104666666Y-27121485D01*
X77597211Y-47605735D02*
X77597211Y-47673079D01*
X77597211Y-47673079D02*
X77664555Y-47807766D01*
X77664555Y-47807766D02*
X77731898Y-47875109D01*
X77731898Y-47875109D02*
X77866585Y-47942453D01*
X77866585Y-47942453D02*
X78001272Y-47942453D01*
X78001272Y-47942453D02*
X78102287Y-47908781D01*
X78102287Y-47908781D02*
X78270646Y-47807766D01*
X78270646Y-47807766D02*
X78371661Y-47706751D01*
X78371661Y-47706751D02*
X78472677Y-47538392D01*
X78472677Y-47538392D02*
X78506348Y-47437377D01*
X78506348Y-47437377D02*
X78506348Y-47302690D01*
X78506348Y-47302690D02*
X78439005Y-47168003D01*
X78439005Y-47168003D02*
X78371661Y-47100659D01*
X78371661Y-47100659D02*
X78236974Y-47033316D01*
X78236974Y-47033316D02*
X78169631Y-47033316D01*
X77193150Y-47336361D02*
X77058463Y-47201674D01*
X77058463Y-47201674D02*
X77024791Y-47100659D01*
X77024791Y-47100659D02*
X77024791Y-47033316D01*
X77024791Y-47033316D02*
X77058463Y-46864957D01*
X77058463Y-46864957D02*
X77159478Y-46696598D01*
X77159478Y-46696598D02*
X77428852Y-46427224D01*
X77428852Y-46427224D02*
X77529868Y-46393552D01*
X77529868Y-46393552D02*
X77597211Y-46393552D01*
X77597211Y-46393552D02*
X77698226Y-46427224D01*
X77698226Y-46427224D02*
X77832913Y-46561911D01*
X77832913Y-46561911D02*
X77866585Y-46662926D01*
X77866585Y-46662926D02*
X77866585Y-46730270D01*
X77866585Y-46730270D02*
X77832913Y-46831285D01*
X77832913Y-46831285D02*
X77664555Y-46999644D01*
X77664555Y-46999644D02*
X77563539Y-47033316D01*
X77563539Y-47033316D02*
X77496196Y-47033316D01*
X77496196Y-47033316D02*
X77395181Y-46999644D01*
X77395181Y-46999644D02*
X77260494Y-46864957D01*
X77260494Y-46864957D02*
X77226822Y-46763942D01*
X77226822Y-46763942D02*
X77226822Y-46696598D01*
X77226822Y-46696598D02*
X77260494Y-46595583D01*
X108808856Y-54923579D02*
X108856475Y-54971199D01*
X108856475Y-54971199D02*
X108999332Y-55018818D01*
X108999332Y-55018818D02*
X109094570Y-55018818D01*
X109094570Y-55018818D02*
X109237427Y-54971199D01*
X109237427Y-54971199D02*
X109332665Y-54875960D01*
X109332665Y-54875960D02*
X109380284Y-54780722D01*
X109380284Y-54780722D02*
X109427903Y-54590246D01*
X109427903Y-54590246D02*
X109427903Y-54447389D01*
X109427903Y-54447389D02*
X109380284Y-54256913D01*
X109380284Y-54256913D02*
X109332665Y-54161675D01*
X109332665Y-54161675D02*
X109237427Y-54066437D01*
X109237427Y-54066437D02*
X109094570Y-54018818D01*
X109094570Y-54018818D02*
X108999332Y-54018818D01*
X108999332Y-54018818D02*
X108856475Y-54066437D01*
X108856475Y-54066437D02*
X108808856Y-54114056D01*
X107856475Y-55018818D02*
X108427903Y-55018818D01*
X108142189Y-55018818D02*
X108142189Y-54018818D01*
X108142189Y-54018818D02*
X108237427Y-54161675D01*
X108237427Y-54161675D02*
X108332665Y-54256913D01*
X108332665Y-54256913D02*
X108427903Y-54304532D01*
X107523141Y-54018818D02*
X106904094Y-54018818D01*
X106904094Y-54018818D02*
X107237427Y-54399770D01*
X107237427Y-54399770D02*
X107094570Y-54399770D01*
X107094570Y-54399770D02*
X106999332Y-54447389D01*
X106999332Y-54447389D02*
X106951713Y-54495008D01*
X106951713Y-54495008D02*
X106904094Y-54590246D01*
X106904094Y-54590246D02*
X106904094Y-54828341D01*
X106904094Y-54828341D02*
X106951713Y-54923579D01*
X106951713Y-54923579D02*
X106999332Y-54971199D01*
X106999332Y-54971199D02*
X107094570Y-55018818D01*
X107094570Y-55018818D02*
X107380284Y-55018818D01*
X107380284Y-55018818D02*
X107475522Y-54971199D01*
X107475522Y-54971199D02*
X107523141Y-54923579D01*
X92142857Y-43859580D02*
X92190476Y-43907200D01*
X92190476Y-43907200D02*
X92333333Y-43954819D01*
X92333333Y-43954819D02*
X92428571Y-43954819D01*
X92428571Y-43954819D02*
X92571428Y-43907200D01*
X92571428Y-43907200D02*
X92666666Y-43811961D01*
X92666666Y-43811961D02*
X92714285Y-43716723D01*
X92714285Y-43716723D02*
X92761904Y-43526247D01*
X92761904Y-43526247D02*
X92761904Y-43383390D01*
X92761904Y-43383390D02*
X92714285Y-43192914D01*
X92714285Y-43192914D02*
X92666666Y-43097676D01*
X92666666Y-43097676D02*
X92571428Y-43002438D01*
X92571428Y-43002438D02*
X92428571Y-42954819D01*
X92428571Y-42954819D02*
X92333333Y-42954819D01*
X92333333Y-42954819D02*
X92190476Y-43002438D01*
X92190476Y-43002438D02*
X92142857Y-43050057D01*
X91190476Y-43954819D02*
X91761904Y-43954819D01*
X91476190Y-43954819D02*
X91476190Y-42954819D01*
X91476190Y-42954819D02*
X91571428Y-43097676D01*
X91571428Y-43097676D02*
X91666666Y-43192914D01*
X91666666Y-43192914D02*
X91761904Y-43240533D01*
X90809523Y-43050057D02*
X90761904Y-43002438D01*
X90761904Y-43002438D02*
X90666666Y-42954819D01*
X90666666Y-42954819D02*
X90428571Y-42954819D01*
X90428571Y-42954819D02*
X90333333Y-43002438D01*
X90333333Y-43002438D02*
X90285714Y-43050057D01*
X90285714Y-43050057D02*
X90238095Y-43145295D01*
X90238095Y-43145295D02*
X90238095Y-43240533D01*
X90238095Y-43240533D02*
X90285714Y-43383390D01*
X90285714Y-43383390D02*
X90857142Y-43954819D01*
X90857142Y-43954819D02*
X90238095Y-43954819D01*
X108142857Y-44359580D02*
X108190476Y-44407200D01*
X108190476Y-44407200D02*
X108333333Y-44454819D01*
X108333333Y-44454819D02*
X108428571Y-44454819D01*
X108428571Y-44454819D02*
X108571428Y-44407200D01*
X108571428Y-44407200D02*
X108666666Y-44311961D01*
X108666666Y-44311961D02*
X108714285Y-44216723D01*
X108714285Y-44216723D02*
X108761904Y-44026247D01*
X108761904Y-44026247D02*
X108761904Y-43883390D01*
X108761904Y-43883390D02*
X108714285Y-43692914D01*
X108714285Y-43692914D02*
X108666666Y-43597676D01*
X108666666Y-43597676D02*
X108571428Y-43502438D01*
X108571428Y-43502438D02*
X108428571Y-43454819D01*
X108428571Y-43454819D02*
X108333333Y-43454819D01*
X108333333Y-43454819D02*
X108190476Y-43502438D01*
X108190476Y-43502438D02*
X108142857Y-43550057D01*
X107190476Y-44454819D02*
X107761904Y-44454819D01*
X107476190Y-44454819D02*
X107476190Y-43454819D01*
X107476190Y-43454819D02*
X107571428Y-43597676D01*
X107571428Y-43597676D02*
X107666666Y-43692914D01*
X107666666Y-43692914D02*
X107761904Y-43740533D01*
X106333333Y-43788152D02*
X106333333Y-44454819D01*
X106571428Y-43407200D02*
X106809523Y-44121485D01*
X106809523Y-44121485D02*
X106190476Y-44121485D01*
X91166666Y-38859580D02*
X91214285Y-38907200D01*
X91214285Y-38907200D02*
X91357142Y-38954819D01*
X91357142Y-38954819D02*
X91452380Y-38954819D01*
X91452380Y-38954819D02*
X91595237Y-38907200D01*
X91595237Y-38907200D02*
X91690475Y-38811961D01*
X91690475Y-38811961D02*
X91738094Y-38716723D01*
X91738094Y-38716723D02*
X91785713Y-38526247D01*
X91785713Y-38526247D02*
X91785713Y-38383390D01*
X91785713Y-38383390D02*
X91738094Y-38192914D01*
X91738094Y-38192914D02*
X91690475Y-38097676D01*
X91690475Y-38097676D02*
X91595237Y-38002438D01*
X91595237Y-38002438D02*
X91452380Y-37954819D01*
X91452380Y-37954819D02*
X91357142Y-37954819D01*
X91357142Y-37954819D02*
X91214285Y-38002438D01*
X91214285Y-38002438D02*
X91166666Y-38050057D01*
X90785713Y-38050057D02*
X90738094Y-38002438D01*
X90738094Y-38002438D02*
X90642856Y-37954819D01*
X90642856Y-37954819D02*
X90404761Y-37954819D01*
X90404761Y-37954819D02*
X90309523Y-38002438D01*
X90309523Y-38002438D02*
X90261904Y-38050057D01*
X90261904Y-38050057D02*
X90214285Y-38145295D01*
X90214285Y-38145295D02*
X90214285Y-38240533D01*
X90214285Y-38240533D02*
X90261904Y-38383390D01*
X90261904Y-38383390D02*
X90833332Y-38954819D01*
X90833332Y-38954819D02*
X90214285Y-38954819D01*
X84142857Y-45859580D02*
X84190476Y-45907200D01*
X84190476Y-45907200D02*
X84333333Y-45954819D01*
X84333333Y-45954819D02*
X84428571Y-45954819D01*
X84428571Y-45954819D02*
X84571428Y-45907200D01*
X84571428Y-45907200D02*
X84666666Y-45811961D01*
X84666666Y-45811961D02*
X84714285Y-45716723D01*
X84714285Y-45716723D02*
X84761904Y-45526247D01*
X84761904Y-45526247D02*
X84761904Y-45383390D01*
X84761904Y-45383390D02*
X84714285Y-45192914D01*
X84714285Y-45192914D02*
X84666666Y-45097676D01*
X84666666Y-45097676D02*
X84571428Y-45002438D01*
X84571428Y-45002438D02*
X84428571Y-44954819D01*
X84428571Y-44954819D02*
X84333333Y-44954819D01*
X84333333Y-44954819D02*
X84190476Y-45002438D01*
X84190476Y-45002438D02*
X84142857Y-45050057D01*
X83190476Y-45954819D02*
X83761904Y-45954819D01*
X83476190Y-45954819D02*
X83476190Y-44954819D01*
X83476190Y-44954819D02*
X83571428Y-45097676D01*
X83571428Y-45097676D02*
X83666666Y-45192914D01*
X83666666Y-45192914D02*
X83761904Y-45240533D01*
X82238095Y-45954819D02*
X82809523Y-45954819D01*
X82523809Y-45954819D02*
X82523809Y-44954819D01*
X82523809Y-44954819D02*
X82619047Y-45097676D01*
X82619047Y-45097676D02*
X82714285Y-45192914D01*
X82714285Y-45192914D02*
X82809523Y-45240533D01*
D11*
X114739762Y-56074318D02*
X114739762Y-54804318D01*
X113409285Y-55953365D02*
X113469761Y-56013842D01*
X113469761Y-56013842D02*
X113651190Y-56074318D01*
X113651190Y-56074318D02*
X113772142Y-56074318D01*
X113772142Y-56074318D02*
X113953571Y-56013842D01*
X113953571Y-56013842D02*
X114074523Y-55892889D01*
X114074523Y-55892889D02*
X114135000Y-55771937D01*
X114135000Y-55771937D02*
X114195476Y-55530032D01*
X114195476Y-55530032D02*
X114195476Y-55348603D01*
X114195476Y-55348603D02*
X114135000Y-55106699D01*
X114135000Y-55106699D02*
X114074523Y-54985746D01*
X114074523Y-54985746D02*
X113953571Y-54864794D01*
X113953571Y-54864794D02*
X113772142Y-54804318D01*
X113772142Y-54804318D02*
X113651190Y-54804318D01*
X113651190Y-54804318D02*
X113469761Y-54864794D01*
X113469761Y-54864794D02*
X113409285Y-54925270D01*
X112199761Y-56074318D02*
X112925476Y-56074318D01*
X112562619Y-56074318D02*
X112562619Y-54804318D01*
X112562619Y-54804318D02*
X112683571Y-54985746D01*
X112683571Y-54985746D02*
X112804523Y-55106699D01*
X112804523Y-55106699D02*
X112925476Y-55167175D01*
D10*
X83666666Y-34359580D02*
X83714285Y-34407200D01*
X83714285Y-34407200D02*
X83857142Y-34454819D01*
X83857142Y-34454819D02*
X83952380Y-34454819D01*
X83952380Y-34454819D02*
X84095237Y-34407200D01*
X84095237Y-34407200D02*
X84190475Y-34311961D01*
X84190475Y-34311961D02*
X84238094Y-34216723D01*
X84238094Y-34216723D02*
X84285713Y-34026247D01*
X84285713Y-34026247D02*
X84285713Y-33883390D01*
X84285713Y-33883390D02*
X84238094Y-33692914D01*
X84238094Y-33692914D02*
X84190475Y-33597676D01*
X84190475Y-33597676D02*
X84095237Y-33502438D01*
X84095237Y-33502438D02*
X83952380Y-33454819D01*
X83952380Y-33454819D02*
X83857142Y-33454819D01*
X83857142Y-33454819D02*
X83714285Y-33502438D01*
X83714285Y-33502438D02*
X83666666Y-33550057D01*
X82761904Y-33454819D02*
X83238094Y-33454819D01*
X83238094Y-33454819D02*
X83285713Y-33931009D01*
X83285713Y-33931009D02*
X83238094Y-33883390D01*
X83238094Y-33883390D02*
X83142856Y-33835771D01*
X83142856Y-33835771D02*
X82904761Y-33835771D01*
X82904761Y-33835771D02*
X82809523Y-33883390D01*
X82809523Y-33883390D02*
X82761904Y-33931009D01*
X82761904Y-33931009D02*
X82714285Y-34026247D01*
X82714285Y-34026247D02*
X82714285Y-34264342D01*
X82714285Y-34264342D02*
X82761904Y-34359580D01*
X82761904Y-34359580D02*
X82809523Y-34407200D01*
X82809523Y-34407200D02*
X82904761Y-34454819D01*
X82904761Y-34454819D02*
X83142856Y-34454819D01*
X83142856Y-34454819D02*
X83238094Y-34407200D01*
X83238094Y-34407200D02*
X83285713Y-34359580D01*
X94208830Y-47799693D02*
X94276174Y-47799693D01*
X94276174Y-47799693D02*
X94410861Y-47732349D01*
X94410861Y-47732349D02*
X94478204Y-47665006D01*
X94478204Y-47665006D02*
X94545548Y-47530319D01*
X94545548Y-47530319D02*
X94545548Y-47395632D01*
X94545548Y-47395632D02*
X94511876Y-47294617D01*
X94511876Y-47294617D02*
X94410861Y-47126258D01*
X94410861Y-47126258D02*
X94309846Y-47025243D01*
X94309846Y-47025243D02*
X94141487Y-46924227D01*
X94141487Y-46924227D02*
X94040472Y-46890556D01*
X94040472Y-46890556D02*
X93905785Y-46890556D01*
X93905785Y-46890556D02*
X93771098Y-46957899D01*
X93771098Y-46957899D02*
X93703754Y-47025243D01*
X93703754Y-47025243D02*
X93636411Y-47159930D01*
X93636411Y-47159930D02*
X93636411Y-47227273D01*
X93602739Y-48540471D02*
X94006800Y-48136410D01*
X93804769Y-48338441D02*
X93097663Y-47631334D01*
X93097663Y-47631334D02*
X93266021Y-47665006D01*
X93266021Y-47665006D02*
X93400708Y-47665006D01*
X93400708Y-47665006D02*
X93501724Y-47631334D01*
X92457899Y-48271098D02*
X92390556Y-48338441D01*
X92390556Y-48338441D02*
X92356884Y-48439456D01*
X92356884Y-48439456D02*
X92356884Y-48506800D01*
X92356884Y-48506800D02*
X92390556Y-48607815D01*
X92390556Y-48607815D02*
X92491571Y-48776174D01*
X92491571Y-48776174D02*
X92659930Y-48944533D01*
X92659930Y-48944533D02*
X92828288Y-49045548D01*
X92828288Y-49045548D02*
X92929304Y-49079220D01*
X92929304Y-49079220D02*
X92996647Y-49079220D01*
X92996647Y-49079220D02*
X93097662Y-49045548D01*
X93097662Y-49045548D02*
X93165006Y-48978204D01*
X93165006Y-48978204D02*
X93198678Y-48877189D01*
X93198678Y-48877189D02*
X93198678Y-48809846D01*
X93198678Y-48809846D02*
X93165006Y-48708830D01*
X93165006Y-48708830D02*
X93063991Y-48540472D01*
X93063991Y-48540472D02*
X92895632Y-48372113D01*
X92895632Y-48372113D02*
X92727273Y-48271098D01*
X92727273Y-48271098D02*
X92626258Y-48237426D01*
X92626258Y-48237426D02*
X92558914Y-48237426D01*
X92558914Y-48237426D02*
X92457899Y-48271098D01*
X67078666Y-42315580D02*
X67126285Y-42363200D01*
X67126285Y-42363200D02*
X67269142Y-42410819D01*
X67269142Y-42410819D02*
X67364380Y-42410819D01*
X67364380Y-42410819D02*
X67507237Y-42363200D01*
X67507237Y-42363200D02*
X67602475Y-42267961D01*
X67602475Y-42267961D02*
X67650094Y-42172723D01*
X67650094Y-42172723D02*
X67697713Y-41982247D01*
X67697713Y-41982247D02*
X67697713Y-41839390D01*
X67697713Y-41839390D02*
X67650094Y-41648914D01*
X67650094Y-41648914D02*
X67602475Y-41553676D01*
X67602475Y-41553676D02*
X67507237Y-41458438D01*
X67507237Y-41458438D02*
X67364380Y-41410819D01*
X67364380Y-41410819D02*
X67269142Y-41410819D01*
X67269142Y-41410819D02*
X67126285Y-41458438D01*
X67126285Y-41458438D02*
X67078666Y-41506057D01*
X66507237Y-41839390D02*
X66602475Y-41791771D01*
X66602475Y-41791771D02*
X66650094Y-41744152D01*
X66650094Y-41744152D02*
X66697713Y-41648914D01*
X66697713Y-41648914D02*
X66697713Y-41601295D01*
X66697713Y-41601295D02*
X66650094Y-41506057D01*
X66650094Y-41506057D02*
X66602475Y-41458438D01*
X66602475Y-41458438D02*
X66507237Y-41410819D01*
X66507237Y-41410819D02*
X66316761Y-41410819D01*
X66316761Y-41410819D02*
X66221523Y-41458438D01*
X66221523Y-41458438D02*
X66173904Y-41506057D01*
X66173904Y-41506057D02*
X66126285Y-41601295D01*
X66126285Y-41601295D02*
X66126285Y-41648914D01*
X66126285Y-41648914D02*
X66173904Y-41744152D01*
X66173904Y-41744152D02*
X66221523Y-41791771D01*
X66221523Y-41791771D02*
X66316761Y-41839390D01*
X66316761Y-41839390D02*
X66507237Y-41839390D01*
X66507237Y-41839390D02*
X66602475Y-41887009D01*
X66602475Y-41887009D02*
X66650094Y-41934628D01*
X66650094Y-41934628D02*
X66697713Y-42029866D01*
X66697713Y-42029866D02*
X66697713Y-42220342D01*
X66697713Y-42220342D02*
X66650094Y-42315580D01*
X66650094Y-42315580D02*
X66602475Y-42363200D01*
X66602475Y-42363200D02*
X66507237Y-42410819D01*
X66507237Y-42410819D02*
X66316761Y-42410819D01*
X66316761Y-42410819D02*
X66221523Y-42363200D01*
X66221523Y-42363200D02*
X66173904Y-42315580D01*
X66173904Y-42315580D02*
X66126285Y-42220342D01*
X66126285Y-42220342D02*
X66126285Y-42029866D01*
X66126285Y-42029866D02*
X66173904Y-41934628D01*
X66173904Y-41934628D02*
X66221523Y-41887009D01*
X66221523Y-41887009D02*
X66316761Y-41839390D01*
X107642857Y-29454819D02*
X107976190Y-28978628D01*
X108214285Y-29454819D02*
X108214285Y-28454819D01*
X108214285Y-28454819D02*
X107833333Y-28454819D01*
X107833333Y-28454819D02*
X107738095Y-28502438D01*
X107738095Y-28502438D02*
X107690476Y-28550057D01*
X107690476Y-28550057D02*
X107642857Y-28645295D01*
X107642857Y-28645295D02*
X107642857Y-28788152D01*
X107642857Y-28788152D02*
X107690476Y-28883390D01*
X107690476Y-28883390D02*
X107738095Y-28931009D01*
X107738095Y-28931009D02*
X107833333Y-28978628D01*
X107833333Y-28978628D02*
X108214285Y-28978628D01*
X106690476Y-29454819D02*
X107261904Y-29454819D01*
X106976190Y-29454819D02*
X106976190Y-28454819D01*
X106976190Y-28454819D02*
X107071428Y-28597676D01*
X107071428Y-28597676D02*
X107166666Y-28692914D01*
X107166666Y-28692914D02*
X107261904Y-28740533D01*
X106071428Y-28454819D02*
X105976190Y-28454819D01*
X105976190Y-28454819D02*
X105880952Y-28502438D01*
X105880952Y-28502438D02*
X105833333Y-28550057D01*
X105833333Y-28550057D02*
X105785714Y-28645295D01*
X105785714Y-28645295D02*
X105738095Y-28835771D01*
X105738095Y-28835771D02*
X105738095Y-29073866D01*
X105738095Y-29073866D02*
X105785714Y-29264342D01*
X105785714Y-29264342D02*
X105833333Y-29359580D01*
X105833333Y-29359580D02*
X105880952Y-29407200D01*
X105880952Y-29407200D02*
X105976190Y-29454819D01*
X105976190Y-29454819D02*
X106071428Y-29454819D01*
X106071428Y-29454819D02*
X106166666Y-29407200D01*
X106166666Y-29407200D02*
X106214285Y-29359580D01*
X106214285Y-29359580D02*
X106261904Y-29264342D01*
X106261904Y-29264342D02*
X106309523Y-29073866D01*
X106309523Y-29073866D02*
X106309523Y-28835771D01*
X106309523Y-28835771D02*
X106261904Y-28645295D01*
X106261904Y-28645295D02*
X106214285Y-28550057D01*
X106214285Y-28550057D02*
X106166666Y-28502438D01*
X106166666Y-28502438D02*
X106071428Y-28454819D01*
X79666666Y-42859580D02*
X79714285Y-42907200D01*
X79714285Y-42907200D02*
X79857142Y-42954819D01*
X79857142Y-42954819D02*
X79952380Y-42954819D01*
X79952380Y-42954819D02*
X80095237Y-42907200D01*
X80095237Y-42907200D02*
X80190475Y-42811961D01*
X80190475Y-42811961D02*
X80238094Y-42716723D01*
X80238094Y-42716723D02*
X80285713Y-42526247D01*
X80285713Y-42526247D02*
X80285713Y-42383390D01*
X80285713Y-42383390D02*
X80238094Y-42192914D01*
X80238094Y-42192914D02*
X80190475Y-42097676D01*
X80190475Y-42097676D02*
X80095237Y-42002438D01*
X80095237Y-42002438D02*
X79952380Y-41954819D01*
X79952380Y-41954819D02*
X79857142Y-41954819D01*
X79857142Y-41954819D02*
X79714285Y-42002438D01*
X79714285Y-42002438D02*
X79666666Y-42050057D01*
X79333332Y-41954819D02*
X78666666Y-41954819D01*
X78666666Y-41954819D02*
X79095237Y-42954819D01*
X79666666Y-39954819D02*
X79999999Y-39478628D01*
X80238094Y-39954819D02*
X80238094Y-38954819D01*
X80238094Y-38954819D02*
X79857142Y-38954819D01*
X79857142Y-38954819D02*
X79761904Y-39002438D01*
X79761904Y-39002438D02*
X79714285Y-39050057D01*
X79714285Y-39050057D02*
X79666666Y-39145295D01*
X79666666Y-39145295D02*
X79666666Y-39288152D01*
X79666666Y-39288152D02*
X79714285Y-39383390D01*
X79714285Y-39383390D02*
X79761904Y-39431009D01*
X79761904Y-39431009D02*
X79857142Y-39478628D01*
X79857142Y-39478628D02*
X80238094Y-39478628D01*
X78714285Y-39954819D02*
X79285713Y-39954819D01*
X78999999Y-39954819D02*
X78999999Y-38954819D01*
X78999999Y-38954819D02*
X79095237Y-39097676D01*
X79095237Y-39097676D02*
X79190475Y-39192914D01*
X79190475Y-39192914D02*
X79285713Y-39240533D01*
X96142857Y-27859580D02*
X96190476Y-27907200D01*
X96190476Y-27907200D02*
X96333333Y-27954819D01*
X96333333Y-27954819D02*
X96428571Y-27954819D01*
X96428571Y-27954819D02*
X96571428Y-27907200D01*
X96571428Y-27907200D02*
X96666666Y-27811961D01*
X96666666Y-27811961D02*
X96714285Y-27716723D01*
X96714285Y-27716723D02*
X96761904Y-27526247D01*
X96761904Y-27526247D02*
X96761904Y-27383390D01*
X96761904Y-27383390D02*
X96714285Y-27192914D01*
X96714285Y-27192914D02*
X96666666Y-27097676D01*
X96666666Y-27097676D02*
X96571428Y-27002438D01*
X96571428Y-27002438D02*
X96428571Y-26954819D01*
X96428571Y-26954819D02*
X96333333Y-26954819D01*
X96333333Y-26954819D02*
X96190476Y-27002438D01*
X96190476Y-27002438D02*
X96142857Y-27050057D01*
X95190476Y-27954819D02*
X95761904Y-27954819D01*
X95476190Y-27954819D02*
X95476190Y-26954819D01*
X95476190Y-26954819D02*
X95571428Y-27097676D01*
X95571428Y-27097676D02*
X95666666Y-27192914D01*
X95666666Y-27192914D02*
X95761904Y-27240533D01*
X94619047Y-27383390D02*
X94714285Y-27335771D01*
X94714285Y-27335771D02*
X94761904Y-27288152D01*
X94761904Y-27288152D02*
X94809523Y-27192914D01*
X94809523Y-27192914D02*
X94809523Y-27145295D01*
X94809523Y-27145295D02*
X94761904Y-27050057D01*
X94761904Y-27050057D02*
X94714285Y-27002438D01*
X94714285Y-27002438D02*
X94619047Y-26954819D01*
X94619047Y-26954819D02*
X94428571Y-26954819D01*
X94428571Y-26954819D02*
X94333333Y-27002438D01*
X94333333Y-27002438D02*
X94285714Y-27050057D01*
X94285714Y-27050057D02*
X94238095Y-27145295D01*
X94238095Y-27145295D02*
X94238095Y-27192914D01*
X94238095Y-27192914D02*
X94285714Y-27288152D01*
X94285714Y-27288152D02*
X94333333Y-27335771D01*
X94333333Y-27335771D02*
X94428571Y-27383390D01*
X94428571Y-27383390D02*
X94619047Y-27383390D01*
X94619047Y-27383390D02*
X94714285Y-27431009D01*
X94714285Y-27431009D02*
X94761904Y-27478628D01*
X94761904Y-27478628D02*
X94809523Y-27573866D01*
X94809523Y-27573866D02*
X94809523Y-27764342D01*
X94809523Y-27764342D02*
X94761904Y-27859580D01*
X94761904Y-27859580D02*
X94714285Y-27907200D01*
X94714285Y-27907200D02*
X94619047Y-27954819D01*
X94619047Y-27954819D02*
X94428571Y-27954819D01*
X94428571Y-27954819D02*
X94333333Y-27907200D01*
X94333333Y-27907200D02*
X94285714Y-27859580D01*
X94285714Y-27859580D02*
X94238095Y-27764342D01*
X94238095Y-27764342D02*
X94238095Y-27573866D01*
X94238095Y-27573866D02*
X94285714Y-27478628D01*
X94285714Y-27478628D02*
X94333333Y-27431009D01*
X94333333Y-27431009D02*
X94428571Y-27383390D01*
X91166666Y-41859580D02*
X91214285Y-41907200D01*
X91214285Y-41907200D02*
X91357142Y-41954819D01*
X91357142Y-41954819D02*
X91452380Y-41954819D01*
X91452380Y-41954819D02*
X91595237Y-41907200D01*
X91595237Y-41907200D02*
X91690475Y-41811961D01*
X91690475Y-41811961D02*
X91738094Y-41716723D01*
X91738094Y-41716723D02*
X91785713Y-41526247D01*
X91785713Y-41526247D02*
X91785713Y-41383390D01*
X91785713Y-41383390D02*
X91738094Y-41192914D01*
X91738094Y-41192914D02*
X91690475Y-41097676D01*
X91690475Y-41097676D02*
X91595237Y-41002438D01*
X91595237Y-41002438D02*
X91452380Y-40954819D01*
X91452380Y-40954819D02*
X91357142Y-40954819D01*
X91357142Y-40954819D02*
X91214285Y-41002438D01*
X91214285Y-41002438D02*
X91166666Y-41050057D01*
X90833332Y-40954819D02*
X90214285Y-40954819D01*
X90214285Y-40954819D02*
X90547618Y-41335771D01*
X90547618Y-41335771D02*
X90404761Y-41335771D01*
X90404761Y-41335771D02*
X90309523Y-41383390D01*
X90309523Y-41383390D02*
X90261904Y-41431009D01*
X90261904Y-41431009D02*
X90214285Y-41526247D01*
X90214285Y-41526247D02*
X90214285Y-41764342D01*
X90214285Y-41764342D02*
X90261904Y-41859580D01*
X90261904Y-41859580D02*
X90309523Y-41907200D01*
X90309523Y-41907200D02*
X90404761Y-41954819D01*
X90404761Y-41954819D02*
X90690475Y-41954819D01*
X90690475Y-41954819D02*
X90785713Y-41907200D01*
X90785713Y-41907200D02*
X90833332Y-41859580D01*
X67150666Y-36652819D02*
X67483999Y-36176628D01*
X67722094Y-36652819D02*
X67722094Y-35652819D01*
X67722094Y-35652819D02*
X67341142Y-35652819D01*
X67341142Y-35652819D02*
X67245904Y-35700438D01*
X67245904Y-35700438D02*
X67198285Y-35748057D01*
X67198285Y-35748057D02*
X67150666Y-35843295D01*
X67150666Y-35843295D02*
X67150666Y-35986152D01*
X67150666Y-35986152D02*
X67198285Y-36081390D01*
X67198285Y-36081390D02*
X67245904Y-36129009D01*
X67245904Y-36129009D02*
X67341142Y-36176628D01*
X67341142Y-36176628D02*
X67722094Y-36176628D01*
X66245904Y-35652819D02*
X66722094Y-35652819D01*
X66722094Y-35652819D02*
X66769713Y-36129009D01*
X66769713Y-36129009D02*
X66722094Y-36081390D01*
X66722094Y-36081390D02*
X66626856Y-36033771D01*
X66626856Y-36033771D02*
X66388761Y-36033771D01*
X66388761Y-36033771D02*
X66293523Y-36081390D01*
X66293523Y-36081390D02*
X66245904Y-36129009D01*
X66245904Y-36129009D02*
X66198285Y-36224247D01*
X66198285Y-36224247D02*
X66198285Y-36462342D01*
X66198285Y-36462342D02*
X66245904Y-36557580D01*
X66245904Y-36557580D02*
X66293523Y-36605200D01*
X66293523Y-36605200D02*
X66388761Y-36652819D01*
X66388761Y-36652819D02*
X66626856Y-36652819D01*
X66626856Y-36652819D02*
X66722094Y-36605200D01*
X66722094Y-36605200D02*
X66769713Y-36557580D01*
D12*
X88238747Y-34765000D02*
X88761253Y-34765000D01*
X88238747Y-36235000D02*
X88761253Y-36235000D01*
X78665010Y-30795543D02*
X78295543Y-31165010D01*
X79704457Y-31834990D02*
X79334990Y-32204457D01*
X80765000Y-36761253D02*
X80765000Y-36238747D01*
X82235000Y-36761253D02*
X82235000Y-36238747D01*
X102227064Y-26265000D02*
X101772936Y-26265000D01*
X102227064Y-27735000D02*
X101772936Y-27735000D01*
X78295543Y-46334990D02*
X78665010Y-46704457D01*
X79334990Y-45295543D02*
X79704457Y-45665010D01*
X107176999Y-52031252D02*
X107176999Y-51508746D01*
X108646999Y-52031252D02*
X108646999Y-51508746D01*
X87738747Y-42765000D02*
X88261253Y-42765000D01*
X87738747Y-44235000D02*
X88261253Y-44235000D01*
X107431000Y-46682747D02*
X107431000Y-47205253D01*
X108901000Y-46682747D02*
X108901000Y-47205253D01*
X88265000Y-38761253D02*
X88265000Y-38238747D01*
X89735000Y-38761253D02*
X89735000Y-38238747D01*
X82765000Y-42238747D02*
X82765000Y-42761253D01*
X84235000Y-42238747D02*
X84235000Y-42761253D01*
D13*
X111325000Y-53600000D02*
X109475000Y-53600000D01*
X111750000Y-47250000D02*
X115250000Y-47250000D01*
X111750000Y-53750000D02*
X111750000Y-47250000D01*
X115250000Y-47250000D02*
X115250000Y-53750000D01*
X115250000Y-53750000D02*
X111750000Y-53750000D01*
D12*
X82765000Y-36761253D02*
X82765000Y-36238747D01*
X84235000Y-36761253D02*
X84235000Y-36238747D01*
X91165010Y-45295543D02*
X90795543Y-45665010D01*
X92204457Y-46334990D02*
X91834990Y-46704457D01*
X66650748Y-39457000D02*
X67173252Y-39457000D01*
X66650748Y-40927000D02*
X67173252Y-40927000D01*
X103272936Y-28265000D02*
X103727064Y-28265000D01*
X103272936Y-29735000D02*
X103727064Y-29735000D01*
X80765000Y-42238747D02*
X80765000Y-42761253D01*
X82235000Y-42238747D02*
X82235000Y-42761253D01*
X82727064Y-38765000D02*
X82272936Y-38765000D01*
X82727064Y-40235000D02*
X82272936Y-40235000D01*
X97265000Y-28261253D02*
X97265000Y-27738747D01*
X98735000Y-28261253D02*
X98735000Y-27738747D01*
X87738747Y-40765000D02*
X88261253Y-40765000D01*
X87738747Y-42235000D02*
X88261253Y-42235000D01*
X66756936Y-37113000D02*
X67211064Y-37113000D01*
X66756936Y-38583000D02*
X67211064Y-38583000D01*
%LPC*%
D14*
X61322000Y-82804000D03*
D15*
X66402000Y-82804000D03*
D14*
X71482000Y-82804000D03*
D16*
X68942000Y-77724000D03*
X62592000Y-80264000D03*
D17*
X115422999Y-87559152D03*
D14*
X80222000Y-82804000D03*
D15*
X85302000Y-82804000D03*
D14*
X90382000Y-82804000D03*
D16*
X87842000Y-77724000D03*
X81492000Y-80264000D03*
D18*
X62738000Y-27500000D03*
D19*
X65278000Y-27500000D03*
X67818000Y-27500000D03*
X70358000Y-27500000D03*
X72898000Y-27500000D03*
D17*
X115422995Y-29321650D03*
X54934849Y-87559155D03*
D20*
X64500000Y-47500000D03*
X69500000Y-47500000D03*
X67000000Y-47500000D03*
X64500000Y-33000000D03*
X69500000Y-33000000D03*
D21*
X62350000Y-40000000D03*
X71650000Y-40000000D03*
D14*
X61322000Y-64008000D03*
D15*
X66402000Y-64008000D03*
D14*
X71482000Y-64008000D03*
D16*
X68942000Y-58928000D03*
X62592000Y-61468000D03*
D14*
X99122000Y-82804000D03*
D15*
X104202000Y-82804000D03*
D14*
X109282000Y-82804000D03*
D16*
X106742000Y-77724000D03*
X100392000Y-80264000D03*
D17*
X54864000Y-29210000D03*
D22*
X108225000Y-30750000D03*
D23*
X100775000Y-30750000D03*
D22*
X101450000Y-31450000D03*
X102100000Y-30750000D03*
X102900000Y-30750000D03*
X103300000Y-31450000D03*
X103700000Y-30750000D03*
X104100000Y-31450000D03*
X104900000Y-31450000D03*
X105300000Y-30750000D03*
X105700000Y-31450000D03*
X106100000Y-30750000D03*
X106900000Y-30750000D03*
X107550000Y-31450000D03*
D24*
X109000000Y-32250000D03*
X100000000Y-32250000D03*
D14*
X80222000Y-64008000D03*
D15*
X85302000Y-64008000D03*
D14*
X90382000Y-64008000D03*
D16*
X87842000Y-58928000D03*
X81492000Y-61468000D03*
D14*
X99122000Y-64008000D03*
D15*
X104202000Y-64008000D03*
D14*
X109282000Y-64008000D03*
D16*
X106742000Y-58928000D03*
X100392000Y-61468000D03*
D25*
X89537500Y-35500000D03*
X87462500Y-35500000D03*
D26*
X78266377Y-32233623D03*
X79733623Y-30766377D03*
D27*
X81500000Y-35462500D03*
X81500000Y-37537500D03*
D28*
X101000000Y-27000000D03*
X103000000Y-27000000D03*
D29*
X79733623Y-46733623D03*
X78266377Y-45266377D03*
D27*
X107911999Y-50732499D03*
X107911999Y-52807499D03*
D25*
X89037500Y-43500000D03*
X86962500Y-43500000D03*
D30*
X108166000Y-47981500D03*
X108166000Y-45906500D03*
D27*
X89000000Y-37462500D03*
X89000000Y-39537500D03*
D30*
X83500000Y-43537500D03*
X83500000Y-41462500D03*
D31*
X110400000Y-52800000D03*
X110400000Y-50500000D03*
X110400000Y-48200000D03*
D32*
X116600000Y-50500000D03*
D27*
X83500000Y-35462500D03*
X83500000Y-37537500D03*
D26*
X90766377Y-46733623D03*
X92233623Y-45266377D03*
D25*
X67949500Y-40192000D03*
X65874500Y-40192000D03*
D33*
X104500000Y-29000000D03*
X102500000Y-29000000D03*
D30*
X81500000Y-43537500D03*
X81500000Y-41462500D03*
D28*
X81500000Y-39500000D03*
X83500000Y-39500000D03*
D27*
X98000000Y-26962500D03*
X98000000Y-29037500D03*
D25*
X89037500Y-41500000D03*
X86962500Y-41500000D03*
D33*
X67984000Y-37848000D03*
X65984000Y-37848000D03*
D34*
X81500000Y-32000000D03*
X113500000Y-38000000D03*
D35*
X54944022Y-60196685D03*
D34*
X96000000Y-29500000D03*
X109500000Y-44000000D03*
X101000000Y-29500000D03*
X93000000Y-43000000D03*
X87000000Y-46500000D03*
X93000000Y-47000000D03*
X87500000Y-55000000D03*
X94500000Y-30000000D03*
X93500000Y-36000000D03*
X87500000Y-32000000D03*
X78000000Y-43000000D03*
X79750000Y-44250000D03*
X80500000Y-33500000D03*
X89233623Y-47233623D03*
X92482802Y-42095000D03*
X82000000Y-46500000D03*
X113000000Y-42500000D03*
X91000000Y-33500000D03*
X92500000Y-37000000D03*
X82500000Y-32000000D03*
X89000000Y-30000000D03*
X110500000Y-36500000D03*
X110500000Y-46000000D03*
X92500000Y-32500000D03*
X78000000Y-41000000D03*
X104600000Y-35065687D03*
X101000000Y-34125000D03*
X103862637Y-35376010D03*
X101000000Y-34925003D03*
X93500000Y-41000000D03*
X93500000Y-40000000D03*
X93500000Y-39000000D03*
%LPD*%
M02*
