G04 #@! TF.GenerationSoftware,KiCad,Pcbnew,8.0.8*
G04 #@! TF.CreationDate,2025-04-12T06:06:45-04:00*
G04 #@! TF.ProjectId,custom-keypad,63757374-6f6d-42d6-9b65-797061642e6b,rev?*
G04 #@! TF.SameCoordinates,Original*
G04 #@! TF.FileFunction,Paste,Top*
G04 #@! TF.FilePolarity,Positive*
%FSLAX46Y46*%
G04 Gerber Fmt 4.6, Leading zero omitted, Abs format (unit mm)*
G04 Created by KiCad (PCBNEW 8.0.8) date 2025-04-12 06:06:45*
%MOMM*%
%LPD*%
G01*
G04 APERTURE LIST*
G04 Aperture macros list*
%AMRoundRect*
0 Rectangle with rounded corners*
0 $1 Rounding radius*
0 $2 $3 $4 $5 $6 $7 $8 $9 X,Y pos of 4 corners*
0 Add a 4 corners polygon primitive as box body*
4,1,4,$2,$3,$4,$5,$6,$7,$8,$9,$2,$3,0*
0 Add four circle primitives for the rounded corners*
1,1,$1+$1,$2,$3*
1,1,$1+$1,$4,$5*
1,1,$1+$1,$6,$7*
1,1,$1+$1,$8,$9*
0 Add four rect primitives between the rounded corners*
20,1,$1+$1,$2,$3,$4,$5,0*
20,1,$1+$1,$4,$5,$6,$7,0*
20,1,$1+$1,$6,$7,$8,$9,0*
20,1,$1+$1,$8,$9,$2,$3,0*%
%AMRotRect*
0 Rectangle, with rotation*
0 The origin of the aperture is its center*
0 $1 length*
0 $2 width*
0 $3 Rotation angle, in degrees counterclockwise*
0 Add horizontal line*
21,1,$1,$2,0,0,$3*%
G04 Aperture macros list end*
%ADD10RoundRect,0.250000X-0.325000X-0.450000X0.325000X-0.450000X0.325000X0.450000X-0.325000X0.450000X0*%
%ADD11RoundRect,0.250000X0.350000X0.450000X-0.350000X0.450000X-0.350000X-0.450000X0.350000X-0.450000X0*%
%ADD12R,1.200000X0.600000*%
%ADD13RoundRect,0.250000X0.325000X0.450000X-0.325000X0.450000X-0.325000X-0.450000X0.325000X-0.450000X0*%
%ADD14RoundRect,0.250000X-0.337500X-0.475000X0.337500X-0.475000X0.337500X0.475000X-0.337500X0.475000X0*%
%ADD15R,1.550000X1.300000*%
%ADD16RotRect,0.700000X0.750000X45.000000*%
%ADD17RoundRect,0.250000X0.565685X0.070711X0.070711X0.565685X-0.565685X-0.070711X-0.070711X-0.565685X0*%
%ADD18RoundRect,0.250000X-0.097227X0.574524X-0.574524X0.097227X0.097227X-0.574524X0.574524X-0.097227X0*%
%ADD19RoundRect,0.250000X-0.350000X-0.450000X0.350000X-0.450000X0.350000X0.450000X-0.350000X0.450000X0*%
%ADD20RoundRect,0.075000X0.075000X-0.700000X0.075000X0.700000X-0.075000X0.700000X-0.075000X-0.700000X0*%
%ADD21RoundRect,0.075000X0.700000X-0.075000X0.700000X0.075000X-0.700000X0.075000X-0.700000X-0.075000X0*%
%ADD22R,0.300000X1.700000*%
%ADD23R,1.000000X1.200000*%
%ADD24RoundRect,0.250000X-0.574524X-0.097227X-0.097227X-0.574524X0.574524X0.097227X0.097227X0.574524X0*%
G04 APERTURE END LIST*
D10*
X115561002Y-38100000D03*
X117611000Y-38100000D03*
D11*
X55610000Y-42418000D03*
X53610000Y-42418000D03*
D12*
X93250000Y-30950000D03*
X93250000Y-30000000D03*
X93250000Y-29050000D03*
X90750000Y-29050000D03*
X90750000Y-30000000D03*
X90750000Y-30950000D03*
D13*
X55634999Y-38862000D03*
X53585001Y-38862000D03*
D14*
X96462500Y-37500000D03*
X98537500Y-37500000D03*
D11*
X55610000Y-45974000D03*
X53610000Y-45974000D03*
D15*
X96525000Y-40750000D03*
X96525000Y-45250000D03*
X104475000Y-40750000D03*
X104475000Y-45250000D03*
D16*
X82669150Y-50376256D03*
X83623744Y-51330850D03*
X84330850Y-50623744D03*
X83376256Y-49669150D03*
D17*
X86707107Y-49207107D03*
X85292893Y-47792893D03*
D18*
X86733623Y-51766377D03*
X85266377Y-53233623D03*
D19*
X115586000Y-41656000D03*
X117586000Y-41656000D03*
D11*
X111490000Y-41656000D03*
X109490000Y-41656000D03*
D20*
X81638000Y-45120000D03*
X82138000Y-45120000D03*
X82638000Y-45120000D03*
X83138000Y-45120000D03*
X83638000Y-45120000D03*
X84138000Y-45120000D03*
X84638000Y-45120000D03*
X85138000Y-45120000D03*
X85638000Y-45120000D03*
X86138000Y-45120000D03*
X86638000Y-45120000D03*
X87138000Y-45120000D03*
X87638000Y-45120000D03*
X88138000Y-45120000D03*
X88638000Y-45120000D03*
X89138000Y-45120000D03*
D21*
X91063000Y-43195000D03*
X91063000Y-42695000D03*
X91063000Y-42195000D03*
X91063000Y-41695000D03*
X91063000Y-41195000D03*
X91063000Y-40695000D03*
X91063000Y-40195000D03*
X91063000Y-39695000D03*
X91063000Y-39195000D03*
X91063000Y-38695000D03*
X91063000Y-38195000D03*
X91063000Y-37695000D03*
X91063000Y-37195000D03*
X91063000Y-36695000D03*
X91063000Y-36195000D03*
X91063000Y-35695000D03*
D20*
X89138000Y-33770000D03*
X88638000Y-33770000D03*
X88138000Y-33770000D03*
X87638000Y-33770000D03*
X87138000Y-33770000D03*
X86638000Y-33770000D03*
X86138000Y-33770000D03*
X85638000Y-33770000D03*
X85138000Y-33770000D03*
X84638000Y-33770000D03*
X84138000Y-33770000D03*
X83638000Y-33770000D03*
X83138000Y-33770000D03*
X82638000Y-33770000D03*
X82138000Y-33770000D03*
X81638000Y-33770000D03*
D21*
X79713000Y-35695000D03*
X79713000Y-36195000D03*
X79713000Y-36695000D03*
X79713000Y-37195000D03*
X79713000Y-37695000D03*
X79713000Y-38195000D03*
X79713000Y-38695000D03*
X79713000Y-39195000D03*
X79713000Y-39695000D03*
X79713000Y-40195000D03*
X79713000Y-40695000D03*
X79713000Y-41195000D03*
X79713000Y-41695000D03*
X79713000Y-42195000D03*
X79713000Y-42695000D03*
X79713000Y-43195000D03*
D22*
X107250000Y-33060000D03*
X106750000Y-33060000D03*
X106250000Y-33060000D03*
X105750000Y-33060000D03*
X105250000Y-33060000D03*
X104750000Y-33060000D03*
X104250000Y-33060000D03*
X103750000Y-33060000D03*
X103250000Y-33060000D03*
X102750000Y-33060000D03*
X102250000Y-33060000D03*
X101750000Y-33060000D03*
D23*
X109600000Y-28250000D03*
X99400000Y-28250000D03*
D19*
X113000000Y-34000000D03*
X115000000Y-34000000D03*
D13*
X55634999Y-49530000D03*
X53585001Y-49530000D03*
D24*
X80766377Y-51766377D03*
X82233623Y-53233623D03*
D13*
X111514999Y-38100000D03*
X109465001Y-38100000D03*
M02*
