G04 #@! TF.GenerationSoftware,KiCad,Pcbnew,8.0.8*
G04 #@! TF.CreationDate,2025-04-12T06:06:46-04:00*
G04 #@! TF.ProjectId,custom-keypad,63757374-6f6d-42d6-9b65-797061642e6b,rev?*
G04 #@! TF.SameCoordinates,Original*
G04 #@! TF.FileFunction,Soldermask,Bot*
G04 #@! TF.FilePolarity,Negative*
%FSLAX46Y46*%
G04 Gerber Fmt 4.6, Leading zero omitted, Abs format (unit mm)*
G04 Created by KiCad (PCBNEW 8.0.8) date 2025-04-12 06:06:46*
%MOMM*%
%LPD*%
G01*
G04 APERTURE LIST*
G04 Aperture macros list*
%AMRoundRect*
0 Rectangle with rounded corners*
0 $1 Rounding radius*
0 $2 $3 $4 $5 $6 $7 $8 $9 X,Y pos of 4 corners*
0 Add a 4 corners polygon primitive as box body*
4,1,4,$2,$3,$4,$5,$6,$7,$8,$9,$2,$3,0*
0 Add four circle primitives for the rounded corners*
1,1,$1+$1,$2,$3*
1,1,$1+$1,$4,$5*
1,1,$1+$1,$6,$7*
1,1,$1+$1,$8,$9*
0 Add four rect primitives between the rounded corners*
20,1,$1+$1,$2,$3,$4,$5,0*
20,1,$1+$1,$4,$5,$6,$7,0*
20,1,$1+$1,$6,$7,$8,$9,0*
20,1,$1+$1,$8,$9,$2,$3,0*%
G04 Aperture macros list end*
%ADD10C,1.701800*%
%ADD11C,3.987800*%
%ADD12C,2.286000*%
%ADD13C,3.200000*%
%ADD14R,1.650000X1.650000*%
%ADD15C,1.650000*%
%ADD16C,1.800000*%
%ADD17C,4.950000*%
%ADD18C,0.650000*%
%ADD19C,1.140000*%
%ADD20C,1.815000*%
%ADD21RoundRect,0.250000X0.337500X0.475000X-0.337500X0.475000X-0.337500X-0.475000X0.337500X-0.475000X0*%
%ADD22RoundRect,0.250000X0.097227X-0.574524X0.574524X-0.097227X-0.097227X0.574524X-0.574524X0.097227X0*%
%ADD23RoundRect,0.250000X-0.475000X0.337500X-0.475000X-0.337500X0.475000X-0.337500X0.475000X0.337500X0*%
%ADD24RoundRect,0.250000X-0.350000X-0.450000X0.350000X-0.450000X0.350000X0.450000X-0.350000X0.450000X0*%
%ADD25RoundRect,0.250000X0.574524X0.097227X0.097227X0.574524X-0.574524X-0.097227X-0.097227X-0.574524X0*%
%ADD26RoundRect,0.250000X0.475000X-0.337500X0.475000X0.337500X-0.475000X0.337500X-0.475000X-0.337500X0*%
%ADD27R,1.850000X0.900000*%
%ADD28R,1.850000X3.200000*%
%ADD29RoundRect,0.250000X0.350000X0.450000X-0.350000X0.450000X-0.350000X-0.450000X0.350000X-0.450000X0*%
%ADD30C,0.600000*%
%ADD31C,6.000000*%
G04 APERTURE END LIST*
D10*
X61322000Y-82804000D03*
D11*
X66402000Y-82804000D03*
D10*
X71482000Y-82804000D03*
D12*
X68942000Y-77724000D03*
X62592000Y-80264000D03*
D13*
X115422999Y-87559152D03*
D10*
X80222000Y-82804000D03*
D11*
X85302000Y-82804000D03*
D10*
X90382000Y-82804000D03*
D12*
X87842000Y-77724000D03*
X81492000Y-80264000D03*
D14*
X62738000Y-32258000D03*
D15*
X65278000Y-32258000D03*
X67818000Y-32258000D03*
X70358000Y-32258000D03*
X72898000Y-32258000D03*
D13*
X115422995Y-29321650D03*
X54934849Y-87559155D03*
D16*
X64088000Y-51308000D03*
X69088000Y-51308000D03*
X66588000Y-51308000D03*
X64088000Y-36808000D03*
X69088000Y-36808000D03*
D17*
X61938000Y-43808000D03*
X71238000Y-43808000D03*
D10*
X61322000Y-64008000D03*
D11*
X66402000Y-64008000D03*
D10*
X71482000Y-64008000D03*
D12*
X68942000Y-58928000D03*
X62592000Y-61468000D03*
D10*
X99122000Y-82804000D03*
D11*
X104202000Y-82804000D03*
D10*
X109282000Y-82804000D03*
D12*
X106742000Y-77724000D03*
X100392000Y-80264000D03*
D13*
X54864000Y-29210000D03*
D18*
X108225000Y-30750000D03*
D19*
X100775000Y-30750000D03*
D18*
X101450000Y-31450000D03*
X102100000Y-30750000D03*
X102900000Y-30750000D03*
X103300000Y-31450000D03*
X103700000Y-30750000D03*
X104100000Y-31450000D03*
X104900000Y-31450000D03*
X105300000Y-30750000D03*
X105700000Y-31450000D03*
X106100000Y-30750000D03*
X106900000Y-30750000D03*
X107550000Y-31450000D03*
D20*
X109000000Y-32250000D03*
X100000000Y-32250000D03*
D10*
X80222000Y-64008000D03*
D11*
X85302000Y-64008000D03*
D10*
X90382000Y-64008000D03*
D12*
X87842000Y-58928000D03*
X81492000Y-61468000D03*
D10*
X99122000Y-64008000D03*
D11*
X104202000Y-64008000D03*
D10*
X109282000Y-64008000D03*
D12*
X106742000Y-58928000D03*
X100392000Y-61468000D03*
D21*
X89537500Y-35500000D03*
X87462500Y-35500000D03*
D22*
X78266377Y-32233623D03*
X79733623Y-30766377D03*
D23*
X81500000Y-35462500D03*
X81500000Y-37537500D03*
D24*
X101000000Y-27000000D03*
X103000000Y-27000000D03*
D25*
X79733623Y-46733623D03*
X78266377Y-45266377D03*
D23*
X107911999Y-50732499D03*
X107911999Y-52807499D03*
D21*
X89037500Y-43500000D03*
X86962500Y-43500000D03*
D26*
X108166000Y-47981500D03*
X108166000Y-45906500D03*
D23*
X89000000Y-37462500D03*
X89000000Y-39537500D03*
D26*
X83500000Y-43537500D03*
X83500000Y-41462500D03*
D27*
X110400000Y-52800000D03*
X110400000Y-50500000D03*
X110400000Y-48200000D03*
D28*
X116600000Y-50500000D03*
D23*
X83500000Y-35462500D03*
X83500000Y-37537500D03*
D22*
X90766377Y-46733623D03*
X92233623Y-45266377D03*
D21*
X67537500Y-44000000D03*
X65462500Y-44000000D03*
D29*
X104500000Y-29000000D03*
X102500000Y-29000000D03*
D26*
X81500000Y-43537500D03*
X81500000Y-41462500D03*
D24*
X81500000Y-39500000D03*
X83500000Y-39500000D03*
D23*
X98000000Y-26962500D03*
X98000000Y-29037500D03*
D21*
X89037500Y-41500000D03*
X86962500Y-41500000D03*
D29*
X67572000Y-41656000D03*
X65572000Y-41656000D03*
D30*
X81500000Y-32000000D03*
X113500000Y-38000000D03*
D31*
X54944022Y-60196685D03*
D30*
X96000000Y-29500000D03*
X109500000Y-44000000D03*
X101000000Y-29500000D03*
X93000000Y-43000000D03*
X87000000Y-46500000D03*
X93000000Y-47000000D03*
X87500000Y-55000000D03*
X94500000Y-30000000D03*
X93500000Y-36000000D03*
X87500000Y-32000000D03*
X78000000Y-43000000D03*
X79750000Y-44250000D03*
X80500000Y-33500000D03*
X89233623Y-47233623D03*
X92482802Y-42095000D03*
X82000000Y-46500000D03*
X113000000Y-42500000D03*
X91000000Y-33500000D03*
X92500000Y-37000000D03*
X82500000Y-32000000D03*
X89000000Y-30000000D03*
X110500000Y-36500000D03*
X110500000Y-46000000D03*
X92500000Y-32500000D03*
X78000000Y-41000000D03*
X104600000Y-35065687D03*
X101000000Y-34125000D03*
X103862637Y-35376010D03*
X101000000Y-34925003D03*
X93500000Y-41000000D03*
X93500000Y-40000000D03*
X93500000Y-39000000D03*
M02*
