G04 #@! TF.GenerationSoftware,KiCad,Pcbnew,8.0.7*
G04 #@! TF.CreationDate,2025-04-22T23:12:23-04:00*
G04 #@! TF.ProjectId,custom-keypad,63757374-6f6d-42d6-9b65-797061642e6b,rev?*
G04 #@! TF.SameCoordinates,Original*
G04 #@! TF.FileFunction,Copper,L1,Top*
G04 #@! TF.FilePolarity,Positive*
%FSLAX46Y46*%
G04 Gerber Fmt 4.6, Leading zero omitted, Abs format (unit mm)*
G04 Created by KiCad (PCBNEW 8.0.7) date 2025-04-22 23:12:23*
%MOMM*%
%LPD*%
G01*
G04 APERTURE LIST*
G04 Aperture macros list*
%AMRoundRect*
0 Rectangle with rounded corners*
0 $1 Rounding radius*
0 $2 $3 $4 $5 $6 $7 $8 $9 X,Y pos of 4 corners*
0 Add a 4 corners polygon primitive as box body*
4,1,4,$2,$3,$4,$5,$6,$7,$8,$9,$2,$3,0*
0 Add four circle primitives for the rounded corners*
1,1,$1+$1,$2,$3*
1,1,$1+$1,$4,$5*
1,1,$1+$1,$6,$7*
1,1,$1+$1,$8,$9*
0 Add four rect primitives between the rounded corners*
20,1,$1+$1,$2,$3,$4,$5,0*
20,1,$1+$1,$4,$5,$6,$7,0*
20,1,$1+$1,$6,$7,$8,$9,0*
20,1,$1+$1,$8,$9,$2,$3,0*%
%AMRotRect*
0 Rectangle, with rotation*
0 The origin of the aperture is its center*
0 $1 length*
0 $2 width*
0 $3 Rotation angle, in degrees counterclockwise*
0 Add horizontal line*
21,1,$1,$2,0,0,$3*%
G04 Aperture macros list end*
G04 #@! TA.AperFunction,SMDPad,CuDef*
%ADD10RoundRect,0.250000X-0.325000X-0.450000X0.325000X-0.450000X0.325000X0.450000X-0.325000X0.450000X0*%
G04 #@! TD*
G04 #@! TA.AperFunction,SMDPad,CuDef*
%ADD11RoundRect,0.250000X0.350000X0.450000X-0.350000X0.450000X-0.350000X-0.450000X0.350000X-0.450000X0*%
G04 #@! TD*
G04 #@! TA.AperFunction,ComponentPad*
%ADD12C,2.286000*%
G04 #@! TD*
G04 #@! TA.AperFunction,SMDPad,CuDef*
%ADD13R,1.200000X0.600000*%
G04 #@! TD*
G04 #@! TA.AperFunction,SMDPad,CuDef*
%ADD14RoundRect,0.250000X0.325000X0.450000X-0.325000X0.450000X-0.325000X-0.450000X0.325000X-0.450000X0*%
G04 #@! TD*
G04 #@! TA.AperFunction,SMDPad,CuDef*
%ADD15RoundRect,0.250000X-0.337500X-0.475000X0.337500X-0.475000X0.337500X0.475000X-0.337500X0.475000X0*%
G04 #@! TD*
G04 #@! TA.AperFunction,ComponentPad*
%ADD16R,1.650000X1.650000*%
G04 #@! TD*
G04 #@! TA.AperFunction,ComponentPad*
%ADD17C,1.650000*%
G04 #@! TD*
G04 #@! TA.AperFunction,SMDPad,CuDef*
%ADD18R,1.550000X1.300000*%
G04 #@! TD*
G04 #@! TA.AperFunction,SMDPad,CuDef*
%ADD19RotRect,0.700000X0.750000X45.000000*%
G04 #@! TD*
G04 #@! TA.AperFunction,SMDPad,CuDef*
%ADD20RoundRect,0.250000X0.565685X0.070711X0.070711X0.565685X-0.565685X-0.070711X-0.070711X-0.565685X0*%
G04 #@! TD*
G04 #@! TA.AperFunction,SMDPad,CuDef*
%ADD21RoundRect,0.250000X-0.097227X0.574524X-0.574524X0.097227X0.097227X-0.574524X0.574524X-0.097227X0*%
G04 #@! TD*
G04 #@! TA.AperFunction,ComponentPad*
%ADD22C,1.800000*%
G04 #@! TD*
G04 #@! TA.AperFunction,ComponentPad*
%ADD23C,4.950000*%
G04 #@! TD*
G04 #@! TA.AperFunction,SMDPad,CuDef*
%ADD24RoundRect,0.250000X-0.350000X-0.450000X0.350000X-0.450000X0.350000X0.450000X-0.350000X0.450000X0*%
G04 #@! TD*
G04 #@! TA.AperFunction,SMDPad,CuDef*
%ADD25RoundRect,0.075000X0.075000X-0.700000X0.075000X0.700000X-0.075000X0.700000X-0.075000X-0.700000X0*%
G04 #@! TD*
G04 #@! TA.AperFunction,SMDPad,CuDef*
%ADD26RoundRect,0.075000X0.700000X-0.075000X0.700000X0.075000X-0.700000X0.075000X-0.700000X-0.075000X0*%
G04 #@! TD*
G04 #@! TA.AperFunction,SMDPad,CuDef*
%ADD27R,0.300000X1.700000*%
G04 #@! TD*
G04 #@! TA.AperFunction,ComponentPad*
%ADD28C,0.650000*%
G04 #@! TD*
G04 #@! TA.AperFunction,ComponentPad*
%ADD29C,1.815000*%
G04 #@! TD*
G04 #@! TA.AperFunction,SMDPad,CuDef*
%ADD30R,1.000000X1.200000*%
G04 #@! TD*
G04 #@! TA.AperFunction,SMDPad,CuDef*
%ADD31RoundRect,0.250000X-0.574524X-0.097227X-0.097227X-0.574524X0.574524X0.097227X0.097227X0.574524X0*%
G04 #@! TD*
G04 #@! TA.AperFunction,ViaPad*
%ADD32C,0.600000*%
G04 #@! TD*
G04 #@! TA.AperFunction,ViaPad*
%ADD33C,6.000000*%
G04 #@! TD*
G04 #@! TA.AperFunction,Conductor*
%ADD34C,0.200000*%
G04 #@! TD*
G04 APERTURE END LIST*
D10*
X115561002Y-38100000D03*
X117611000Y-38100000D03*
D11*
X55610000Y-42418000D03*
X53610000Y-42418000D03*
D12*
X68942000Y-77724000D03*
X62592000Y-80264000D03*
D13*
X93250000Y-30950000D03*
X93250000Y-30000000D03*
X93250000Y-29050000D03*
X90750000Y-29050000D03*
X90750000Y-30000000D03*
X90750000Y-30950000D03*
D12*
X87842000Y-77724000D03*
X81492000Y-80264000D03*
D14*
X55634999Y-38862000D03*
X53585001Y-38862000D03*
D15*
X96462500Y-37500000D03*
X98537500Y-37500000D03*
D16*
X62738000Y-27500000D03*
D17*
X65278000Y-27500000D03*
X67818000Y-27500000D03*
X70358000Y-27500000D03*
X72898000Y-27500000D03*
D11*
X55610000Y-45974000D03*
X53610000Y-45974000D03*
D18*
X96525000Y-40750000D03*
X96525000Y-45250000D03*
X104475000Y-40750000D03*
X104475000Y-45250000D03*
D19*
X82669150Y-50376256D03*
X83623744Y-51330850D03*
X84330850Y-50623744D03*
X83376256Y-49669150D03*
D20*
X86707107Y-49207107D03*
X85292893Y-47792893D03*
D21*
X86733623Y-51766377D03*
X85266377Y-53233623D03*
D22*
X64500000Y-47500000D03*
X69500000Y-47500000D03*
X67000000Y-47500000D03*
X64500000Y-33000000D03*
X69500000Y-33000000D03*
D23*
X62350000Y-40000000D03*
X71650000Y-40000000D03*
D12*
X68942000Y-58928000D03*
X62592000Y-61468000D03*
D24*
X115586000Y-41656000D03*
X117586000Y-41656000D03*
D12*
X106742000Y-77724000D03*
X100392000Y-80264000D03*
D11*
X111490000Y-41656000D03*
X109490000Y-41656000D03*
D25*
X81638000Y-45120000D03*
X82138000Y-45120000D03*
X82638000Y-45120000D03*
X83138000Y-45120000D03*
X83638000Y-45120000D03*
X84138000Y-45120000D03*
X84638000Y-45120000D03*
X85138000Y-45120000D03*
X85638000Y-45120000D03*
X86138000Y-45120000D03*
X86638000Y-45120000D03*
X87138000Y-45120000D03*
X87638000Y-45120000D03*
X88138000Y-45120000D03*
X88638000Y-45120000D03*
X89138000Y-45120000D03*
D26*
X91063000Y-43195000D03*
X91063000Y-42695000D03*
X91063000Y-42195000D03*
X91063000Y-41695000D03*
X91063000Y-41195000D03*
X91063000Y-40695000D03*
X91063000Y-40195000D03*
X91063000Y-39695000D03*
X91063000Y-39195000D03*
X91063000Y-38695000D03*
X91063000Y-38195000D03*
X91063000Y-37695000D03*
X91063000Y-37195000D03*
X91063000Y-36695000D03*
X91063000Y-36195000D03*
X91063000Y-35695000D03*
D25*
X89138000Y-33770000D03*
X88638000Y-33770000D03*
X88138000Y-33770000D03*
X87638000Y-33770000D03*
X87138000Y-33770000D03*
X86638000Y-33770000D03*
X86138000Y-33770000D03*
X85638000Y-33770000D03*
X85138000Y-33770000D03*
X84638000Y-33770000D03*
X84138000Y-33770000D03*
X83638000Y-33770000D03*
X83138000Y-33770000D03*
X82638000Y-33770000D03*
X82138000Y-33770000D03*
X81638000Y-33770000D03*
D26*
X79713000Y-35695000D03*
X79713000Y-36195000D03*
X79713000Y-36695000D03*
X79713000Y-37195000D03*
X79713000Y-37695000D03*
X79713000Y-38195000D03*
X79713000Y-38695000D03*
X79713000Y-39195000D03*
X79713000Y-39695000D03*
X79713000Y-40195000D03*
X79713000Y-40695000D03*
X79713000Y-41195000D03*
X79713000Y-41695000D03*
X79713000Y-42195000D03*
X79713000Y-42695000D03*
X79713000Y-43195000D03*
D27*
X107250000Y-33060000D03*
X106750000Y-33060000D03*
X106250000Y-33060000D03*
X105750000Y-33060000D03*
X105250000Y-33060000D03*
X104750000Y-33060000D03*
X104250000Y-33060000D03*
X103750000Y-33060000D03*
X103250000Y-33060000D03*
X102750000Y-33060000D03*
X102250000Y-33060000D03*
X101750000Y-33060000D03*
D28*
X101450000Y-31450000D03*
X102100000Y-30750000D03*
X102900000Y-30750000D03*
X103300000Y-31450000D03*
X103700000Y-30750000D03*
X104100000Y-31450000D03*
X104900000Y-31450000D03*
X105300000Y-30750000D03*
X105700000Y-31450000D03*
X106100000Y-30750000D03*
X106900000Y-30750000D03*
X107550000Y-31450000D03*
D29*
X109000000Y-32250000D03*
X100000000Y-32250000D03*
D30*
X109600000Y-28250000D03*
X99400000Y-28250000D03*
D24*
X113000000Y-34000000D03*
X115000000Y-34000000D03*
D14*
X55634999Y-49530000D03*
X53585001Y-49530000D03*
D12*
X87842000Y-58928000D03*
X81492000Y-61468000D03*
D31*
X80766377Y-51766377D03*
X82233623Y-53233623D03*
D14*
X111514999Y-38100000D03*
X109465001Y-38100000D03*
D12*
X106742000Y-58928000D03*
X100392000Y-61468000D03*
D32*
X81500000Y-32000000D03*
X113500000Y-38000000D03*
D33*
X54944022Y-60196685D03*
D32*
X96000000Y-29500000D03*
X109500000Y-44000000D03*
X101000000Y-29500000D03*
X93000000Y-43000000D03*
X87000000Y-46500000D03*
X93000000Y-47000000D03*
X87500000Y-55000000D03*
X94500000Y-30000000D03*
X93500000Y-36000000D03*
X87500000Y-32000000D03*
X78000000Y-43000000D03*
X79750000Y-44250000D03*
X80500000Y-33500000D03*
X89233623Y-47233623D03*
X92482802Y-42095000D03*
X82000000Y-46500000D03*
X113000000Y-42500000D03*
X91000000Y-33500000D03*
X92500000Y-37000000D03*
X82500000Y-32000000D03*
X89000000Y-30000000D03*
X110500000Y-36500000D03*
X110500000Y-46000000D03*
X92500000Y-32500000D03*
X78000000Y-41000000D03*
X104600000Y-35065687D03*
X101000000Y-34125000D03*
X103862637Y-35376010D03*
X101000000Y-34925003D03*
X93500000Y-41000000D03*
X93500000Y-40000000D03*
X93500000Y-39000000D03*
D34*
X93250000Y-30000000D02*
X94500000Y-30000000D01*
X82138000Y-32962590D02*
X82138000Y-33770000D01*
X96525000Y-45250000D02*
X96525000Y-46525000D01*
X82233623Y-53233623D02*
X83500000Y-54500000D01*
X83500000Y-54500000D02*
X84000000Y-54500000D01*
X81500000Y-32000000D02*
X81500000Y-32324590D01*
X92805000Y-36195000D02*
X91063000Y-36195000D01*
X115561002Y-38100000D02*
X115561002Y-36061002D01*
X55634999Y-59505708D02*
X54944022Y-60196685D01*
X101750000Y-33060000D02*
X101750000Y-31750000D01*
X89800000Y-31500000D02*
X89850000Y-31550000D01*
X111514999Y-38100000D02*
X115561002Y-38100000D01*
X114000000Y-43000000D02*
X113500000Y-43500000D01*
X55610000Y-49505000D02*
X55635000Y-49530000D01*
X114000000Y-42000000D02*
X114000000Y-43000000D01*
X96525000Y-46525000D02*
X97500000Y-47500000D01*
X92596471Y-42695000D02*
X92901471Y-43000000D01*
X90550000Y-31550000D02*
X93500000Y-34500000D01*
X87032754Y-55000000D02*
X87500000Y-55000000D01*
X87138000Y-45120000D02*
X87138000Y-46362000D01*
X101000000Y-29500000D02*
X99500000Y-29500000D01*
X78000000Y-43000000D02*
X78305000Y-42695000D01*
X101750000Y-31750000D02*
X101450000Y-31450000D01*
X98537500Y-36537500D02*
X98537500Y-37500000D01*
X107250000Y-33060000D02*
X107550000Y-32760000D01*
X78305000Y-42695000D02*
X79713000Y-42695000D01*
X93000000Y-47000000D02*
X94750000Y-45250000D01*
X97500000Y-47500000D02*
X103000000Y-47500000D01*
X89850000Y-31550000D02*
X90550000Y-31550000D01*
X93500000Y-34500000D02*
X93500000Y-36000000D01*
X96500000Y-30000000D02*
X96000000Y-29500000D01*
X93000000Y-36000000D02*
X92805000Y-36195000D01*
X93000000Y-36000000D02*
X98000000Y-36000000D01*
X115000000Y-35500000D02*
X115000000Y-34000000D01*
X91063000Y-42695000D02*
X92596471Y-42695000D01*
X88000000Y-31500000D02*
X89800000Y-31500000D01*
X104475000Y-46025000D02*
X104475000Y-45250000D01*
X115561002Y-36061002D02*
X115000000Y-35500000D01*
X94750000Y-45250000D02*
X96525000Y-45250000D01*
X103000000Y-47500000D02*
X104475000Y-46025000D01*
X85266377Y-53233623D02*
X87032754Y-55000000D01*
X87500000Y-32000000D02*
X88000000Y-31500000D01*
X99000000Y-30000000D02*
X96500000Y-30000000D01*
X98000000Y-36000000D02*
X98537500Y-36537500D01*
X113500000Y-41500000D02*
X113500000Y-38000000D01*
X92901471Y-43000000D02*
X93000000Y-43000000D01*
X107550000Y-32760000D02*
X107550000Y-31450000D01*
X99500000Y-29500000D02*
X99000000Y-30000000D01*
X113500000Y-43500000D02*
X110000000Y-43500000D01*
X87138000Y-46362000D02*
X87000000Y-46500000D01*
X114000000Y-42000000D02*
X113500000Y-41500000D01*
X81500000Y-32324590D02*
X82138000Y-32962590D01*
X84000000Y-54500000D02*
X85266377Y-53233623D01*
X110000000Y-43500000D02*
X109500000Y-44000000D01*
X55634999Y-49530000D02*
X55634999Y-59505708D01*
X106742000Y-77724000D02*
X87842000Y-77724000D01*
X113000000Y-42000000D02*
X112656000Y-41656000D01*
X92382802Y-42195000D02*
X91063000Y-42195000D01*
X87842000Y-77724000D02*
X68942000Y-77724000D01*
X106742000Y-58928000D02*
X87842000Y-58928000D01*
X82000000Y-46500000D02*
X81638000Y-46138000D01*
X87638000Y-45927410D02*
X87638000Y-45120000D01*
X79713000Y-44213000D02*
X79713000Y-43195000D01*
X112656000Y-41656000D02*
X111490000Y-41656000D01*
X92482802Y-42095000D02*
X92382802Y-42195000D01*
X91000000Y-33500000D02*
X91063000Y-33563000D01*
X81638000Y-46138000D02*
X81638000Y-45120000D01*
X113000000Y-42500000D02*
X113000000Y-42000000D01*
X80770000Y-33770000D02*
X81638000Y-33770000D01*
X88944213Y-47233623D02*
X87638000Y-45927410D01*
X89233623Y-47233623D02*
X88944213Y-47233623D01*
X79750000Y-44250000D02*
X79713000Y-44213000D01*
X91063000Y-33563000D02*
X91063000Y-35695000D01*
X80500000Y-33500000D02*
X80770000Y-33770000D01*
X91063000Y-36695000D02*
X92195000Y-36695000D01*
X92195000Y-36695000D02*
X92500000Y-37000000D01*
X82600000Y-32100000D02*
X82500000Y-32000000D01*
X82638000Y-33770000D02*
X82600000Y-33732000D01*
X82600000Y-33732000D02*
X82600000Y-32100000D01*
X103850000Y-32000000D02*
X103300000Y-31450000D01*
X95500000Y-35000000D02*
X95000000Y-35000000D01*
X105150000Y-32000000D02*
X103850000Y-32000000D01*
X103250000Y-33060000D02*
X103250000Y-31500000D01*
X110500000Y-36500000D02*
X109000000Y-36500000D01*
X105700000Y-31450000D02*
X105150000Y-32000000D01*
X100500000Y-37500000D02*
X98500000Y-35500000D01*
X103250000Y-31500000D02*
X103300000Y-31450000D01*
X105750000Y-31500000D02*
X105700000Y-31450000D01*
X108000000Y-37500000D02*
X100500000Y-37500000D01*
X96000000Y-35500000D02*
X95500000Y-35000000D01*
X90750000Y-30000000D02*
X89000000Y-30000000D01*
X109000000Y-36500000D02*
X108000000Y-37500000D01*
X115586000Y-43914000D02*
X115586000Y-41656000D01*
X110500000Y-46000000D02*
X111500000Y-46000000D01*
X111500000Y-46000000D02*
X113000000Y-44500000D01*
X98500000Y-35500000D02*
X96000000Y-35500000D01*
X95000000Y-35000000D02*
X92500000Y-32500000D01*
X115000000Y-44500000D02*
X115586000Y-43914000D01*
X113000000Y-44500000D02*
X115000000Y-44500000D01*
X105750000Y-33060000D02*
X105750000Y-31500000D01*
X82000000Y-49707106D02*
X82669150Y-50376256D01*
X83638000Y-45120000D02*
X83638000Y-46862000D01*
X81279029Y-51766377D02*
X82669150Y-50376256D01*
X80766377Y-51766377D02*
X81279029Y-51766377D01*
X83638000Y-46862000D02*
X82000000Y-48500000D01*
X82000000Y-48500000D02*
X82000000Y-49707106D01*
X84707106Y-51000000D02*
X85967246Y-51000000D01*
X84954594Y-50000000D02*
X85914214Y-50000000D01*
X85967246Y-51000000D02*
X86733623Y-51766377D01*
X84330850Y-50623744D02*
X84954594Y-50000000D01*
X84330850Y-50623744D02*
X84707106Y-51000000D01*
X85914214Y-50000000D02*
X86707107Y-49207107D01*
X79713000Y-41195000D02*
X78195000Y-41195000D01*
X78195000Y-41195000D02*
X78000000Y-41000000D01*
X84138000Y-46638000D02*
X84138000Y-45120000D01*
X85292893Y-47792893D02*
X84138000Y-46638000D01*
X90750000Y-29050000D02*
X89849999Y-29050000D01*
X83663000Y-32582499D02*
X83638000Y-32607499D01*
X83638000Y-32607499D02*
X83638000Y-33770000D01*
X89849999Y-29050000D02*
X89499999Y-29400000D01*
X88376471Y-29775000D02*
X84406800Y-29775000D01*
X84406800Y-29775000D02*
X83663000Y-30518800D01*
X83663000Y-30518800D02*
X83663000Y-32582499D01*
X88751471Y-29400000D02*
X88376471Y-29775000D01*
X89499999Y-29400000D02*
X88751471Y-29400000D01*
X70500000Y-29500000D02*
X70500000Y-29000000D01*
X70358000Y-28858000D02*
X70358000Y-27500000D01*
X71000000Y-30000000D02*
X70500000Y-29500000D01*
X81000000Y-29500000D02*
X73000000Y-29500000D01*
X73000000Y-29500000D02*
X72500000Y-30000000D01*
X83138000Y-31638000D02*
X81000000Y-29500000D01*
X70500000Y-29000000D02*
X70358000Y-28858000D01*
X83138000Y-33770000D02*
X83138000Y-31638000D01*
X72500000Y-30000000D02*
X71000000Y-30000000D01*
X84113000Y-32582499D02*
X84138000Y-32607499D01*
X89849999Y-30950000D02*
X89499999Y-30600000D01*
X88376471Y-30225000D02*
X84593200Y-30225000D01*
X88751471Y-30600000D02*
X88376471Y-30225000D01*
X89499999Y-30600000D02*
X88751471Y-30600000D01*
X90750000Y-30950000D02*
X89849999Y-30950000D01*
X84593200Y-30225000D02*
X84113000Y-30705200D01*
X84138000Y-32607499D02*
X84138000Y-33770000D01*
X84113000Y-30705200D02*
X84113000Y-32582499D01*
X66500000Y-31000000D02*
X65278000Y-29778000D01*
X73000000Y-31000000D02*
X66500000Y-31000000D01*
X65278000Y-29778000D02*
X65278000Y-27500000D01*
X79713000Y-35695000D02*
X77695000Y-35695000D01*
X77695000Y-35695000D02*
X73000000Y-31000000D01*
X104100000Y-31450000D02*
X104274999Y-31275001D01*
X94748529Y-29400000D02*
X93900000Y-29400000D01*
X104600000Y-35065687D02*
X104750000Y-34915687D01*
X93900000Y-29400000D02*
X93550000Y-29050000D01*
X101000000Y-34125000D02*
X99473529Y-34125000D01*
X93550000Y-29050000D02*
X93250000Y-29050000D01*
X104750000Y-34915687D02*
X104750000Y-33060000D01*
X104100000Y-31450000D02*
X104275000Y-31275000D01*
X99473529Y-34125000D02*
X94748529Y-29400000D01*
X104900000Y-31450000D02*
X104725001Y-31275001D01*
X99106804Y-34925003D02*
X94781801Y-30600000D01*
X104275000Y-33792548D02*
X104275000Y-33785000D01*
X104000000Y-34817158D02*
X104275000Y-34542158D01*
X103862637Y-35376010D02*
X104000000Y-35238647D01*
X101000000Y-34925003D02*
X99106804Y-34925003D01*
X104250000Y-33760000D02*
X104250000Y-33060000D01*
X94781801Y-30600000D02*
X93900000Y-30600000D01*
X93900000Y-30600000D02*
X93550000Y-30950000D01*
X104900000Y-31450000D02*
X104725000Y-31275000D01*
X104275000Y-34542158D02*
X104275000Y-33785000D01*
X93550000Y-30950000D02*
X93250000Y-30950000D01*
X104000000Y-35238647D02*
X104000000Y-34817158D01*
X104275000Y-33785000D02*
X104250000Y-33760000D01*
X109465001Y-41631001D02*
X109490000Y-41656000D01*
X109465001Y-38100000D02*
X109465001Y-41631001D01*
X53610000Y-42418000D02*
X53610000Y-38886999D01*
X53610000Y-38886999D02*
X53585001Y-38862000D01*
X53610000Y-49505001D02*
X53585001Y-49530000D01*
X53610000Y-45974000D02*
X53610000Y-49505001D01*
X117611000Y-38100000D02*
X117611000Y-41631000D01*
X117611000Y-41631000D02*
X117586000Y-41656000D01*
X111500000Y-34000000D02*
X110000000Y-35500000D01*
X105500000Y-35500000D02*
X105250000Y-35250000D01*
X105250000Y-33060000D02*
X105250000Y-33760000D01*
X110000000Y-35500000D02*
X105500000Y-35500000D01*
X105250000Y-35250000D02*
X105250000Y-33060000D01*
X113000000Y-34000000D02*
X111500000Y-34000000D01*
X95250000Y-40750000D02*
X94000000Y-42000000D01*
X85276000Y-43000000D02*
X84638000Y-43638000D01*
X96525000Y-40750000D02*
X96525000Y-37562500D01*
X88000000Y-43000000D02*
X85276000Y-43000000D01*
X96525000Y-37562500D02*
X96462500Y-37500000D01*
X94000000Y-43500000D02*
X93500000Y-44000000D01*
X89000000Y-44000000D02*
X88000000Y-43000000D01*
X94000000Y-42000000D02*
X94000000Y-43500000D01*
X84638000Y-43638000D02*
X84638000Y-45120000D01*
X93500000Y-44000000D02*
X89000000Y-44000000D01*
X96525000Y-40750000D02*
X95250000Y-40750000D01*
X74165686Y-45900000D02*
X75000000Y-45065686D01*
X69500000Y-47500000D02*
X72000000Y-47500000D01*
X75805000Y-39195000D02*
X79713000Y-39195000D01*
X73600000Y-45900000D02*
X74165686Y-45900000D01*
X72000000Y-47500000D02*
X73600000Y-45900000D01*
X75000000Y-45065686D02*
X75000000Y-40000000D01*
X75000000Y-40000000D02*
X75805000Y-39195000D01*
X66500000Y-45500000D02*
X74000000Y-45500000D01*
X74600000Y-39834314D02*
X75739314Y-38695000D01*
X75739314Y-38695000D02*
X79713000Y-38695000D01*
X74000000Y-45500000D02*
X74600000Y-44900000D01*
X64500000Y-47500000D02*
X66500000Y-45500000D01*
X74600000Y-44900000D02*
X74600000Y-39834314D01*
X71500000Y-34500000D02*
X71000000Y-34500000D01*
X79713000Y-36195000D02*
X73195000Y-36195000D01*
X73195000Y-36195000D02*
X71500000Y-34500000D01*
X71000000Y-34500000D02*
X69500000Y-33000000D01*
X56582000Y-42418000D02*
X55610000Y-42418000D01*
X74195000Y-37195000D02*
X73595000Y-36595000D01*
X61000000Y-36000000D02*
X57500000Y-39500000D01*
X73595000Y-36595000D02*
X73029314Y-36595000D01*
X57500000Y-41500000D02*
X56582000Y-42418000D01*
X57500000Y-39500000D02*
X57500000Y-41500000D01*
X55634999Y-42393001D02*
X55610000Y-42418000D01*
X73029314Y-36595000D02*
X72795000Y-36360685D01*
X72434314Y-36000000D02*
X61000000Y-36000000D01*
X79713000Y-37195000D02*
X74195000Y-37195000D01*
X72795000Y-36360685D02*
X72434314Y-36000000D01*
X72629314Y-36760684D02*
X72368630Y-36500000D01*
X58000000Y-45000000D02*
X57026000Y-45974000D01*
X73429314Y-36995000D02*
X72863629Y-36995000D01*
X72368630Y-36500000D02*
X61065686Y-36500000D01*
X61065686Y-36500000D02*
X58000000Y-39565686D01*
X58000000Y-39565686D02*
X58000000Y-45000000D01*
X57026000Y-45974000D02*
X55610000Y-45974000D01*
X74129314Y-37695000D02*
X73429314Y-36995000D01*
X79713000Y-37695000D02*
X74129314Y-37695000D01*
X72863629Y-36995000D02*
X72629314Y-36760684D01*
X75500000Y-40500000D02*
X76305000Y-39695000D01*
X64000000Y-56000000D02*
X68000000Y-56000000D01*
X75500000Y-45565686D02*
X75500000Y-40500000D01*
X73000000Y-48065686D02*
X75500000Y-45565686D01*
X62592000Y-57408000D02*
X64000000Y-56000000D01*
X76305000Y-39695000D02*
X79713000Y-39695000D01*
X68000000Y-56000000D02*
X73000000Y-51000000D01*
X62592000Y-61468000D02*
X62592000Y-57408000D01*
X73000000Y-51000000D02*
X73000000Y-48065686D01*
X77500000Y-49000000D02*
X76500000Y-48000000D01*
X81492000Y-61468000D02*
X77968000Y-61468000D01*
X76500000Y-48000000D02*
X76500000Y-43000000D01*
X77968000Y-61468000D02*
X77500000Y-61000000D01*
X77500000Y-61000000D02*
X77500000Y-49000000D01*
X76500000Y-43000000D02*
X77305000Y-42195000D01*
X77305000Y-42195000D02*
X79713000Y-42195000D01*
X73500000Y-73500000D02*
X76000000Y-71000000D01*
X76000000Y-41000000D02*
X76805000Y-40195000D01*
X62592000Y-74408000D02*
X63500000Y-73500000D01*
X63500000Y-73500000D02*
X73500000Y-73500000D01*
X76000000Y-71000000D02*
X76000000Y-41000000D01*
X76805000Y-40195000D02*
X79713000Y-40195000D01*
X62592000Y-80264000D02*
X62592000Y-74408000D01*
X93195000Y-40695000D02*
X91063000Y-40695000D01*
X93500000Y-41000000D02*
X93195000Y-40695000D01*
X93195000Y-39695000D02*
X91063000Y-39695000D01*
X93500000Y-40000000D02*
X93195000Y-39695000D01*
X93500000Y-39000000D02*
X93195000Y-38695000D01*
X93195000Y-38695000D02*
X91063000Y-38695000D01*
G04 #@! TA.AperFunction,Conductor*
G36*
X61497382Y-26174185D02*
G01*
X61543137Y-26226989D01*
X61553081Y-26296147D01*
X61529610Y-26352811D01*
X61469646Y-26432911D01*
X61469645Y-26432913D01*
X61419403Y-26567620D01*
X61419401Y-26567627D01*
X61413000Y-26627155D01*
X61413000Y-28372844D01*
X61419401Y-28432372D01*
X61419402Y-28432376D01*
X61428277Y-28456170D01*
X62214212Y-27670235D01*
X62225482Y-27712292D01*
X62297890Y-27837708D01*
X62400292Y-27940110D01*
X62525708Y-28012518D01*
X62567763Y-28023786D01*
X61781828Y-28809721D01*
X61781829Y-28809722D01*
X61805623Y-28818597D01*
X61805627Y-28818598D01*
X61865155Y-28824999D01*
X61865172Y-28825000D01*
X63610828Y-28825000D01*
X63610844Y-28824999D01*
X63670376Y-28818598D01*
X63670377Y-28818597D01*
X63694170Y-28809722D01*
X63694170Y-28809720D01*
X62908236Y-28023786D01*
X62950292Y-28012518D01*
X63075708Y-27940110D01*
X63178110Y-27837708D01*
X63250518Y-27712292D01*
X63261787Y-27670235D01*
X64047722Y-28456170D01*
X64047723Y-28456170D01*
X64056598Y-28432375D01*
X64058382Y-28424827D01*
X64061163Y-28425484D01*
X64082717Y-28373410D01*
X64140099Y-28333546D01*
X64209923Y-28331034D01*
X64266970Y-28363509D01*
X64422731Y-28519270D01*
X64612718Y-28652301D01*
X64612729Y-28652306D01*
X64615496Y-28653904D01*
X64616476Y-28654932D01*
X64617153Y-28655406D01*
X64617057Y-28655541D01*
X64663713Y-28704470D01*
X64677500Y-28761294D01*
X64677500Y-29691330D01*
X64677499Y-29691348D01*
X64677499Y-29857054D01*
X64677498Y-29857054D01*
X64718423Y-30009786D01*
X64729136Y-30028340D01*
X64729137Y-30028342D01*
X64797477Y-30146712D01*
X64797481Y-30146717D01*
X64916349Y-30265585D01*
X64916355Y-30265590D01*
X66015139Y-31364374D01*
X66015149Y-31364385D01*
X66019479Y-31368715D01*
X66019480Y-31368716D01*
X66131284Y-31480520D01*
X66198767Y-31519481D01*
X66268215Y-31559577D01*
X66420943Y-31600501D01*
X66420946Y-31600501D01*
X66586653Y-31600501D01*
X66586669Y-31600500D01*
X68656723Y-31600500D01*
X68723762Y-31620185D01*
X68769517Y-31672989D01*
X68779461Y-31742147D01*
X68750436Y-31805703D01*
X68732885Y-31822354D01*
X68548224Y-31966081D01*
X68548216Y-31966087D01*
X68546535Y-31967913D01*
X68391016Y-32136852D01*
X68264075Y-32331151D01*
X68170842Y-32543699D01*
X68113866Y-32768691D01*
X68113864Y-32768702D01*
X68094700Y-32999993D01*
X68094700Y-33000006D01*
X68113864Y-33231297D01*
X68113866Y-33231308D01*
X68170842Y-33456300D01*
X68264075Y-33668848D01*
X68391016Y-33863147D01*
X68391019Y-33863151D01*
X68391021Y-33863153D01*
X68548216Y-34033913D01*
X68548219Y-34033915D01*
X68548222Y-34033918D01*
X68731365Y-34176464D01*
X68731371Y-34176468D01*
X68731374Y-34176470D01*
X68852574Y-34242060D01*
X68932599Y-34285368D01*
X68935497Y-34286936D01*
X69049487Y-34326068D01*
X69155015Y-34362297D01*
X69155017Y-34362297D01*
X69155019Y-34362298D01*
X69383951Y-34400500D01*
X69383952Y-34400500D01*
X69616048Y-34400500D01*
X69616049Y-34400500D01*
X69844981Y-34362298D01*
X69896897Y-34344474D01*
X69966693Y-34341324D01*
X70024840Y-34374075D01*
X70515139Y-34864374D01*
X70515149Y-34864385D01*
X70519479Y-34868715D01*
X70519480Y-34868716D01*
X70631284Y-34980520D01*
X70631286Y-34980521D01*
X70631290Y-34980524D01*
X70765798Y-35058181D01*
X70768216Y-35059577D01*
X70880019Y-35089534D01*
X70920942Y-35100500D01*
X70920943Y-35100500D01*
X71199903Y-35100500D01*
X71266942Y-35120185D01*
X71287584Y-35136819D01*
X71338584Y-35187819D01*
X71372069Y-35249142D01*
X71367085Y-35318834D01*
X71325213Y-35374767D01*
X71259749Y-35399184D01*
X71250903Y-35399500D01*
X60920940Y-35399500D01*
X60880019Y-35410464D01*
X60880019Y-35410465D01*
X60842751Y-35420451D01*
X60768214Y-35440423D01*
X60768209Y-35440426D01*
X60631290Y-35519475D01*
X60631284Y-35519480D01*
X57019481Y-39131282D01*
X57019479Y-39131284D01*
X57010166Y-39147416D01*
X56991094Y-39180451D01*
X56959972Y-39234356D01*
X56941386Y-39266547D01*
X56890818Y-39314762D01*
X56822211Y-39327984D01*
X56757346Y-39302016D01*
X56716819Y-39245101D01*
X56709999Y-39204546D01*
X56709999Y-39112000D01*
X55884999Y-39112000D01*
X55884999Y-40061999D01*
X56009971Y-40061999D01*
X56009985Y-40061998D01*
X56112696Y-40051505D01*
X56279118Y-39996358D01*
X56279123Y-39996356D01*
X56428344Y-39904315D01*
X56552314Y-39780345D01*
X56644355Y-39631124D01*
X56644357Y-39631119D01*
X56657794Y-39590570D01*
X56697566Y-39533125D01*
X56762082Y-39506302D01*
X56830858Y-39518617D01*
X56882058Y-39566160D01*
X56899500Y-39629574D01*
X56899500Y-41199902D01*
X56879815Y-41266941D01*
X56863181Y-41287583D01*
X56689747Y-41461017D01*
X56628424Y-41494502D01*
X56558732Y-41489518D01*
X56514385Y-41461017D01*
X56428657Y-41375289D01*
X56428656Y-41375288D01*
X56306751Y-41300097D01*
X56279336Y-41283187D01*
X56279331Y-41283185D01*
X56277862Y-41282698D01*
X56112797Y-41228001D01*
X56112795Y-41228000D01*
X56010010Y-41217500D01*
X55209998Y-41217500D01*
X55209980Y-41217501D01*
X55107203Y-41228000D01*
X55107200Y-41228001D01*
X54940668Y-41283185D01*
X54940663Y-41283187D01*
X54791342Y-41375289D01*
X54697681Y-41468951D01*
X54636358Y-41502436D01*
X54566666Y-41497452D01*
X54522319Y-41468951D01*
X54428657Y-41375289D01*
X54428656Y-41375288D01*
X54279334Y-41283186D01*
X54279332Y-41283185D01*
X54273187Y-41279395D01*
X54274290Y-41277605D01*
X54229649Y-41238290D01*
X54210500Y-41172091D01*
X54210500Y-40077638D01*
X54230185Y-40010599D01*
X54269402Y-39972100D01*
X54378657Y-39904712D01*
X54502713Y-39780656D01*
X54504752Y-39777349D01*
X54506743Y-39775558D01*
X54507194Y-39774989D01*
X54507291Y-39775065D01*
X54556696Y-39730624D01*
X54625658Y-39719398D01*
X54689741Y-39747237D01*
X54715828Y-39777339D01*
X54717680Y-39780341D01*
X54717682Y-39780344D01*
X54841653Y-39904315D01*
X54990874Y-39996356D01*
X54990879Y-39996358D01*
X55157301Y-40051505D01*
X55157308Y-40051506D01*
X55260018Y-40061999D01*
X55384998Y-40061999D01*
X55384999Y-40061998D01*
X55384999Y-38612000D01*
X55884999Y-38612000D01*
X56709998Y-38612000D01*
X56709998Y-38362028D01*
X56709997Y-38362013D01*
X56699504Y-38259302D01*
X56644357Y-38092880D01*
X56644355Y-38092875D01*
X56552314Y-37943654D01*
X56428344Y-37819684D01*
X56279123Y-37727643D01*
X56279118Y-37727641D01*
X56112696Y-37672494D01*
X56112689Y-37672493D01*
X56009985Y-37662000D01*
X55884999Y-37662000D01*
X55884999Y-38612000D01*
X55384999Y-38612000D01*
X55384999Y-37662000D01*
X55260026Y-37662000D01*
X55260011Y-37662001D01*
X55157301Y-37672494D01*
X54990879Y-37727641D01*
X54990874Y-37727643D01*
X54841653Y-37819684D01*
X54717678Y-37943659D01*
X54715825Y-37946665D01*
X54714017Y-37948290D01*
X54713201Y-37949323D01*
X54713024Y-37949183D01*
X54663872Y-37993384D01*
X54594908Y-38004599D01*
X54530829Y-37976749D01*
X54504754Y-37946653D01*
X54502713Y-37943344D01*
X54378658Y-37819289D01*
X54378657Y-37819288D01*
X54229335Y-37727186D01*
X54062798Y-37672001D01*
X54062796Y-37672000D01*
X53960011Y-37661500D01*
X53209999Y-37661500D01*
X53209981Y-37661501D01*
X53107204Y-37672000D01*
X53107201Y-37672001D01*
X52940669Y-37727185D01*
X52940664Y-37727187D01*
X52791343Y-37819289D01*
X52667290Y-37943342D01*
X52575188Y-38092663D01*
X52575186Y-38092668D01*
X52563581Y-38127690D01*
X52520002Y-38259203D01*
X52520002Y-38259204D01*
X52520001Y-38259204D01*
X52509501Y-38361983D01*
X52509501Y-39362001D01*
X52509502Y-39362019D01*
X52520001Y-39464796D01*
X52520002Y-39464799D01*
X52575186Y-39631331D01*
X52575188Y-39631336D01*
X52590527Y-39656204D01*
X52667289Y-39780656D01*
X52791345Y-39904712D01*
X52940667Y-39996814D01*
X52940668Y-39996814D01*
X52946814Y-40000605D01*
X52945705Y-40002401D01*
X52990329Y-40041673D01*
X53009500Y-40107907D01*
X53009500Y-41172091D01*
X52989815Y-41239130D01*
X52945731Y-41277641D01*
X52946813Y-41279395D01*
X52940667Y-41283185D01*
X52940666Y-41283186D01*
X52842419Y-41343784D01*
X52791342Y-41375289D01*
X52667289Y-41499342D01*
X52575187Y-41648663D01*
X52575185Y-41648668D01*
X52562572Y-41686731D01*
X52520001Y-41815203D01*
X52520001Y-41815204D01*
X52520000Y-41815204D01*
X52509501Y-41917981D01*
X52509500Y-41917993D01*
X52509500Y-42918001D01*
X52509501Y-42918019D01*
X52520000Y-43020796D01*
X52520001Y-43020799D01*
X52575185Y-43187331D01*
X52575187Y-43187336D01*
X52598904Y-43225788D01*
X52667288Y-43336656D01*
X52791344Y-43460712D01*
X52940666Y-43552814D01*
X53107203Y-43607999D01*
X53209991Y-43618500D01*
X54010008Y-43618499D01*
X54010016Y-43618498D01*
X54010019Y-43618498D01*
X54066302Y-43612748D01*
X54112797Y-43607999D01*
X54279334Y-43552814D01*
X54428656Y-43460712D01*
X54522319Y-43367049D01*
X54583642Y-43333564D01*
X54653334Y-43338548D01*
X54697681Y-43367049D01*
X54791344Y-43460712D01*
X54940666Y-43552814D01*
X55107203Y-43607999D01*
X55209991Y-43618500D01*
X56010008Y-43618499D01*
X56010016Y-43618498D01*
X56010019Y-43618498D01*
X56066302Y-43612748D01*
X56112797Y-43607999D01*
X56279334Y-43552814D01*
X56428656Y-43460712D01*
X56552712Y-43336656D01*
X56644814Y-43187334D01*
X56683598Y-43070290D01*
X56723371Y-43012846D01*
X56769208Y-42989521D01*
X56813785Y-42977577D01*
X56817383Y-42975500D01*
X56841272Y-42961707D01*
X56888344Y-42934530D01*
X56900121Y-42927731D01*
X56950709Y-42898524D01*
X56950708Y-42898524D01*
X56950716Y-42898520D01*
X57062520Y-42786716D01*
X57062520Y-42786714D01*
X57072721Y-42776514D01*
X57072724Y-42776509D01*
X57187822Y-42661412D01*
X57249142Y-42627930D01*
X57318834Y-42632914D01*
X57374767Y-42674786D01*
X57399184Y-42740250D01*
X57399500Y-42749096D01*
X57399500Y-44699903D01*
X57379815Y-44766942D01*
X57363181Y-44787584D01*
X56861953Y-45288811D01*
X56800630Y-45322296D01*
X56730938Y-45317312D01*
X56675005Y-45275440D01*
X56656567Y-45240136D01*
X56644814Y-45204666D01*
X56552712Y-45055344D01*
X56428656Y-44931288D01*
X56279334Y-44839186D01*
X56112797Y-44784001D01*
X56112795Y-44784000D01*
X56010010Y-44773500D01*
X55209998Y-44773500D01*
X55209980Y-44773501D01*
X55107203Y-44784000D01*
X55107200Y-44784001D01*
X54940668Y-44839185D01*
X54940663Y-44839187D01*
X54791342Y-44931289D01*
X54697681Y-45024951D01*
X54636358Y-45058436D01*
X54566666Y-45053452D01*
X54522319Y-45024951D01*
X54428657Y-44931289D01*
X54428656Y-44931288D01*
X54279334Y-44839186D01*
X54112797Y-44784001D01*
X54112795Y-44784000D01*
X54010010Y-44773500D01*
X53209998Y-44773500D01*
X53209980Y-44773501D01*
X53107203Y-44784000D01*
X53107200Y-44784001D01*
X52940668Y-44839185D01*
X52940663Y-44839187D01*
X52791342Y-44931289D01*
X52667289Y-45055342D01*
X52575187Y-45204663D01*
X52575185Y-45204668D01*
X52563433Y-45240133D01*
X52520001Y-45371203D01*
X52520001Y-45371204D01*
X52520000Y-45371204D01*
X52509500Y-45473983D01*
X52509500Y-46474001D01*
X52509501Y-46474019D01*
X52520000Y-46576796D01*
X52520001Y-46576799D01*
X52573955Y-46739618D01*
X52575186Y-46743334D01*
X52667288Y-46892656D01*
X52791344Y-47016712D01*
X52940666Y-47108814D01*
X52940667Y-47108814D01*
X52946813Y-47112605D01*
X52945706Y-47114399D01*
X52990337Y-47153687D01*
X53009500Y-47219908D01*
X53009500Y-48284091D01*
X52989815Y-48351130D01*
X52945733Y-48389642D01*
X52946814Y-48391395D01*
X52940668Y-48395185D01*
X52940667Y-48395186D01*
X52900599Y-48419900D01*
X52791343Y-48487289D01*
X52667290Y-48611342D01*
X52575188Y-48760663D01*
X52575186Y-48760668D01*
X52575116Y-48760880D01*
X52520002Y-48927203D01*
X52520002Y-48927204D01*
X52520001Y-48927204D01*
X52509501Y-49029983D01*
X52509501Y-50030001D01*
X52509502Y-50030019D01*
X52520001Y-50132796D01*
X52520002Y-50132799D01*
X52575116Y-50299119D01*
X52575187Y-50299334D01*
X52667289Y-50448656D01*
X52791345Y-50572712D01*
X52940667Y-50664814D01*
X53107204Y-50719999D01*
X53209992Y-50730500D01*
X53960009Y-50730499D01*
X53960017Y-50730498D01*
X53960020Y-50730498D01*
X54016303Y-50724748D01*
X54062798Y-50719999D01*
X54229335Y-50664814D01*
X54378657Y-50572712D01*
X54502713Y-50448656D01*
X54504752Y-50445349D01*
X54506743Y-50443558D01*
X54507194Y-50442989D01*
X54507291Y-50443065D01*
X54556696Y-50398624D01*
X54625658Y-50387398D01*
X54689741Y-50415237D01*
X54715828Y-50445339D01*
X54717680Y-50448341D01*
X54717682Y-50448344D01*
X54841653Y-50572315D01*
X54990874Y-50664356D01*
X54990879Y-50664358D01*
X55157301Y-50719505D01*
X55157308Y-50719506D01*
X55260018Y-50729999D01*
X55384998Y-50729999D01*
X55884999Y-50729999D01*
X56009971Y-50729999D01*
X56009985Y-50729998D01*
X56112696Y-50719505D01*
X56279118Y-50664358D01*
X56279123Y-50664356D01*
X56428344Y-50572315D01*
X56552314Y-50448345D01*
X56644355Y-50299124D01*
X56644357Y-50299119D01*
X56699504Y-50132697D01*
X56699505Y-50132690D01*
X56709998Y-50029986D01*
X56709999Y-50029973D01*
X56709999Y-49780000D01*
X55884999Y-49780000D01*
X55884999Y-50729999D01*
X55384998Y-50729999D01*
X55384999Y-50729998D01*
X55384999Y-49280000D01*
X55884999Y-49280000D01*
X56709998Y-49280000D01*
X56709998Y-49030028D01*
X56709997Y-49030013D01*
X56699504Y-48927302D01*
X56644357Y-48760880D01*
X56644355Y-48760875D01*
X56552314Y-48611654D01*
X56428344Y-48487684D01*
X56279123Y-48395643D01*
X56279118Y-48395641D01*
X56112696Y-48340494D01*
X56112689Y-48340493D01*
X56009985Y-48330000D01*
X55884999Y-48330000D01*
X55884999Y-49280000D01*
X55384999Y-49280000D01*
X55384999Y-48330000D01*
X55260026Y-48330000D01*
X55260011Y-48330001D01*
X55157301Y-48340494D01*
X54990879Y-48395641D01*
X54990874Y-48395643D01*
X54841653Y-48487684D01*
X54717678Y-48611659D01*
X54715825Y-48614665D01*
X54714017Y-48616290D01*
X54713201Y-48617323D01*
X54713024Y-48617183D01*
X54663872Y-48661384D01*
X54594908Y-48672599D01*
X54530829Y-48644749D01*
X54504754Y-48614653D01*
X54502713Y-48611344D01*
X54378658Y-48487289D01*
X54378657Y-48487288D01*
X54269402Y-48419899D01*
X54222679Y-48367952D01*
X54210500Y-48314361D01*
X54210500Y-47219908D01*
X54230185Y-47152869D01*
X54274271Y-47114363D01*
X54273187Y-47112605D01*
X54279332Y-47108814D01*
X54279334Y-47108814D01*
X54428656Y-47016712D01*
X54522319Y-46923049D01*
X54583642Y-46889564D01*
X54653334Y-46894548D01*
X54697681Y-46923049D01*
X54791344Y-47016712D01*
X54940666Y-47108814D01*
X55107203Y-47163999D01*
X55209991Y-47174500D01*
X56010008Y-47174499D01*
X56010016Y-47174498D01*
X56010019Y-47174498D01*
X56066302Y-47168748D01*
X56112797Y-47163999D01*
X56279334Y-47108814D01*
X56428656Y-47016712D01*
X56552712Y-46892656D01*
X56644814Y-46743334D01*
X56672595Y-46659495D01*
X56712368Y-46602051D01*
X56776884Y-46575228D01*
X56790301Y-46574500D01*
X56939331Y-46574500D01*
X56939347Y-46574501D01*
X56946943Y-46574501D01*
X57105054Y-46574501D01*
X57105057Y-46574501D01*
X57257785Y-46533577D01*
X57315074Y-46500501D01*
X57394716Y-46454520D01*
X57506520Y-46342716D01*
X57506520Y-46342714D01*
X57516724Y-46332511D01*
X57516728Y-46332506D01*
X58358506Y-45490728D01*
X58358511Y-45490724D01*
X58368714Y-45480520D01*
X58368716Y-45480520D01*
X58480520Y-45368716D01*
X58535082Y-45274211D01*
X58559577Y-45231785D01*
X58600501Y-45079057D01*
X58600501Y-44920943D01*
X58600501Y-44913348D01*
X58600500Y-44913330D01*
X58600500Y-39865782D01*
X58620185Y-39798743D01*
X58636814Y-39778105D01*
X59250933Y-39163986D01*
X59312256Y-39130502D01*
X59381948Y-39135486D01*
X59437881Y-39177358D01*
X59462298Y-39242822D01*
X59457405Y-39287230D01*
X59449798Y-39312637D01*
X59449794Y-39312656D01*
X59389611Y-39653968D01*
X59389610Y-39653979D01*
X59369457Y-39999996D01*
X59369457Y-40000003D01*
X59389610Y-40346020D01*
X59389611Y-40346031D01*
X59449794Y-40687343D01*
X59449797Y-40687357D01*
X59549205Y-41019405D01*
X59686485Y-41337656D01*
X59686491Y-41337669D01*
X59859793Y-41637836D01*
X60066768Y-41915852D01*
X60066773Y-41915858D01*
X60181432Y-42037389D01*
X60304627Y-42167968D01*
X60304633Y-42167973D01*
X60304635Y-42167975D01*
X60471184Y-42307727D01*
X60570143Y-42390763D01*
X60859728Y-42581226D01*
X61169467Y-42736783D01*
X61495171Y-42855329D01*
X61495177Y-42855330D01*
X61495179Y-42855331D01*
X61832418Y-42935259D01*
X61832425Y-42935260D01*
X61832434Y-42935262D01*
X62176697Y-42975500D01*
X62176704Y-42975500D01*
X62523296Y-42975500D01*
X62523303Y-42975500D01*
X62867566Y-42935262D01*
X62867575Y-42935259D01*
X62867581Y-42935259D01*
X63199892Y-42856499D01*
X63204829Y-42855329D01*
X63530533Y-42736783D01*
X63840272Y-42581226D01*
X64129857Y-42390763D01*
X64395373Y-42167968D01*
X64633228Y-41915856D01*
X64840207Y-41637835D01*
X65013511Y-41337665D01*
X65150794Y-41019406D01*
X65250202Y-40687361D01*
X65310390Y-40346020D01*
X65330543Y-40000000D01*
X65330357Y-39996814D01*
X65320103Y-39820750D01*
X65310390Y-39653980D01*
X65309772Y-39650478D01*
X65250205Y-39312656D01*
X65250204Y-39312655D01*
X65250202Y-39312639D01*
X65150794Y-38980594D01*
X65013511Y-38662335D01*
X64897452Y-38461316D01*
X64840206Y-38362163D01*
X64633231Y-38084147D01*
X64633226Y-38084141D01*
X64505899Y-37949183D01*
X64395373Y-37832032D01*
X64395366Y-37832026D01*
X64395364Y-37832024D01*
X64129860Y-37609239D01*
X64088859Y-37582272D01*
X63840272Y-37418774D01*
X63837940Y-37417603D01*
X63674083Y-37335310D01*
X63623008Y-37287632D01*
X63605819Y-37219910D01*
X63627972Y-37153645D01*
X63682433Y-37109876D01*
X63729734Y-37100500D01*
X70270266Y-37100500D01*
X70337305Y-37120185D01*
X70383060Y-37172989D01*
X70393004Y-37242147D01*
X70363979Y-37305703D01*
X70325917Y-37335310D01*
X70159731Y-37418772D01*
X69870139Y-37609239D01*
X69604635Y-37832024D01*
X69604625Y-37832034D01*
X69366773Y-38084141D01*
X69366768Y-38084147D01*
X69159793Y-38362163D01*
X68986491Y-38662330D01*
X68986485Y-38662343D01*
X68849205Y-38980594D01*
X68749797Y-39312642D01*
X68749794Y-39312656D01*
X68689611Y-39653968D01*
X68689610Y-39653979D01*
X68669457Y-39999996D01*
X68669457Y-40000003D01*
X68689610Y-40346020D01*
X68689611Y-40346031D01*
X68749794Y-40687343D01*
X68749797Y-40687357D01*
X68849205Y-41019405D01*
X68986485Y-41337656D01*
X68986491Y-41337669D01*
X69159793Y-41637836D01*
X69366768Y-41915852D01*
X69366773Y-41915858D01*
X69481432Y-42037389D01*
X69604627Y-42167968D01*
X69604633Y-42167973D01*
X69604635Y-42167975D01*
X69771184Y-42307727D01*
X69870143Y-42390763D01*
X70159728Y-42581226D01*
X70469467Y-42736783D01*
X70795171Y-42855329D01*
X70795177Y-42855330D01*
X70795179Y-42855331D01*
X71132418Y-42935259D01*
X71132425Y-42935260D01*
X71132434Y-42935262D01*
X71476697Y-42975500D01*
X71476704Y-42975500D01*
X71823296Y-42975500D01*
X71823303Y-42975500D01*
X72167566Y-42935262D01*
X72167575Y-42935259D01*
X72167581Y-42935259D01*
X72499892Y-42856499D01*
X72504829Y-42855329D01*
X72830533Y-42736783D01*
X73140272Y-42581226D01*
X73429857Y-42390763D01*
X73695373Y-42167968D01*
X73785308Y-42072642D01*
X73845628Y-42037389D01*
X73915435Y-42040344D01*
X73972563Y-42080570D01*
X73998874Y-42145297D01*
X73999500Y-42157737D01*
X73999500Y-44599903D01*
X73979815Y-44666942D01*
X73963181Y-44687584D01*
X73787584Y-44863181D01*
X73726261Y-44896666D01*
X73699903Y-44899500D01*
X66579057Y-44899500D01*
X66420943Y-44899500D01*
X66268215Y-44940423D01*
X66268214Y-44940423D01*
X66268212Y-44940424D01*
X66268209Y-44940425D01*
X66218096Y-44969359D01*
X66218095Y-44969360D01*
X66174689Y-44994420D01*
X66131285Y-45019479D01*
X66019478Y-45131286D01*
X65024840Y-46125923D01*
X64963517Y-46159408D01*
X64896898Y-46155524D01*
X64844981Y-46137702D01*
X64680344Y-46110229D01*
X64616049Y-46099500D01*
X64383951Y-46099500D01*
X64363816Y-46102860D01*
X64155015Y-46137702D01*
X63935504Y-46213061D01*
X63935495Y-46213064D01*
X63731371Y-46323531D01*
X63731365Y-46323535D01*
X63548222Y-46466081D01*
X63548219Y-46466084D01*
X63548216Y-46466086D01*
X63548216Y-46466087D01*
X63506473Y-46511432D01*
X63391016Y-46636852D01*
X63264075Y-46831151D01*
X63170842Y-47043699D01*
X63113866Y-47268691D01*
X63113864Y-47268702D01*
X63094700Y-47499993D01*
X63094700Y-47500006D01*
X63113864Y-47731297D01*
X63113866Y-47731308D01*
X63170842Y-47956300D01*
X63264075Y-48168848D01*
X63391016Y-48363147D01*
X63391019Y-48363151D01*
X63391021Y-48363153D01*
X63548216Y-48533913D01*
X63548219Y-48533915D01*
X63548222Y-48533918D01*
X63731365Y-48676464D01*
X63731371Y-48676468D01*
X63731374Y-48676470D01*
X63886949Y-48760663D01*
X63934652Y-48786479D01*
X63935497Y-48786936D01*
X64049487Y-48826068D01*
X64155015Y-48862297D01*
X64155017Y-48862297D01*
X64155019Y-48862298D01*
X64383951Y-48900500D01*
X64383952Y-48900500D01*
X64616048Y-48900500D01*
X64616049Y-48900500D01*
X64844981Y-48862298D01*
X65064503Y-48786936D01*
X65268626Y-48676470D01*
X65269170Y-48676047D01*
X65348049Y-48614653D01*
X65451784Y-48533913D01*
X65608979Y-48363153D01*
X65646489Y-48305738D01*
X65699635Y-48260382D01*
X65768866Y-48250958D01*
X65832202Y-48280459D01*
X65846914Y-48297437D01*
X65848811Y-48297634D01*
X66435387Y-47711058D01*
X66440889Y-47731591D01*
X66519881Y-47868408D01*
X66631592Y-47980119D01*
X66768409Y-48059111D01*
X66788940Y-48064612D01*
X66201201Y-48652351D01*
X66231649Y-48676050D01*
X66435697Y-48786476D01*
X66435706Y-48786479D01*
X66655139Y-48861811D01*
X66883993Y-48900000D01*
X67116007Y-48900000D01*
X67344860Y-48861811D01*
X67564293Y-48786479D01*
X67564301Y-48786476D01*
X67768355Y-48676047D01*
X67798797Y-48652351D01*
X67798798Y-48652350D01*
X67211060Y-48064612D01*
X67231591Y-48059111D01*
X67368408Y-47980119D01*
X67480119Y-47868408D01*
X67559111Y-47731591D01*
X67564612Y-47711059D01*
X68151186Y-48297634D01*
X68155969Y-48297138D01*
X68199037Y-48260381D01*
X68268269Y-48250957D01*
X68331605Y-48280458D01*
X68353510Y-48305738D01*
X68391016Y-48363147D01*
X68391019Y-48363151D01*
X68391021Y-48363153D01*
X68548216Y-48533913D01*
X68548219Y-48533915D01*
X68548222Y-48533918D01*
X68731365Y-48676464D01*
X68731371Y-48676468D01*
X68731374Y-48676470D01*
X68886949Y-48760663D01*
X68934652Y-48786479D01*
X68935497Y-48786936D01*
X69049487Y-48826068D01*
X69155015Y-48862297D01*
X69155017Y-48862297D01*
X69155019Y-48862298D01*
X69383951Y-48900500D01*
X69383952Y-48900500D01*
X69616048Y-48900500D01*
X69616049Y-48900500D01*
X69844981Y-48862298D01*
X70064503Y-48786936D01*
X70268626Y-48676470D01*
X70269170Y-48676047D01*
X70348049Y-48614653D01*
X70451784Y-48533913D01*
X70608979Y-48363153D01*
X70735924Y-48168849D01*
X70735926Y-48168843D01*
X70737747Y-48165481D01*
X70786967Y-48115891D01*
X70846801Y-48100500D01*
X71913331Y-48100500D01*
X71913347Y-48100501D01*
X71920943Y-48100501D01*
X72079054Y-48100501D01*
X72079057Y-48100501D01*
X72231785Y-48059577D01*
X72231786Y-48059575D01*
X72239635Y-48057473D01*
X72240261Y-48059811D01*
X72297517Y-48053656D01*
X72359996Y-48084931D01*
X72395648Y-48145020D01*
X72399500Y-48175686D01*
X72399500Y-50699903D01*
X72379815Y-50766942D01*
X72363181Y-50787584D01*
X67787584Y-55363181D01*
X67726261Y-55396666D01*
X67699903Y-55399500D01*
X64086670Y-55399500D01*
X64086654Y-55399499D01*
X64079058Y-55399499D01*
X63920943Y-55399499D01*
X63844579Y-55419961D01*
X63768214Y-55440423D01*
X63768209Y-55440426D01*
X63631290Y-55519475D01*
X63631282Y-55519481D01*
X62111481Y-57039282D01*
X62111479Y-57039285D01*
X62061361Y-57126094D01*
X62061359Y-57126096D01*
X62032425Y-57176209D01*
X62032424Y-57176210D01*
X62032423Y-57176215D01*
X61991499Y-57328943D01*
X61991499Y-57328945D01*
X61991499Y-57497046D01*
X61991500Y-57497059D01*
X61991500Y-59854969D01*
X61971815Y-59922008D01*
X61919011Y-59967763D01*
X61914954Y-59969529D01*
X61843558Y-59999103D01*
X61843555Y-59999104D01*
X61622990Y-60134267D01*
X61622985Y-60134270D01*
X61426276Y-60302276D01*
X61258270Y-60498985D01*
X61258267Y-60498990D01*
X61123102Y-60719558D01*
X61024106Y-60958557D01*
X61024102Y-60958569D01*
X60963020Y-61212998D01*
X60928229Y-61273590D01*
X60866203Y-61305754D01*
X60841028Y-61308043D01*
X60195509Y-61300661D01*
X60195509Y-67161752D01*
X73000000Y-67308199D01*
X72999998Y-61447108D01*
X64344353Y-61348111D01*
X64277543Y-61327661D01*
X64232395Y-61274337D01*
X64222153Y-61233844D01*
X64221991Y-61231785D01*
X64220285Y-61210105D01*
X64159895Y-60958560D01*
X64060897Y-60719559D01*
X64060897Y-60719558D01*
X63925732Y-60498990D01*
X63925729Y-60498985D01*
X63865265Y-60428191D01*
X63757724Y-60302276D01*
X63650181Y-60210426D01*
X63561014Y-60134270D01*
X63561009Y-60134267D01*
X63340444Y-59999104D01*
X63340441Y-59999103D01*
X63269046Y-59969529D01*
X63214643Y-59925688D01*
X63192579Y-59859393D01*
X63192500Y-59854969D01*
X63192500Y-58928000D01*
X67293418Y-58928000D01*
X67313715Y-59185898D01*
X67374102Y-59437430D01*
X67374106Y-59437442D01*
X67473102Y-59676441D01*
X67608267Y-59897009D01*
X67608270Y-59897014D01*
X67668696Y-59967763D01*
X67776276Y-60093724D01*
X67823750Y-60134270D01*
X67972985Y-60261729D01*
X67972990Y-60261732D01*
X68193558Y-60396897D01*
X68278057Y-60431897D01*
X68432560Y-60495895D01*
X68684105Y-60556285D01*
X68942000Y-60576582D01*
X69199895Y-60556285D01*
X69451440Y-60495895D01*
X69690441Y-60396897D01*
X69911012Y-60261731D01*
X70107724Y-60093724D01*
X70275731Y-59897012D01*
X70410897Y-59676441D01*
X70509895Y-59437440D01*
X70570285Y-59185895D01*
X70590582Y-58928000D01*
X70570285Y-58670105D01*
X70509895Y-58418560D01*
X70410897Y-58179559D01*
X70410897Y-58179558D01*
X70275732Y-57958990D01*
X70275729Y-57958985D01*
X70215265Y-57888191D01*
X70107724Y-57762276D01*
X69984151Y-57656735D01*
X69911014Y-57594270D01*
X69911009Y-57594267D01*
X69690441Y-57459102D01*
X69451442Y-57360106D01*
X69451444Y-57360106D01*
X69451440Y-57360105D01*
X69451436Y-57360104D01*
X69451430Y-57360102D01*
X69199898Y-57299715D01*
X68942000Y-57279418D01*
X68684101Y-57299715D01*
X68432569Y-57360102D01*
X68432557Y-57360106D01*
X68193558Y-57459102D01*
X67972990Y-57594267D01*
X67972985Y-57594270D01*
X67776276Y-57762276D01*
X67608270Y-57958985D01*
X67608267Y-57958990D01*
X67473102Y-58179558D01*
X67374106Y-58418557D01*
X67374102Y-58418569D01*
X67313715Y-58670101D01*
X67293418Y-58928000D01*
X63192500Y-58928000D01*
X63192500Y-57708097D01*
X63212185Y-57641058D01*
X63228819Y-57620416D01*
X64212417Y-56636819D01*
X64273740Y-56603334D01*
X64300098Y-56600500D01*
X67913331Y-56600500D01*
X67913347Y-56600501D01*
X67920943Y-56600501D01*
X68079054Y-56600501D01*
X68079057Y-56600501D01*
X68231785Y-56559577D01*
X68281904Y-56530639D01*
X68368716Y-56480520D01*
X68480520Y-56368716D01*
X68480520Y-56368714D01*
X68490728Y-56358507D01*
X68490730Y-56358504D01*
X73358506Y-51490728D01*
X73358511Y-51490724D01*
X73368714Y-51480520D01*
X73368716Y-51480520D01*
X73480520Y-51368716D01*
X73533665Y-51276665D01*
X73559577Y-51231785D01*
X73600501Y-51079057D01*
X73600501Y-50920943D01*
X73600501Y-50913348D01*
X73600500Y-50913330D01*
X73600500Y-48365783D01*
X73620185Y-48298744D01*
X73636819Y-48278102D01*
X75187819Y-46727102D01*
X75249142Y-46693617D01*
X75318834Y-46698601D01*
X75374767Y-46740473D01*
X75399184Y-46805937D01*
X75399500Y-46814783D01*
X75399500Y-70699903D01*
X75379815Y-70766942D01*
X75363181Y-70787584D01*
X73287584Y-72863181D01*
X73226261Y-72896666D01*
X73199903Y-72899500D01*
X63586669Y-72899500D01*
X63586653Y-72899499D01*
X63579057Y-72899499D01*
X63420943Y-72899499D01*
X63313587Y-72928265D01*
X63268210Y-72940424D01*
X63268209Y-72940425D01*
X63218096Y-72969359D01*
X63218095Y-72969360D01*
X63174689Y-72994420D01*
X63131285Y-73019479D01*
X63131282Y-73019481D01*
X62111481Y-74039282D01*
X62111475Y-74039290D01*
X62076137Y-74100499D01*
X62076137Y-74100501D01*
X62032423Y-74176214D01*
X62032423Y-74176215D01*
X61991499Y-74328943D01*
X61991499Y-74328945D01*
X61991499Y-74497046D01*
X61991500Y-74497059D01*
X61991500Y-78650969D01*
X61971815Y-78718008D01*
X61919011Y-78763763D01*
X61914954Y-78765529D01*
X61843558Y-78795103D01*
X61843555Y-78795104D01*
X61622990Y-78930267D01*
X61622985Y-78930270D01*
X61426276Y-79098276D01*
X61258270Y-79294985D01*
X61258267Y-79294990D01*
X61123102Y-79515558D01*
X61024106Y-79754557D01*
X61024102Y-79754569D01*
X60966442Y-79994742D01*
X60963715Y-80006105D01*
X60953229Y-80139332D01*
X60948548Y-80198814D01*
X60923664Y-80264102D01*
X60867432Y-80305572D01*
X60823565Y-80313076D01*
X59695509Y-80300659D01*
X59695509Y-86161751D01*
X72999999Y-86308198D01*
X72999999Y-86308197D01*
X73000000Y-86308198D01*
X72999998Y-80447107D01*
X72999997Y-80447106D01*
X64360768Y-80352011D01*
X64293949Y-80331590D01*
X64267737Y-80300659D01*
X78695509Y-80300659D01*
X78695509Y-86161751D01*
X91999999Y-86308198D01*
X91999999Y-86308197D01*
X92000000Y-86308198D01*
X91999998Y-80447107D01*
X91999997Y-80447106D01*
X83260681Y-80350910D01*
X83193862Y-80330489D01*
X83168583Y-80300659D01*
X97695509Y-80300659D01*
X97695509Y-86161751D01*
X110999999Y-86308198D01*
X110999999Y-86308197D01*
X111000000Y-86308198D01*
X110999998Y-80447107D01*
X110999997Y-80447106D01*
X102160595Y-80349808D01*
X102093776Y-80329387D01*
X102048605Y-80276083D01*
X102038342Y-80235547D01*
X102020285Y-80006105D01*
X101959895Y-79754560D01*
X101860897Y-79515559D01*
X101860897Y-79515558D01*
X101725732Y-79294990D01*
X101725729Y-79294985D01*
X101665265Y-79224191D01*
X101557724Y-79098276D01*
X101450181Y-79006426D01*
X101361014Y-78930270D01*
X101361009Y-78930267D01*
X101140441Y-78795102D01*
X100901442Y-78696106D01*
X100901444Y-78696106D01*
X100901440Y-78696105D01*
X100901436Y-78696104D01*
X100901430Y-78696102D01*
X100649898Y-78635715D01*
X100392000Y-78615418D01*
X100134101Y-78635715D01*
X99882569Y-78696102D01*
X99882557Y-78696106D01*
X99643558Y-78795102D01*
X99422990Y-78930267D01*
X99422985Y-78930270D01*
X99226276Y-79098276D01*
X99058270Y-79294985D01*
X99058267Y-79294990D01*
X98923102Y-79515558D01*
X98824106Y-79754557D01*
X98824102Y-79754569D01*
X98766442Y-79994742D01*
X98763715Y-80006105D01*
X98754677Y-80120934D01*
X98748721Y-80196614D01*
X98723836Y-80261902D01*
X98667605Y-80303373D01*
X98623738Y-80310876D01*
X97695509Y-80300659D01*
X83168583Y-80300659D01*
X83148691Y-80277185D01*
X83138429Y-80236654D01*
X83120285Y-80006105D01*
X83059895Y-79754560D01*
X82960897Y-79515559D01*
X82960897Y-79515558D01*
X82825732Y-79294990D01*
X82825729Y-79294985D01*
X82765265Y-79224191D01*
X82657724Y-79098276D01*
X82550181Y-79006426D01*
X82461014Y-78930270D01*
X82461009Y-78930267D01*
X82240441Y-78795102D01*
X82001442Y-78696106D01*
X82001444Y-78696106D01*
X82001440Y-78696105D01*
X82001436Y-78696104D01*
X82001430Y-78696102D01*
X81749898Y-78635715D01*
X81492000Y-78615418D01*
X81234101Y-78635715D01*
X80982569Y-78696102D01*
X80982557Y-78696106D01*
X80743558Y-78795102D01*
X80522990Y-78930267D01*
X80522985Y-78930270D01*
X80326276Y-79098276D01*
X80158270Y-79294985D01*
X80158267Y-79294990D01*
X80023102Y-79515558D01*
X79924106Y-79754557D01*
X79924102Y-79754569D01*
X79863715Y-80006101D01*
X79848635Y-80197713D01*
X79823751Y-80263002D01*
X79767519Y-80304472D01*
X79723652Y-80311976D01*
X78695509Y-80300659D01*
X64267737Y-80300659D01*
X64248778Y-80278286D01*
X64238516Y-80237753D01*
X64220285Y-80006105D01*
X64159895Y-79754560D01*
X64060897Y-79515559D01*
X64060897Y-79515558D01*
X63925732Y-79294990D01*
X63925729Y-79294985D01*
X63865265Y-79224191D01*
X63757724Y-79098276D01*
X63650181Y-79006426D01*
X63561014Y-78930270D01*
X63561009Y-78930267D01*
X63340444Y-78795104D01*
X63340441Y-78795103D01*
X63269046Y-78765529D01*
X63214643Y-78721688D01*
X63192579Y-78655393D01*
X63192500Y-78650969D01*
X63192500Y-77724000D01*
X67293418Y-77724000D01*
X67313715Y-77981898D01*
X67374102Y-78233430D01*
X67374106Y-78233442D01*
X67473102Y-78472441D01*
X67608267Y-78693009D01*
X67608270Y-78693014D01*
X67668696Y-78763763D01*
X67776276Y-78889724D01*
X67823750Y-78930270D01*
X67972985Y-79057729D01*
X67972990Y-79057732D01*
X68193558Y-79192897D01*
X68278057Y-79227897D01*
X68432560Y-79291895D01*
X68684105Y-79352285D01*
X68942000Y-79372582D01*
X69199895Y-79352285D01*
X69451440Y-79291895D01*
X69690441Y-79192897D01*
X69911012Y-79057731D01*
X70107724Y-78889724D01*
X70275731Y-78693012D01*
X70410897Y-78472441D01*
X70440470Y-78401045D01*
X70484310Y-78346644D01*
X70550605Y-78324579D01*
X70555030Y-78324500D01*
X86228970Y-78324500D01*
X86296009Y-78344185D01*
X86341764Y-78396989D01*
X86343515Y-78401010D01*
X86370588Y-78466369D01*
X86373105Y-78472446D01*
X86508267Y-78693009D01*
X86508270Y-78693014D01*
X86568696Y-78763763D01*
X86676276Y-78889724D01*
X86723750Y-78930270D01*
X86872985Y-79057729D01*
X86872990Y-79057732D01*
X87093558Y-79192897D01*
X87178057Y-79227897D01*
X87332560Y-79291895D01*
X87584105Y-79352285D01*
X87842000Y-79372582D01*
X88099895Y-79352285D01*
X88351440Y-79291895D01*
X88590441Y-79192897D01*
X88811012Y-79057731D01*
X89007724Y-78889724D01*
X89175731Y-78693012D01*
X89310897Y-78472441D01*
X89340470Y-78401045D01*
X89384310Y-78346644D01*
X89450605Y-78324579D01*
X89455030Y-78324500D01*
X105128970Y-78324500D01*
X105196009Y-78344185D01*
X105241764Y-78396989D01*
X105243515Y-78401010D01*
X105270588Y-78466369D01*
X105273105Y-78472446D01*
X105408267Y-78693009D01*
X105408270Y-78693014D01*
X105468696Y-78763763D01*
X105576276Y-78889724D01*
X105623750Y-78930270D01*
X105772985Y-79057729D01*
X105772990Y-79057732D01*
X105993558Y-79192897D01*
X106078057Y-79227897D01*
X106232560Y-79291895D01*
X106484105Y-79352285D01*
X106742000Y-79372582D01*
X106999895Y-79352285D01*
X107251440Y-79291895D01*
X107490441Y-79192897D01*
X107711012Y-79057731D01*
X107907724Y-78889724D01*
X108075731Y-78693012D01*
X108210897Y-78472441D01*
X108309895Y-78233440D01*
X108370285Y-77981895D01*
X108390582Y-77724000D01*
X108370285Y-77466105D01*
X108309895Y-77214560D01*
X108210897Y-76975559D01*
X108210897Y-76975558D01*
X108075732Y-76754990D01*
X108075729Y-76754985D01*
X108015265Y-76684191D01*
X107907724Y-76558276D01*
X107800181Y-76466426D01*
X107711014Y-76390270D01*
X107711009Y-76390267D01*
X107490441Y-76255102D01*
X107251442Y-76156106D01*
X107251444Y-76156106D01*
X107251440Y-76156105D01*
X107251436Y-76156104D01*
X107251430Y-76156102D01*
X106999898Y-76095715D01*
X106742000Y-76075418D01*
X106484101Y-76095715D01*
X106232569Y-76156102D01*
X106232557Y-76156106D01*
X105993558Y-76255102D01*
X105772990Y-76390267D01*
X105772985Y-76390270D01*
X105576276Y-76558276D01*
X105408270Y-76754985D01*
X105408267Y-76754990D01*
X105273105Y-76975553D01*
X105273103Y-76975559D01*
X105243529Y-77046954D01*
X105199690Y-77101356D01*
X105133395Y-77123421D01*
X105128970Y-77123500D01*
X89455030Y-77123500D01*
X89387991Y-77103815D01*
X89342236Y-77051011D01*
X89340484Y-77046989D01*
X89310897Y-76975559D01*
X89310895Y-76975556D01*
X89310894Y-76975553D01*
X89175732Y-76754990D01*
X89175729Y-76754985D01*
X89115265Y-76684191D01*
X89007724Y-76558276D01*
X88900181Y-76466426D01*
X88811014Y-76390270D01*
X88811009Y-76390267D01*
X88590441Y-76255102D01*
X88351442Y-76156106D01*
X88351444Y-76156106D01*
X88351440Y-76156105D01*
X88351436Y-76156104D01*
X88351430Y-76156102D01*
X88099898Y-76095715D01*
X87842000Y-76075418D01*
X87584101Y-76095715D01*
X87332569Y-76156102D01*
X87332557Y-76156106D01*
X87093558Y-76255102D01*
X86872990Y-76390267D01*
X86872985Y-76390270D01*
X86676276Y-76558276D01*
X86508270Y-76754985D01*
X86508267Y-76754990D01*
X86373105Y-76975553D01*
X86373103Y-76975559D01*
X86343529Y-77046954D01*
X86299690Y-77101356D01*
X86233395Y-77123421D01*
X86228970Y-77123500D01*
X70555030Y-77123500D01*
X70487991Y-77103815D01*
X70442236Y-77051011D01*
X70440484Y-77046989D01*
X70410897Y-76975559D01*
X70410895Y-76975556D01*
X70410894Y-76975553D01*
X70275732Y-76754990D01*
X70275729Y-76754985D01*
X70215265Y-76684191D01*
X70107724Y-76558276D01*
X70000181Y-76466426D01*
X69911014Y-76390270D01*
X69911009Y-76390267D01*
X69690441Y-76255102D01*
X69451442Y-76156106D01*
X69451444Y-76156106D01*
X69451440Y-76156105D01*
X69451436Y-76156104D01*
X69451430Y-76156102D01*
X69199898Y-76095715D01*
X68942000Y-76075418D01*
X68684101Y-76095715D01*
X68432569Y-76156102D01*
X68432557Y-76156106D01*
X68193558Y-76255102D01*
X67972990Y-76390267D01*
X67972985Y-76390270D01*
X67776276Y-76558276D01*
X67608270Y-76754985D01*
X67608267Y-76754990D01*
X67473102Y-76975558D01*
X67374106Y-77214557D01*
X67374102Y-77214569D01*
X67313715Y-77466101D01*
X67293418Y-77724000D01*
X63192500Y-77724000D01*
X63192500Y-74708097D01*
X63212185Y-74641058D01*
X63228819Y-74620416D01*
X63712416Y-74136819D01*
X63773739Y-74103334D01*
X63800097Y-74100500D01*
X73413331Y-74100500D01*
X73413347Y-74100501D01*
X73420943Y-74100501D01*
X73579054Y-74100501D01*
X73579057Y-74100501D01*
X73731785Y-74059577D01*
X73781904Y-74030639D01*
X73868716Y-73980520D01*
X73980520Y-73868716D01*
X73980520Y-73868714D01*
X73990728Y-73858507D01*
X73990730Y-73858504D01*
X76368713Y-71480521D01*
X76368716Y-71480520D01*
X76480520Y-71368716D01*
X76530639Y-71281904D01*
X76559577Y-71231785D01*
X76600501Y-71079057D01*
X76600501Y-70920943D01*
X76600501Y-70913348D01*
X76600500Y-70913330D01*
X76600500Y-49249097D01*
X76620185Y-49182058D01*
X76672989Y-49136303D01*
X76742147Y-49126359D01*
X76805703Y-49155384D01*
X76812181Y-49161416D01*
X76863181Y-49212416D01*
X76896666Y-49273739D01*
X76899500Y-49300097D01*
X76899500Y-60913330D01*
X76899499Y-60913348D01*
X76899499Y-61079054D01*
X76899498Y-61079054D01*
X76940423Y-61231785D01*
X76969358Y-61281900D01*
X76969359Y-61281904D01*
X76969360Y-61281904D01*
X77019479Y-61368714D01*
X77019481Y-61368717D01*
X77138349Y-61487585D01*
X77138355Y-61487590D01*
X77483139Y-61832374D01*
X77483149Y-61832385D01*
X77487479Y-61836715D01*
X77487480Y-61836716D01*
X77599284Y-61948520D01*
X77672410Y-61990739D01*
X77736215Y-62027577D01*
X77888943Y-62068501D01*
X77888946Y-62068501D01*
X78054653Y-62068501D01*
X78054669Y-62068500D01*
X78571509Y-62068500D01*
X78638548Y-62088185D01*
X78684303Y-62140989D01*
X78695509Y-62192500D01*
X78695509Y-67661751D01*
X91999999Y-67808198D01*
X91999999Y-67808197D01*
X92000000Y-67808198D01*
X91999998Y-61947107D01*
X91999997Y-61947106D01*
X86053026Y-61881646D01*
X86022298Y-61877429D01*
X85740798Y-61802001D01*
X85730604Y-61800659D01*
X97695509Y-61800659D01*
X97695509Y-67661751D01*
X110999999Y-67808198D01*
X110999999Y-67808197D01*
X111000000Y-67808198D01*
X110999998Y-61947107D01*
X110999997Y-61947106D01*
X104948741Y-61880498D01*
X104918013Y-61876281D01*
X104640798Y-61802001D01*
X104349116Y-61763601D01*
X104349111Y-61763600D01*
X104349106Y-61763600D01*
X104054894Y-61763600D01*
X104054888Y-61763600D01*
X104054883Y-61763601D01*
X103763210Y-61802000D01*
X103763203Y-61802001D01*
X103763200Y-61802002D01*
X103723472Y-61812647D01*
X103545023Y-61860461D01*
X103511565Y-61864678D01*
X102143324Y-61849617D01*
X102076505Y-61829196D01*
X102031334Y-61775892D01*
X102021071Y-61715899D01*
X102040582Y-61468000D01*
X102020285Y-61210105D01*
X101959895Y-60958560D01*
X101860897Y-60719559D01*
X101860897Y-60719558D01*
X101725732Y-60498990D01*
X101725729Y-60498985D01*
X101665265Y-60428191D01*
X101557724Y-60302276D01*
X101450181Y-60210426D01*
X101361014Y-60134270D01*
X101361009Y-60134267D01*
X101140441Y-59999102D01*
X100901442Y-59900106D01*
X100901444Y-59900106D01*
X100901440Y-59900105D01*
X100901436Y-59900104D01*
X100901430Y-59900102D01*
X100649898Y-59839715D01*
X100392000Y-59819418D01*
X100134101Y-59839715D01*
X99882569Y-59900102D01*
X99882557Y-59900106D01*
X99643558Y-59999102D01*
X99422990Y-60134267D01*
X99422985Y-60134270D01*
X99226276Y-60302276D01*
X99058270Y-60498985D01*
X99058267Y-60498990D01*
X98923102Y-60719558D01*
X98824106Y-60958557D01*
X98824102Y-60958569D01*
X98763715Y-61210101D01*
X98743418Y-61468000D01*
X98759889Y-61677278D01*
X98745525Y-61745655D01*
X98696474Y-61795412D01*
X98634906Y-61810999D01*
X97695509Y-61800659D01*
X85730604Y-61800659D01*
X85449116Y-61763601D01*
X85449111Y-61763600D01*
X85449106Y-61763600D01*
X85154894Y-61763600D01*
X85154888Y-61763600D01*
X85154883Y-61763601D01*
X84863210Y-61802000D01*
X84863203Y-61802001D01*
X84863200Y-61802002D01*
X84823472Y-61812647D01*
X84641078Y-61861518D01*
X84607620Y-61865735D01*
X83243237Y-61850717D01*
X83176418Y-61830296D01*
X83131248Y-61776992D01*
X83120984Y-61717000D01*
X83140582Y-61468000D01*
X83120285Y-61210105D01*
X83059895Y-60958560D01*
X82960897Y-60719559D01*
X82960897Y-60719558D01*
X82825732Y-60498990D01*
X82825729Y-60498985D01*
X82765265Y-60428191D01*
X82657724Y-60302276D01*
X82550181Y-60210426D01*
X82461014Y-60134270D01*
X82461009Y-60134267D01*
X82240441Y-59999102D01*
X82001442Y-59900106D01*
X82001444Y-59900106D01*
X82001440Y-59900105D01*
X82001436Y-59900104D01*
X82001430Y-59900102D01*
X81749898Y-59839715D01*
X81492000Y-59819418D01*
X81234101Y-59839715D01*
X80982569Y-59900102D01*
X80982557Y-59900106D01*
X80743558Y-59999102D01*
X80522990Y-60134267D01*
X80522985Y-60134270D01*
X80326276Y-60302276D01*
X80158270Y-60498985D01*
X80158267Y-60498990D01*
X80023105Y-60719553D01*
X80023103Y-60719559D01*
X79993529Y-60790954D01*
X79949690Y-60845356D01*
X79883395Y-60867421D01*
X79878970Y-60867500D01*
X78268097Y-60867500D01*
X78201058Y-60847815D01*
X78180416Y-60831181D01*
X78136819Y-60787584D01*
X78103334Y-60726261D01*
X78100500Y-60699903D01*
X78100500Y-58928000D01*
X86193418Y-58928000D01*
X86213715Y-59185898D01*
X86274102Y-59437430D01*
X86274106Y-59437442D01*
X86373102Y-59676441D01*
X86508267Y-59897009D01*
X86508270Y-59897014D01*
X86568696Y-59967763D01*
X86676276Y-60093724D01*
X86723750Y-60134270D01*
X86872985Y-60261729D01*
X86872990Y-60261732D01*
X87093558Y-60396897D01*
X87178057Y-60431897D01*
X87332560Y-60495895D01*
X87584105Y-60556285D01*
X87842000Y-60576582D01*
X88099895Y-60556285D01*
X88351440Y-60495895D01*
X88590441Y-60396897D01*
X88811012Y-60261731D01*
X89007724Y-60093724D01*
X89175731Y-59897012D01*
X89310897Y-59676441D01*
X89340470Y-59605045D01*
X89384310Y-59550644D01*
X89450605Y-59528579D01*
X89455030Y-59528500D01*
X105128970Y-59528500D01*
X105196009Y-59548185D01*
X105241764Y-59600989D01*
X105243515Y-59605010D01*
X105270588Y-59670369D01*
X105273105Y-59676446D01*
X105408267Y-59897009D01*
X105408270Y-59897014D01*
X105468696Y-59967763D01*
X105576276Y-60093724D01*
X105623750Y-60134270D01*
X105772985Y-60261729D01*
X105772990Y-60261732D01*
X105993558Y-60396897D01*
X106078057Y-60431897D01*
X106232560Y-60495895D01*
X106484105Y-60556285D01*
X106742000Y-60576582D01*
X106999895Y-60556285D01*
X107251440Y-60495895D01*
X107490441Y-60396897D01*
X107711012Y-60261731D01*
X107907724Y-60093724D01*
X108075731Y-59897012D01*
X108210897Y-59676441D01*
X108309895Y-59437440D01*
X108370285Y-59185895D01*
X108390582Y-58928000D01*
X108370285Y-58670105D01*
X108309895Y-58418560D01*
X108210897Y-58179559D01*
X108210897Y-58179558D01*
X108075732Y-57958990D01*
X108075729Y-57958985D01*
X108015265Y-57888191D01*
X107907724Y-57762276D01*
X107784151Y-57656735D01*
X107711014Y-57594270D01*
X107711009Y-57594267D01*
X107490441Y-57459102D01*
X107251442Y-57360106D01*
X107251444Y-57360106D01*
X107251440Y-57360105D01*
X107251436Y-57360104D01*
X107251430Y-57360102D01*
X106999898Y-57299715D01*
X106742000Y-57279418D01*
X106484101Y-57299715D01*
X106232569Y-57360102D01*
X106232557Y-57360106D01*
X105993558Y-57459102D01*
X105772990Y-57594267D01*
X105772985Y-57594270D01*
X105576276Y-57762276D01*
X105408270Y-57958985D01*
X105408267Y-57958990D01*
X105273105Y-58179553D01*
X105273103Y-58179559D01*
X105243529Y-58250954D01*
X105199690Y-58305356D01*
X105133395Y-58327421D01*
X105128970Y-58327500D01*
X89455030Y-58327500D01*
X89387991Y-58307815D01*
X89342236Y-58255011D01*
X89340484Y-58250989D01*
X89310897Y-58179559D01*
X89310895Y-58179556D01*
X89310894Y-58179553D01*
X89175732Y-57958990D01*
X89175729Y-57958985D01*
X89115265Y-57888191D01*
X89007724Y-57762276D01*
X88884151Y-57656735D01*
X88811014Y-57594270D01*
X88811009Y-57594267D01*
X88590441Y-57459102D01*
X88351442Y-57360106D01*
X88351444Y-57360106D01*
X88351440Y-57360105D01*
X88351436Y-57360104D01*
X88351430Y-57360102D01*
X88099898Y-57299715D01*
X87842000Y-57279418D01*
X87584101Y-57299715D01*
X87332569Y-57360102D01*
X87332557Y-57360106D01*
X87093558Y-57459102D01*
X86872990Y-57594267D01*
X86872985Y-57594270D01*
X86676276Y-57762276D01*
X86508270Y-57958985D01*
X86508267Y-57958990D01*
X86373102Y-58179558D01*
X86274106Y-58418557D01*
X86274102Y-58418569D01*
X86213715Y-58670101D01*
X86193418Y-58928000D01*
X78100500Y-58928000D01*
X78100500Y-51851290D01*
X78120185Y-51784251D01*
X78172989Y-51738496D01*
X78242147Y-51728552D01*
X78305703Y-51757577D01*
X78312167Y-51763595D01*
X83582917Y-57034345D01*
X89558631Y-50558631D01*
X89558630Y-50558630D01*
X89558631Y-50558630D01*
X88040274Y-49040274D01*
X88007298Y-48981190D01*
X87982833Y-48877965D01*
X87974720Y-48861811D01*
X87904095Y-48721182D01*
X87904091Y-48721177D01*
X87904090Y-48721175D01*
X87838847Y-48641085D01*
X87838846Y-48641084D01*
X87838838Y-48641074D01*
X87273140Y-48075378D01*
X87193032Y-48010119D01*
X87036251Y-47931382D01*
X87036250Y-47931381D01*
X87036247Y-47931380D01*
X86933021Y-47906914D01*
X86873938Y-47873938D01*
X86626060Y-47626060D01*
X86593084Y-47566976D01*
X86568619Y-47463751D01*
X86568618Y-47463749D01*
X86489881Y-47306968D01*
X86489877Y-47306963D01*
X86489876Y-47306961D01*
X86424633Y-47226871D01*
X86424632Y-47226870D01*
X86424624Y-47226860D01*
X85858926Y-46661164D01*
X85817670Y-46627555D01*
X85785995Y-46601751D01*
X85746452Y-46544148D01*
X85744329Y-46474310D01*
X85780301Y-46414411D01*
X85842945Y-46383469D01*
X85848070Y-46382683D01*
X85863236Y-46380687D01*
X85863238Y-46380685D01*
X85871300Y-46379625D01*
X85871703Y-46382689D01*
X85904302Y-46382689D01*
X85904705Y-46379626D01*
X85912763Y-46380686D01*
X85912764Y-46380687D01*
X86025280Y-46395500D01*
X86025287Y-46395500D01*
X86250713Y-46395500D01*
X86250720Y-46395500D01*
X86363236Y-46380687D01*
X86363236Y-46380686D01*
X86371295Y-46379626D01*
X86371698Y-46382689D01*
X86404302Y-46382689D01*
X86404705Y-46379626D01*
X86412763Y-46380686D01*
X86412764Y-46380687D01*
X86525280Y-46395500D01*
X86525287Y-46395500D01*
X86750713Y-46395500D01*
X86750720Y-46395500D01*
X86863236Y-46380687D01*
X86863236Y-46380686D01*
X86871295Y-46379626D01*
X86871530Y-46381418D01*
X86905269Y-46379195D01*
X86987999Y-46390086D01*
X87002206Y-46377627D01*
X87007685Y-46358969D01*
X87060489Y-46313214D01*
X87129647Y-46303270D01*
X87193203Y-46332295D01*
X87199681Y-46338327D01*
X87276349Y-46414995D01*
X87276355Y-46415000D01*
X88459352Y-47597997D01*
X88459373Y-47598020D01*
X88575493Y-47714140D01*
X88575495Y-47714141D01*
X88575497Y-47714143D01*
X88576895Y-47714950D01*
X88602577Y-47734655D01*
X88603806Y-47735884D01*
X88603807Y-47735885D01*
X88731361Y-47863439D01*
X88884101Y-47959412D01*
X88961883Y-47986629D01*
X89054368Y-48018991D01*
X89054373Y-48018992D01*
X89233619Y-48039188D01*
X89233623Y-48039188D01*
X89233627Y-48039188D01*
X89412872Y-48018992D01*
X89412875Y-48018991D01*
X89412878Y-48018991D01*
X89583145Y-47959412D01*
X89735885Y-47863439D01*
X89863439Y-47735885D01*
X89959412Y-47583145D01*
X90018991Y-47412878D01*
X90033358Y-47285368D01*
X90039188Y-47233626D01*
X90039188Y-47233619D01*
X90018992Y-47054373D01*
X90018991Y-47054368D01*
X89964800Y-46899500D01*
X89959412Y-46884101D01*
X89863439Y-46731361D01*
X89735885Y-46603807D01*
X89689243Y-46574500D01*
X89583144Y-46507833D01*
X89579082Y-46506412D01*
X89522306Y-46465690D01*
X89496558Y-46400738D01*
X89510014Y-46332176D01*
X89544546Y-46290996D01*
X89623451Y-46230451D01*
X89715698Y-46110233D01*
X89773687Y-45970236D01*
X89776635Y-45947844D01*
X95250000Y-45947844D01*
X95256401Y-46007372D01*
X95256403Y-46007379D01*
X95306645Y-46142086D01*
X95306649Y-46142093D01*
X95392809Y-46257187D01*
X95392812Y-46257190D01*
X95507906Y-46343350D01*
X95507913Y-46343354D01*
X95642620Y-46393596D01*
X95642627Y-46393598D01*
X95702155Y-46399999D01*
X95702172Y-46400000D01*
X96275000Y-46400000D01*
X96775000Y-46400000D01*
X97347828Y-46400000D01*
X97347844Y-46399999D01*
X97407372Y-46393598D01*
X97407379Y-46393596D01*
X97542086Y-46343354D01*
X97542093Y-46343350D01*
X97657187Y-46257190D01*
X97657190Y-46257187D01*
X97743350Y-46142093D01*
X97743354Y-46142086D01*
X97793596Y-46007379D01*
X97793598Y-46007372D01*
X97799999Y-45947844D01*
X103200000Y-45947844D01*
X103206401Y-46007372D01*
X103206403Y-46007379D01*
X103256645Y-46142086D01*
X103256649Y-46142093D01*
X103342809Y-46257187D01*
X103342812Y-46257190D01*
X103457906Y-46343350D01*
X103457913Y-46343354D01*
X103592620Y-46393596D01*
X103592627Y-46393598D01*
X103652155Y-46399999D01*
X103652172Y-46400000D01*
X104225000Y-46400000D01*
X104725000Y-46400000D01*
X105297828Y-46400000D01*
X105297844Y-46399999D01*
X105357372Y-46393598D01*
X105357379Y-46393596D01*
X105492086Y-46343354D01*
X105492093Y-46343350D01*
X105607187Y-46257190D01*
X105607190Y-46257187D01*
X105693350Y-46142093D01*
X105693354Y-46142086D01*
X105743596Y-46007379D01*
X105743598Y-46007372D01*
X105749999Y-45947844D01*
X105750000Y-45947827D01*
X105750000Y-45500000D01*
X104725000Y-45500000D01*
X104725000Y-46400000D01*
X104225000Y-46400000D01*
X104225000Y-45500000D01*
X103200000Y-45500000D01*
X103200000Y-45947844D01*
X97799999Y-45947844D01*
X97800000Y-45947827D01*
X97800000Y-45500000D01*
X96775000Y-45500000D01*
X96775000Y-46400000D01*
X96275000Y-46400000D01*
X96275000Y-45500000D01*
X95250000Y-45500000D01*
X95250000Y-45947844D01*
X89776635Y-45947844D01*
X89788500Y-45857720D01*
X89788500Y-44724500D01*
X89808185Y-44657461D01*
X89860989Y-44611706D01*
X89912500Y-44600500D01*
X93413331Y-44600500D01*
X93413347Y-44600501D01*
X93420943Y-44600501D01*
X93579054Y-44600501D01*
X93579057Y-44600501D01*
X93731785Y-44559577D01*
X93744640Y-44552155D01*
X95250000Y-44552155D01*
X95250000Y-45000000D01*
X96275000Y-45000000D01*
X96775000Y-45000000D01*
X97800000Y-45000000D01*
X97800000Y-44552172D01*
X97799999Y-44552155D01*
X103200000Y-44552155D01*
X103200000Y-45000000D01*
X104225000Y-45000000D01*
X104725000Y-45000000D01*
X105750000Y-45000000D01*
X105750000Y-44552172D01*
X105749999Y-44552155D01*
X105743598Y-44492627D01*
X105743596Y-44492620D01*
X105693354Y-44357913D01*
X105693350Y-44357906D01*
X105607190Y-44242812D01*
X105607187Y-44242809D01*
X105492093Y-44156649D01*
X105492086Y-44156645D01*
X105357379Y-44106403D01*
X105357372Y-44106401D01*
X105297844Y-44100000D01*
X104725000Y-44100000D01*
X104725000Y-45000000D01*
X104225000Y-45000000D01*
X104225000Y-44100000D01*
X103652155Y-44100000D01*
X103592627Y-44106401D01*
X103592620Y-44106403D01*
X103457913Y-44156645D01*
X103457906Y-44156649D01*
X103342812Y-44242809D01*
X103342809Y-44242812D01*
X103256649Y-44357906D01*
X103256645Y-44357913D01*
X103206403Y-44492620D01*
X103206401Y-44492627D01*
X103200000Y-44552155D01*
X97799999Y-44552155D01*
X97793598Y-44492627D01*
X97793596Y-44492620D01*
X97743354Y-44357913D01*
X97743350Y-44357906D01*
X97657190Y-44242812D01*
X97657187Y-44242809D01*
X97542093Y-44156649D01*
X97542086Y-44156645D01*
X97407379Y-44106403D01*
X97407372Y-44106401D01*
X97347844Y-44100000D01*
X96775000Y-44100000D01*
X96775000Y-45000000D01*
X96275000Y-45000000D01*
X96275000Y-44100000D01*
X95702155Y-44100000D01*
X95642627Y-44106401D01*
X95642620Y-44106403D01*
X95507913Y-44156645D01*
X95507906Y-44156649D01*
X95392812Y-44242809D01*
X95392809Y-44242812D01*
X95306649Y-44357906D01*
X95306645Y-44357913D01*
X95256403Y-44492620D01*
X95256401Y-44492627D01*
X95250000Y-44552155D01*
X93744640Y-44552155D01*
X93809860Y-44514500D01*
X93868716Y-44480520D01*
X93980520Y-44368716D01*
X93980521Y-44368714D01*
X94480520Y-43868716D01*
X94559577Y-43731784D01*
X94600501Y-43579057D01*
X94600501Y-43420942D01*
X94600501Y-43413347D01*
X94600500Y-43413329D01*
X94600500Y-42300096D01*
X94620185Y-42233057D01*
X94636815Y-42212419D01*
X95162503Y-41686730D01*
X95223826Y-41653246D01*
X95293518Y-41658230D01*
X95349450Y-41700101D01*
X95392452Y-41757544D01*
X95392455Y-41757547D01*
X95507664Y-41843793D01*
X95507671Y-41843797D01*
X95642517Y-41894091D01*
X95642516Y-41894091D01*
X95649444Y-41894835D01*
X95702127Y-41900500D01*
X97347872Y-41900499D01*
X97407483Y-41894091D01*
X97542331Y-41843796D01*
X97657546Y-41757546D01*
X97743796Y-41642331D01*
X97794091Y-41507483D01*
X97800500Y-41447873D01*
X97800499Y-40052135D01*
X103199500Y-40052135D01*
X103199500Y-41447870D01*
X103199501Y-41447876D01*
X103205908Y-41507483D01*
X103256202Y-41642328D01*
X103256206Y-41642335D01*
X103342452Y-41757544D01*
X103342455Y-41757547D01*
X103457664Y-41843793D01*
X103457671Y-41843797D01*
X103592517Y-41894091D01*
X103592516Y-41894091D01*
X103599444Y-41894835D01*
X103652127Y-41900500D01*
X105297872Y-41900499D01*
X105357483Y-41894091D01*
X105492331Y-41843796D01*
X105607546Y-41757546D01*
X105693796Y-41642331D01*
X105744091Y-41507483D01*
X105750500Y-41447873D01*
X105750499Y-40052128D01*
X105745224Y-40003055D01*
X105744091Y-39992516D01*
X105693797Y-39857671D01*
X105693793Y-39857664D01*
X105607547Y-39742455D01*
X105607544Y-39742452D01*
X105492335Y-39656206D01*
X105492328Y-39656202D01*
X105357482Y-39605908D01*
X105357483Y-39605908D01*
X105297883Y-39599501D01*
X105297881Y-39599500D01*
X105297873Y-39599500D01*
X105297864Y-39599500D01*
X103652129Y-39599500D01*
X103652123Y-39599501D01*
X103592516Y-39605908D01*
X103457671Y-39656202D01*
X103457664Y-39656206D01*
X103342455Y-39742452D01*
X103342452Y-39742455D01*
X103256206Y-39857664D01*
X103256202Y-39857671D01*
X103205908Y-39992517D01*
X103199567Y-40051505D01*
X103199501Y-40052123D01*
X103199500Y-40052135D01*
X97800499Y-40052135D01*
X97800499Y-40052128D01*
X97795224Y-40003055D01*
X97794091Y-39992516D01*
X97743797Y-39857671D01*
X97743793Y-39857664D01*
X97657547Y-39742455D01*
X97657544Y-39742452D01*
X97542335Y-39656206D01*
X97542328Y-39656202D01*
X97407482Y-39605908D01*
X97407483Y-39605908D01*
X97347883Y-39599501D01*
X97347881Y-39599500D01*
X97347873Y-39599500D01*
X97347865Y-39599500D01*
X97249500Y-39599500D01*
X97182461Y-39579815D01*
X97136706Y-39527011D01*
X97125500Y-39475500D01*
X97125500Y-38725217D01*
X97145185Y-38658178D01*
X97184405Y-38619678D01*
X97268651Y-38567715D01*
X97268654Y-38567713D01*
X97268653Y-38567713D01*
X97268656Y-38567712D01*
X97392712Y-38443656D01*
X97394752Y-38440347D01*
X97396745Y-38438555D01*
X97397193Y-38437989D01*
X97397289Y-38438065D01*
X97446694Y-38393623D01*
X97515656Y-38382395D01*
X97579740Y-38410234D01*
X97605829Y-38440339D01*
X97607681Y-38443341D01*
X97607683Y-38443344D01*
X97731654Y-38567315D01*
X97880875Y-38659356D01*
X97880880Y-38659358D01*
X98047302Y-38714505D01*
X98047309Y-38714506D01*
X98150019Y-38724999D01*
X98287499Y-38724999D01*
X98287500Y-38724998D01*
X98287500Y-37624000D01*
X98307185Y-37556961D01*
X98359989Y-37511206D01*
X98411500Y-37500000D01*
X98663500Y-37500000D01*
X98730539Y-37519685D01*
X98776294Y-37572489D01*
X98787500Y-37624000D01*
X98787500Y-38724999D01*
X98924972Y-38724999D01*
X98924986Y-38724998D01*
X99027697Y-38714505D01*
X99194119Y-38659358D01*
X99194124Y-38659356D01*
X99343345Y-38567315D01*
X99467315Y-38443345D01*
X99559356Y-38294124D01*
X99559358Y-38294119D01*
X99614505Y-38127697D01*
X99614506Y-38127690D01*
X99624999Y-38024986D01*
X99624999Y-37773596D01*
X99644683Y-37706557D01*
X99697487Y-37660802D01*
X99766646Y-37650858D01*
X99830201Y-37679883D01*
X99836680Y-37685915D01*
X100015139Y-37864374D01*
X100015149Y-37864385D01*
X100019479Y-37868715D01*
X100019480Y-37868716D01*
X100131284Y-37980520D01*
X100208340Y-38025008D01*
X100268215Y-38059577D01*
X100420943Y-38100500D01*
X107913331Y-38100500D01*
X107913347Y-38100501D01*
X107920943Y-38100501D01*
X108079053Y-38100501D01*
X108079057Y-38100501D01*
X108231785Y-38059577D01*
X108231790Y-38059573D01*
X108233406Y-38059141D01*
X108303256Y-38060804D01*
X108361119Y-38099966D01*
X108388624Y-38164194D01*
X108389501Y-38178916D01*
X108389501Y-38600001D01*
X108389502Y-38600019D01*
X108400001Y-38702796D01*
X108400002Y-38702799D01*
X108425111Y-38778571D01*
X108455187Y-38869334D01*
X108547289Y-39018656D01*
X108671345Y-39142712D01*
X108805598Y-39225519D01*
X108852322Y-39277465D01*
X108864501Y-39331057D01*
X108864501Y-40424941D01*
X108844816Y-40491980D01*
X108805598Y-40530480D01*
X108671342Y-40613289D01*
X108547289Y-40737342D01*
X108455187Y-40886663D01*
X108455186Y-40886666D01*
X108400001Y-41053203D01*
X108400001Y-41053204D01*
X108400000Y-41053204D01*
X108389500Y-41155983D01*
X108389500Y-42156001D01*
X108389501Y-42156019D01*
X108400000Y-42258796D01*
X108400001Y-42258799D01*
X108455185Y-42425331D01*
X108455187Y-42425336D01*
X108475854Y-42458842D01*
X108547288Y-42574656D01*
X108671344Y-42698712D01*
X108820666Y-42790814D01*
X108987203Y-42845999D01*
X109089991Y-42856500D01*
X109890008Y-42856499D01*
X109890016Y-42856498D01*
X109890019Y-42856498D01*
X109958309Y-42849522D01*
X109992797Y-42845999D01*
X110159334Y-42790814D01*
X110308656Y-42698712D01*
X110402319Y-42605049D01*
X110463642Y-42571564D01*
X110533334Y-42576548D01*
X110577681Y-42605049D01*
X110671344Y-42698712D01*
X110820666Y-42790814D01*
X110987203Y-42845999D01*
X111089991Y-42856500D01*
X111890008Y-42856499D01*
X111890016Y-42856498D01*
X111890019Y-42856498D01*
X111958309Y-42849522D01*
X111992797Y-42845999D01*
X112131606Y-42800001D01*
X112201432Y-42797600D01*
X112261474Y-42833331D01*
X112275602Y-42851736D01*
X112323352Y-42927729D01*
X112370184Y-43002262D01*
X112497738Y-43129816D01*
X112541762Y-43157478D01*
X112609277Y-43199901D01*
X112650478Y-43225789D01*
X112792544Y-43275500D01*
X112820745Y-43285368D01*
X112820750Y-43285369D01*
X112999996Y-43305565D01*
X113000000Y-43305565D01*
X113000004Y-43305565D01*
X113179249Y-43285369D01*
X113179252Y-43285368D01*
X113179255Y-43285368D01*
X113349522Y-43225789D01*
X113502262Y-43129816D01*
X113629816Y-43002262D01*
X113725789Y-42849522D01*
X113785368Y-42679255D01*
X113785872Y-42674786D01*
X113805565Y-42500003D01*
X113805565Y-42499996D01*
X113785369Y-42320750D01*
X113785368Y-42320745D01*
X113725789Y-42150478D01*
X113629816Y-41997738D01*
X113629814Y-41997736D01*
X113629813Y-41997734D01*
X113627550Y-41994896D01*
X113626659Y-41992715D01*
X113626111Y-41991842D01*
X113626264Y-41991745D01*
X113601144Y-41930209D01*
X113600779Y-41923070D01*
X113600500Y-41920948D01*
X113600500Y-41920943D01*
X113599709Y-41917992D01*
X113580285Y-41845500D01*
X113559577Y-41768216D01*
X113546874Y-41746213D01*
X113480524Y-41631290D01*
X113480521Y-41631286D01*
X113480520Y-41631284D01*
X113368716Y-41519480D01*
X113368715Y-41519479D01*
X113364385Y-41515149D01*
X113364374Y-41515139D01*
X113143590Y-41294355D01*
X113143588Y-41294352D01*
X113024717Y-41175481D01*
X113024716Y-41175480D01*
X112921594Y-41115943D01*
X112921593Y-41115942D01*
X112887783Y-41096422D01*
X112831881Y-41081443D01*
X112735057Y-41055499D01*
X112735054Y-41055499D01*
X112670301Y-41055499D01*
X112603262Y-41035814D01*
X112557507Y-40983010D01*
X112552595Y-40970504D01*
X112550144Y-40963108D01*
X112524814Y-40886666D01*
X112432712Y-40737344D01*
X112308656Y-40613288D01*
X112159334Y-40521186D01*
X111992797Y-40466001D01*
X111992795Y-40466000D01*
X111890010Y-40455500D01*
X111089998Y-40455500D01*
X111089980Y-40455501D01*
X110987203Y-40466000D01*
X110987200Y-40466001D01*
X110820668Y-40521185D01*
X110820663Y-40521187D01*
X110671342Y-40613289D01*
X110577681Y-40706951D01*
X110516358Y-40740436D01*
X110446666Y-40735452D01*
X110402319Y-40706951D01*
X110308657Y-40613289D01*
X110308656Y-40613288D01*
X110159334Y-40521186D01*
X110159331Y-40521184D01*
X110150491Y-40518255D01*
X110093048Y-40478480D01*
X110066228Y-40413963D01*
X110065501Y-40400551D01*
X110065501Y-39331057D01*
X110085186Y-39264018D01*
X110124402Y-39225520D01*
X110258657Y-39142712D01*
X110382713Y-39018656D01*
X110384752Y-39015349D01*
X110386743Y-39013558D01*
X110387194Y-39012989D01*
X110387291Y-39013065D01*
X110436696Y-38968624D01*
X110505658Y-38957398D01*
X110569741Y-38985237D01*
X110595828Y-39015339D01*
X110597680Y-39018341D01*
X110597682Y-39018344D01*
X110721653Y-39142315D01*
X110870874Y-39234356D01*
X110870879Y-39234358D01*
X111037301Y-39289505D01*
X111037308Y-39289506D01*
X111140018Y-39299999D01*
X111264998Y-39299999D01*
X111764999Y-39299999D01*
X111889971Y-39299999D01*
X111889985Y-39299998D01*
X111992696Y-39289505D01*
X112159118Y-39234358D01*
X112159123Y-39234356D01*
X112308344Y-39142315D01*
X112432314Y-39018345D01*
X112524355Y-38869124D01*
X112524357Y-38869119D01*
X112579504Y-38702697D01*
X112579505Y-38702690D01*
X112589998Y-38599986D01*
X114486003Y-38599986D01*
X114496496Y-38702697D01*
X114551643Y-38869119D01*
X114551645Y-38869124D01*
X114643686Y-39018345D01*
X114767656Y-39142315D01*
X114916877Y-39234356D01*
X114916882Y-39234358D01*
X115083304Y-39289505D01*
X115083311Y-39289506D01*
X115186021Y-39299999D01*
X115311001Y-39299999D01*
X115311002Y-39299998D01*
X115311002Y-38350000D01*
X114486003Y-38350000D01*
X114486003Y-38599986D01*
X112589998Y-38599986D01*
X112589999Y-38599973D01*
X112589999Y-38350000D01*
X111764999Y-38350000D01*
X111764999Y-39299999D01*
X111264998Y-39299999D01*
X111264999Y-39299998D01*
X111264999Y-37850000D01*
X111764999Y-37850000D01*
X112589998Y-37850000D01*
X112589998Y-37600028D01*
X112589997Y-37600013D01*
X114486002Y-37600013D01*
X114486002Y-37850000D01*
X115311002Y-37850000D01*
X115311002Y-36900000D01*
X115186029Y-36900000D01*
X115186014Y-36900001D01*
X115083304Y-36910494D01*
X114916882Y-36965641D01*
X114916877Y-36965643D01*
X114767656Y-37057684D01*
X114643686Y-37181654D01*
X114551645Y-37330875D01*
X114551643Y-37330880D01*
X114496496Y-37497302D01*
X114496495Y-37497309D01*
X114486002Y-37600013D01*
X112589997Y-37600013D01*
X112579504Y-37497302D01*
X112524357Y-37330880D01*
X112524355Y-37330875D01*
X112432314Y-37181654D01*
X112308344Y-37057684D01*
X112159123Y-36965643D01*
X112159118Y-36965641D01*
X111992696Y-36910494D01*
X111992689Y-36910493D01*
X111889985Y-36900000D01*
X111764999Y-36900000D01*
X111764999Y-37850000D01*
X111264999Y-37850000D01*
X111264999Y-36889223D01*
X111244477Y-36851640D01*
X111248602Y-36784327D01*
X111285366Y-36679262D01*
X111285369Y-36679249D01*
X111305565Y-36500003D01*
X111305565Y-36499996D01*
X111285369Y-36320750D01*
X111285368Y-36320745D01*
X111282371Y-36312181D01*
X111225789Y-36150478D01*
X111216329Y-36135423D01*
X111168671Y-36059576D01*
X111129816Y-35997738D01*
X111002262Y-35870184D01*
X110971820Y-35851056D01*
X110849521Y-35774210D01*
X110832447Y-35768236D01*
X110775671Y-35727514D01*
X110749923Y-35662562D01*
X110763379Y-35594000D01*
X110785716Y-35563517D01*
X111712416Y-34636819D01*
X111773739Y-34603334D01*
X111800097Y-34600500D01*
X111819699Y-34600500D01*
X111886738Y-34620185D01*
X111932493Y-34672989D01*
X111937403Y-34685492D01*
X111965186Y-34769334D01*
X112057288Y-34918656D01*
X112181344Y-35042712D01*
X112330666Y-35134814D01*
X112497203Y-35189999D01*
X112599991Y-35200500D01*
X113400008Y-35200499D01*
X113400016Y-35200498D01*
X113400019Y-35200498D01*
X113456302Y-35194748D01*
X113502797Y-35189999D01*
X113669334Y-35134814D01*
X113818656Y-35042712D01*
X113912675Y-34948692D01*
X113973994Y-34915210D01*
X114043686Y-34920194D01*
X114088034Y-34948695D01*
X114181654Y-35042315D01*
X114330875Y-35134356D01*
X114330880Y-35134358D01*
X114497302Y-35189505D01*
X114497309Y-35189506D01*
X114600019Y-35199999D01*
X114749999Y-35199999D01*
X115250000Y-35199999D01*
X115399972Y-35199999D01*
X115399986Y-35199998D01*
X115502697Y-35189505D01*
X115669119Y-35134358D01*
X115669124Y-35134356D01*
X115818345Y-35042315D01*
X115942315Y-34918345D01*
X116034356Y-34769124D01*
X116034358Y-34769119D01*
X116089505Y-34602697D01*
X116089506Y-34602690D01*
X116099999Y-34499986D01*
X116100000Y-34499973D01*
X116100000Y-34250000D01*
X115250000Y-34250000D01*
X115250000Y-35199999D01*
X114749999Y-35199999D01*
X114750000Y-35199998D01*
X114750000Y-34124000D01*
X114769685Y-34056961D01*
X114822489Y-34011206D01*
X114874000Y-34000000D01*
X115000000Y-34000000D01*
X115000000Y-33874000D01*
X115019685Y-33806961D01*
X115072489Y-33761206D01*
X115124000Y-33750000D01*
X116099999Y-33750000D01*
X116099999Y-33500028D01*
X116099998Y-33500013D01*
X116089505Y-33397302D01*
X116034358Y-33230880D01*
X116034356Y-33230875D01*
X115942315Y-33081654D01*
X115876831Y-33016170D01*
X115843346Y-32954847D01*
X115848330Y-32885155D01*
X115890202Y-32829222D01*
X115955666Y-32804805D01*
X115964497Y-32804489D01*
X118466150Y-32804489D01*
X118533189Y-32824174D01*
X118578944Y-32876978D01*
X118590150Y-32928489D01*
X118590150Y-36949527D01*
X118570465Y-37016566D01*
X118517661Y-37062321D01*
X118448503Y-37072265D01*
X118401054Y-37055066D01*
X118255340Y-36965189D01*
X118255335Y-36965187D01*
X118255334Y-36965186D01*
X118088797Y-36910001D01*
X118088795Y-36910000D01*
X117986010Y-36899500D01*
X117235998Y-36899500D01*
X117235980Y-36899501D01*
X117133203Y-36910000D01*
X117133200Y-36910001D01*
X116966668Y-36965185D01*
X116966663Y-36965187D01*
X116817342Y-37057289D01*
X116693288Y-37181343D01*
X116693284Y-37181348D01*
X116691241Y-37184661D01*
X116689247Y-37186453D01*
X116688807Y-37187011D01*
X116688711Y-37186935D01*
X116639290Y-37231382D01*
X116570327Y-37242599D01*
X116506247Y-37214752D01*
X116480170Y-37184656D01*
X116478321Y-37181659D01*
X116478318Y-37181655D01*
X116354347Y-37057684D01*
X116205126Y-36965643D01*
X116205121Y-36965641D01*
X116038699Y-36910494D01*
X116038692Y-36910493D01*
X115935988Y-36900000D01*
X115811002Y-36900000D01*
X115811002Y-39299999D01*
X115935974Y-39299999D01*
X115935988Y-39299998D01*
X116038699Y-39289505D01*
X116205121Y-39234358D01*
X116205126Y-39234356D01*
X116354347Y-39142315D01*
X116478318Y-39018344D01*
X116480164Y-39015352D01*
X116481968Y-39013728D01*
X116482800Y-39012677D01*
X116482979Y-39012819D01*
X116532108Y-38968623D01*
X116601070Y-38957396D01*
X116665154Y-38985235D01*
X116691247Y-39015347D01*
X116693288Y-39018656D01*
X116817344Y-39142712D01*
X116951597Y-39225519D01*
X116998321Y-39277465D01*
X117010500Y-39331057D01*
X117010500Y-40400551D01*
X116990815Y-40467590D01*
X116938011Y-40513345D01*
X116925507Y-40518256D01*
X116916667Y-40521185D01*
X116767342Y-40613289D01*
X116673681Y-40706951D01*
X116612358Y-40740436D01*
X116542666Y-40735452D01*
X116498319Y-40706951D01*
X116404657Y-40613289D01*
X116404656Y-40613288D01*
X116255334Y-40521186D01*
X116088797Y-40466001D01*
X116088795Y-40466000D01*
X115986010Y-40455500D01*
X115185998Y-40455500D01*
X115185980Y-40455501D01*
X115083203Y-40466000D01*
X115083200Y-40466001D01*
X114916668Y-40521185D01*
X114916663Y-40521187D01*
X114767342Y-40613289D01*
X114643289Y-40737342D01*
X114551187Y-40886663D01*
X114551186Y-40886666D01*
X114496001Y-41053203D01*
X114496001Y-41053204D01*
X114496000Y-41053204D01*
X114485500Y-41155983D01*
X114485500Y-42156001D01*
X114485501Y-42156019D01*
X114496000Y-42258796D01*
X114496001Y-42258799D01*
X114551185Y-42425331D01*
X114551187Y-42425336D01*
X114571854Y-42458842D01*
X114643288Y-42574656D01*
X114767344Y-42698712D01*
X114916666Y-42790814D01*
X114916667Y-42790814D01*
X114922813Y-42794605D01*
X114921706Y-42796399D01*
X114966337Y-42835687D01*
X114985500Y-42901908D01*
X114985500Y-43613903D01*
X114965815Y-43680942D01*
X114949181Y-43701584D01*
X114787584Y-43863181D01*
X114726261Y-43896666D01*
X114699903Y-43899500D01*
X112920940Y-43899500D01*
X112880019Y-43910464D01*
X112880019Y-43910465D01*
X112842751Y-43920451D01*
X112768214Y-43940423D01*
X112768209Y-43940426D01*
X112631290Y-44019475D01*
X112631282Y-44019481D01*
X112559822Y-44090942D01*
X112519480Y-44131284D01*
X112519478Y-44131286D01*
X111898503Y-44752262D01*
X111287584Y-45363181D01*
X111226261Y-45396666D01*
X111199903Y-45399500D01*
X111082412Y-45399500D01*
X111015373Y-45379815D01*
X111005097Y-45372445D01*
X111002263Y-45370185D01*
X111002262Y-45370184D01*
X110918117Y-45317312D01*
X110849523Y-45274211D01*
X110679254Y-45214631D01*
X110679249Y-45214630D01*
X110500004Y-45194435D01*
X110499996Y-45194435D01*
X110320750Y-45214630D01*
X110320745Y-45214631D01*
X110150476Y-45274211D01*
X109997737Y-45370184D01*
X109870184Y-45497737D01*
X109774211Y-45650476D01*
X109714631Y-45820745D01*
X109714630Y-45820750D01*
X109694435Y-45999996D01*
X109694435Y-46000003D01*
X109714630Y-46179249D01*
X109714631Y-46179254D01*
X109774211Y-46349523D01*
X109862621Y-46490226D01*
X109870184Y-46502262D01*
X109997738Y-46629816D01*
X110047622Y-46661160D01*
X110140529Y-46719538D01*
X110150478Y-46725789D01*
X110320745Y-46785368D01*
X110320750Y-46785369D01*
X110499996Y-46805565D01*
X110500000Y-46805565D01*
X110500004Y-46805565D01*
X110679249Y-46785369D01*
X110679252Y-46785368D01*
X110679255Y-46785368D01*
X110849522Y-46725789D01*
X111002262Y-46629816D01*
X111002267Y-46629810D01*
X111005097Y-46627555D01*
X111007275Y-46626665D01*
X111008158Y-46626111D01*
X111008255Y-46626265D01*
X111069783Y-46601145D01*
X111082412Y-46600500D01*
X111413331Y-46600500D01*
X111413347Y-46600501D01*
X111420943Y-46600501D01*
X111579054Y-46600501D01*
X111579057Y-46600501D01*
X111731785Y-46559577D01*
X111821406Y-46507834D01*
X111868716Y-46480520D01*
X111980520Y-46368716D01*
X111980520Y-46368714D01*
X111990724Y-46358511D01*
X111990727Y-46358506D01*
X113212416Y-45136819D01*
X113273739Y-45103334D01*
X113300097Y-45100500D01*
X114913331Y-45100500D01*
X114913347Y-45100501D01*
X114920943Y-45100501D01*
X115079054Y-45100501D01*
X115079057Y-45100501D01*
X115231785Y-45059577D01*
X115301233Y-45019481D01*
X115368716Y-44980520D01*
X115480520Y-44868716D01*
X115480520Y-44868714D01*
X115490724Y-44858511D01*
X115490728Y-44858506D01*
X115944506Y-44404728D01*
X115944511Y-44404724D01*
X115954714Y-44394520D01*
X115954716Y-44394520D01*
X116066520Y-44282716D01*
X116131052Y-44170943D01*
X116145577Y-44145785D01*
X116186500Y-43993057D01*
X116186500Y-43834943D01*
X116186500Y-42901908D01*
X116206185Y-42834869D01*
X116250271Y-42796363D01*
X116249187Y-42794605D01*
X116255332Y-42790814D01*
X116255334Y-42790814D01*
X116404656Y-42698712D01*
X116498319Y-42605049D01*
X116559642Y-42571564D01*
X116629334Y-42576548D01*
X116673681Y-42605049D01*
X116767344Y-42698712D01*
X116916666Y-42790814D01*
X117083203Y-42845999D01*
X117185991Y-42856500D01*
X117986008Y-42856499D01*
X117986016Y-42856498D01*
X117986019Y-42856498D01*
X118054309Y-42849522D01*
X118088797Y-42845999D01*
X118255334Y-42790814D01*
X118401056Y-42700931D01*
X118468445Y-42682493D01*
X118535109Y-42703415D01*
X118579879Y-42757057D01*
X118590150Y-42806472D01*
X118590150Y-83876000D01*
X118570465Y-83943039D01*
X118517661Y-83988794D01*
X118466150Y-84000000D01*
X112000000Y-84000000D01*
X111993187Y-90602435D01*
X111973433Y-90669454D01*
X111920582Y-90715154D01*
X111869187Y-90726307D01*
X59124000Y-90726307D01*
X59056961Y-90706622D01*
X59011206Y-90653818D01*
X59000000Y-90602307D01*
X59000000Y-84000000D01*
X51891693Y-84000000D01*
X51824654Y-83980315D01*
X51778899Y-83927511D01*
X51767693Y-83876000D01*
X51767693Y-32999993D01*
X63094700Y-32999993D01*
X63094700Y-33000006D01*
X63113864Y-33231297D01*
X63113866Y-33231308D01*
X63170842Y-33456300D01*
X63264075Y-33668848D01*
X63391016Y-33863147D01*
X63391019Y-33863151D01*
X63391021Y-33863153D01*
X63548216Y-34033913D01*
X63548219Y-34033915D01*
X63548222Y-34033918D01*
X63731365Y-34176464D01*
X63731371Y-34176468D01*
X63731374Y-34176470D01*
X63852574Y-34242060D01*
X63932599Y-34285368D01*
X63935497Y-34286936D01*
X64049487Y-34326068D01*
X64155015Y-34362297D01*
X64155017Y-34362297D01*
X64155019Y-34362298D01*
X64383951Y-34400500D01*
X64383952Y-34400500D01*
X64616048Y-34400500D01*
X64616049Y-34400500D01*
X64844981Y-34362298D01*
X65064503Y-34286936D01*
X65268626Y-34176470D01*
X65451784Y-34033913D01*
X65608979Y-33863153D01*
X65735924Y-33668849D01*
X65829157Y-33456300D01*
X65886134Y-33231305D01*
X65886135Y-33231297D01*
X65905300Y-33000006D01*
X65905300Y-32999993D01*
X65886135Y-32768702D01*
X65886133Y-32768691D01*
X65829157Y-32543699D01*
X65735924Y-32331151D01*
X65608983Y-32136852D01*
X65608980Y-32136849D01*
X65608979Y-32136847D01*
X65451784Y-31966087D01*
X65451779Y-31966083D01*
X65451777Y-31966081D01*
X65268634Y-31823535D01*
X65268628Y-31823531D01*
X65064504Y-31713064D01*
X65064495Y-31713061D01*
X64844984Y-31637702D01*
X64636184Y-31602860D01*
X64616049Y-31599500D01*
X64383951Y-31599500D01*
X64363816Y-31602860D01*
X64155015Y-31637702D01*
X63935504Y-31713061D01*
X63935495Y-31713064D01*
X63731371Y-31823531D01*
X63731365Y-31823535D01*
X63548222Y-31966081D01*
X63548219Y-31966084D01*
X63548216Y-31966086D01*
X63548216Y-31966087D01*
X63546535Y-31967913D01*
X63391016Y-32136852D01*
X63264075Y-32331151D01*
X63170842Y-32543699D01*
X63113866Y-32768691D01*
X63113864Y-32768702D01*
X63094700Y-32999993D01*
X51767693Y-32999993D01*
X51767693Y-32928489D01*
X51787378Y-32861450D01*
X51840182Y-32815695D01*
X51891688Y-32804489D01*
X58500000Y-32804489D01*
X58500000Y-26278500D01*
X58519685Y-26211461D01*
X58572489Y-26165706D01*
X58624000Y-26154500D01*
X61430343Y-26154500D01*
X61497382Y-26174185D01*
G37*
G04 #@! TD.AperFunction*
G04 #@! TA.AperFunction,Conductor*
G36*
X78394690Y-42815185D02*
G01*
X78440445Y-42867989D01*
X78450590Y-42903316D01*
X78453804Y-42927731D01*
X78451595Y-42961472D01*
X78453374Y-42961707D01*
X78452313Y-42969763D01*
X78452313Y-42969764D01*
X78450071Y-42986792D01*
X78437500Y-43082272D01*
X78437500Y-43307727D01*
X78452313Y-43420235D01*
X78452313Y-43420236D01*
X78509767Y-43558943D01*
X78510302Y-43560233D01*
X78602549Y-43680451D01*
X78722767Y-43772698D01*
X78862764Y-43830687D01*
X78889207Y-43834168D01*
X78953103Y-43862434D01*
X78991575Y-43920758D01*
X78992407Y-43990623D01*
X78990064Y-43998060D01*
X78964633Y-44070739D01*
X78964630Y-44070750D01*
X78944435Y-44249996D01*
X78944435Y-44250003D01*
X78964630Y-44429249D01*
X78964631Y-44429254D01*
X79024211Y-44599523D01*
X79102740Y-44724500D01*
X79120184Y-44752262D01*
X79247738Y-44879816D01*
X79274555Y-44896666D01*
X79390244Y-44969359D01*
X79400478Y-44975789D01*
X79489612Y-45006978D01*
X79536338Y-45036338D01*
X80999998Y-46499998D01*
X81000000Y-46500000D01*
X81000116Y-46499912D01*
X81065555Y-46475437D01*
X81133842Y-46490226D01*
X81162196Y-46511432D01*
X81169298Y-46518534D01*
X81202783Y-46579857D01*
X81204837Y-46592331D01*
X81214630Y-46679249D01*
X81214631Y-46679254D01*
X81214632Y-46679255D01*
X81219883Y-46694262D01*
X81274210Y-46849521D01*
X81305614Y-46899500D01*
X81370184Y-47002262D01*
X81497738Y-47129816D01*
X81552138Y-47163998D01*
X81650479Y-47225790D01*
X81695686Y-47241608D01*
X81752463Y-47282329D01*
X81778211Y-47347281D01*
X81764755Y-47415843D01*
X81745862Y-47442743D01*
X78315629Y-51159992D01*
X78255699Y-51195910D01*
X78185863Y-51193726D01*
X78128294Y-51154133D01*
X78101270Y-51089701D01*
X78100500Y-51075899D01*
X78100500Y-49089060D01*
X78100501Y-49089047D01*
X78100501Y-48920944D01*
X78094889Y-48900000D01*
X78059577Y-48768216D01*
X78006607Y-48676468D01*
X77980524Y-48631290D01*
X77980518Y-48631282D01*
X77136819Y-47787583D01*
X77103334Y-47726260D01*
X77100500Y-47699902D01*
X77100500Y-43300097D01*
X77120185Y-43233058D01*
X77136819Y-43212416D01*
X77517416Y-42831819D01*
X77578739Y-42798334D01*
X77605097Y-42795500D01*
X78327651Y-42795500D01*
X78394690Y-42815185D01*
G37*
G04 #@! TD.AperFunction*
G04 #@! TA.AperFunction,Conductor*
G36*
X68723762Y-46120185D02*
G01*
X68769517Y-46172989D01*
X68779461Y-46242147D01*
X68750436Y-46305703D01*
X68732885Y-46322354D01*
X68548224Y-46466081D01*
X68548216Y-46466087D01*
X68391021Y-46636847D01*
X68391019Y-46636849D01*
X68391017Y-46636852D01*
X68353509Y-46694262D01*
X68300362Y-46739618D01*
X68231131Y-46749041D01*
X68167795Y-46719538D01*
X68153084Y-46702561D01*
X68151186Y-46702364D01*
X67564612Y-47288939D01*
X67559111Y-47268409D01*
X67480119Y-47131592D01*
X67368408Y-47019881D01*
X67231591Y-46940889D01*
X67211057Y-46935387D01*
X67798797Y-46347647D01*
X67798797Y-46347646D01*
X67766301Y-46322353D01*
X67725488Y-46265643D01*
X67721815Y-46195870D01*
X67756446Y-46135187D01*
X67818388Y-46102860D01*
X67842464Y-46100500D01*
X68656723Y-46100500D01*
X68723762Y-46120185D01*
G37*
G04 #@! TD.AperFunction*
G04 #@! TA.AperFunction,Conductor*
G36*
X80766942Y-30120185D02*
G01*
X80787584Y-30136819D01*
X81921661Y-31270897D01*
X81955146Y-31332220D01*
X81950162Y-31401912D01*
X81921663Y-31446258D01*
X81870183Y-31497739D01*
X81774211Y-31650476D01*
X81714631Y-31820745D01*
X81714630Y-31820750D01*
X81694435Y-31999996D01*
X81694435Y-32000003D01*
X81714630Y-32179249D01*
X81714633Y-32179262D01*
X81767220Y-32329545D01*
X81770782Y-32399324D01*
X81736054Y-32459951D01*
X81674060Y-32492179D01*
X81650179Y-32494500D01*
X81525272Y-32494500D01*
X81412764Y-32509313D01*
X81412763Y-32509313D01*
X81272770Y-32567300D01*
X81152546Y-32659551D01*
X81063349Y-32775794D01*
X81006921Y-32816997D01*
X80937175Y-32821151D01*
X80899002Y-32805301D01*
X80849523Y-32774211D01*
X80679254Y-32714631D01*
X80679249Y-32714630D01*
X80500004Y-32694435D01*
X80499996Y-32694435D01*
X80320750Y-32714630D01*
X80320745Y-32714631D01*
X80150476Y-32774211D01*
X79997737Y-32870184D01*
X79870184Y-32997737D01*
X79774211Y-33150476D01*
X79714631Y-33320745D01*
X79714630Y-33320750D01*
X79694435Y-33499996D01*
X79694435Y-33500003D01*
X79714630Y-33679249D01*
X79714631Y-33679254D01*
X79774211Y-33849523D01*
X79846007Y-33963785D01*
X79870184Y-34002262D01*
X79997738Y-34129816D01*
X80150478Y-34225789D01*
X80320745Y-34285368D01*
X80320749Y-34285369D01*
X80454608Y-34300450D01*
X80470095Y-34302195D01*
X80518212Y-34318027D01*
X80538216Y-34329577D01*
X80690943Y-34370501D01*
X80690945Y-34370501D01*
X80856654Y-34370501D01*
X80856670Y-34370500D01*
X80863500Y-34370500D01*
X80930539Y-34390185D01*
X80976294Y-34442989D01*
X80987500Y-34494500D01*
X80987500Y-34507727D01*
X81002313Y-34620235D01*
X81002313Y-34620236D01*
X81054485Y-34746191D01*
X81060302Y-34760233D01*
X81152549Y-34880451D01*
X81272767Y-34972698D01*
X81412764Y-35030687D01*
X81517684Y-35044500D01*
X81525264Y-35045498D01*
X81525280Y-35045500D01*
X81525287Y-35045500D01*
X81750713Y-35045500D01*
X81750720Y-35045500D01*
X81863236Y-35030687D01*
X81863236Y-35030686D01*
X81871295Y-35029626D01*
X81871530Y-35031418D01*
X81905269Y-35029195D01*
X81987999Y-35040086D01*
X81990155Y-35038195D01*
X82007685Y-34978497D01*
X82036512Y-34947161D01*
X82062515Y-34927208D01*
X82127684Y-34902016D01*
X82196129Y-34916055D01*
X82213484Y-34927208D01*
X82239486Y-34947160D01*
X82280689Y-35003587D01*
X82286878Y-35039102D01*
X82288000Y-35040086D01*
X82370730Y-35029195D01*
X82404469Y-35031415D01*
X82404705Y-35029626D01*
X82412763Y-35030686D01*
X82412764Y-35030687D01*
X82525280Y-35045500D01*
X82525287Y-35045500D01*
X82750713Y-35045500D01*
X82750720Y-35045500D01*
X82863236Y-35030687D01*
X82863236Y-35030686D01*
X82871295Y-35029626D01*
X82871698Y-35032689D01*
X82904302Y-35032689D01*
X82904705Y-35029626D01*
X82912763Y-35030686D01*
X82912764Y-35030687D01*
X83025280Y-35045500D01*
X83025287Y-35045500D01*
X83250713Y-35045500D01*
X83250720Y-35045500D01*
X83363236Y-35030687D01*
X83363236Y-35030686D01*
X83371295Y-35029626D01*
X83371698Y-35032689D01*
X83404302Y-35032689D01*
X83404705Y-35029626D01*
X83412763Y-35030686D01*
X83412764Y-35030687D01*
X83525280Y-35045500D01*
X83525287Y-35045500D01*
X83750713Y-35045500D01*
X83750720Y-35045500D01*
X83863236Y-35030687D01*
X83863236Y-35030686D01*
X83871295Y-35029626D01*
X83871698Y-35032689D01*
X83904302Y-35032689D01*
X83904705Y-35029626D01*
X83912763Y-35030686D01*
X83912764Y-35030687D01*
X84025280Y-35045500D01*
X84025287Y-35045500D01*
X84250713Y-35045500D01*
X84250720Y-35045500D01*
X84363236Y-35030687D01*
X84363236Y-35030686D01*
X84371295Y-35029626D01*
X84371698Y-35032689D01*
X84404302Y-35032689D01*
X84404705Y-35029626D01*
X84412763Y-35030686D01*
X84412764Y-35030687D01*
X84525280Y-35045500D01*
X84525287Y-35045500D01*
X84750713Y-35045500D01*
X84750720Y-35045500D01*
X84863236Y-35030687D01*
X84863236Y-35030686D01*
X84871295Y-35029626D01*
X84871698Y-35032689D01*
X84904302Y-35032689D01*
X84904705Y-35029626D01*
X84912763Y-35030686D01*
X84912764Y-35030687D01*
X85025280Y-35045500D01*
X85025287Y-35045500D01*
X85250713Y-35045500D01*
X85250720Y-35045500D01*
X85363236Y-35030687D01*
X85363236Y-35030686D01*
X85371295Y-35029626D01*
X85371698Y-35032689D01*
X85404302Y-35032689D01*
X85404705Y-35029626D01*
X85412763Y-35030686D01*
X85412764Y-35030687D01*
X85525280Y-35045500D01*
X85525287Y-35045500D01*
X85750713Y-35045500D01*
X85750720Y-35045500D01*
X85863236Y-35030687D01*
X85863236Y-35030686D01*
X85871295Y-35029626D01*
X85871698Y-35032689D01*
X85904302Y-35032689D01*
X85904705Y-35029626D01*
X85912763Y-35030686D01*
X85912764Y-35030687D01*
X86025280Y-35045500D01*
X86025287Y-35045500D01*
X86250713Y-35045500D01*
X86250720Y-35045500D01*
X86363236Y-35030687D01*
X86363236Y-35030686D01*
X86371295Y-35029626D01*
X86371698Y-35032689D01*
X86404302Y-35032689D01*
X86404705Y-35029626D01*
X86412763Y-35030686D01*
X86412764Y-35030687D01*
X86525280Y-35045500D01*
X86525287Y-35045500D01*
X86750713Y-35045500D01*
X86750720Y-35045500D01*
X86863236Y-35030687D01*
X86863236Y-35030686D01*
X86871295Y-35029626D01*
X86871698Y-35032689D01*
X86904302Y-35032689D01*
X86904705Y-35029626D01*
X86912763Y-35030686D01*
X86912764Y-35030687D01*
X87025280Y-35045500D01*
X87025287Y-35045500D01*
X87250713Y-35045500D01*
X87250720Y-35045500D01*
X87363236Y-35030687D01*
X87363236Y-35030686D01*
X87371295Y-35029626D01*
X87371698Y-35032689D01*
X87404302Y-35032689D01*
X87404705Y-35029626D01*
X87412763Y-35030686D01*
X87412764Y-35030687D01*
X87525280Y-35045500D01*
X87525287Y-35045500D01*
X87750713Y-35045500D01*
X87750720Y-35045500D01*
X87863236Y-35030687D01*
X87863236Y-35030686D01*
X87871295Y-35029626D01*
X87871698Y-35032689D01*
X87904302Y-35032689D01*
X87904705Y-35029626D01*
X87912763Y-35030686D01*
X87912764Y-35030687D01*
X88025280Y-35045500D01*
X88025287Y-35045500D01*
X88250713Y-35045500D01*
X88250720Y-35045500D01*
X88363236Y-35030687D01*
X88363236Y-35030686D01*
X88371295Y-35029626D01*
X88371698Y-35032689D01*
X88404302Y-35032689D01*
X88404705Y-35029626D01*
X88412763Y-35030686D01*
X88412764Y-35030687D01*
X88525280Y-35045500D01*
X88525287Y-35045500D01*
X88750713Y-35045500D01*
X88750720Y-35045500D01*
X88863236Y-35030687D01*
X88863236Y-35030686D01*
X88871295Y-35029626D01*
X88871698Y-35032689D01*
X88904302Y-35032689D01*
X88904705Y-35029626D01*
X88912763Y-35030686D01*
X88912764Y-35030687D01*
X89025280Y-35045500D01*
X89025287Y-35045500D01*
X89250713Y-35045500D01*
X89250720Y-35045500D01*
X89363236Y-35030687D01*
X89503233Y-34972698D01*
X89623451Y-34880451D01*
X89715698Y-34760233D01*
X89773687Y-34620236D01*
X89788500Y-34507720D01*
X89788500Y-33032280D01*
X89773687Y-32919764D01*
X89715698Y-32779767D01*
X89623451Y-32659549D01*
X89503233Y-32567302D01*
X89503229Y-32567300D01*
X89439801Y-32541027D01*
X89363236Y-32509313D01*
X89344809Y-32506887D01*
X89250727Y-32494500D01*
X89250720Y-32494500D01*
X89025280Y-32494500D01*
X89025272Y-32494500D01*
X88942706Y-32505371D01*
X88912764Y-32509313D01*
X88912762Y-32509313D01*
X88904708Y-32510374D01*
X88904316Y-32507399D01*
X88871684Y-32507399D01*
X88871292Y-32510374D01*
X88863237Y-32509313D01*
X88863236Y-32509313D01*
X88833294Y-32505371D01*
X88750727Y-32494500D01*
X88750720Y-32494500D01*
X88525280Y-32494500D01*
X88525272Y-32494500D01*
X88442706Y-32505371D01*
X88412764Y-32509313D01*
X88412762Y-32509313D01*
X88404708Y-32510374D01*
X88404316Y-32507399D01*
X88371684Y-32507399D01*
X88371292Y-32510374D01*
X88363237Y-32509313D01*
X88363236Y-32509313D01*
X88333294Y-32505371D01*
X88250727Y-32494500D01*
X88250720Y-32494500D01*
X88025280Y-32494500D01*
X88025272Y-32494500D01*
X87942706Y-32505371D01*
X87912764Y-32509313D01*
X87912762Y-32509313D01*
X87904708Y-32510374D01*
X87904316Y-32507399D01*
X87871684Y-32507399D01*
X87871292Y-32510374D01*
X87863237Y-32509313D01*
X87863236Y-32509313D01*
X87833294Y-32505371D01*
X87750727Y-32494500D01*
X87750720Y-32494500D01*
X87525280Y-32494500D01*
X87525272Y-32494500D01*
X87442706Y-32505371D01*
X87412764Y-32509313D01*
X87412762Y-32509313D01*
X87404708Y-32510374D01*
X87404316Y-32507399D01*
X87371684Y-32507399D01*
X87371292Y-32510374D01*
X87363237Y-32509313D01*
X87363236Y-32509313D01*
X87333294Y-32505371D01*
X87250727Y-32494500D01*
X87250720Y-32494500D01*
X87025280Y-32494500D01*
X87025272Y-32494500D01*
X86942706Y-32505371D01*
X86912764Y-32509313D01*
X86912762Y-32509313D01*
X86904708Y-32510374D01*
X86904316Y-32507399D01*
X86871684Y-32507399D01*
X86871292Y-32510374D01*
X86863237Y-32509313D01*
X86863236Y-32509313D01*
X86833294Y-32505371D01*
X86750727Y-32494500D01*
X86750720Y-32494500D01*
X86525280Y-32494500D01*
X86525272Y-32494500D01*
X86442706Y-32505371D01*
X86412764Y-32509313D01*
X86412762Y-32509313D01*
X86404708Y-32510374D01*
X86404316Y-32507399D01*
X86371684Y-32507399D01*
X86371292Y-32510374D01*
X86363237Y-32509313D01*
X86363236Y-32509313D01*
X86333294Y-32505371D01*
X86250727Y-32494500D01*
X86250720Y-32494500D01*
X86025280Y-32494500D01*
X86025272Y-32494500D01*
X85942706Y-32505371D01*
X85912764Y-32509313D01*
X85912762Y-32509313D01*
X85904708Y-32510374D01*
X85904316Y-32507399D01*
X85871684Y-32507399D01*
X85871292Y-32510374D01*
X85863237Y-32509313D01*
X85863236Y-32509313D01*
X85833294Y-32505371D01*
X85750727Y-32494500D01*
X85750720Y-32494500D01*
X85525280Y-32494500D01*
X85525272Y-32494500D01*
X85442706Y-32505371D01*
X85412764Y-32509313D01*
X85412762Y-32509313D01*
X85404708Y-32510374D01*
X85404316Y-32507399D01*
X85371684Y-32507399D01*
X85371292Y-32510374D01*
X85363237Y-32509313D01*
X85363236Y-32509313D01*
X85333294Y-32505371D01*
X85250727Y-32494500D01*
X85250720Y-32494500D01*
X85025280Y-32494500D01*
X85025272Y-32494500D01*
X84942706Y-32505371D01*
X84912764Y-32509313D01*
X84912762Y-32509313D01*
X84904708Y-32510374D01*
X84904316Y-32507399D01*
X84871684Y-32507399D01*
X84871292Y-32510374D01*
X84863237Y-32509313D01*
X84863236Y-32509313D01*
X84821313Y-32503793D01*
X84757418Y-32475527D01*
X84718947Y-32417203D01*
X84713500Y-32380855D01*
X84713500Y-31005297D01*
X84733185Y-30938258D01*
X84749819Y-30917616D01*
X84805616Y-30861819D01*
X84866939Y-30828334D01*
X84893297Y-30825500D01*
X88076374Y-30825500D01*
X88143413Y-30845185D01*
X88164055Y-30861819D01*
X88266610Y-30964374D01*
X88266620Y-30964385D01*
X88270950Y-30968715D01*
X88270951Y-30968716D01*
X88382755Y-31080520D01*
X88469566Y-31130639D01*
X88469568Y-31130641D01*
X88504332Y-31150712D01*
X88519686Y-31159577D01*
X88672414Y-31200500D01*
X89199901Y-31200500D01*
X89266940Y-31220185D01*
X89287582Y-31236819D01*
X89481283Y-31430520D01*
X89481285Y-31430521D01*
X89481289Y-31430524D01*
X89597709Y-31497738D01*
X89618215Y-31509577D01*
X89702979Y-31532289D01*
X89762638Y-31568655D01*
X89770150Y-31577752D01*
X89787179Y-31600500D01*
X89792455Y-31607547D01*
X89907664Y-31693793D01*
X89907671Y-31693797D01*
X90042517Y-31744091D01*
X90042516Y-31744091D01*
X90049444Y-31744835D01*
X90102127Y-31750500D01*
X91397872Y-31750499D01*
X91457483Y-31744091D01*
X91592331Y-31693796D01*
X91707546Y-31607546D01*
X91793796Y-31492331D01*
X91844091Y-31357483D01*
X91850500Y-31297873D01*
X91850499Y-30623999D01*
X91870183Y-30556961D01*
X91922987Y-30511206D01*
X91974499Y-30500000D01*
X92000000Y-30500000D01*
X92025500Y-30500000D01*
X92092539Y-30519685D01*
X92138294Y-30572489D01*
X92149500Y-30624000D01*
X92149500Y-31297870D01*
X92149501Y-31297876D01*
X92155908Y-31357483D01*
X92206202Y-31492328D01*
X92206204Y-31492331D01*
X92260442Y-31564784D01*
X92284859Y-31630249D01*
X92270007Y-31698522D01*
X92220602Y-31747927D01*
X92202130Y-31756136D01*
X92150480Y-31774209D01*
X91997737Y-31870184D01*
X91870184Y-31997737D01*
X91774211Y-32150476D01*
X91714631Y-32320745D01*
X91714630Y-32320750D01*
X91694435Y-32499996D01*
X91694435Y-32500003D01*
X91714630Y-32679249D01*
X91714632Y-32679257D01*
X91752277Y-32786841D01*
X91755838Y-32856620D01*
X91721109Y-32917247D01*
X91659115Y-32949474D01*
X91589540Y-32943068D01*
X91547554Y-32915476D01*
X91502262Y-32870184D01*
X91349523Y-32774211D01*
X91179254Y-32714631D01*
X91179249Y-32714630D01*
X91000004Y-32694435D01*
X90999996Y-32694435D01*
X90820750Y-32714630D01*
X90820745Y-32714631D01*
X90650476Y-32774211D01*
X90497737Y-32870184D01*
X90370184Y-32997737D01*
X90274211Y-33150476D01*
X90214631Y-33320745D01*
X90214630Y-33320750D01*
X90194435Y-33499996D01*
X90194435Y-33500003D01*
X90214630Y-33679249D01*
X90214631Y-33679254D01*
X90274211Y-33849523D01*
X90370184Y-34002262D01*
X90426181Y-34058259D01*
X90459666Y-34119582D01*
X90462500Y-34145940D01*
X90462500Y-34920500D01*
X90442815Y-34987539D01*
X90390011Y-35033294D01*
X90338500Y-35044500D01*
X90325272Y-35044500D01*
X90212764Y-35059313D01*
X90212763Y-35059313D01*
X90072770Y-35117300D01*
X90072767Y-35117301D01*
X90072767Y-35117302D01*
X89952549Y-35209549D01*
X89868692Y-35318834D01*
X89860300Y-35329770D01*
X89802313Y-35469763D01*
X89802313Y-35469764D01*
X89787500Y-35582272D01*
X89787500Y-35807727D01*
X89803374Y-35928293D01*
X89801593Y-35928527D01*
X89803804Y-35962270D01*
X89792911Y-36044999D01*
X89794801Y-36047154D01*
X89854503Y-36064685D01*
X89885838Y-36093512D01*
X89892197Y-36101799D01*
X89905791Y-36119515D01*
X89930984Y-36184684D01*
X89916945Y-36253129D01*
X89905791Y-36270484D01*
X89885839Y-36296486D01*
X89829413Y-36337689D01*
X89793894Y-36343879D01*
X89792911Y-36345000D01*
X89803804Y-36427729D01*
X89801595Y-36461472D01*
X89803374Y-36461707D01*
X89787500Y-36582272D01*
X89787500Y-36807727D01*
X89795989Y-36872203D01*
X89801030Y-36910494D01*
X89803374Y-36928292D01*
X89800399Y-36928683D01*
X89800399Y-36961316D01*
X89803374Y-36961708D01*
X89787500Y-37082272D01*
X89787500Y-37307727D01*
X89791132Y-37335310D01*
X89802120Y-37418772D01*
X89803374Y-37428292D01*
X89800399Y-37428683D01*
X89800399Y-37461316D01*
X89803374Y-37461708D01*
X89787500Y-37582272D01*
X89787500Y-37807727D01*
X89803374Y-37928292D01*
X89800399Y-37928683D01*
X89800399Y-37961316D01*
X89803374Y-37961708D01*
X89802313Y-37969762D01*
X89802313Y-37969764D01*
X89800897Y-37980520D01*
X89787500Y-38082272D01*
X89787500Y-38307727D01*
X89797331Y-38382395D01*
X89801439Y-38413600D01*
X89803374Y-38428292D01*
X89800399Y-38428683D01*
X89800399Y-38461316D01*
X89803374Y-38461708D01*
X89787500Y-38582272D01*
X89787500Y-38807727D01*
X89803374Y-38928292D01*
X89800399Y-38928683D01*
X89800399Y-38961316D01*
X89803374Y-38961708D01*
X89787500Y-39082272D01*
X89787500Y-39307727D01*
X89803374Y-39428292D01*
X89800399Y-39428683D01*
X89800399Y-39461316D01*
X89803374Y-39461708D01*
X89787500Y-39582272D01*
X89787500Y-39807727D01*
X89803374Y-39928292D01*
X89800399Y-39928683D01*
X89800399Y-39961316D01*
X89803374Y-39961708D01*
X89787500Y-40082272D01*
X89787500Y-40307727D01*
X89797185Y-40381284D01*
X89799721Y-40400551D01*
X89803374Y-40428292D01*
X89800399Y-40428683D01*
X89800399Y-40461316D01*
X89803374Y-40461708D01*
X89787500Y-40582272D01*
X89787500Y-40807727D01*
X89803374Y-40928292D01*
X89800399Y-40928683D01*
X89800399Y-40961316D01*
X89803374Y-40961708D01*
X89787500Y-41082272D01*
X89787500Y-41307727D01*
X89803374Y-41428292D01*
X89800399Y-41428683D01*
X89800399Y-41461316D01*
X89803374Y-41461708D01*
X89787500Y-41582272D01*
X89787500Y-41807727D01*
X89798499Y-41891271D01*
X89802017Y-41917991D01*
X89803374Y-41928292D01*
X89800399Y-41928683D01*
X89800399Y-41961316D01*
X89803374Y-41961708D01*
X89787500Y-42082272D01*
X89787500Y-42307727D01*
X89803374Y-42428293D01*
X89801593Y-42428527D01*
X89803804Y-42462270D01*
X89792911Y-42544999D01*
X89794801Y-42547154D01*
X89854503Y-42564685D01*
X89885838Y-42593512D01*
X89888716Y-42597262D01*
X89905791Y-42619515D01*
X89930984Y-42684684D01*
X89916945Y-42753129D01*
X89905791Y-42770484D01*
X89885839Y-42796486D01*
X89829413Y-42837689D01*
X89793894Y-42843879D01*
X89792911Y-42845000D01*
X89803804Y-42927729D01*
X89801595Y-42961472D01*
X89803374Y-42961707D01*
X89802313Y-42969763D01*
X89802313Y-42969764D01*
X89800071Y-42986792D01*
X89787500Y-43082272D01*
X89787500Y-43275500D01*
X89767815Y-43342539D01*
X89715011Y-43388294D01*
X89663500Y-43399500D01*
X89300098Y-43399500D01*
X89233059Y-43379815D01*
X89212417Y-43363181D01*
X88487590Y-42638355D01*
X88487588Y-42638352D01*
X88368717Y-42519481D01*
X88368716Y-42519480D01*
X88272129Y-42463716D01*
X88231785Y-42440423D01*
X88079057Y-42399499D01*
X87920943Y-42399499D01*
X87913347Y-42399499D01*
X87913331Y-42399500D01*
X85196942Y-42399500D01*
X85044214Y-42440423D01*
X85003871Y-42463716D01*
X85003870Y-42463716D01*
X84907287Y-42519477D01*
X84907282Y-42519481D01*
X84157481Y-43269282D01*
X84157480Y-43269284D01*
X84118583Y-43336656D01*
X84078423Y-43406215D01*
X84037499Y-43558943D01*
X84037499Y-43558945D01*
X84037499Y-43727046D01*
X84037500Y-43727059D01*
X84037500Y-43734146D01*
X84017815Y-43801185D01*
X83965011Y-43846940D01*
X83929688Y-43857084D01*
X83912764Y-43859313D01*
X83912762Y-43859313D01*
X83904710Y-43860374D01*
X83904318Y-43857399D01*
X83871684Y-43857399D01*
X83871292Y-43860374D01*
X83863237Y-43859313D01*
X83863236Y-43859313D01*
X83834271Y-43855499D01*
X83750727Y-43844500D01*
X83750720Y-43844500D01*
X83525280Y-43844500D01*
X83525272Y-43844500D01*
X83438393Y-43855938D01*
X83412764Y-43859313D01*
X83412762Y-43859313D01*
X83404708Y-43860374D01*
X83404316Y-43857399D01*
X83371684Y-43857399D01*
X83371292Y-43860374D01*
X83363237Y-43859313D01*
X83363236Y-43859313D01*
X83334271Y-43855499D01*
X83250727Y-43844500D01*
X83250720Y-43844500D01*
X83025280Y-43844500D01*
X83025272Y-43844500D01*
X82938393Y-43855938D01*
X82912764Y-43859313D01*
X82912762Y-43859313D01*
X82904708Y-43860374D01*
X82904316Y-43857399D01*
X82871684Y-43857399D01*
X82871292Y-43860374D01*
X82863237Y-43859313D01*
X82863236Y-43859313D01*
X82834271Y-43855499D01*
X82750727Y-43844500D01*
X82750720Y-43844500D01*
X82525280Y-43844500D01*
X82525272Y-43844500D01*
X82438393Y-43855938D01*
X82412764Y-43859313D01*
X82412762Y-43859313D01*
X82404708Y-43860374D01*
X82404316Y-43857399D01*
X82371684Y-43857399D01*
X82371292Y-43860374D01*
X82363237Y-43859313D01*
X82363236Y-43859313D01*
X82334271Y-43855499D01*
X82250727Y-43844500D01*
X82250720Y-43844500D01*
X82025280Y-43844500D01*
X82025272Y-43844500D01*
X81938393Y-43855938D01*
X81912764Y-43859313D01*
X81912762Y-43859313D01*
X81904708Y-43860374D01*
X81904316Y-43857399D01*
X81871684Y-43857399D01*
X81871292Y-43860374D01*
X81863237Y-43859313D01*
X81863236Y-43859313D01*
X81834271Y-43855499D01*
X81750727Y-43844500D01*
X81750720Y-43844500D01*
X81525280Y-43844500D01*
X81525272Y-43844500D01*
X81412764Y-43859313D01*
X81412763Y-43859313D01*
X81272769Y-43917300D01*
X81272766Y-43917302D01*
X81161447Y-44002720D01*
X81096278Y-44027914D01*
X81030507Y-44015253D01*
X80999999Y-43999999D01*
X80729647Y-44180234D01*
X80662947Y-44201042D01*
X80595587Y-44182487D01*
X80548951Y-44130459D01*
X80537644Y-44090945D01*
X80535368Y-44070745D01*
X80535367Y-44070741D01*
X80535366Y-44070737D01*
X80504249Y-43981811D01*
X80500686Y-43912033D01*
X80535415Y-43851405D01*
X80573835Y-43826296D01*
X80703228Y-43772700D01*
X80703229Y-43772700D01*
X80703229Y-43772699D01*
X80703233Y-43772698D01*
X80823451Y-43680451D01*
X80915698Y-43560233D01*
X80973687Y-43420236D01*
X80988500Y-43307720D01*
X80988500Y-43082280D01*
X80973687Y-42969764D01*
X80973686Y-42969763D01*
X80972626Y-42961705D01*
X80974406Y-42961470D01*
X80972196Y-42927729D01*
X80983088Y-42845000D01*
X80981198Y-42842845D01*
X80921498Y-42825315D01*
X80890162Y-42796488D01*
X80885807Y-42790812D01*
X80870210Y-42770486D01*
X80845016Y-42705319D01*
X80859054Y-42636874D01*
X80870211Y-42619512D01*
X80890162Y-42593512D01*
X80946590Y-42552310D01*
X80982105Y-42546120D01*
X80983088Y-42544999D01*
X80972196Y-42462270D01*
X80974409Y-42428529D01*
X80972626Y-42428295D01*
X80977567Y-42390763D01*
X80988500Y-42307720D01*
X80988500Y-42082280D01*
X80973687Y-41969764D01*
X80973686Y-41969763D01*
X80972626Y-41961705D01*
X80975689Y-41961301D01*
X80975689Y-41928698D01*
X80972626Y-41928295D01*
X80973982Y-41917992D01*
X80988500Y-41807720D01*
X80988500Y-41582280D01*
X80973687Y-41469764D01*
X80973686Y-41469763D01*
X80972626Y-41461705D01*
X80975689Y-41461301D01*
X80975689Y-41428698D01*
X80972626Y-41428295D01*
X80979604Y-41375289D01*
X80988500Y-41307720D01*
X80988500Y-41082280D01*
X80973687Y-40969764D01*
X80973686Y-40969763D01*
X80972626Y-40961705D01*
X80975689Y-40961301D01*
X80975689Y-40928698D01*
X80972626Y-40928295D01*
X80978106Y-40886668D01*
X80988500Y-40807720D01*
X80988500Y-40582280D01*
X80973687Y-40469764D01*
X80973686Y-40469763D01*
X80972626Y-40461705D01*
X80975689Y-40461301D01*
X80975689Y-40428698D01*
X80972626Y-40428295D01*
X80974513Y-40413963D01*
X80988500Y-40307720D01*
X80988500Y-40082280D01*
X80973687Y-39969764D01*
X80973686Y-39969763D01*
X80972626Y-39961705D01*
X80975689Y-39961301D01*
X80975689Y-39928698D01*
X80972626Y-39928295D01*
X80980856Y-39865782D01*
X80988500Y-39807720D01*
X80988500Y-39582280D01*
X80973687Y-39469764D01*
X80973686Y-39469763D01*
X80972626Y-39461705D01*
X80975689Y-39461301D01*
X80975689Y-39428698D01*
X80972626Y-39428295D01*
X80981351Y-39362019D01*
X80988500Y-39307720D01*
X80988500Y-39082280D01*
X80973687Y-38969764D01*
X80973686Y-38969763D01*
X80972626Y-38961705D01*
X80975689Y-38961301D01*
X80975689Y-38928698D01*
X80972626Y-38928295D01*
X80980388Y-38869334D01*
X80988500Y-38807720D01*
X80988500Y-38582280D01*
X80973687Y-38469764D01*
X80973686Y-38469763D01*
X80972626Y-38461705D01*
X80975689Y-38461301D01*
X80975689Y-38428698D01*
X80972626Y-38428295D01*
X80975004Y-38410234D01*
X80988500Y-38307720D01*
X80988500Y-38082280D01*
X80973687Y-37969764D01*
X80973686Y-37969763D01*
X80972626Y-37961705D01*
X80975689Y-37961301D01*
X80975689Y-37928698D01*
X80972626Y-37928295D01*
X80975254Y-37908332D01*
X80988500Y-37807720D01*
X80988500Y-37582280D01*
X80973687Y-37469764D01*
X80973686Y-37469763D01*
X80972626Y-37461705D01*
X80975689Y-37461301D01*
X80975689Y-37428698D01*
X80972626Y-37428295D01*
X80973880Y-37418772D01*
X80988500Y-37307720D01*
X80988500Y-37082280D01*
X80973687Y-36969764D01*
X80973686Y-36969763D01*
X80972626Y-36961705D01*
X80975689Y-36961301D01*
X80975689Y-36928698D01*
X80972626Y-36928295D01*
X80973687Y-36920236D01*
X80988500Y-36807720D01*
X80988500Y-36582280D01*
X80973687Y-36469764D01*
X80973686Y-36469763D01*
X80972626Y-36461705D01*
X80975689Y-36461301D01*
X80975689Y-36428698D01*
X80972626Y-36428295D01*
X80980276Y-36370184D01*
X80988500Y-36307720D01*
X80988500Y-36082280D01*
X80973687Y-35969764D01*
X80973686Y-35969763D01*
X80972626Y-35961705D01*
X80975689Y-35961301D01*
X80975689Y-35928698D01*
X80972626Y-35928295D01*
X80975917Y-35903297D01*
X80988500Y-35807720D01*
X80988500Y-35582280D01*
X80973687Y-35469764D01*
X80915698Y-35329767D01*
X80823451Y-35209549D01*
X80703233Y-35117302D01*
X80703229Y-35117300D01*
X80639801Y-35091027D01*
X80563236Y-35059313D01*
X80549171Y-35057461D01*
X80450727Y-35044500D01*
X80450720Y-35044500D01*
X78975280Y-35044500D01*
X78975272Y-35044500D01*
X78862764Y-35059313D01*
X78862763Y-35059313D01*
X78800604Y-35085061D01*
X78753151Y-35094500D01*
X77995098Y-35094500D01*
X77928059Y-35074815D01*
X77907417Y-35058181D01*
X73487590Y-30638355D01*
X73487588Y-30638352D01*
X73368717Y-30519481D01*
X73368716Y-30519480D01*
X73281904Y-30469360D01*
X73281904Y-30469359D01*
X73281900Y-30469358D01*
X73231785Y-30440423D01*
X73184518Y-30427757D01*
X73124858Y-30391392D01*
X73094330Y-30328545D01*
X73102625Y-30259170D01*
X73128929Y-30220305D01*
X73212418Y-30136818D01*
X73273741Y-30103333D01*
X73300098Y-30100500D01*
X80699903Y-30100500D01*
X80766942Y-30120185D01*
G37*
G04 #@! TD.AperFunction*
G04 #@! TA.AperFunction,Conductor*
G36*
X93355743Y-42476569D02*
G01*
X93394115Y-42534958D01*
X93399500Y-42571105D01*
X93399500Y-43199901D01*
X93379815Y-43266940D01*
X93363182Y-43287582D01*
X93287584Y-43363181D01*
X93226261Y-43396666D01*
X93199902Y-43399500D01*
X92462500Y-43399500D01*
X92395461Y-43379815D01*
X92349706Y-43327011D01*
X92338500Y-43275500D01*
X92338500Y-43082286D01*
X92338499Y-43082272D01*
X92332733Y-43038478D01*
X92343498Y-42969443D01*
X92389878Y-42917187D01*
X92457146Y-42898301D01*
X92469539Y-42899070D01*
X92482802Y-42900565D01*
X92603153Y-42887004D01*
X92662051Y-42880369D01*
X92662054Y-42880368D01*
X92662057Y-42880368D01*
X92832324Y-42820789D01*
X92985064Y-42724816D01*
X93112618Y-42597262D01*
X93170507Y-42505131D01*
X93222841Y-42458842D01*
X93291894Y-42448194D01*
X93355743Y-42476569D01*
G37*
G04 #@! TD.AperFunction*
G04 #@! TA.AperFunction,Conductor*
G36*
X91910458Y-33056930D02*
G01*
X91952445Y-33084523D01*
X91997738Y-33129816D01*
X92150478Y-33225789D01*
X92320745Y-33285368D01*
X92407669Y-33295161D01*
X92472080Y-33322226D01*
X92481465Y-33330700D01*
X94515139Y-35364374D01*
X94515149Y-35364385D01*
X94519479Y-35368715D01*
X94519480Y-35368716D01*
X94631284Y-35480520D01*
X94698767Y-35519481D01*
X94768215Y-35559577D01*
X94920943Y-35600501D01*
X94920946Y-35600501D01*
X95086653Y-35600501D01*
X95086669Y-35600500D01*
X95199903Y-35600500D01*
X95266942Y-35620185D01*
X95287583Y-35636818D01*
X95631284Y-35980520D01*
X95631286Y-35980521D01*
X95631290Y-35980524D01*
X95768209Y-36059573D01*
X95768216Y-36059577D01*
X95857065Y-36083384D01*
X95916724Y-36119748D01*
X95947253Y-36182595D01*
X95938958Y-36251970D01*
X95894473Y-36305848D01*
X95863976Y-36320863D01*
X95805672Y-36340184D01*
X95805663Y-36340187D01*
X95656342Y-36432289D01*
X95532289Y-36556342D01*
X95440187Y-36705663D01*
X95440186Y-36705666D01*
X95385001Y-36872203D01*
X95385001Y-36872204D01*
X95385000Y-36872204D01*
X95374500Y-36974983D01*
X95374500Y-38025001D01*
X95374501Y-38025007D01*
X95385000Y-38127796D01*
X95385001Y-38127799D01*
X95440185Y-38294331D01*
X95440187Y-38294336D01*
X95448447Y-38307727D01*
X95532288Y-38443656D01*
X95656344Y-38567712D01*
X95805666Y-38659814D01*
X95839500Y-38671025D01*
X95896947Y-38710796D01*
X95923772Y-38775311D01*
X95924500Y-38788732D01*
X95924500Y-39475500D01*
X95904815Y-39542539D01*
X95852011Y-39588294D01*
X95800501Y-39599500D01*
X95702130Y-39599500D01*
X95702123Y-39599501D01*
X95642516Y-39605908D01*
X95507671Y-39656202D01*
X95507664Y-39656206D01*
X95392455Y-39742452D01*
X95392452Y-39742455D01*
X95306206Y-39857664D01*
X95306202Y-39857671D01*
X95255908Y-39992516D01*
X95250137Y-40046197D01*
X95223399Y-40110747D01*
X95166006Y-40150595D01*
X95158951Y-40152712D01*
X95094110Y-40170086D01*
X95018210Y-40190424D01*
X95018209Y-40190425D01*
X94985089Y-40209548D01*
X94985088Y-40209549D01*
X94881287Y-40269477D01*
X94881282Y-40269481D01*
X94769478Y-40381286D01*
X94436486Y-40714277D01*
X94375163Y-40747762D01*
X94305471Y-40742778D01*
X94249538Y-40700906D01*
X94231763Y-40667550D01*
X94225788Y-40650476D01*
X94172691Y-40565973D01*
X94153690Y-40498736D01*
X94172691Y-40434027D01*
X94225788Y-40349524D01*
X94225789Y-40349522D01*
X94285368Y-40179255D01*
X94285369Y-40179249D01*
X94305565Y-40000003D01*
X94305565Y-39999996D01*
X94285369Y-39820750D01*
X94285368Y-39820745D01*
X94225788Y-39650475D01*
X94172691Y-39565973D01*
X94153690Y-39498736D01*
X94172691Y-39434027D01*
X94225788Y-39349524D01*
X94238695Y-39312639D01*
X94285368Y-39179255D01*
X94285582Y-39177358D01*
X94305565Y-39000003D01*
X94305565Y-38999996D01*
X94285369Y-38820750D01*
X94285368Y-38820745D01*
X94225789Y-38650478D01*
X94194083Y-38600019D01*
X94182931Y-38582270D01*
X94129816Y-38497738D01*
X94002262Y-38370184D01*
X93989210Y-38361983D01*
X93849521Y-38274210D01*
X93679249Y-38214630D01*
X93561736Y-38201390D01*
X93513621Y-38185558D01*
X93512391Y-38184848D01*
X93474549Y-38163000D01*
X93426785Y-38135423D01*
X93274057Y-38094499D01*
X93115943Y-38094499D01*
X93108347Y-38094499D01*
X93108331Y-38094500D01*
X92448854Y-38094500D01*
X92381815Y-38074815D01*
X92336060Y-38022011D01*
X92325915Y-37986687D01*
X92322626Y-37961707D01*
X92325689Y-37961303D01*
X92325689Y-37928703D01*
X92322625Y-37928300D01*
X92323685Y-37920238D01*
X92323687Y-37920236D01*
X92325254Y-37908328D01*
X92353517Y-37844434D01*
X92411840Y-37805961D01*
X92462077Y-37801292D01*
X92483194Y-37803671D01*
X92499999Y-37805565D01*
X92500000Y-37805565D01*
X92500004Y-37805565D01*
X92679249Y-37785369D01*
X92679252Y-37785368D01*
X92679255Y-37785368D01*
X92849522Y-37725789D01*
X93002262Y-37629816D01*
X93129816Y-37502262D01*
X93225789Y-37349522D01*
X93285368Y-37179255D01*
X93289265Y-37144671D01*
X93305565Y-37000003D01*
X93305565Y-36999996D01*
X93285369Y-36820750D01*
X93285368Y-36820745D01*
X93225789Y-36650478D01*
X93129816Y-36497738D01*
X93002262Y-36370184D01*
X92954521Y-36340186D01*
X92849521Y-36274210D01*
X92679249Y-36214630D01*
X92561736Y-36201390D01*
X92513621Y-36185558D01*
X92504775Y-36180451D01*
X92469670Y-36160183D01*
X92469669Y-36160182D01*
X92452857Y-36150476D01*
X92426785Y-36135423D01*
X92426782Y-36135422D01*
X92426783Y-36135422D01*
X92422027Y-36134148D01*
X92362368Y-36097780D01*
X92331841Y-36034932D01*
X92331186Y-36030558D01*
X92322196Y-35962268D01*
X92324409Y-35928529D01*
X92322626Y-35928295D01*
X92325917Y-35903297D01*
X92338500Y-35807720D01*
X92338500Y-35582280D01*
X92323687Y-35469764D01*
X92265698Y-35329767D01*
X92173451Y-35209549D01*
X92053233Y-35117302D01*
X92053229Y-35117300D01*
X91989801Y-35091027D01*
X91913236Y-35059313D01*
X91899171Y-35057461D01*
X91800727Y-35044500D01*
X91800720Y-35044500D01*
X91787500Y-35044500D01*
X91720461Y-35024815D01*
X91674706Y-34972011D01*
X91663500Y-34920500D01*
X91663500Y-33984378D01*
X91682507Y-33918405D01*
X91725788Y-33849524D01*
X91725789Y-33849522D01*
X91785368Y-33679255D01*
X91785369Y-33679249D01*
X91805565Y-33500003D01*
X91805565Y-33499996D01*
X91785369Y-33320750D01*
X91785368Y-33320745D01*
X91747722Y-33213159D01*
X91744161Y-33143380D01*
X91778890Y-33082752D01*
X91840883Y-33050525D01*
X91910458Y-33056930D01*
G37*
G04 #@! TD.AperFunction*
G04 #@! TA.AperFunction,Conductor*
G36*
X111942236Y-26174185D02*
G01*
X111987991Y-26226989D01*
X111999196Y-26278627D01*
X111992462Y-32804491D01*
X112034781Y-32804490D01*
X112101817Y-32824174D01*
X112147573Y-32876977D01*
X112157517Y-32946136D01*
X112128493Y-33009692D01*
X112122461Y-33016171D01*
X112057287Y-33081345D01*
X111965187Y-33230663D01*
X111965185Y-33230668D01*
X111937405Y-33314504D01*
X111897632Y-33371949D01*
X111833116Y-33398772D01*
X111819699Y-33399500D01*
X111420940Y-33399500D01*
X111380019Y-33410464D01*
X111380019Y-33410465D01*
X111342751Y-33420451D01*
X111268214Y-33440423D01*
X111268209Y-33440426D01*
X111131290Y-33519475D01*
X111131282Y-33519481D01*
X111031187Y-33619577D01*
X111019480Y-33631284D01*
X111019478Y-33631286D01*
X110400765Y-34250000D01*
X109787584Y-34863181D01*
X109726261Y-34896666D01*
X109699903Y-34899500D01*
X105974500Y-34899500D01*
X105907461Y-34879815D01*
X105861706Y-34827011D01*
X105850500Y-34775500D01*
X105850500Y-34021982D01*
X105870185Y-33954943D01*
X105905598Y-33918887D01*
X105907570Y-33917570D01*
X105907572Y-33917566D01*
X105912319Y-33912821D01*
X105973642Y-33879336D01*
X106043334Y-33884320D01*
X106087681Y-33912821D01*
X106092428Y-33917568D01*
X106092429Y-33917568D01*
X106092430Y-33917570D01*
X106095903Y-33919891D01*
X106098964Y-33920500D01*
X106098966Y-33920500D01*
X106401034Y-33920500D01*
X106401036Y-33920500D01*
X106404097Y-33919891D01*
X106407570Y-33917570D01*
X106407571Y-33917567D01*
X106412762Y-33914099D01*
X106479436Y-33893211D01*
X106546819Y-33911686D01*
X106593516Y-33963659D01*
X106604956Y-34003931D01*
X106606401Y-34017374D01*
X106606403Y-34017379D01*
X106656645Y-34152086D01*
X106656649Y-34152093D01*
X106742809Y-34267187D01*
X106742812Y-34267190D01*
X106857906Y-34353350D01*
X106857913Y-34353354D01*
X106992620Y-34403596D01*
X106992627Y-34403598D01*
X107052155Y-34409999D01*
X107052172Y-34410000D01*
X107100000Y-34410000D01*
X107400000Y-34410000D01*
X107447828Y-34410000D01*
X107447844Y-34409999D01*
X107507372Y-34403598D01*
X107507379Y-34403596D01*
X107642086Y-34353354D01*
X107642093Y-34353350D01*
X107757187Y-34267190D01*
X107757190Y-34267187D01*
X107843350Y-34152093D01*
X107843354Y-34152086D01*
X107893596Y-34017379D01*
X107893598Y-34017372D01*
X107899999Y-33957844D01*
X107900000Y-33957827D01*
X107900000Y-33210000D01*
X107400000Y-33210000D01*
X107400000Y-34410000D01*
X107100000Y-34410000D01*
X107100000Y-33184000D01*
X107119685Y-33116961D01*
X107172489Y-33071206D01*
X107224000Y-33060000D01*
X107250000Y-33060000D01*
X107250000Y-33034000D01*
X107269685Y-32966961D01*
X107322489Y-32921206D01*
X107374000Y-32910000D01*
X107900000Y-32910000D01*
X107900000Y-32618165D01*
X107919685Y-32551126D01*
X107972489Y-32505371D01*
X108041647Y-32495427D01*
X108105203Y-32524452D01*
X108141931Y-32579848D01*
X108156743Y-32625438D01*
X108156744Y-32625439D01*
X108156745Y-32625441D01*
X108253231Y-32792559D01*
X108323125Y-32870184D01*
X108375622Y-32928489D01*
X108382354Y-32935965D01*
X108538471Y-33049391D01*
X108714760Y-33127879D01*
X108903514Y-33168000D01*
X109096486Y-33168000D01*
X109285240Y-33127879D01*
X109461529Y-33049391D01*
X109617646Y-32935965D01*
X109746769Y-32792559D01*
X109843255Y-32625441D01*
X109902886Y-32441914D01*
X109923057Y-32250000D01*
X109902886Y-32058086D01*
X109843255Y-31874559D01*
X109746769Y-31707441D01*
X109617646Y-31564035D01*
X109461529Y-31450609D01*
X109451756Y-31446258D01*
X109394902Y-31420945D01*
X109285240Y-31372121D01*
X109285238Y-31372120D01*
X109096486Y-31332000D01*
X108903514Y-31332000D01*
X108903513Y-31332000D01*
X108745786Y-31365525D01*
X108676119Y-31360209D01*
X108620386Y-31318072D01*
X108596281Y-31252492D01*
X108611458Y-31184290D01*
X108632322Y-31156557D01*
X108685515Y-31103365D01*
X108761281Y-30972135D01*
X108800500Y-30825766D01*
X108800500Y-30674234D01*
X108761281Y-30527865D01*
X108756440Y-30519481D01*
X108727502Y-30469359D01*
X108685515Y-30396635D01*
X108578365Y-30289485D01*
X108508489Y-30249142D01*
X108447136Y-30213719D01*
X108373950Y-30194109D01*
X108300766Y-30174500D01*
X108149234Y-30174500D01*
X108002863Y-30213719D01*
X107871635Y-30289485D01*
X107871632Y-30289487D01*
X107764487Y-30396632D01*
X107764485Y-30396635D01*
X107688719Y-30527863D01*
X107687317Y-30533098D01*
X107650950Y-30592757D01*
X107588102Y-30623284D01*
X107567543Y-30625000D01*
X107463290Y-30625000D01*
X107448741Y-30628092D01*
X107379074Y-30622774D01*
X107323342Y-30580635D01*
X107315577Y-30568802D01*
X107260489Y-30473387D01*
X107176613Y-30389511D01*
X107073886Y-30330201D01*
X106959309Y-30299500D01*
X106840691Y-30299500D01*
X106726114Y-30330201D01*
X106726112Y-30330201D01*
X106726112Y-30330202D01*
X106623387Y-30389511D01*
X106623384Y-30389513D01*
X106587681Y-30425217D01*
X106526358Y-30458702D01*
X106456666Y-30453718D01*
X106412319Y-30425217D01*
X106376615Y-30389513D01*
X106376613Y-30389511D01*
X106273886Y-30330201D01*
X106159309Y-30299500D01*
X106040691Y-30299500D01*
X105926114Y-30330201D01*
X105926112Y-30330201D01*
X105926112Y-30330202D01*
X105823387Y-30389511D01*
X105823384Y-30389513D01*
X105787681Y-30425217D01*
X105726358Y-30458702D01*
X105656666Y-30453718D01*
X105612319Y-30425217D01*
X105576615Y-30389513D01*
X105576613Y-30389511D01*
X105473886Y-30330201D01*
X105359309Y-30299500D01*
X105240691Y-30299500D01*
X105126114Y-30330201D01*
X105126112Y-30330201D01*
X105126112Y-30330202D01*
X105023387Y-30389511D01*
X105023384Y-30389513D01*
X104939513Y-30473384D01*
X104939511Y-30473387D01*
X104880200Y-30576114D01*
X104880200Y-30576115D01*
X104878464Y-30582595D01*
X104842098Y-30642255D01*
X104779251Y-30672783D01*
X104758690Y-30674499D01*
X104645941Y-30674499D01*
X104532089Y-30705005D01*
X104467904Y-30705005D01*
X104389294Y-30683941D01*
X104354057Y-30674500D01*
X104354056Y-30674500D01*
X104241310Y-30674500D01*
X104174271Y-30654815D01*
X104128516Y-30602011D01*
X104121536Y-30582596D01*
X104119799Y-30576114D01*
X104115577Y-30568802D01*
X104060489Y-30473387D01*
X103976613Y-30389511D01*
X103873886Y-30330201D01*
X103759309Y-30299500D01*
X103640691Y-30299500D01*
X103526114Y-30330201D01*
X103526112Y-30330201D01*
X103526112Y-30330202D01*
X103423387Y-30389511D01*
X103423384Y-30389513D01*
X103387681Y-30425217D01*
X103326358Y-30458702D01*
X103256666Y-30453718D01*
X103212319Y-30425217D01*
X103176615Y-30389513D01*
X103176613Y-30389511D01*
X103073886Y-30330201D01*
X102959309Y-30299500D01*
X102840691Y-30299500D01*
X102726114Y-30330201D01*
X102726112Y-30330201D01*
X102726112Y-30330202D01*
X102623387Y-30389511D01*
X102623384Y-30389513D01*
X102587681Y-30425217D01*
X102526358Y-30458702D01*
X102456666Y-30453718D01*
X102412319Y-30425217D01*
X102376615Y-30389513D01*
X102376613Y-30389511D01*
X102273886Y-30330201D01*
X102159309Y-30299500D01*
X102040691Y-30299500D01*
X101926114Y-30330201D01*
X101926112Y-30330201D01*
X101926112Y-30330202D01*
X101823387Y-30389511D01*
X101823384Y-30389513D01*
X101739513Y-30473384D01*
X101739511Y-30473387D01*
X101709912Y-30524652D01*
X101659343Y-30572866D01*
X101590736Y-30586087D01*
X101525872Y-30560118D01*
X101487965Y-30510101D01*
X101440087Y-30394511D01*
X101440080Y-30394498D01*
X101357951Y-30271584D01*
X101357948Y-30271580D01*
X101253419Y-30167051D01*
X101253415Y-30167048D01*
X101130501Y-30084919D01*
X101130488Y-30084912D01*
X100993917Y-30028343D01*
X100993907Y-30028340D01*
X100848920Y-29999500D01*
X100848918Y-29999500D01*
X100701082Y-29999500D01*
X100701080Y-29999500D01*
X100556092Y-30028340D01*
X100556082Y-30028343D01*
X100419511Y-30084912D01*
X100419498Y-30084919D01*
X100296584Y-30167048D01*
X100296580Y-30167051D01*
X100192051Y-30271580D01*
X100192048Y-30271584D01*
X100109919Y-30394498D01*
X100109912Y-30394511D01*
X100053343Y-30531082D01*
X100053340Y-30531092D01*
X100024500Y-30676079D01*
X100024500Y-30676082D01*
X100024500Y-30823918D01*
X100024500Y-30823920D01*
X100024499Y-30823920D01*
X100053340Y-30968907D01*
X100053343Y-30968917D01*
X100109912Y-31105488D01*
X100109916Y-31105495D01*
X100132376Y-31139109D01*
X100153254Y-31205786D01*
X100134770Y-31273166D01*
X100082792Y-31319856D01*
X100029274Y-31332000D01*
X99903514Y-31332000D01*
X99714762Y-31372120D01*
X99538471Y-31450608D01*
X99538470Y-31450609D01*
X99382355Y-31564033D01*
X99382348Y-31564039D01*
X99253230Y-31707442D01*
X99156744Y-31874560D01*
X99097115Y-32058082D01*
X99097114Y-32058084D01*
X99076943Y-32250000D01*
X99097114Y-32441915D01*
X99097116Y-32441920D01*
X99157673Y-32628299D01*
X99159668Y-32698140D01*
X99123587Y-32757972D01*
X99060886Y-32788800D01*
X98991472Y-32780835D01*
X98952061Y-32754297D01*
X95236119Y-29038355D01*
X95236117Y-29038352D01*
X95117245Y-28919480D01*
X95117238Y-28919475D01*
X95010014Y-28857570D01*
X95010013Y-28857569D01*
X95010013Y-28857570D01*
X94980314Y-28840423D01*
X94827586Y-28799499D01*
X94669472Y-28799499D01*
X94661876Y-28799499D01*
X94661860Y-28799500D01*
X94472351Y-28799500D01*
X94405312Y-28779815D01*
X94359557Y-28727011D01*
X94349061Y-28688752D01*
X94344091Y-28642516D01*
X94293797Y-28507671D01*
X94293793Y-28507664D01*
X94207547Y-28392455D01*
X94207544Y-28392452D01*
X94092335Y-28306206D01*
X94092328Y-28306202D01*
X93957482Y-28255908D01*
X93957483Y-28255908D01*
X93897883Y-28249501D01*
X93897881Y-28249500D01*
X93897873Y-28249500D01*
X93897864Y-28249500D01*
X92602129Y-28249500D01*
X92602123Y-28249501D01*
X92542516Y-28255908D01*
X92407671Y-28306202D01*
X92407664Y-28306206D01*
X92292455Y-28392452D01*
X92292452Y-28392455D01*
X92206206Y-28507664D01*
X92206202Y-28507671D01*
X92159813Y-28632049D01*
X92155909Y-28642517D01*
X92149500Y-28702127D01*
X92149500Y-28702134D01*
X92149500Y-28702135D01*
X92149500Y-28702136D01*
X92149501Y-29376000D01*
X92129817Y-29443039D01*
X92077013Y-29488794D01*
X92025501Y-29500000D01*
X91974500Y-29500000D01*
X91907461Y-29480315D01*
X91861706Y-29427511D01*
X91850500Y-29376000D01*
X91850499Y-28702129D01*
X91850498Y-28702123D01*
X91850063Y-28698077D01*
X91844091Y-28642517D01*
X91829128Y-28602400D01*
X91793797Y-28507671D01*
X91793793Y-28507664D01*
X91707547Y-28392455D01*
X91707544Y-28392452D01*
X91592335Y-28306206D01*
X91592328Y-28306202D01*
X91457482Y-28255908D01*
X91457483Y-28255908D01*
X91397883Y-28249501D01*
X91397881Y-28249500D01*
X91397873Y-28249500D01*
X91397864Y-28249500D01*
X90102129Y-28249500D01*
X90102123Y-28249501D01*
X90042516Y-28255908D01*
X89907671Y-28306202D01*
X89907664Y-28306206D01*
X89792457Y-28392451D01*
X89792449Y-28392459D01*
X89770149Y-28422247D01*
X89714214Y-28464117D01*
X89702980Y-28467708D01*
X89618219Y-28490421D01*
X89618208Y-28490426D01*
X89481289Y-28569475D01*
X89481281Y-28569481D01*
X89287582Y-28763181D01*
X89226259Y-28796666D01*
X89199901Y-28799500D01*
X88672414Y-28799500D01*
X88519684Y-28840423D01*
X88489987Y-28857570D01*
X88489986Y-28857570D01*
X88382758Y-28919477D01*
X88164054Y-29138181D01*
X88102731Y-29171666D01*
X88076373Y-29174500D01*
X84493469Y-29174500D01*
X84493453Y-29174499D01*
X84485857Y-29174499D01*
X84327743Y-29174499D01*
X84220387Y-29203265D01*
X84175010Y-29215424D01*
X84175009Y-29215425D01*
X84124896Y-29244359D01*
X84124895Y-29244360D01*
X84112937Y-29251264D01*
X84038085Y-29294479D01*
X84038082Y-29294481D01*
X83182481Y-30150082D01*
X83182475Y-30150090D01*
X83135600Y-30231282D01*
X83135600Y-30231283D01*
X83103423Y-30287014D01*
X83103423Y-30287015D01*
X83062499Y-30439743D01*
X83062499Y-30439745D01*
X83060396Y-30447594D01*
X83057068Y-30446702D01*
X83035203Y-30496079D01*
X82976864Y-30534529D01*
X82906999Y-30535334D01*
X82852879Y-30503643D01*
X81487590Y-29138355D01*
X81487588Y-29138352D01*
X81368717Y-29019481D01*
X81368716Y-29019480D01*
X81265452Y-28959861D01*
X81265451Y-28959860D01*
X81231783Y-28940422D01*
X81175881Y-28925443D01*
X81079057Y-28899499D01*
X80920943Y-28899499D01*
X80913347Y-28899499D01*
X80913331Y-28899500D01*
X73591308Y-28899500D01*
X73524269Y-28879815D01*
X73478514Y-28827011D01*
X73468570Y-28757853D01*
X73497595Y-28694297D01*
X73538903Y-28663118D01*
X73563030Y-28651867D01*
X73641423Y-28596975D01*
X73068234Y-28023787D01*
X73110292Y-28012518D01*
X73235708Y-27940110D01*
X73338110Y-27837708D01*
X73410518Y-27712292D01*
X73421787Y-27670235D01*
X73994975Y-28243423D01*
X74049867Y-28165030D01*
X74147847Y-27954909D01*
X74147851Y-27954900D01*
X74207852Y-27730968D01*
X74207854Y-27730958D01*
X74215028Y-27648964D01*
X98889500Y-27648964D01*
X98889500Y-28851036D01*
X98890109Y-28854097D01*
X98892430Y-28857570D01*
X98895903Y-28859891D01*
X98898964Y-28860500D01*
X98898966Y-28860500D01*
X99901034Y-28860500D01*
X99901036Y-28860500D01*
X99904097Y-28859891D01*
X99907570Y-28857570D01*
X99909891Y-28854097D01*
X99910500Y-28851036D01*
X99910500Y-27648964D01*
X109089500Y-27648964D01*
X109089500Y-28851036D01*
X109090109Y-28854097D01*
X109092430Y-28857570D01*
X109095903Y-28859891D01*
X109098964Y-28860500D01*
X109098966Y-28860500D01*
X110101034Y-28860500D01*
X110101036Y-28860500D01*
X110104097Y-28859891D01*
X110107570Y-28857570D01*
X110109891Y-28854097D01*
X110110500Y-28851036D01*
X110110500Y-27648964D01*
X110109891Y-27645903D01*
X110107570Y-27642430D01*
X110104097Y-27640109D01*
X110101036Y-27639500D01*
X109098964Y-27639500D01*
X109096923Y-27639906D01*
X109095902Y-27640109D01*
X109092430Y-27642430D01*
X109090109Y-27645902D01*
X109090109Y-27645903D01*
X109089500Y-27648964D01*
X99910500Y-27648964D01*
X99909891Y-27645903D01*
X99907570Y-27642430D01*
X99904097Y-27640109D01*
X99901036Y-27639500D01*
X98898964Y-27639500D01*
X98896923Y-27639906D01*
X98895902Y-27640109D01*
X98892430Y-27642430D01*
X98890109Y-27645902D01*
X98890109Y-27645903D01*
X98889500Y-27648964D01*
X74215028Y-27648964D01*
X74228061Y-27500000D01*
X74228061Y-27499999D01*
X74207854Y-27269041D01*
X74207852Y-27269031D01*
X74147851Y-27045099D01*
X74147847Y-27045090D01*
X74049868Y-26834972D01*
X73994974Y-26756576D01*
X73421787Y-27329764D01*
X73410518Y-27287708D01*
X73338110Y-27162292D01*
X73235708Y-27059890D01*
X73110292Y-26987482D01*
X73068233Y-26976212D01*
X73641423Y-26403023D01*
X73608649Y-26380075D01*
X73565024Y-26325499D01*
X73557830Y-26256000D01*
X73589352Y-26193646D01*
X73649582Y-26158231D01*
X73679772Y-26154500D01*
X111875197Y-26154500D01*
X111942236Y-26174185D01*
G37*
G04 #@! TD.AperFunction*
G04 #@! TA.AperFunction,Conductor*
G36*
X67305482Y-27712292D02*
G01*
X67377890Y-27837708D01*
X67480292Y-27940110D01*
X67605708Y-28012518D01*
X67647765Y-28023787D01*
X67074575Y-28596975D01*
X67152973Y-28651868D01*
X67363090Y-28749847D01*
X67363099Y-28749851D01*
X67587031Y-28809852D01*
X67587041Y-28809854D01*
X67817999Y-28830061D01*
X67818001Y-28830061D01*
X68048958Y-28809854D01*
X68048968Y-28809852D01*
X68272900Y-28749851D01*
X68272909Y-28749847D01*
X68483030Y-28651867D01*
X68561423Y-28596975D01*
X67988234Y-28023787D01*
X68030292Y-28012518D01*
X68155708Y-27940110D01*
X68258110Y-27837708D01*
X68330518Y-27712292D01*
X68341787Y-27670234D01*
X68914975Y-28243423D01*
X68969864Y-28165033D01*
X68975340Y-28153291D01*
X69021511Y-28100851D01*
X69088704Y-28081697D01*
X69155586Y-28101911D01*
X69200105Y-28153286D01*
X69200108Y-28153292D01*
X69205699Y-28165282D01*
X69338730Y-28355269D01*
X69502731Y-28519270D01*
X69692718Y-28652301D01*
X69692729Y-28652306D01*
X69695496Y-28653904D01*
X69696476Y-28654932D01*
X69697153Y-28655406D01*
X69697057Y-28655541D01*
X69743713Y-28704470D01*
X69757500Y-28761294D01*
X69757500Y-28771330D01*
X69757499Y-28771348D01*
X69757499Y-28937054D01*
X69757498Y-28937054D01*
X69798423Y-29089785D01*
X69804646Y-29100563D01*
X69804647Y-29100565D01*
X69881543Y-29233754D01*
X69878981Y-29235232D01*
X69899069Y-29287170D01*
X69899500Y-29297505D01*
X69899500Y-29413330D01*
X69899499Y-29413348D01*
X69899499Y-29579054D01*
X69899498Y-29579054D01*
X69940423Y-29731785D01*
X69969358Y-29781900D01*
X69969359Y-29781904D01*
X69969360Y-29781904D01*
X70019479Y-29868714D01*
X70019481Y-29868717D01*
X70338583Y-30187819D01*
X70372068Y-30249142D01*
X70367084Y-30318834D01*
X70325212Y-30374767D01*
X70259748Y-30399184D01*
X70250902Y-30399500D01*
X66800097Y-30399500D01*
X66733058Y-30379815D01*
X66712416Y-30363181D01*
X65914819Y-29565584D01*
X65881334Y-29504261D01*
X65878500Y-29477903D01*
X65878500Y-28761294D01*
X65898185Y-28694255D01*
X65938879Y-28655452D01*
X65938847Y-28655406D01*
X65939154Y-28655190D01*
X65940504Y-28653904D01*
X65943265Y-28652308D01*
X65943282Y-28652301D01*
X66133269Y-28519270D01*
X66297270Y-28355269D01*
X66430301Y-28165282D01*
X66435893Y-28153289D01*
X66482062Y-28100851D01*
X66549255Y-28081697D01*
X66616137Y-28101911D01*
X66660656Y-28153286D01*
X66666131Y-28165027D01*
X66666133Y-28165031D01*
X66721023Y-28243422D01*
X66721023Y-28243423D01*
X67294212Y-27670233D01*
X67305482Y-27712292D01*
G37*
G04 #@! TD.AperFunction*
G04 #@! TA.AperFunction,Conductor*
G36*
X72385482Y-27712292D02*
G01*
X72457890Y-27837708D01*
X72560292Y-27940110D01*
X72685708Y-28012518D01*
X72727765Y-28023787D01*
X72154575Y-28596975D01*
X72232973Y-28651868D01*
X72443090Y-28749847D01*
X72443101Y-28749852D01*
X72601443Y-28792278D01*
X72661104Y-28828642D01*
X72691634Y-28891489D01*
X72683340Y-28960865D01*
X72638855Y-29014743D01*
X72631361Y-29019434D01*
X72631293Y-29019472D01*
X72631282Y-29019481D01*
X72287584Y-29363181D01*
X72226261Y-29396666D01*
X72199903Y-29399500D01*
X71300098Y-29399500D01*
X71233059Y-29379815D01*
X71212417Y-29363181D01*
X71136819Y-29287583D01*
X71103334Y-29226260D01*
X71100500Y-29199902D01*
X71100500Y-28920942D01*
X71100108Y-28919480D01*
X71100103Y-28919461D01*
X71089480Y-28879815D01*
X71082589Y-28854097D01*
X71059577Y-28768216D01*
X71058283Y-28765976D01*
X71057767Y-28763848D01*
X71056466Y-28760706D01*
X71056955Y-28760503D01*
X71041810Y-28698077D01*
X71064661Y-28632049D01*
X71094545Y-28602401D01*
X71213269Y-28519270D01*
X71377270Y-28355269D01*
X71510301Y-28165282D01*
X71515893Y-28153289D01*
X71562062Y-28100851D01*
X71629255Y-28081697D01*
X71696137Y-28101911D01*
X71740656Y-28153286D01*
X71746131Y-28165027D01*
X71746133Y-28165031D01*
X71801023Y-28243422D01*
X71801023Y-28243423D01*
X72374212Y-27670234D01*
X72385482Y-27712292D01*
G37*
G04 #@! TD.AperFunction*
G04 #@! TA.AperFunction,Conductor*
G36*
X67103268Y-26174185D02*
G01*
X67149023Y-26226989D01*
X67158967Y-26296147D01*
X67129942Y-26359703D01*
X67107351Y-26380076D01*
X67074576Y-26403024D01*
X67647765Y-26976212D01*
X67605708Y-26987482D01*
X67480292Y-27059890D01*
X67377890Y-27162292D01*
X67305482Y-27287708D01*
X67294212Y-27329765D01*
X66721024Y-26756576D01*
X66666131Y-26834974D01*
X66660655Y-26846717D01*
X66614480Y-26899154D01*
X66547286Y-26918303D01*
X66480405Y-26898084D01*
X66435894Y-26846713D01*
X66430301Y-26834719D01*
X66297270Y-26644731D01*
X66133269Y-26480730D01*
X65989518Y-26380074D01*
X65945894Y-26325498D01*
X65938702Y-26255999D01*
X65970224Y-26193645D01*
X66030454Y-26158231D01*
X66060643Y-26154500D01*
X67036229Y-26154500D01*
X67103268Y-26174185D01*
G37*
G04 #@! TD.AperFunction*
G04 #@! TA.AperFunction,Conductor*
G36*
X72183268Y-26174185D02*
G01*
X72229023Y-26226989D01*
X72238967Y-26296147D01*
X72209942Y-26359703D01*
X72187351Y-26380076D01*
X72154576Y-26403024D01*
X72727765Y-26976212D01*
X72685708Y-26987482D01*
X72560292Y-27059890D01*
X72457890Y-27162292D01*
X72385482Y-27287708D01*
X72374212Y-27329765D01*
X71801024Y-26756576D01*
X71746131Y-26834974D01*
X71740655Y-26846717D01*
X71694480Y-26899154D01*
X71627286Y-26918303D01*
X71560405Y-26898084D01*
X71515894Y-26846713D01*
X71510301Y-26834719D01*
X71377270Y-26644731D01*
X71213269Y-26480730D01*
X71069518Y-26380074D01*
X71025894Y-26325498D01*
X71018702Y-26255999D01*
X71050224Y-26193645D01*
X71110454Y-26158231D01*
X71140643Y-26154500D01*
X72116229Y-26154500D01*
X72183268Y-26174185D01*
G37*
G04 #@! TD.AperFunction*
G04 #@! TA.AperFunction,Conductor*
G36*
X69642397Y-26174185D02*
G01*
X69688152Y-26226989D01*
X69698096Y-26296147D01*
X69669071Y-26359703D01*
X69646481Y-26380075D01*
X69502735Y-26480726D01*
X69502729Y-26480731D01*
X69338731Y-26644729D01*
X69338726Y-26644735D01*
X69205701Y-26834714D01*
X69205697Y-26834722D01*
X69200104Y-26846716D01*
X69153929Y-26899154D01*
X69086735Y-26918303D01*
X69019855Y-26898084D01*
X68975340Y-26846709D01*
X68969866Y-26834969D01*
X68914974Y-26756576D01*
X68341787Y-27329764D01*
X68330518Y-27287708D01*
X68258110Y-27162292D01*
X68155708Y-27059890D01*
X68030292Y-26987482D01*
X67988233Y-26976212D01*
X68561423Y-26403023D01*
X68528649Y-26380075D01*
X68485024Y-26325499D01*
X68477830Y-26256000D01*
X68509352Y-26193646D01*
X68569582Y-26158231D01*
X68599772Y-26154500D01*
X69575358Y-26154500D01*
X69642397Y-26174185D01*
G37*
G04 #@! TD.AperFunction*
M02*
