G04 #@! TF.GenerationSoftware,KiCad,Pcbnew,8.0.7*
G04 #@! TF.CreationDate,2025-04-22T23:12:23-04:00*
G04 #@! TF.ProjectId,custom-keypad,63757374-6f6d-42d6-9b65-797061642e6b,rev?*
G04 #@! TF.SameCoordinates,Original*
G04 #@! TF.FileFunction,Copper,L2,Bot*
G04 #@! TF.FilePolarity,Positive*
%FSLAX46Y46*%
G04 Gerber Fmt 4.6, Leading zero omitted, Abs format (unit mm)*
G04 Created by KiCad (PCBNEW 8.0.7) date 2025-04-22 23:12:23*
%MOMM*%
%LPD*%
G01*
G04 APERTURE LIST*
G04 Aperture macros list*
%AMRoundRect*
0 Rectangle with rounded corners*
0 $1 Rounding radius*
0 $2 $3 $4 $5 $6 $7 $8 $9 X,Y pos of 4 corners*
0 Add a 4 corners polygon primitive as box body*
4,1,4,$2,$3,$4,$5,$6,$7,$8,$9,$2,$3,0*
0 Add four circle primitives for the rounded corners*
1,1,$1+$1,$2,$3*
1,1,$1+$1,$4,$5*
1,1,$1+$1,$6,$7*
1,1,$1+$1,$8,$9*
0 Add four rect primitives between the rounded corners*
20,1,$1+$1,$2,$3,$4,$5,0*
20,1,$1+$1,$4,$5,$6,$7,0*
20,1,$1+$1,$6,$7,$8,$9,0*
20,1,$1+$1,$8,$9,$2,$3,0*%
G04 Aperture macros list end*
G04 #@! TA.AperFunction,ComponentPad*
%ADD10C,2.286000*%
G04 #@! TD*
G04 #@! TA.AperFunction,ComponentPad*
%ADD11R,1.650000X1.650000*%
G04 #@! TD*
G04 #@! TA.AperFunction,ComponentPad*
%ADD12C,1.650000*%
G04 #@! TD*
G04 #@! TA.AperFunction,ComponentPad*
%ADD13C,1.800000*%
G04 #@! TD*
G04 #@! TA.AperFunction,ComponentPad*
%ADD14C,4.950000*%
G04 #@! TD*
G04 #@! TA.AperFunction,ComponentPad*
%ADD15C,0.650000*%
G04 #@! TD*
G04 #@! TA.AperFunction,ComponentPad*
%ADD16C,1.815000*%
G04 #@! TD*
G04 #@! TA.AperFunction,SMDPad,CuDef*
%ADD17RoundRect,0.250000X0.337500X0.475000X-0.337500X0.475000X-0.337500X-0.475000X0.337500X-0.475000X0*%
G04 #@! TD*
G04 #@! TA.AperFunction,SMDPad,CuDef*
%ADD18RoundRect,0.250000X0.097227X-0.574524X0.574524X-0.097227X-0.097227X0.574524X-0.574524X0.097227X0*%
G04 #@! TD*
G04 #@! TA.AperFunction,SMDPad,CuDef*
%ADD19RoundRect,0.250000X-0.475000X0.337500X-0.475000X-0.337500X0.475000X-0.337500X0.475000X0.337500X0*%
G04 #@! TD*
G04 #@! TA.AperFunction,SMDPad,CuDef*
%ADD20RoundRect,0.250000X-0.350000X-0.450000X0.350000X-0.450000X0.350000X0.450000X-0.350000X0.450000X0*%
G04 #@! TD*
G04 #@! TA.AperFunction,SMDPad,CuDef*
%ADD21RoundRect,0.250000X0.574524X0.097227X0.097227X0.574524X-0.574524X-0.097227X-0.097227X-0.574524X0*%
G04 #@! TD*
G04 #@! TA.AperFunction,SMDPad,CuDef*
%ADD22RoundRect,0.250000X0.475000X-0.337500X0.475000X0.337500X-0.475000X0.337500X-0.475000X-0.337500X0*%
G04 #@! TD*
G04 #@! TA.AperFunction,SMDPad,CuDef*
%ADD23R,1.850000X0.900000*%
G04 #@! TD*
G04 #@! TA.AperFunction,SMDPad,CuDef*
%ADD24R,1.850000X3.200000*%
G04 #@! TD*
G04 #@! TA.AperFunction,SMDPad,CuDef*
%ADD25RoundRect,0.250000X0.350000X0.450000X-0.350000X0.450000X-0.350000X-0.450000X0.350000X-0.450000X0*%
G04 #@! TD*
G04 #@! TA.AperFunction,ViaPad*
%ADD26C,0.600000*%
G04 #@! TD*
G04 #@! TA.AperFunction,ViaPad*
%ADD27C,6.000000*%
G04 #@! TD*
G04 #@! TA.AperFunction,Conductor*
%ADD28C,0.200000*%
G04 #@! TD*
G04 APERTURE END LIST*
D10*
X68942000Y-77724000D03*
X62592000Y-80264000D03*
X87842000Y-77724000D03*
X81492000Y-80264000D03*
D11*
X62738000Y-27500000D03*
D12*
X65278000Y-27500000D03*
X67818000Y-27500000D03*
X70358000Y-27500000D03*
X72898000Y-27500000D03*
D13*
X64500000Y-47500000D03*
X69500000Y-47500000D03*
X67000000Y-47500000D03*
X64500000Y-33000000D03*
X69500000Y-33000000D03*
D14*
X62350000Y-40000000D03*
X71650000Y-40000000D03*
D10*
X68942000Y-58928000D03*
X62592000Y-61468000D03*
X106742000Y-77724000D03*
X100392000Y-80264000D03*
D15*
X101450000Y-31450000D03*
X102100000Y-30750000D03*
X102900000Y-30750000D03*
X103300000Y-31450000D03*
X103700000Y-30750000D03*
X104100000Y-31450000D03*
X104900000Y-31450000D03*
X105300000Y-30750000D03*
X105700000Y-31450000D03*
X106100000Y-30750000D03*
X106900000Y-30750000D03*
X107550000Y-31450000D03*
D16*
X109000000Y-32250000D03*
X100000000Y-32250000D03*
D10*
X87842000Y-58928000D03*
X81492000Y-61468000D03*
X106742000Y-58928000D03*
X100392000Y-61468000D03*
D17*
X89537500Y-35500000D03*
X87462500Y-35500000D03*
D18*
X78266377Y-32233623D03*
X79733623Y-30766377D03*
D19*
X81500000Y-35462500D03*
X81500000Y-37537500D03*
D20*
X101000000Y-27000000D03*
X103000000Y-27000000D03*
D21*
X79733623Y-46733623D03*
X78266377Y-45266377D03*
D19*
X107911999Y-50732499D03*
X107911999Y-52807499D03*
D17*
X89037500Y-43500000D03*
X86962500Y-43500000D03*
D22*
X108166000Y-47981500D03*
X108166000Y-45906500D03*
D19*
X89000000Y-37462500D03*
X89000000Y-39537500D03*
D22*
X83500000Y-43537500D03*
X83500000Y-41462500D03*
D23*
X110400000Y-52800000D03*
X110400000Y-50500000D03*
X110400000Y-48200000D03*
D24*
X116600000Y-50500000D03*
D19*
X83500000Y-35462500D03*
X83500000Y-37537500D03*
D18*
X90766377Y-46733623D03*
X92233623Y-45266377D03*
D17*
X67949500Y-40192000D03*
X65874500Y-40192000D03*
D25*
X104500000Y-29000000D03*
X102500000Y-29000000D03*
D22*
X81500000Y-43537500D03*
X81500000Y-41462500D03*
D20*
X81500000Y-39500000D03*
X83500000Y-39500000D03*
D19*
X98000000Y-26962500D03*
X98000000Y-29037500D03*
D17*
X89037500Y-41500000D03*
X86962500Y-41500000D03*
D25*
X67984000Y-37848000D03*
X65984000Y-37848000D03*
D26*
X81500000Y-32000000D03*
X113500000Y-38000000D03*
D27*
X54944022Y-60196685D03*
D26*
X96000000Y-29500000D03*
X109500000Y-44000000D03*
X101000000Y-29500000D03*
X93000000Y-43000000D03*
X87000000Y-46500000D03*
X93000000Y-47000000D03*
X87500000Y-55000000D03*
X94500000Y-30000000D03*
X93500000Y-36000000D03*
X87500000Y-32000000D03*
X78000000Y-43000000D03*
X79750000Y-44250000D03*
X80500000Y-33500000D03*
X89233623Y-47233623D03*
X92482802Y-42095000D03*
X82000000Y-46500000D03*
X113000000Y-42500000D03*
X91000000Y-33500000D03*
X92500000Y-37000000D03*
X82500000Y-32000000D03*
X89000000Y-30000000D03*
X110500000Y-36500000D03*
X110500000Y-46000000D03*
X92500000Y-32500000D03*
X78000000Y-41000000D03*
X104600000Y-35065687D03*
X101000000Y-34125000D03*
X103862637Y-35376010D03*
X101000000Y-34925003D03*
X93500000Y-41000000D03*
X93500000Y-40000000D03*
X93500000Y-39000000D03*
D28*
X93000000Y-44500000D02*
X93000000Y-43000000D01*
X80462500Y-42500000D02*
X81500000Y-41462500D01*
X109575000Y-30075000D02*
X113500000Y-34000000D01*
X84962500Y-37537500D02*
X85500000Y-37000000D01*
X86962500Y-41500000D02*
X86962500Y-40537500D01*
X81500000Y-37537500D02*
X83500000Y-37537500D01*
X86962500Y-43500000D02*
X86962500Y-46462500D01*
X85500000Y-36500000D02*
X86500000Y-35500000D01*
X107550000Y-30372000D02*
X107847000Y-30075000D01*
X80967246Y-32000000D02*
X81500000Y-32000000D01*
X102500000Y-29000000D02*
X102500000Y-27500000D01*
X113500000Y-34000000D02*
X113500000Y-38000000D01*
X83500000Y-39500000D02*
X83500000Y-41462500D01*
X78000000Y-43500000D02*
X77500000Y-44000000D01*
X107550000Y-31450000D02*
X107550000Y-30372000D01*
X86962500Y-43500000D02*
X86962500Y-41500000D01*
X98000000Y-29037500D02*
X96462500Y-29037500D01*
X86962500Y-40537500D02*
X87962500Y-39537500D01*
X107847000Y-30075000D02*
X109575000Y-30075000D01*
X92233623Y-45266377D02*
X93000000Y-44500000D01*
X96462500Y-29037500D02*
X96000000Y-29500000D01*
X77500000Y-44000000D02*
X77500000Y-44500000D01*
X78000000Y-43000000D02*
X78500000Y-42500000D01*
X78000000Y-43000000D02*
X78000000Y-43500000D01*
X83500000Y-41462500D02*
X86925000Y-41462500D01*
X77500000Y-44500000D02*
X78266377Y-45266377D01*
X83500000Y-37537500D02*
X83500000Y-39500000D01*
X78500000Y-42500000D02*
X80462500Y-42500000D01*
X83500000Y-37537500D02*
X84962500Y-37537500D01*
X83500000Y-41462500D02*
X81500000Y-41462500D01*
X85500000Y-37000000D02*
X85500000Y-36500000D01*
X87462500Y-35500000D02*
X87462500Y-32037500D01*
X86962500Y-46462500D02*
X87000000Y-46500000D01*
X93000000Y-46032754D02*
X93000000Y-47000000D01*
X102500000Y-27500000D02*
X103000000Y-27000000D01*
X87462500Y-32037500D02*
X87500000Y-32000000D01*
X110392500Y-52807500D02*
X110400000Y-52800000D01*
X87962500Y-39537500D02*
X89000000Y-39537500D01*
X92233623Y-45266377D02*
X93000000Y-46032754D01*
X86925000Y-41462500D02*
X86962500Y-41500000D01*
X79733623Y-30766377D02*
X80967246Y-32000000D01*
X86500000Y-35500000D02*
X87462500Y-35500000D01*
X89233623Y-47233623D02*
X89037500Y-47037500D01*
X82000000Y-46000000D02*
X82000000Y-46500000D01*
X116500000Y-45500000D02*
X116500000Y-50400000D01*
X77500000Y-27500000D02*
X77500000Y-31467246D01*
X106742000Y-55742000D02*
X106742000Y-58928000D01*
X83500000Y-44500000D02*
X82000000Y-46000000D01*
X88000000Y-31000000D02*
X88000000Y-27000000D01*
X92482802Y-42095000D02*
X90595000Y-42095000D01*
X83500000Y-43537500D02*
X84962500Y-43537500D01*
X114000000Y-45500000D02*
X116500000Y-45500000D01*
X108144498Y-50500000D02*
X107911999Y-50732499D01*
X116600000Y-50500000D02*
X116600000Y-75400000D01*
X105500000Y-54500000D02*
X106742000Y-55742000D01*
X92000000Y-53500000D02*
X87842000Y-57658000D01*
X81500000Y-43537500D02*
X80462500Y-43537500D01*
X89537500Y-34462500D02*
X90500000Y-33500000D01*
X81000000Y-47500000D02*
X82000000Y-46500000D01*
X113000000Y-42500000D02*
X113000000Y-44500000D01*
X92000000Y-47967246D02*
X92000000Y-53500000D01*
X88500000Y-48000000D02*
X88500000Y-47967246D01*
X81500000Y-34500000D02*
X80500000Y-33500000D01*
X80500000Y-47500000D02*
X81000000Y-47500000D01*
X77500000Y-31467246D02*
X78266377Y-32233623D01*
X89537500Y-35500000D02*
X89537500Y-34462500D01*
X81500000Y-43537500D02*
X83500000Y-43537500D01*
X88000000Y-27000000D02*
X87500000Y-26500000D01*
X90595000Y-42095000D02*
X89962500Y-41462500D01*
X85500000Y-46000000D02*
X87500000Y-48000000D01*
X92500000Y-42077802D02*
X92500000Y-38500000D01*
X116500000Y-50400000D02*
X116600000Y-50500000D01*
X94500000Y-37500000D02*
X95000000Y-37000000D01*
X87842000Y-57658000D02*
X87842000Y-58928000D01*
X92482802Y-42095000D02*
X92500000Y-42077802D01*
X79500000Y-33467246D02*
X78266377Y-32233623D01*
X78500000Y-26500000D02*
X77500000Y-27500000D01*
X87500000Y-48000000D02*
X88500000Y-48000000D01*
X93500000Y-37500000D02*
X94500000Y-37500000D01*
X116600000Y-75400000D02*
X114276000Y-77724000D01*
X113000000Y-44500000D02*
X114000000Y-45500000D01*
X89962500Y-41462500D02*
X89000000Y-41462500D01*
X105500000Y-51000000D02*
X105500000Y-54500000D01*
X89037500Y-47037500D02*
X89037500Y-43500000D01*
X79500000Y-33500000D02*
X79500000Y-33467246D01*
X90500000Y-33500000D02*
X91000000Y-33500000D01*
X90266377Y-47233623D02*
X90766377Y-46733623D01*
X114276000Y-77724000D02*
X106742000Y-77724000D01*
X89037500Y-41500000D02*
X89037500Y-43500000D01*
X88500000Y-47967246D02*
X89233623Y-47233623D01*
X81500000Y-35462500D02*
X81500000Y-34500000D01*
X93000000Y-33500000D02*
X91000000Y-33500000D01*
X84962500Y-43537500D02*
X85000000Y-43500000D01*
X85000000Y-43500000D02*
X85500000Y-44000000D01*
X91000000Y-33000000D02*
X90500000Y-32500000D01*
X85500000Y-44000000D02*
X85500000Y-46000000D01*
X110400000Y-50500000D02*
X108144498Y-50500000D01*
X90766377Y-46733623D02*
X92000000Y-47967246D01*
X89233623Y-47233623D02*
X90266377Y-47233623D01*
X90500000Y-32500000D02*
X89500000Y-32500000D01*
X91000000Y-33500000D02*
X91000000Y-33000000D01*
X87842000Y-58928000D02*
X68942000Y-58928000D01*
X66500000Y-31000000D02*
X64500000Y-33000000D01*
X83500000Y-43537500D02*
X83500000Y-44500000D01*
X107911999Y-50732499D02*
X105767501Y-50732499D01*
X87500000Y-26500000D02*
X78500000Y-26500000D01*
X78266377Y-32233623D02*
X77032754Y-31000000D01*
X92500000Y-38500000D02*
X93500000Y-37500000D01*
X79733623Y-46733623D02*
X80500000Y-47500000D01*
X77032754Y-31000000D02*
X66500000Y-31000000D01*
X89500000Y-32500000D02*
X88000000Y-31000000D01*
X80462500Y-43537500D02*
X79750000Y-44250000D01*
X95000000Y-35500000D02*
X93000000Y-33500000D01*
X105767501Y-50732499D02*
X105500000Y-51000000D01*
X95000000Y-37000000D02*
X95000000Y-35500000D01*
X80500000Y-33500000D02*
X79500000Y-33500000D01*
X89000000Y-37462500D02*
X92037500Y-37462500D01*
X92037500Y-37462500D02*
X92500000Y-37000000D01*
X82500000Y-33500000D02*
X82500000Y-32000000D01*
X83537500Y-35500000D02*
X83537500Y-34537500D01*
X83537500Y-34537500D02*
X82500000Y-33500000D01*
X92000000Y-32000000D02*
X92000000Y-31000000D01*
X110500000Y-46500000D02*
X110400000Y-46600000D01*
X110500000Y-36250000D02*
X105700000Y-31450000D01*
X92000000Y-31000000D02*
X91000000Y-30000000D01*
X92500000Y-32500000D02*
X92000000Y-32000000D01*
X108384500Y-48200000D02*
X108166000Y-47981500D01*
X110500000Y-36500000D02*
X110500000Y-36250000D01*
X110400000Y-46600000D02*
X110400000Y-48200000D01*
X91000000Y-30000000D02*
X89000000Y-30000000D01*
X110181501Y-47981499D02*
X110400000Y-48200000D01*
X110500000Y-46000000D02*
X110500000Y-46500000D01*
X110500000Y-46000000D02*
X110500000Y-36500000D01*
X110400000Y-48200000D02*
X108384500Y-48200000D01*
X100000000Y-32250000D02*
X99500000Y-31750000D01*
X100962500Y-26962500D02*
X101000000Y-27000000D01*
X101000000Y-28000000D02*
X101000000Y-27000000D01*
X98000000Y-26962500D02*
X100962500Y-26962500D01*
X99500000Y-31750000D02*
X99500000Y-29500000D01*
X99500000Y-29500000D02*
X101000000Y-28000000D01*
X80500000Y-39500000D02*
X79000000Y-41000000D01*
X79000000Y-41000000D02*
X78000000Y-41000000D01*
X81500000Y-39500000D02*
X80500000Y-39500000D01*
X104600000Y-35352514D02*
X105127708Y-35880222D01*
X101150000Y-34275000D02*
X103809313Y-34275000D01*
X105127708Y-35880222D02*
X105801578Y-35880222D01*
X106275000Y-35406800D02*
X106275000Y-34093200D01*
X106275000Y-34093200D02*
X104274999Y-32093199D01*
X104274999Y-32093199D02*
X104274999Y-31624999D01*
X103809313Y-34275000D02*
X104600000Y-35065687D01*
X101000000Y-34125000D02*
X101150000Y-34275000D01*
X105801578Y-35880222D02*
X106275000Y-35406800D01*
X104274999Y-31624999D02*
X104100000Y-31450000D01*
X104600000Y-35065687D02*
X104600000Y-35352514D01*
X106725000Y-35593200D02*
X106725000Y-33906800D01*
X106725000Y-33906800D02*
X104725001Y-31906801D01*
X101200003Y-34725000D02*
X103622916Y-34725000D01*
X104900000Y-31613603D02*
X104900000Y-31500000D01*
X104900000Y-31500000D02*
X104900000Y-31450000D01*
X101000000Y-34925003D02*
X101200003Y-34725000D01*
X103862637Y-34964721D02*
X103862637Y-35376010D01*
X103862637Y-35376010D02*
X104057810Y-35376010D01*
X105012022Y-36330222D02*
X105987978Y-36330222D01*
X104725001Y-31624999D02*
X104900000Y-31450000D01*
X103622916Y-34725000D02*
X103862637Y-34964721D01*
X105987978Y-36330222D02*
X106725000Y-35593200D01*
X104725001Y-31906801D02*
X104725001Y-31624999D01*
X104057810Y-35376010D02*
X105012022Y-36330222D01*
X71458000Y-40192000D02*
X71650000Y-40000000D01*
X67984000Y-40157500D02*
X67949500Y-40192000D01*
X67949500Y-40192000D02*
X71458000Y-40192000D01*
X67984000Y-37848000D02*
X67984000Y-40157500D01*
X104500000Y-29950000D02*
X103700000Y-30750000D01*
X104500000Y-29000000D02*
X104500000Y-29950000D01*
X93500000Y-48000000D02*
X93500000Y-71500000D01*
X93500000Y-71500000D02*
X92500000Y-72500000D01*
X94500000Y-47000000D02*
X93500000Y-48000000D01*
X81492000Y-74508000D02*
X81492000Y-80264000D01*
X83500000Y-72500000D02*
X81492000Y-74508000D01*
X92500000Y-72500000D02*
X83500000Y-72500000D01*
X94500000Y-42000000D02*
X94500000Y-47000000D01*
X93500000Y-41000000D02*
X94500000Y-42000000D01*
X93500000Y-40000000D02*
X95000000Y-41500000D01*
X95000000Y-47065686D02*
X94000000Y-48065686D01*
X95000000Y-41500000D02*
X95000000Y-47065686D01*
X97264000Y-80264000D02*
X100392000Y-80264000D01*
X94000000Y-48065686D02*
X94000000Y-77000000D01*
X94000000Y-77000000D02*
X97264000Y-80264000D01*
X95032000Y-61468000D02*
X100392000Y-61468000D01*
X95500000Y-41000000D02*
X95500000Y-47500000D01*
X94500000Y-61000000D02*
X95000000Y-61500000D01*
X95500000Y-47500000D02*
X94500000Y-48500000D01*
X95000000Y-61500000D02*
X95032000Y-61468000D01*
X93500000Y-39000000D02*
X95500000Y-41000000D01*
X94500000Y-48500000D02*
X94500000Y-61000000D01*
G04 #@! TA.AperFunction,Conductor*
G36*
X118533189Y-46019685D02*
G01*
X118578944Y-46072489D01*
X118590150Y-46124000D01*
X118590150Y-56376000D01*
X118570465Y-56443039D01*
X118517661Y-56488794D01*
X118466150Y-56500000D01*
X116000000Y-56500000D01*
X114624000Y-56500000D01*
X114556961Y-56480315D01*
X114511206Y-56427511D01*
X114500000Y-56376000D01*
X114500000Y-52189477D01*
X115179476Y-52189477D01*
X115181401Y-52207374D01*
X115231645Y-52342086D01*
X115231649Y-52342093D01*
X115317809Y-52457187D01*
X115317812Y-52457190D01*
X115432906Y-52543350D01*
X115432913Y-52543354D01*
X115567620Y-52593596D01*
X115567627Y-52593598D01*
X115627155Y-52599999D01*
X115627172Y-52600000D01*
X117572828Y-52600000D01*
X117572844Y-52599999D01*
X117632372Y-52593598D01*
X117632379Y-52593596D01*
X117767086Y-52543354D01*
X117767093Y-52543350D01*
X117882187Y-52457190D01*
X117882190Y-52457187D01*
X117968350Y-52342093D01*
X117968354Y-52342086D01*
X118018598Y-52207376D01*
X118020522Y-52189477D01*
X117994082Y-52176828D01*
X117934885Y-52172592D01*
X117890541Y-52144093D01*
X116600000Y-50853552D01*
X115309457Y-52144094D01*
X115248134Y-52177579D01*
X115210038Y-52174854D01*
X115179476Y-52189477D01*
X114500000Y-52189477D01*
X114500000Y-52000000D01*
X111733897Y-52000000D01*
X111666858Y-51980315D01*
X111659596Y-51975273D01*
X111567331Y-51906204D01*
X111567328Y-51906202D01*
X111432482Y-51855908D01*
X111432483Y-51855908D01*
X111372883Y-51849501D01*
X111372881Y-51849500D01*
X111372873Y-51849500D01*
X111372864Y-51849500D01*
X109427129Y-51849500D01*
X109427123Y-51849501D01*
X109367516Y-51855908D01*
X109232671Y-51906202D01*
X109232669Y-51906204D01*
X109182311Y-51943902D01*
X109116847Y-51968319D01*
X109048574Y-51953468D01*
X108999168Y-51904062D01*
X108984000Y-51844635D01*
X108984000Y-51571448D01*
X115175000Y-51571448D01*
X116246447Y-50500000D01*
X116246447Y-50499999D01*
X116246446Y-50499998D01*
X116953551Y-50499998D01*
X116953551Y-50500000D01*
X118024999Y-51571448D01*
X118025000Y-51571447D01*
X118025000Y-49428551D01*
X118024999Y-49428550D01*
X116953551Y-50499998D01*
X116246446Y-50499998D01*
X115175000Y-49428551D01*
X115175000Y-51571448D01*
X108984000Y-51571448D01*
X108984000Y-51454739D01*
X108985392Y-51449999D01*
X109803551Y-51449999D01*
X109803552Y-51450000D01*
X110996448Y-51450000D01*
X110996448Y-51449999D01*
X110400000Y-50853552D01*
X109803551Y-51449999D01*
X108985392Y-51449999D01*
X109003685Y-51387700D01*
X109056489Y-51341945D01*
X109125647Y-51332001D01*
X109182312Y-51355473D01*
X109187266Y-51359181D01*
X110046448Y-50500000D01*
X110046448Y-50499999D01*
X110753551Y-50499999D01*
X111612733Y-51359182D01*
X111682189Y-51307188D01*
X111768352Y-51192088D01*
X111768354Y-51192086D01*
X111818596Y-51057379D01*
X111818598Y-51057372D01*
X111824999Y-50997844D01*
X111825000Y-50997827D01*
X111825000Y-50002172D01*
X111824999Y-50002155D01*
X111818598Y-49942627D01*
X111818596Y-49942620D01*
X111768354Y-49807913D01*
X111768350Y-49807906D01*
X111682191Y-49692814D01*
X111682182Y-49692805D01*
X111612734Y-49640815D01*
X111612734Y-49640816D01*
X110753551Y-50499999D01*
X110046448Y-50499999D01*
X109187266Y-49640817D01*
X109187263Y-49640816D01*
X109182310Y-49644525D01*
X109116845Y-49668942D01*
X109048573Y-49654090D01*
X108999167Y-49604684D01*
X108985210Y-49550000D01*
X109803551Y-49550000D01*
X110399998Y-50146447D01*
X110399999Y-50146447D01*
X110996447Y-49550000D01*
X109803551Y-49550000D01*
X108985210Y-49550000D01*
X108984000Y-49545258D01*
X108984000Y-49155364D01*
X109003685Y-49088325D01*
X109056489Y-49042570D01*
X109125647Y-49032626D01*
X109182309Y-49056097D01*
X109225361Y-49088325D01*
X109232668Y-49093795D01*
X109232671Y-49093797D01*
X109367517Y-49144091D01*
X109367516Y-49144091D01*
X109374444Y-49144835D01*
X109427127Y-49150500D01*
X111372872Y-49150499D01*
X111432483Y-49144091D01*
X111567331Y-49093796D01*
X111659586Y-49024733D01*
X111725050Y-49000316D01*
X111733897Y-49000000D01*
X114500000Y-49000000D01*
X114500000Y-48810523D01*
X115179476Y-48810523D01*
X115205909Y-48823170D01*
X115265109Y-48827404D01*
X115309456Y-48855905D01*
X116599998Y-50146447D01*
X117890541Y-48855905D01*
X117951864Y-48822420D01*
X117989959Y-48825144D01*
X118020522Y-48810522D01*
X118018598Y-48792623D01*
X117968354Y-48657913D01*
X117968350Y-48657906D01*
X117882190Y-48542812D01*
X117882187Y-48542809D01*
X117767093Y-48456649D01*
X117767086Y-48456645D01*
X117632379Y-48406403D01*
X117632372Y-48406401D01*
X117572844Y-48400000D01*
X115627155Y-48400000D01*
X115567627Y-48406401D01*
X115567620Y-48406403D01*
X115432913Y-48456645D01*
X115432906Y-48456649D01*
X115317812Y-48542809D01*
X115317809Y-48542812D01*
X115231649Y-48657906D01*
X115231645Y-48657913D01*
X115181401Y-48792625D01*
X115179476Y-48810523D01*
X114500000Y-48810523D01*
X114500000Y-46124000D01*
X114519685Y-46056961D01*
X114572489Y-46011206D01*
X114624000Y-46000000D01*
X118466150Y-46000000D01*
X118533189Y-46019685D01*
G37*
G04 #@! TD.AperFunction*
G04 #@! TA.AperFunction,Conductor*
G36*
X61497382Y-26174185D02*
G01*
X61543137Y-26226989D01*
X61553081Y-26296147D01*
X61529610Y-26352811D01*
X61469646Y-26432911D01*
X61469645Y-26432913D01*
X61419403Y-26567620D01*
X61419401Y-26567627D01*
X61413000Y-26627155D01*
X61413000Y-28372844D01*
X61419401Y-28432372D01*
X61419402Y-28432376D01*
X61428277Y-28456170D01*
X62214212Y-27670235D01*
X62225482Y-27712292D01*
X62297890Y-27837708D01*
X62400292Y-27940110D01*
X62525708Y-28012518D01*
X62567763Y-28023786D01*
X61781828Y-28809721D01*
X61781829Y-28809722D01*
X61805623Y-28818597D01*
X61805627Y-28818598D01*
X61865155Y-28824999D01*
X61865172Y-28825000D01*
X63610828Y-28825000D01*
X63610844Y-28824999D01*
X63670376Y-28818598D01*
X63670377Y-28818597D01*
X63694170Y-28809722D01*
X63694170Y-28809720D01*
X62908236Y-28023786D01*
X62950292Y-28012518D01*
X63075708Y-27940110D01*
X63178110Y-27837708D01*
X63250518Y-27712292D01*
X63261787Y-27670235D01*
X64047722Y-28456170D01*
X64047723Y-28456170D01*
X64056598Y-28432375D01*
X64058382Y-28424827D01*
X64061163Y-28425484D01*
X64082717Y-28373410D01*
X64140099Y-28333546D01*
X64209923Y-28331034D01*
X64266970Y-28363509D01*
X64422731Y-28519270D01*
X64612718Y-28652301D01*
X64822921Y-28750320D01*
X65046950Y-28810349D01*
X65185713Y-28822489D01*
X65277998Y-28830563D01*
X65278000Y-28830563D01*
X65278002Y-28830563D01*
X65341586Y-28825000D01*
X65509050Y-28810349D01*
X65733079Y-28750320D01*
X65943282Y-28652301D01*
X66133269Y-28519270D01*
X66297270Y-28355269D01*
X66430301Y-28165282D01*
X66435893Y-28153289D01*
X66482062Y-28100851D01*
X66549255Y-28081697D01*
X66616137Y-28101911D01*
X66660656Y-28153286D01*
X66666131Y-28165027D01*
X66666133Y-28165031D01*
X66721023Y-28243422D01*
X66721023Y-28243423D01*
X67294212Y-27670233D01*
X67305482Y-27712292D01*
X67377890Y-27837708D01*
X67480292Y-27940110D01*
X67605708Y-28012518D01*
X67647765Y-28023787D01*
X67074575Y-28596975D01*
X67152973Y-28651868D01*
X67363090Y-28749847D01*
X67363099Y-28749851D01*
X67587031Y-28809852D01*
X67587041Y-28809854D01*
X67817999Y-28830061D01*
X67818001Y-28830061D01*
X68048958Y-28809854D01*
X68048968Y-28809852D01*
X68272900Y-28749851D01*
X68272909Y-28749847D01*
X68483030Y-28651867D01*
X68561423Y-28596975D01*
X67988234Y-28023787D01*
X68030292Y-28012518D01*
X68155708Y-27940110D01*
X68258110Y-27837708D01*
X68330518Y-27712292D01*
X68341787Y-27670234D01*
X68914975Y-28243423D01*
X68969864Y-28165033D01*
X68975340Y-28153291D01*
X69021511Y-28100851D01*
X69088704Y-28081697D01*
X69155586Y-28101911D01*
X69200105Y-28153286D01*
X69200108Y-28153292D01*
X69205699Y-28165282D01*
X69338730Y-28355269D01*
X69502731Y-28519270D01*
X69692718Y-28652301D01*
X69902921Y-28750320D01*
X70126950Y-28810349D01*
X70265713Y-28822489D01*
X70357998Y-28830563D01*
X70358000Y-28830563D01*
X70358002Y-28830563D01*
X70421586Y-28825000D01*
X70589050Y-28810349D01*
X70813079Y-28750320D01*
X71023282Y-28652301D01*
X71213269Y-28519270D01*
X71377270Y-28355269D01*
X71510301Y-28165282D01*
X71515893Y-28153289D01*
X71562062Y-28100851D01*
X71629255Y-28081697D01*
X71696137Y-28101911D01*
X71740656Y-28153286D01*
X71746131Y-28165027D01*
X71746133Y-28165031D01*
X71801023Y-28243422D01*
X71801023Y-28243423D01*
X72374212Y-27670234D01*
X72385482Y-27712292D01*
X72457890Y-27837708D01*
X72560292Y-27940110D01*
X72685708Y-28012518D01*
X72727765Y-28023787D01*
X72154575Y-28596975D01*
X72232973Y-28651868D01*
X72443090Y-28749847D01*
X72443099Y-28749851D01*
X72667031Y-28809852D01*
X72667041Y-28809854D01*
X72897999Y-28830061D01*
X72898001Y-28830061D01*
X73128958Y-28809854D01*
X73128968Y-28809852D01*
X73352900Y-28749851D01*
X73352909Y-28749847D01*
X73563030Y-28651867D01*
X73641423Y-28596975D01*
X73068234Y-28023787D01*
X73110292Y-28012518D01*
X73235708Y-27940110D01*
X73338110Y-27837708D01*
X73410518Y-27712292D01*
X73421787Y-27670235D01*
X73994975Y-28243423D01*
X74049867Y-28165030D01*
X74147847Y-27954909D01*
X74147851Y-27954900D01*
X74207852Y-27730968D01*
X74207854Y-27730958D01*
X74228061Y-27500000D01*
X74228061Y-27499999D01*
X74207854Y-27269041D01*
X74207852Y-27269031D01*
X74147851Y-27045099D01*
X74147847Y-27045090D01*
X74049868Y-26834972D01*
X73994974Y-26756576D01*
X73421787Y-27329764D01*
X73410518Y-27287708D01*
X73338110Y-27162292D01*
X73235708Y-27059890D01*
X73110292Y-26987482D01*
X73068233Y-26976212D01*
X73641423Y-26403023D01*
X73608649Y-26380075D01*
X73565024Y-26325499D01*
X73557830Y-26256000D01*
X73589352Y-26193646D01*
X73649582Y-26158231D01*
X73679772Y-26154500D01*
X77696902Y-26154500D01*
X77763941Y-26174185D01*
X77809696Y-26226989D01*
X77819640Y-26296147D01*
X77790615Y-26359703D01*
X77784583Y-26366181D01*
X77019481Y-27131282D01*
X77019475Y-27131290D01*
X76983107Y-27194283D01*
X76983107Y-27194285D01*
X76940423Y-27268214D01*
X76938943Y-27273739D01*
X76899499Y-27420943D01*
X76899499Y-27420945D01*
X76899499Y-27589046D01*
X76899500Y-27589059D01*
X76899500Y-30275500D01*
X76879815Y-30342539D01*
X76827011Y-30388294D01*
X76775500Y-30399500D01*
X66579057Y-30399500D01*
X66420943Y-30399500D01*
X66268215Y-30440423D01*
X66268214Y-30440423D01*
X66268212Y-30440424D01*
X66268209Y-30440425D01*
X66218096Y-30469359D01*
X66218095Y-30469360D01*
X66174689Y-30494420D01*
X66131285Y-30519479D01*
X66131282Y-30519481D01*
X66019478Y-30631286D01*
X65024840Y-31625923D01*
X64963517Y-31659408D01*
X64896898Y-31655524D01*
X64844981Y-31637702D01*
X64762186Y-31623886D01*
X64616049Y-31599500D01*
X64383951Y-31599500D01*
X64338164Y-31607140D01*
X64155015Y-31637702D01*
X63935504Y-31713061D01*
X63935495Y-31713064D01*
X63731371Y-31823531D01*
X63731365Y-31823535D01*
X63548222Y-31966081D01*
X63548219Y-31966084D01*
X63548216Y-31966086D01*
X63548216Y-31966087D01*
X63499064Y-32019481D01*
X63391016Y-32136852D01*
X63264075Y-32331151D01*
X63170842Y-32543699D01*
X63113866Y-32768691D01*
X63113864Y-32768702D01*
X63094700Y-32999993D01*
X63094700Y-33000006D01*
X63113864Y-33231297D01*
X63113866Y-33231308D01*
X63170842Y-33456300D01*
X63264075Y-33668848D01*
X63391016Y-33863147D01*
X63391019Y-33863151D01*
X63391021Y-33863153D01*
X63548216Y-34033913D01*
X63548219Y-34033915D01*
X63548222Y-34033918D01*
X63731365Y-34176464D01*
X63731371Y-34176468D01*
X63731374Y-34176470D01*
X63896195Y-34265667D01*
X63932830Y-34285493D01*
X63935497Y-34286936D01*
X64022995Y-34316974D01*
X64155015Y-34362297D01*
X64155017Y-34362297D01*
X64155019Y-34362298D01*
X64383951Y-34400500D01*
X64383952Y-34400500D01*
X64616048Y-34400500D01*
X64616049Y-34400500D01*
X64844981Y-34362298D01*
X65064503Y-34286936D01*
X65268626Y-34176470D01*
X65278494Y-34168790D01*
X65333130Y-34126265D01*
X65451784Y-34033913D01*
X65608979Y-33863153D01*
X65735924Y-33668849D01*
X65829157Y-33456300D01*
X65886134Y-33231305D01*
X65890966Y-33172989D01*
X65905300Y-33000006D01*
X65905300Y-32999993D01*
X65886135Y-32768702D01*
X65886131Y-32768682D01*
X65841680Y-32593151D01*
X65844304Y-32523331D01*
X65874202Y-32475031D01*
X66712416Y-31636819D01*
X66773739Y-31603334D01*
X66800097Y-31600500D01*
X68656723Y-31600500D01*
X68723762Y-31620185D01*
X68769517Y-31672989D01*
X68779461Y-31742147D01*
X68750436Y-31805703D01*
X68732885Y-31822354D01*
X68731374Y-31823529D01*
X68731374Y-31823530D01*
X68724277Y-31829054D01*
X68548224Y-31966081D01*
X68548216Y-31966087D01*
X68542973Y-31971782D01*
X68391016Y-32136852D01*
X68264075Y-32331151D01*
X68170842Y-32543699D01*
X68113866Y-32768691D01*
X68113864Y-32768702D01*
X68094700Y-32999993D01*
X68094700Y-33000006D01*
X68113864Y-33231297D01*
X68113866Y-33231308D01*
X68170842Y-33456300D01*
X68264075Y-33668848D01*
X68391016Y-33863147D01*
X68391019Y-33863151D01*
X68391021Y-33863153D01*
X68548216Y-34033913D01*
X68548219Y-34033915D01*
X68548222Y-34033918D01*
X68731365Y-34176464D01*
X68731371Y-34176468D01*
X68731374Y-34176470D01*
X68896195Y-34265667D01*
X68932830Y-34285493D01*
X68935497Y-34286936D01*
X69022995Y-34316974D01*
X69155015Y-34362297D01*
X69155017Y-34362297D01*
X69155019Y-34362298D01*
X69383951Y-34400500D01*
X69383952Y-34400500D01*
X69616048Y-34400500D01*
X69616049Y-34400500D01*
X69844981Y-34362298D01*
X70064503Y-34286936D01*
X70268626Y-34176470D01*
X70278494Y-34168790D01*
X70333130Y-34126265D01*
X70451784Y-34033913D01*
X70608979Y-33863153D01*
X70735924Y-33668849D01*
X70829157Y-33456300D01*
X70886134Y-33231305D01*
X70890966Y-33172989D01*
X70905300Y-33000006D01*
X70905300Y-32999993D01*
X70886135Y-32768702D01*
X70886133Y-32768691D01*
X70829157Y-32543699D01*
X70735924Y-32331151D01*
X70608983Y-32136852D01*
X70608980Y-32136849D01*
X70608979Y-32136847D01*
X70451784Y-31966087D01*
X70268626Y-31823530D01*
X70268625Y-31823529D01*
X70267115Y-31822354D01*
X70226302Y-31765643D01*
X70222627Y-31695870D01*
X70257259Y-31635187D01*
X70319200Y-31602860D01*
X70343277Y-31600500D01*
X76732657Y-31600500D01*
X76799696Y-31620185D01*
X76820338Y-31636819D01*
X76948140Y-31764621D01*
X76981625Y-31825944D01*
X76981116Y-31880899D01*
X76941353Y-32048667D01*
X76941352Y-32048678D01*
X76941352Y-32224113D01*
X76941353Y-32224124D01*
X76981812Y-32394828D01*
X76981812Y-32394829D01*
X77060549Y-32551608D01*
X77060550Y-32551609D01*
X77125803Y-32631714D01*
X77125818Y-32631730D01*
X77745355Y-33251264D01*
X77868282Y-33374191D01*
X77898996Y-33399211D01*
X77948387Y-33439447D01*
X77948395Y-33439452D01*
X78032051Y-33481465D01*
X78105171Y-33518187D01*
X78275883Y-33558648D01*
X78275886Y-33558648D01*
X78451322Y-33558648D01*
X78451325Y-33558648D01*
X78451328Y-33558647D01*
X78451330Y-33558647D01*
X78492030Y-33549000D01*
X78619100Y-33518883D01*
X78688871Y-33522576D01*
X78735378Y-33551859D01*
X78963192Y-33779673D01*
X78982895Y-33805349D01*
X79019480Y-33868716D01*
X79131284Y-33980520D01*
X79131286Y-33980521D01*
X79131290Y-33980524D01*
X79223773Y-34033918D01*
X79268216Y-34059577D01*
X79420943Y-34100500D01*
X79917588Y-34100500D01*
X79984627Y-34120185D01*
X79994903Y-34127555D01*
X79997736Y-34129814D01*
X79997738Y-34129816D01*
X80150478Y-34225789D01*
X80320745Y-34285368D01*
X80407669Y-34295161D01*
X80472080Y-34322226D01*
X80481465Y-34330700D01*
X80532017Y-34381252D01*
X80565502Y-34442575D01*
X80560518Y-34512267D01*
X80532018Y-34556614D01*
X80432287Y-34656345D01*
X80340187Y-34805663D01*
X80340186Y-34805666D01*
X80285001Y-34972203D01*
X80285001Y-34972204D01*
X80285000Y-34972204D01*
X80274500Y-35074983D01*
X80274500Y-35850001D01*
X80274501Y-35850019D01*
X80285000Y-35952796D01*
X80285001Y-35952799D01*
X80308932Y-36025016D01*
X80340186Y-36119334D01*
X80432288Y-36268656D01*
X80556344Y-36392712D01*
X80559628Y-36394737D01*
X80559653Y-36394753D01*
X80561445Y-36396746D01*
X80562011Y-36397193D01*
X80561934Y-36397289D01*
X80606379Y-36446699D01*
X80617603Y-36515661D01*
X80589761Y-36579744D01*
X80559665Y-36605826D01*
X80556660Y-36607679D01*
X80556655Y-36607683D01*
X80432684Y-36731654D01*
X80340643Y-36880875D01*
X80340641Y-36880880D01*
X80285494Y-37047302D01*
X80285493Y-37047309D01*
X80275000Y-37150013D01*
X80275000Y-37287500D01*
X84724999Y-37287500D01*
X84724999Y-37150028D01*
X84724998Y-37150013D01*
X84714505Y-37047302D01*
X84659358Y-36880880D01*
X84659356Y-36880875D01*
X84567315Y-36731654D01*
X84443344Y-36607683D01*
X84443341Y-36607681D01*
X84440339Y-36605829D01*
X84438713Y-36604021D01*
X84437677Y-36603202D01*
X84437817Y-36603024D01*
X84393617Y-36553880D01*
X84382397Y-36484917D01*
X84410243Y-36420836D01*
X84440344Y-36394754D01*
X84443656Y-36392712D01*
X84567712Y-36268656D01*
X84659814Y-36119334D01*
X84691078Y-36024986D01*
X86375001Y-36024986D01*
X86385494Y-36127697D01*
X86440641Y-36294119D01*
X86440643Y-36294124D01*
X86532684Y-36443345D01*
X86656654Y-36567315D01*
X86805875Y-36659356D01*
X86805880Y-36659358D01*
X86972302Y-36714505D01*
X86972309Y-36714506D01*
X87075019Y-36724999D01*
X87212499Y-36724999D01*
X87212500Y-36724998D01*
X87212500Y-35750000D01*
X86375001Y-35750000D01*
X86375001Y-36024986D01*
X84691078Y-36024986D01*
X84714999Y-35952797D01*
X84725500Y-35850009D01*
X84725499Y-35074992D01*
X84724548Y-35065687D01*
X84715286Y-34975013D01*
X86375000Y-34975013D01*
X86375000Y-35250000D01*
X87212500Y-35250000D01*
X87212500Y-34275000D01*
X87075027Y-34275000D01*
X87075012Y-34275001D01*
X86972302Y-34285494D01*
X86805880Y-34340641D01*
X86805875Y-34340643D01*
X86656654Y-34432684D01*
X86532684Y-34556654D01*
X86440643Y-34705875D01*
X86440641Y-34705880D01*
X86385494Y-34872302D01*
X86385493Y-34872309D01*
X86375000Y-34975013D01*
X84715286Y-34975013D01*
X84714999Y-34972203D01*
X84714998Y-34972200D01*
X84681861Y-34872200D01*
X84659814Y-34805666D01*
X84567712Y-34656344D01*
X84443656Y-34532288D01*
X84340941Y-34468933D01*
X84294336Y-34440187D01*
X84294335Y-34440186D01*
X84294334Y-34440186D01*
X84240252Y-34422265D01*
X84180863Y-34402585D01*
X84123418Y-34362812D01*
X84100094Y-34316974D01*
X84097078Y-34305720D01*
X84097077Y-34305716D01*
X84096238Y-34304262D01*
X84018024Y-34168790D01*
X84018018Y-34168782D01*
X83136819Y-33287583D01*
X83103334Y-33226260D01*
X83100500Y-33199902D01*
X83100500Y-32582412D01*
X83120185Y-32515373D01*
X83127555Y-32505097D01*
X83129810Y-32502267D01*
X83129816Y-32502262D01*
X83225789Y-32349522D01*
X83285368Y-32179255D01*
X83286459Y-32169573D01*
X83305565Y-32000003D01*
X83305565Y-31999996D01*
X83285369Y-31820750D01*
X83285368Y-31820745D01*
X83281778Y-31810486D01*
X83225789Y-31650478D01*
X83217761Y-31637702D01*
X83155803Y-31539096D01*
X83129816Y-31497738D01*
X83002262Y-31370184D01*
X82948987Y-31336709D01*
X82849523Y-31274211D01*
X82679254Y-31214631D01*
X82679249Y-31214630D01*
X82500004Y-31194435D01*
X82499996Y-31194435D01*
X82320750Y-31214630D01*
X82320745Y-31214631D01*
X82150476Y-31274211D01*
X81997737Y-31370184D01*
X81870184Y-31497737D01*
X81774211Y-31650476D01*
X81714631Y-31820745D01*
X81714630Y-31820750D01*
X81694435Y-31999996D01*
X81694435Y-32000003D01*
X81714630Y-32179249D01*
X81714631Y-32179254D01*
X81774211Y-32349523D01*
X81819234Y-32421176D01*
X81868760Y-32499996D01*
X81870185Y-32502263D01*
X81872445Y-32505097D01*
X81873334Y-32507275D01*
X81873889Y-32508158D01*
X81873734Y-32508255D01*
X81898855Y-32569783D01*
X81899500Y-32582412D01*
X81899500Y-33413330D01*
X81899499Y-33413348D01*
X81899499Y-33579054D01*
X81899498Y-33579054D01*
X81899499Y-33579057D01*
X81940423Y-33731785D01*
X81960441Y-33766456D01*
X81976914Y-33834356D01*
X81954062Y-33900384D01*
X81899141Y-33943574D01*
X81829587Y-33950216D01*
X81767485Y-33918200D01*
X81765401Y-33916166D01*
X81330699Y-33481464D01*
X81297215Y-33420142D01*
X81295163Y-33407686D01*
X81285368Y-33320745D01*
X81225789Y-33150478D01*
X81129816Y-32997738D01*
X81002262Y-32870184D01*
X80966398Y-32847649D01*
X80849523Y-32774211D01*
X80679254Y-32714631D01*
X80679249Y-32714630D01*
X80500004Y-32694435D01*
X80499996Y-32694435D01*
X80320750Y-32714630D01*
X80320745Y-32714631D01*
X80150476Y-32774211D01*
X79997736Y-32870185D01*
X79994903Y-32872445D01*
X79992724Y-32873334D01*
X79991842Y-32873889D01*
X79991744Y-32873734D01*
X79930217Y-32898855D01*
X79917588Y-32899500D01*
X79832851Y-32899500D01*
X79765812Y-32879815D01*
X79745170Y-32863181D01*
X79584613Y-32702624D01*
X79551128Y-32641301D01*
X79551636Y-32586347D01*
X79585869Y-32441915D01*
X79591401Y-32418576D01*
X79591402Y-32418567D01*
X79591402Y-32243132D01*
X79591401Y-32243126D01*
X79591136Y-32242009D01*
X79590505Y-32239344D01*
X79590646Y-32236669D01*
X79590563Y-32235954D01*
X79590685Y-32235939D01*
X79594197Y-32169573D01*
X79635025Y-32112873D01*
X79700025Y-32087247D01*
X79739765Y-32090090D01*
X79743190Y-32090902D01*
X79918510Y-32090902D01*
X80089114Y-32050467D01*
X80245790Y-31971782D01*
X80325828Y-31906581D01*
X80325835Y-31906575D01*
X80423052Y-31809358D01*
X79556846Y-30943154D01*
X79380067Y-30766375D01*
X80087176Y-30766375D01*
X80087176Y-30766376D01*
X80776603Y-31455805D01*
X80776604Y-31455805D01*
X80873813Y-31358596D01*
X80873822Y-31358586D01*
X80939023Y-31278549D01*
X80939032Y-31278536D01*
X81017713Y-31121868D01*
X81058148Y-30951264D01*
X81058148Y-30775943D01*
X81017713Y-30605339D01*
X80939032Y-30448672D01*
X80939027Y-30448665D01*
X80873825Y-30368623D01*
X80873811Y-30368608D01*
X80679377Y-30174175D01*
X80679376Y-30174175D01*
X80087176Y-30766375D01*
X79380067Y-30766375D01*
X78690641Y-30076948D01*
X78593428Y-30174162D01*
X78593418Y-30174173D01*
X78528222Y-30254204D01*
X78528213Y-30254217D01*
X78449532Y-30410885D01*
X78409098Y-30581489D01*
X78409098Y-30756811D01*
X78409911Y-30760242D01*
X78409782Y-30762670D01*
X78409936Y-30763985D01*
X78409711Y-30764011D01*
X78406217Y-30830014D01*
X78365387Y-30886712D01*
X78300386Y-30912336D01*
X78260662Y-30909496D01*
X78256876Y-30908599D01*
X78256874Y-30908598D01*
X78256871Y-30908598D01*
X78256868Y-30908598D01*
X78224500Y-30908598D01*
X78157461Y-30888913D01*
X78111706Y-30836109D01*
X78100500Y-30784598D01*
X78100500Y-29723394D01*
X79044193Y-29723394D01*
X79733623Y-30412823D01*
X79733624Y-30412823D01*
X80325824Y-29820622D01*
X80131382Y-29626182D01*
X80131371Y-29626172D01*
X80051340Y-29560976D01*
X80051327Y-29560967D01*
X79894660Y-29482286D01*
X79724056Y-29441852D01*
X79548736Y-29441852D01*
X79378131Y-29482286D01*
X79221455Y-29560971D01*
X79141412Y-29626176D01*
X79141403Y-29626184D01*
X79044193Y-29723394D01*
X78100500Y-29723394D01*
X78100500Y-27800097D01*
X78120185Y-27733058D01*
X78136819Y-27712416D01*
X78712417Y-27136819D01*
X78773740Y-27103334D01*
X78800098Y-27100500D01*
X87199903Y-27100500D01*
X87266942Y-27120185D01*
X87287584Y-27136819D01*
X87363181Y-27212416D01*
X87396666Y-27273739D01*
X87399500Y-27300097D01*
X87399500Y-30913330D01*
X87399499Y-30913348D01*
X87399499Y-31079054D01*
X87399498Y-31079054D01*
X87407921Y-31110488D01*
X87440423Y-31231785D01*
X87450939Y-31250000D01*
X87454566Y-31256281D01*
X87454567Y-31256283D01*
X87519477Y-31368712D01*
X87519481Y-31368717D01*
X87638349Y-31487585D01*
X87638355Y-31487590D01*
X88937091Y-32786326D01*
X88970576Y-32847649D01*
X88972188Y-32856644D01*
X88992461Y-32999999D01*
X88992462Y-33000000D01*
X89131800Y-33000000D01*
X89193799Y-33016612D01*
X89268216Y-33059577D01*
X89380019Y-33089534D01*
X89420942Y-33100500D01*
X89420943Y-33100500D01*
X89750902Y-33100500D01*
X89817941Y-33120185D01*
X89863696Y-33172989D01*
X89873640Y-33242147D01*
X89844615Y-33305703D01*
X89838583Y-33312181D01*
X89056981Y-34093782D01*
X89056975Y-34093790D01*
X89009242Y-34176468D01*
X89009242Y-34176469D01*
X88977923Y-34230714D01*
X88977922Y-34230715D01*
X88972512Y-34250906D01*
X88936145Y-34310566D01*
X88891745Y-34336514D01*
X88880670Y-34340184D01*
X88880668Y-34340185D01*
X88880666Y-34340185D01*
X88880666Y-34340186D01*
X88844818Y-34362297D01*
X88731342Y-34432289D01*
X88607288Y-34556343D01*
X88607283Y-34556349D01*
X88605241Y-34559661D01*
X88603247Y-34561453D01*
X88602807Y-34562011D01*
X88602711Y-34561935D01*
X88553291Y-34606383D01*
X88484328Y-34617602D01*
X88420247Y-34589755D01*
X88394168Y-34559656D01*
X88392319Y-34556659D01*
X88392316Y-34556655D01*
X88268345Y-34432684D01*
X88119124Y-34340643D01*
X88119119Y-34340641D01*
X87952697Y-34285494D01*
X87952690Y-34285493D01*
X87849986Y-34275000D01*
X87712500Y-34275000D01*
X87712500Y-36724999D01*
X87719692Y-36732191D01*
X87762236Y-36744684D01*
X87807991Y-36797488D01*
X87817935Y-36866646D01*
X87812905Y-36887991D01*
X87798173Y-36932454D01*
X87785000Y-36972206D01*
X87774500Y-37074983D01*
X87774500Y-37850001D01*
X87774501Y-37850019D01*
X87785000Y-37952796D01*
X87785001Y-37952799D01*
X87840185Y-38119331D01*
X87840187Y-38119336D01*
X87865005Y-38159573D01*
X87932288Y-38268656D01*
X88056344Y-38392712D01*
X88059628Y-38394737D01*
X88059653Y-38394753D01*
X88061445Y-38396746D01*
X88062011Y-38397193D01*
X88061934Y-38397289D01*
X88106379Y-38446699D01*
X88117603Y-38515661D01*
X88089761Y-38579744D01*
X88059665Y-38605826D01*
X88056660Y-38607679D01*
X88056655Y-38607683D01*
X87932684Y-38731654D01*
X87840643Y-38880875D01*
X87840641Y-38880880D01*
X87785494Y-39047302D01*
X87785493Y-39047309D01*
X87775000Y-39150013D01*
X87775000Y-39287500D01*
X90224999Y-39287500D01*
X90224999Y-39150028D01*
X90224998Y-39150013D01*
X90214505Y-39047302D01*
X90159358Y-38880880D01*
X90159356Y-38880875D01*
X90067315Y-38731654D01*
X89943344Y-38607683D01*
X89943341Y-38607681D01*
X89940339Y-38605829D01*
X89938713Y-38604021D01*
X89937677Y-38603202D01*
X89937817Y-38603024D01*
X89893617Y-38553880D01*
X89882397Y-38484917D01*
X89910243Y-38420836D01*
X89940344Y-38394754D01*
X89943656Y-38392712D01*
X90067712Y-38268656D01*
X90158229Y-38121902D01*
X90210177Y-38075179D01*
X90263768Y-38063000D01*
X91844129Y-38063000D01*
X91911168Y-38082685D01*
X91956923Y-38135489D01*
X91966867Y-38204647D01*
X91951516Y-38248999D01*
X91940425Y-38268207D01*
X91940424Y-38268210D01*
X91938816Y-38274211D01*
X91899499Y-38420943D01*
X91899499Y-38420945D01*
X91899499Y-38589046D01*
X91899500Y-38589059D01*
X91899500Y-41370500D01*
X91879815Y-41437539D01*
X91827011Y-41483294D01*
X91775500Y-41494500D01*
X90895097Y-41494500D01*
X90828058Y-41474815D01*
X90807416Y-41458181D01*
X90450090Y-41100855D01*
X90450088Y-41100852D01*
X90331217Y-40981981D01*
X90331216Y-40981980D01*
X90225496Y-40920943D01*
X90225495Y-40920942D01*
X90214070Y-40914346D01*
X90194285Y-40902923D01*
X90194282Y-40902922D01*
X90194280Y-40902921D01*
X90183024Y-40899905D01*
X90123364Y-40863539D01*
X90097414Y-40819135D01*
X90080541Y-40768216D01*
X90059814Y-40705666D01*
X90057994Y-40702716D01*
X89975923Y-40569656D01*
X89957483Y-40502264D01*
X89978406Y-40435601D01*
X89993781Y-40416878D01*
X90067317Y-40343342D01*
X90159356Y-40194124D01*
X90159358Y-40194119D01*
X90214505Y-40027697D01*
X90214506Y-40027690D01*
X90224999Y-39924986D01*
X90225000Y-39924973D01*
X90225000Y-39787500D01*
X87775001Y-39787500D01*
X87775001Y-39924986D01*
X87785494Y-40027697D01*
X87840641Y-40194119D01*
X87840645Y-40194128D01*
X87847880Y-40205857D01*
X87866320Y-40273249D01*
X87845397Y-40339913D01*
X87791755Y-40384682D01*
X87722424Y-40393343D01*
X87677245Y-40376492D01*
X87619128Y-40340645D01*
X87619119Y-40340641D01*
X87452697Y-40285494D01*
X87452690Y-40285493D01*
X87349986Y-40275000D01*
X87212500Y-40275000D01*
X87212500Y-44724999D01*
X87349972Y-44724999D01*
X87349986Y-44724998D01*
X87452697Y-44714505D01*
X87619119Y-44659358D01*
X87619124Y-44659356D01*
X87768345Y-44567315D01*
X87892318Y-44443342D01*
X87894165Y-44440348D01*
X87895969Y-44438724D01*
X87896798Y-44437677D01*
X87896976Y-44437818D01*
X87946110Y-44393621D01*
X88015073Y-44382396D01*
X88079156Y-44410236D01*
X88105243Y-44440341D01*
X88107288Y-44443656D01*
X88231344Y-44567712D01*
X88378097Y-44658229D01*
X88424821Y-44710175D01*
X88437000Y-44763767D01*
X88437000Y-46950830D01*
X88436999Y-46950848D01*
X88436999Y-47124684D01*
X88434678Y-47124684D01*
X88425743Y-47181935D01*
X88401257Y-47216752D01*
X88254828Y-47363182D01*
X88193508Y-47396666D01*
X88167149Y-47399500D01*
X87800097Y-47399500D01*
X87733058Y-47379815D01*
X87712416Y-47363181D01*
X86136819Y-45787584D01*
X86103334Y-45726261D01*
X86100500Y-45699903D01*
X86100500Y-44754854D01*
X86120185Y-44687815D01*
X86172989Y-44642060D01*
X86242147Y-44632116D01*
X86289598Y-44649316D01*
X86305873Y-44659355D01*
X86305880Y-44659358D01*
X86472302Y-44714505D01*
X86472309Y-44714506D01*
X86575019Y-44724999D01*
X86712499Y-44724999D01*
X86712500Y-44724998D01*
X86712500Y-41750000D01*
X85875001Y-41750000D01*
X85875001Y-42024986D01*
X85885494Y-42127697D01*
X85940641Y-42294119D01*
X85940643Y-42294124D01*
X86027477Y-42434903D01*
X86045917Y-42502296D01*
X86027477Y-42565097D01*
X85940643Y-42705875D01*
X85940641Y-42705880D01*
X85885494Y-42872302D01*
X85885493Y-42872309D01*
X85875000Y-42975013D01*
X85875000Y-43226402D01*
X85855315Y-43293441D01*
X85802511Y-43339196D01*
X85733353Y-43349140D01*
X85669797Y-43320115D01*
X85663319Y-43314083D01*
X85368718Y-43019483D01*
X85368716Y-43019481D01*
X85231785Y-42940423D01*
X85079057Y-42899499D01*
X84920943Y-42899499D01*
X84796758Y-42932775D01*
X84764664Y-42937000D01*
X84763768Y-42937000D01*
X84696729Y-42917315D01*
X84658229Y-42878097D01*
X84644183Y-42855324D01*
X84567712Y-42731344D01*
X84443656Y-42607288D01*
X84440342Y-42605243D01*
X84438546Y-42603248D01*
X84437989Y-42602807D01*
X84438064Y-42602711D01*
X84393618Y-42553297D01*
X84382397Y-42484334D01*
X84410240Y-42420252D01*
X84440348Y-42394165D01*
X84443342Y-42392318D01*
X84567315Y-42268345D01*
X84659356Y-42119124D01*
X84659358Y-42119119D01*
X84714505Y-41952697D01*
X84714506Y-41952690D01*
X84724999Y-41849986D01*
X84725000Y-41849973D01*
X84725000Y-41712500D01*
X80275001Y-41712500D01*
X80275001Y-41849986D01*
X80285494Y-41952697D01*
X80340641Y-42119119D01*
X80340643Y-42119124D01*
X80432684Y-42268345D01*
X80556655Y-42392316D01*
X80556659Y-42392319D01*
X80559656Y-42394168D01*
X80561279Y-42395972D01*
X80562323Y-42396798D01*
X80562181Y-42396976D01*
X80606381Y-42446116D01*
X80617602Y-42515079D01*
X80589759Y-42579161D01*
X80559661Y-42605241D01*
X80556349Y-42607283D01*
X80556343Y-42607288D01*
X80432289Y-42731342D01*
X80340184Y-42880669D01*
X80340184Y-42880670D01*
X80336513Y-42891747D01*
X80296738Y-42949190D01*
X80250908Y-42972511D01*
X80230717Y-42977921D01*
X80230709Y-42977925D01*
X80188560Y-43002261D01*
X80188558Y-43002262D01*
X80093790Y-43056975D01*
X80093782Y-43056981D01*
X79981978Y-43168786D01*
X79731465Y-43419298D01*
X79670142Y-43452783D01*
X79657668Y-43454837D01*
X79570750Y-43464630D01*
X79400478Y-43524210D01*
X79247737Y-43620184D01*
X79120184Y-43747737D01*
X79024210Y-43900478D01*
X78984376Y-44014320D01*
X78943654Y-44071096D01*
X78878702Y-44096844D01*
X78810140Y-44083388D01*
X78789018Y-44069505D01*
X78778543Y-44060972D01*
X78778536Y-44060967D01*
X78621868Y-43982286D01*
X78451264Y-43941852D01*
X78275944Y-43941852D01*
X78105339Y-43982286D01*
X77948672Y-44060967D01*
X77948665Y-44060972D01*
X77868623Y-44126174D01*
X77868608Y-44126188D01*
X77674175Y-44320622D01*
X78355472Y-45001919D01*
X78388957Y-45063242D01*
X78383973Y-45132933D01*
X78355473Y-45177281D01*
X78266377Y-45266377D01*
X78355472Y-45355472D01*
X78388957Y-45416795D01*
X78383973Y-45486487D01*
X78355472Y-45530834D01*
X77576948Y-46309357D01*
X77576948Y-46309358D01*
X77674152Y-46406562D01*
X77674173Y-46406581D01*
X77754204Y-46471777D01*
X77754217Y-46471786D01*
X77910885Y-46550467D01*
X78081490Y-46590902D01*
X78256810Y-46590902D01*
X78260231Y-46590091D01*
X78262656Y-46590219D01*
X78263985Y-46590064D01*
X78264011Y-46590290D01*
X78330003Y-46593779D01*
X78386706Y-46634603D01*
X78412335Y-46699602D01*
X78409496Y-46739335D01*
X78408599Y-46743117D01*
X78408598Y-46743132D01*
X78408598Y-46918567D01*
X78408599Y-46918578D01*
X78449058Y-47089284D01*
X78527794Y-47246060D01*
X78527798Y-47246066D01*
X78593045Y-47326163D01*
X78593050Y-47326168D01*
X78593053Y-47326172D01*
X79141074Y-47874191D01*
X79141082Y-47874197D01*
X79141087Y-47874202D01*
X79221173Y-47939443D01*
X79221177Y-47939445D01*
X79221181Y-47939449D01*
X79221183Y-47939450D01*
X79221186Y-47939452D01*
X79377961Y-48018187D01*
X79496638Y-48046314D01*
X79548675Y-48058648D01*
X79548678Y-48058648D01*
X79724114Y-48058648D01*
X79724117Y-48058648D01*
X79894829Y-48018187D01*
X79997948Y-47966399D01*
X80066691Y-47953902D01*
X80124037Y-47976816D01*
X80124245Y-47976457D01*
X80126731Y-47977892D01*
X80129085Y-47978833D01*
X80131287Y-47980522D01*
X80197918Y-48018991D01*
X80268216Y-48059577D01*
X80420943Y-48100501D01*
X80420945Y-48100501D01*
X80586654Y-48100501D01*
X80586670Y-48100500D01*
X80855739Y-48100500D01*
X80922778Y-48120185D01*
X80968533Y-48172989D01*
X80978477Y-48242147D01*
X80949452Y-48305703D01*
X80946872Y-48308587D01*
X80715264Y-48559576D01*
X78024284Y-51475715D01*
X83582916Y-57034344D01*
X83582917Y-57034345D01*
X89558631Y-50558631D01*
X89558630Y-50558630D01*
X89558631Y-50558630D01*
X87812181Y-48812181D01*
X87778696Y-48750858D01*
X87783680Y-48681166D01*
X87825552Y-48625233D01*
X87891016Y-48600816D01*
X87899862Y-48600500D01*
X88579055Y-48600500D01*
X88579057Y-48600500D01*
X88731784Y-48559577D01*
X88868716Y-48480520D01*
X88980520Y-48368716D01*
X89017101Y-48305352D01*
X89036802Y-48279677D01*
X89252158Y-48064321D01*
X89313479Y-48030838D01*
X89325934Y-48028786D01*
X89412878Y-48018991D01*
X89583145Y-47959412D01*
X89735885Y-47863439D01*
X89735890Y-47863433D01*
X89738720Y-47861178D01*
X89740898Y-47860288D01*
X89741781Y-47859734D01*
X89741878Y-47859888D01*
X89803406Y-47834768D01*
X89816035Y-47834123D01*
X90179708Y-47834123D01*
X90179724Y-47834124D01*
X90187320Y-47834124D01*
X90276853Y-47834124D01*
X90343892Y-47853809D01*
X90364534Y-47870443D01*
X90368282Y-47874191D01*
X90385468Y-47888191D01*
X90448387Y-47939447D01*
X90448395Y-47939452D01*
X90526810Y-47978833D01*
X90605171Y-48018187D01*
X90775883Y-48058648D01*
X90775886Y-48058648D01*
X90951322Y-48058648D01*
X90951325Y-48058648D01*
X90951328Y-48058647D01*
X90951330Y-48058647D01*
X90992030Y-48049000D01*
X91119100Y-48018883D01*
X91188871Y-48022576D01*
X91235378Y-48051859D01*
X91363181Y-48179662D01*
X91396666Y-48240985D01*
X91399500Y-48267343D01*
X91399500Y-53199902D01*
X91379815Y-53266941D01*
X91363181Y-53287583D01*
X87361481Y-57289282D01*
X87361479Y-57289284D01*
X87337876Y-57330167D01*
X87287308Y-57378382D01*
X87277943Y-57382726D01*
X87093558Y-57459103D01*
X87093555Y-57459104D01*
X86872990Y-57594267D01*
X86872985Y-57594270D01*
X86676276Y-57762276D01*
X86508270Y-57958985D01*
X86508267Y-57958990D01*
X86373105Y-58179553D01*
X86373103Y-58179559D01*
X86343529Y-58250954D01*
X86299690Y-58305356D01*
X86233395Y-58327421D01*
X86228970Y-58327500D01*
X70555030Y-58327500D01*
X70487991Y-58307815D01*
X70442236Y-58255011D01*
X70440484Y-58250989D01*
X70410897Y-58179559D01*
X70410895Y-58179556D01*
X70410894Y-58179553D01*
X70275732Y-57958990D01*
X70275729Y-57958985D01*
X70215265Y-57888191D01*
X70107724Y-57762276D01*
X69982787Y-57655570D01*
X69911014Y-57594270D01*
X69911009Y-57594267D01*
X69690441Y-57459102D01*
X69486441Y-57374603D01*
X69451440Y-57360105D01*
X69451436Y-57360104D01*
X69451430Y-57360102D01*
X69199898Y-57299715D01*
X68942000Y-57279418D01*
X68684101Y-57299715D01*
X68432569Y-57360102D01*
X68432557Y-57360106D01*
X68193558Y-57459102D01*
X67972990Y-57594267D01*
X67972985Y-57594270D01*
X67776276Y-57762276D01*
X67608270Y-57958985D01*
X67608267Y-57958990D01*
X67473102Y-58179558D01*
X67374106Y-58418557D01*
X67374102Y-58418569D01*
X67313715Y-58670101D01*
X67293418Y-58928000D01*
X67313715Y-59185898D01*
X67374102Y-59437430D01*
X67374106Y-59437442D01*
X67473102Y-59676441D01*
X67608267Y-59897009D01*
X67608270Y-59897014D01*
X67684426Y-59986181D01*
X67776276Y-60093724D01*
X67823750Y-60134270D01*
X67972985Y-60261729D01*
X67972990Y-60261732D01*
X68193558Y-60396897D01*
X68278057Y-60431897D01*
X68432560Y-60495895D01*
X68684105Y-60556285D01*
X68942000Y-60576582D01*
X69199895Y-60556285D01*
X69451440Y-60495895D01*
X69690441Y-60396897D01*
X69911012Y-60261731D01*
X70107724Y-60093724D01*
X70275731Y-59897012D01*
X70410897Y-59676441D01*
X70440470Y-59605045D01*
X70484310Y-59550644D01*
X70550605Y-59528579D01*
X70555030Y-59528500D01*
X86228970Y-59528500D01*
X86296009Y-59548185D01*
X86341764Y-59600989D01*
X86343515Y-59605010D01*
X86370588Y-59670369D01*
X86373105Y-59676446D01*
X86508267Y-59897009D01*
X86508270Y-59897014D01*
X86584426Y-59986181D01*
X86676276Y-60093724D01*
X86723750Y-60134270D01*
X86872985Y-60261729D01*
X86872990Y-60261732D01*
X87093558Y-60396897D01*
X87178057Y-60431897D01*
X87332560Y-60495895D01*
X87584105Y-60556285D01*
X87842000Y-60576582D01*
X88099895Y-60556285D01*
X88351440Y-60495895D01*
X88590441Y-60396897D01*
X88811012Y-60261731D01*
X89007724Y-60093724D01*
X89175731Y-59897012D01*
X89310897Y-59676441D01*
X89409895Y-59437440D01*
X89470285Y-59185895D01*
X89490582Y-58928000D01*
X89470285Y-58670105D01*
X89409895Y-58418560D01*
X89310897Y-58179559D01*
X89310897Y-58179558D01*
X89175732Y-57958990D01*
X89175729Y-57958985D01*
X89007724Y-57762276D01*
X88882782Y-57655566D01*
X88844592Y-57597063D01*
X88844092Y-57527195D01*
X88875633Y-57473600D01*
X92368713Y-53980521D01*
X92368716Y-53980520D01*
X92480520Y-53868716D01*
X92530639Y-53781904D01*
X92559577Y-53731785D01*
X92600501Y-53579057D01*
X92600501Y-53420943D01*
X92600501Y-53413348D01*
X92600500Y-53413330D01*
X92600500Y-47888191D01*
X92600500Y-47888189D01*
X92559577Y-47735462D01*
X92557172Y-47731297D01*
X92480524Y-47598536D01*
X92480521Y-47598532D01*
X92480520Y-47598530D01*
X92368716Y-47486726D01*
X92368715Y-47486725D01*
X92364385Y-47482395D01*
X92364374Y-47482385D01*
X92084613Y-47202624D01*
X92051128Y-47141301D01*
X92051636Y-47086347D01*
X92089088Y-46928334D01*
X92091401Y-46918576D01*
X92091402Y-46918567D01*
X92091402Y-46743132D01*
X92091401Y-46743126D01*
X92090569Y-46739617D01*
X92090505Y-46739344D01*
X92090646Y-46736669D01*
X92090563Y-46735954D01*
X92090685Y-46735939D01*
X92094197Y-46669573D01*
X92135025Y-46612873D01*
X92200025Y-46587247D01*
X92239765Y-46590090D01*
X92243190Y-46590902D01*
X92418510Y-46590902D01*
X92589114Y-46550467D01*
X92745790Y-46471782D01*
X92825828Y-46406581D01*
X92825835Y-46406575D01*
X92923052Y-46309358D01*
X92056846Y-45443154D01*
X91880067Y-45266375D01*
X92587176Y-45266375D01*
X92587176Y-45266376D01*
X93276603Y-45955805D01*
X93276604Y-45955805D01*
X93373813Y-45858596D01*
X93373822Y-45858586D01*
X93439023Y-45778549D01*
X93439032Y-45778536D01*
X93517713Y-45621868D01*
X93558148Y-45451264D01*
X93558148Y-45275943D01*
X93517713Y-45105339D01*
X93439032Y-44948672D01*
X93439027Y-44948665D01*
X93373825Y-44868623D01*
X93373811Y-44868608D01*
X93179377Y-44674175D01*
X93179376Y-44674175D01*
X92587176Y-45266375D01*
X91880067Y-45266375D01*
X91190641Y-44576948D01*
X91093428Y-44674162D01*
X91093418Y-44674173D01*
X91028222Y-44754204D01*
X91028213Y-44754217D01*
X90949532Y-44910885D01*
X90909098Y-45081489D01*
X90909098Y-45256811D01*
X90909911Y-45260242D01*
X90909782Y-45262670D01*
X90909936Y-45263985D01*
X90909711Y-45264011D01*
X90906217Y-45330014D01*
X90865387Y-45386712D01*
X90800386Y-45412336D01*
X90760662Y-45409496D01*
X90756876Y-45408599D01*
X90756874Y-45408598D01*
X90756871Y-45408598D01*
X90581429Y-45408598D01*
X90581427Y-45408598D01*
X90581421Y-45408599D01*
X90410715Y-45449058D01*
X90253939Y-45527794D01*
X90253933Y-45527798D01*
X90173836Y-45593045D01*
X90173821Y-45593059D01*
X89849681Y-45917200D01*
X89788358Y-45950685D01*
X89718666Y-45945701D01*
X89662733Y-45903829D01*
X89638316Y-45838365D01*
X89638000Y-45829519D01*
X89638000Y-44763767D01*
X89657685Y-44696728D01*
X89696901Y-44658230D01*
X89843656Y-44567712D01*
X89967712Y-44443656D01*
X90059814Y-44294334D01*
X90083321Y-44223394D01*
X91544193Y-44223394D01*
X92233623Y-44912823D01*
X92233624Y-44912823D01*
X92825824Y-44320622D01*
X92631382Y-44126182D01*
X92631371Y-44126172D01*
X92551340Y-44060976D01*
X92551327Y-44060967D01*
X92394660Y-43982286D01*
X92224056Y-43941852D01*
X92048736Y-43941852D01*
X91878131Y-43982286D01*
X91721455Y-44060971D01*
X91641412Y-44126176D01*
X91641403Y-44126184D01*
X91544193Y-44223394D01*
X90083321Y-44223394D01*
X90114999Y-44127797D01*
X90125500Y-44025009D01*
X90125499Y-42974992D01*
X90121440Y-42935261D01*
X90114999Y-42872203D01*
X90109406Y-42855324D01*
X90069600Y-42735200D01*
X90067199Y-42665375D01*
X90102930Y-42605333D01*
X90165451Y-42574140D01*
X90234910Y-42581700D01*
X90249301Y-42588808D01*
X90281311Y-42607289D01*
X90313095Y-42625639D01*
X90313097Y-42625641D01*
X90351151Y-42647611D01*
X90363215Y-42654577D01*
X90515943Y-42695500D01*
X90674057Y-42695500D01*
X91900390Y-42695500D01*
X91967429Y-42715185D01*
X91977705Y-42722555D01*
X91980538Y-42724814D01*
X91980540Y-42724816D01*
X92133280Y-42820789D01*
X92280213Y-42872203D01*
X92303547Y-42880368D01*
X92303552Y-42880369D01*
X92482798Y-42900565D01*
X92482802Y-42900565D01*
X92482806Y-42900565D01*
X92662051Y-42880369D01*
X92662054Y-42880368D01*
X92662057Y-42880368D01*
X92832324Y-42820789D01*
X92985064Y-42724816D01*
X93112618Y-42597262D01*
X93208591Y-42444522D01*
X93268170Y-42274255D01*
X93268836Y-42268345D01*
X93288367Y-42095003D01*
X93288367Y-42094996D01*
X93270025Y-41932203D01*
X93282080Y-41863381D01*
X93329429Y-41812002D01*
X93397039Y-41794378D01*
X93407181Y-41795106D01*
X93407728Y-41795168D01*
X93472129Y-41822266D01*
X93481465Y-41830700D01*
X93863181Y-42212416D01*
X93896666Y-42273739D01*
X93899500Y-42300097D01*
X93899500Y-46699902D01*
X93879815Y-46766941D01*
X93863181Y-46787583D01*
X93019482Y-47631281D01*
X93019480Y-47631283D01*
X93012995Y-47642516D01*
X92999330Y-47666186D01*
X92940423Y-47768215D01*
X92899499Y-47920943D01*
X92899499Y-47920945D01*
X92899499Y-48089046D01*
X92899500Y-48089059D01*
X92899500Y-71199902D01*
X92879815Y-71266941D01*
X92863181Y-71287583D01*
X92287584Y-71863181D01*
X92226261Y-71896666D01*
X92199903Y-71899500D01*
X83586669Y-71899500D01*
X83586653Y-71899499D01*
X83579057Y-71899499D01*
X83420943Y-71899499D01*
X83313587Y-71928265D01*
X83268210Y-71940424D01*
X83268209Y-71940425D01*
X83218096Y-71969359D01*
X83218095Y-71969360D01*
X83174689Y-71994420D01*
X83131285Y-72019479D01*
X83131282Y-72019481D01*
X81011481Y-74139282D01*
X81011479Y-74139285D01*
X80961361Y-74226094D01*
X80961359Y-74226096D01*
X80932425Y-74276209D01*
X80932424Y-74276210D01*
X80932423Y-74276215D01*
X80891499Y-74428943D01*
X80891499Y-74428945D01*
X80891499Y-74597046D01*
X80891500Y-74597059D01*
X80891500Y-78650969D01*
X80871815Y-78718008D01*
X80819011Y-78763763D01*
X80814954Y-78765529D01*
X80743558Y-78795103D01*
X80743555Y-78795104D01*
X80522990Y-78930267D01*
X80522985Y-78930270D01*
X80326276Y-79098276D01*
X80158270Y-79294985D01*
X80158267Y-79294990D01*
X80023102Y-79515558D01*
X79924106Y-79754557D01*
X79924102Y-79754569D01*
X79863715Y-80006101D01*
X79848635Y-80197713D01*
X79823751Y-80263002D01*
X79767519Y-80304472D01*
X79723652Y-80311976D01*
X78695509Y-80300659D01*
X78695509Y-86161751D01*
X91999999Y-86308198D01*
X91999999Y-86308197D01*
X92000000Y-86308198D01*
X91999998Y-80447107D01*
X91999997Y-80447106D01*
X83260681Y-80350910D01*
X83193862Y-80330489D01*
X83148691Y-80277185D01*
X83138429Y-80236654D01*
X83120285Y-80006105D01*
X83059895Y-79754560D01*
X82960897Y-79515559D01*
X82960897Y-79515558D01*
X82825732Y-79294990D01*
X82825729Y-79294985D01*
X82765265Y-79224191D01*
X82657724Y-79098276D01*
X82550181Y-79006426D01*
X82461014Y-78930270D01*
X82461009Y-78930267D01*
X82240444Y-78795104D01*
X82240441Y-78795103D01*
X82169046Y-78765529D01*
X82114643Y-78721688D01*
X82092579Y-78655393D01*
X82092500Y-78650969D01*
X82092500Y-77724000D01*
X86193418Y-77724000D01*
X86213715Y-77981898D01*
X86274102Y-78233430D01*
X86274106Y-78233442D01*
X86373102Y-78472441D01*
X86508267Y-78693009D01*
X86508270Y-78693014D01*
X86568696Y-78763763D01*
X86676276Y-78889724D01*
X86723750Y-78930270D01*
X86872985Y-79057729D01*
X86872990Y-79057732D01*
X87093558Y-79192897D01*
X87178057Y-79227897D01*
X87332560Y-79291895D01*
X87584105Y-79352285D01*
X87842000Y-79372582D01*
X88099895Y-79352285D01*
X88351440Y-79291895D01*
X88590441Y-79192897D01*
X88811012Y-79057731D01*
X89007724Y-78889724D01*
X89175731Y-78693012D01*
X89310897Y-78472441D01*
X89409895Y-78233440D01*
X89470285Y-77981895D01*
X89490582Y-77724000D01*
X89470285Y-77466105D01*
X89409895Y-77214560D01*
X89310897Y-76975559D01*
X89310897Y-76975558D01*
X89175732Y-76754990D01*
X89175729Y-76754985D01*
X89115265Y-76684191D01*
X89007724Y-76558276D01*
X88900181Y-76466426D01*
X88811014Y-76390270D01*
X88811009Y-76390267D01*
X88590441Y-76255102D01*
X88351442Y-76156106D01*
X88351444Y-76156106D01*
X88351440Y-76156105D01*
X88351436Y-76156104D01*
X88351430Y-76156102D01*
X88099898Y-76095715D01*
X87842000Y-76075418D01*
X87584101Y-76095715D01*
X87332569Y-76156102D01*
X87332557Y-76156106D01*
X87093558Y-76255102D01*
X86872990Y-76390267D01*
X86872985Y-76390270D01*
X86676276Y-76558276D01*
X86508270Y-76754985D01*
X86508267Y-76754990D01*
X86373102Y-76975558D01*
X86274106Y-77214557D01*
X86274102Y-77214569D01*
X86213715Y-77466101D01*
X86193418Y-77724000D01*
X82092500Y-77724000D01*
X82092500Y-74808097D01*
X82112185Y-74741058D01*
X82128819Y-74720416D01*
X83712416Y-73136819D01*
X83773739Y-73103334D01*
X83800097Y-73100500D01*
X92413331Y-73100500D01*
X92413347Y-73100501D01*
X92420943Y-73100501D01*
X92579054Y-73100501D01*
X92579057Y-73100501D01*
X92731785Y-73059577D01*
X92781904Y-73030639D01*
X92868716Y-72980520D01*
X92980520Y-72868716D01*
X92980520Y-72868714D01*
X92990728Y-72858507D01*
X92990729Y-72858504D01*
X93187820Y-72661414D01*
X93249142Y-72627930D01*
X93318834Y-72632914D01*
X93374767Y-72674786D01*
X93399184Y-72740250D01*
X93399500Y-72749096D01*
X93399500Y-76913330D01*
X93399499Y-76913348D01*
X93399499Y-77079054D01*
X93399498Y-77079054D01*
X93440423Y-77231785D01*
X93447616Y-77244243D01*
X93447617Y-77244245D01*
X93519477Y-77368712D01*
X93519481Y-77368717D01*
X93638349Y-77487585D01*
X93638355Y-77487590D01*
X96779139Y-80628374D01*
X96779149Y-80628385D01*
X96783479Y-80632715D01*
X96783480Y-80632716D01*
X96895284Y-80744520D01*
X96968410Y-80786739D01*
X97032215Y-80823577D01*
X97184943Y-80864500D01*
X97343057Y-80864500D01*
X97571509Y-80864500D01*
X97638548Y-80884185D01*
X97684303Y-80936989D01*
X97695509Y-80988500D01*
X97695509Y-86161751D01*
X110999999Y-86308198D01*
X110999999Y-86308197D01*
X111000000Y-86308198D01*
X110999998Y-80447107D01*
X110999997Y-80447106D01*
X102160595Y-80349808D01*
X102093776Y-80329387D01*
X102048605Y-80276083D01*
X102038342Y-80235547D01*
X102020285Y-80006105D01*
X101959895Y-79754560D01*
X101860897Y-79515559D01*
X101860897Y-79515558D01*
X101725732Y-79294990D01*
X101725729Y-79294985D01*
X101665265Y-79224191D01*
X101557724Y-79098276D01*
X101450181Y-79006426D01*
X101361014Y-78930270D01*
X101361009Y-78930267D01*
X101140441Y-78795102D01*
X100901442Y-78696106D01*
X100901444Y-78696106D01*
X100901440Y-78696105D01*
X100901436Y-78696104D01*
X100901430Y-78696102D01*
X100649898Y-78635715D01*
X100392000Y-78615418D01*
X100134101Y-78635715D01*
X99882569Y-78696102D01*
X99882557Y-78696106D01*
X99643558Y-78795102D01*
X99422990Y-78930267D01*
X99422985Y-78930270D01*
X99226276Y-79098276D01*
X99058270Y-79294985D01*
X99058267Y-79294990D01*
X98923105Y-79515553D01*
X98923103Y-79515559D01*
X98893529Y-79586954D01*
X98849690Y-79641356D01*
X98783395Y-79663421D01*
X98778970Y-79663500D01*
X97564097Y-79663500D01*
X97497058Y-79643815D01*
X97476416Y-79627181D01*
X94636819Y-76787584D01*
X94603334Y-76726261D01*
X94600500Y-76699903D01*
X94600500Y-62175686D01*
X94620185Y-62108647D01*
X94672989Y-62062892D01*
X94742147Y-62052948D01*
X94760245Y-62057913D01*
X94760364Y-62057473D01*
X94768213Y-62059576D01*
X94768215Y-62059577D01*
X94920943Y-62100501D01*
X94920946Y-62100501D01*
X95079056Y-62100501D01*
X95079057Y-62100501D01*
X95079058Y-62100501D01*
X95182717Y-62072724D01*
X95214811Y-62068500D01*
X97571509Y-62068500D01*
X97638548Y-62088185D01*
X97684303Y-62140989D01*
X97695509Y-62192500D01*
X97695509Y-67661751D01*
X110999999Y-67808198D01*
X110999999Y-67808197D01*
X111000000Y-67808198D01*
X110999998Y-61947107D01*
X110999997Y-61947106D01*
X104948741Y-61880498D01*
X104918013Y-61876281D01*
X104640798Y-61802001D01*
X104349116Y-61763601D01*
X104349111Y-61763600D01*
X104349106Y-61763600D01*
X104054894Y-61763600D01*
X104054888Y-61763600D01*
X104054883Y-61763601D01*
X103763210Y-61802000D01*
X103763203Y-61802001D01*
X103763200Y-61802002D01*
X103725510Y-61812101D01*
X103545023Y-61860461D01*
X103511565Y-61864678D01*
X102143324Y-61849617D01*
X102076505Y-61829196D01*
X102031334Y-61775892D01*
X102021071Y-61715899D01*
X102040582Y-61468000D01*
X102020285Y-61210105D01*
X101959895Y-60958560D01*
X101860897Y-60719559D01*
X101860897Y-60719558D01*
X101725732Y-60498990D01*
X101725729Y-60498985D01*
X101665265Y-60428191D01*
X101557724Y-60302276D01*
X101450181Y-60210426D01*
X101361014Y-60134270D01*
X101361009Y-60134267D01*
X101140441Y-59999102D01*
X100901442Y-59900106D01*
X100901444Y-59900106D01*
X100901440Y-59900105D01*
X100901436Y-59900104D01*
X100901430Y-59900102D01*
X100649898Y-59839715D01*
X100392000Y-59819418D01*
X100134101Y-59839715D01*
X99882569Y-59900102D01*
X99882557Y-59900106D01*
X99643558Y-59999102D01*
X99422990Y-60134267D01*
X99422985Y-60134270D01*
X99226276Y-60302276D01*
X99058270Y-60498985D01*
X99058267Y-60498990D01*
X98923105Y-60719553D01*
X98923103Y-60719559D01*
X98893529Y-60790954D01*
X98849690Y-60845356D01*
X98783395Y-60867421D01*
X98778970Y-60867500D01*
X95268098Y-60867500D01*
X95201059Y-60847815D01*
X95180417Y-60831181D01*
X95136819Y-60787583D01*
X95103334Y-60726260D01*
X95100500Y-60699902D01*
X95100500Y-48800097D01*
X95120185Y-48733058D01*
X95136819Y-48712416D01*
X95486088Y-48363147D01*
X95980520Y-47868716D01*
X96059577Y-47731784D01*
X96100501Y-47579057D01*
X96100501Y-47420942D01*
X96100501Y-47413347D01*
X96100500Y-47413329D01*
X96100500Y-45519013D01*
X106941000Y-45519013D01*
X106941000Y-45656500D01*
X107916000Y-45656500D01*
X108416000Y-45656500D01*
X109390999Y-45656500D01*
X109390999Y-45519028D01*
X109390998Y-45519013D01*
X109380505Y-45416302D01*
X109325358Y-45249880D01*
X109325356Y-45249875D01*
X109233315Y-45100654D01*
X109109345Y-44976684D01*
X108960124Y-44884643D01*
X108960119Y-44884641D01*
X108793697Y-44829494D01*
X108793690Y-44829493D01*
X108690986Y-44819000D01*
X108416000Y-44819000D01*
X108416000Y-45656500D01*
X107916000Y-45656500D01*
X107916000Y-44819000D01*
X107641029Y-44819000D01*
X107641012Y-44819001D01*
X107538302Y-44829494D01*
X107371880Y-44884641D01*
X107371875Y-44884643D01*
X107222654Y-44976684D01*
X107098684Y-45100654D01*
X107006643Y-45249875D01*
X107006641Y-45249880D01*
X106951494Y-45416302D01*
X106951493Y-45416309D01*
X106941000Y-45519013D01*
X96100500Y-45519013D01*
X96100500Y-40920944D01*
X96100500Y-40920943D01*
X96059577Y-40768216D01*
X96059577Y-40768215D01*
X96023464Y-40705666D01*
X95980520Y-40631284D01*
X95868716Y-40519480D01*
X95868715Y-40519479D01*
X95864385Y-40515149D01*
X95864374Y-40515139D01*
X94330700Y-38981465D01*
X94297215Y-38920142D01*
X94295163Y-38907686D01*
X94285368Y-38820745D01*
X94225789Y-38650478D01*
X94129816Y-38497738D01*
X94002262Y-38370184D01*
X93937503Y-38329493D01*
X93891213Y-38277159D01*
X93880565Y-38208106D01*
X93908940Y-38144257D01*
X93967330Y-38105885D01*
X94003476Y-38100500D01*
X94413331Y-38100500D01*
X94413347Y-38100501D01*
X94420943Y-38100501D01*
X94579054Y-38100501D01*
X94579057Y-38100501D01*
X94731785Y-38059577D01*
X94781904Y-38030639D01*
X94868716Y-37980520D01*
X94980520Y-37868716D01*
X94980521Y-37868714D01*
X95480520Y-37368716D01*
X95559577Y-37231784D01*
X95600501Y-37079057D01*
X95600501Y-36920942D01*
X95600501Y-36913347D01*
X95600500Y-36913329D01*
X95600500Y-35420945D01*
X95600500Y-35420943D01*
X95567277Y-35296953D01*
X95559577Y-35268215D01*
X95518319Y-35196755D01*
X95518319Y-35196753D01*
X95480524Y-35131290D01*
X95480521Y-35131286D01*
X95480520Y-35131284D01*
X95368716Y-35019480D01*
X95368715Y-35019479D01*
X95364385Y-35015149D01*
X95364374Y-35015139D01*
X93487590Y-33138355D01*
X93487588Y-33138352D01*
X93368717Y-33019481D01*
X93368709Y-33019475D01*
X93289309Y-32973634D01*
X93241093Y-32923068D01*
X93227869Y-32854461D01*
X93234265Y-32825297D01*
X93272989Y-32714632D01*
X93285367Y-32679259D01*
X93285369Y-32679249D01*
X93305565Y-32500003D01*
X93305565Y-32499996D01*
X93285369Y-32320750D01*
X93285368Y-32320745D01*
X93276038Y-32294081D01*
X93225789Y-32150478D01*
X93220070Y-32141377D01*
X93161817Y-32048667D01*
X93129816Y-31997738D01*
X93002262Y-31870184D01*
X92962005Y-31844889D01*
X92849521Y-31774210D01*
X92713500Y-31726615D01*
X92683544Y-31716132D01*
X92626770Y-31675412D01*
X92601022Y-31610460D01*
X92600500Y-31599092D01*
X92600500Y-31089060D01*
X92600501Y-31089047D01*
X92600501Y-30920944D01*
X92600077Y-30919360D01*
X92559577Y-30768216D01*
X92552992Y-30756811D01*
X92480524Y-30631290D01*
X92480518Y-30631282D01*
X91988136Y-30138900D01*
X91487589Y-29638354D01*
X91487588Y-29638352D01*
X91368717Y-29519481D01*
X91368709Y-29519475D01*
X91266936Y-29460717D01*
X91266934Y-29460716D01*
X91231790Y-29440425D01*
X91231789Y-29440424D01*
X91219263Y-29437067D01*
X91174176Y-29424986D01*
X96775001Y-29424986D01*
X96785494Y-29527697D01*
X96840641Y-29694119D01*
X96840643Y-29694124D01*
X96932684Y-29843345D01*
X97056654Y-29967315D01*
X97205875Y-30059356D01*
X97205880Y-30059358D01*
X97372302Y-30114505D01*
X97372309Y-30114506D01*
X97475019Y-30124999D01*
X97749999Y-30124999D01*
X97750000Y-30124998D01*
X97750000Y-29287500D01*
X96775001Y-29287500D01*
X96775001Y-29424986D01*
X91174176Y-29424986D01*
X91079057Y-29399499D01*
X90920943Y-29399499D01*
X90913347Y-29399499D01*
X90913331Y-29399500D01*
X89582412Y-29399500D01*
X89515373Y-29379815D01*
X89505097Y-29372445D01*
X89502263Y-29370185D01*
X89502262Y-29370184D01*
X89399500Y-29305614D01*
X89349523Y-29274211D01*
X89179254Y-29214631D01*
X89179249Y-29214630D01*
X89000004Y-29194435D01*
X88999996Y-29194435D01*
X88820750Y-29214630D01*
X88820739Y-29214633D01*
X88765453Y-29233978D01*
X88695674Y-29237539D01*
X88635047Y-29202809D01*
X88602821Y-29140816D01*
X88600500Y-29116936D01*
X88600500Y-27089060D01*
X88600501Y-27089047D01*
X88600501Y-26920944D01*
X88600501Y-26920943D01*
X88559577Y-26768216D01*
X88488284Y-26644731D01*
X88480524Y-26631290D01*
X88480518Y-26631282D01*
X88349249Y-26500013D01*
X88215415Y-26366180D01*
X88181931Y-26304858D01*
X88186915Y-26235167D01*
X88228786Y-26179233D01*
X88294251Y-26154816D01*
X88303097Y-26154500D01*
X96718558Y-26154500D01*
X96785597Y-26174185D01*
X96831352Y-26226989D01*
X96841296Y-26296147D01*
X96836265Y-26317496D01*
X96785001Y-26472203D01*
X96785001Y-26472204D01*
X96785000Y-26472204D01*
X96774500Y-26574983D01*
X96774500Y-27350001D01*
X96774501Y-27350019D01*
X96785000Y-27452796D01*
X96785001Y-27452799D01*
X96840185Y-27619331D01*
X96840187Y-27619336D01*
X96875069Y-27675888D01*
X96932288Y-27768656D01*
X97056344Y-27892712D01*
X97059628Y-27894737D01*
X97059653Y-27894753D01*
X97061445Y-27896746D01*
X97062011Y-27897193D01*
X97061934Y-27897289D01*
X97106379Y-27946699D01*
X97117603Y-28015661D01*
X97089761Y-28079744D01*
X97059665Y-28105826D01*
X97056660Y-28107679D01*
X97056655Y-28107683D01*
X96932684Y-28231654D01*
X96840643Y-28380875D01*
X96840641Y-28380880D01*
X96785494Y-28547302D01*
X96785493Y-28547309D01*
X96775000Y-28650013D01*
X96775000Y-28787500D01*
X97876000Y-28787500D01*
X97943039Y-28807185D01*
X97988794Y-28859989D01*
X98000000Y-28911500D01*
X98000000Y-29037500D01*
X98126000Y-29037500D01*
X98193039Y-29057185D01*
X98238794Y-29109989D01*
X98250000Y-29161500D01*
X98250000Y-30124999D01*
X98524972Y-30124999D01*
X98524986Y-30124998D01*
X98627697Y-30114505D01*
X98736496Y-30078453D01*
X98806324Y-30076051D01*
X98866366Y-30111783D01*
X98897559Y-30174303D01*
X98899500Y-30196159D01*
X98899500Y-31663330D01*
X98899499Y-31663348D01*
X98899499Y-31829054D01*
X98899498Y-31829054D01*
X98940424Y-31981789D01*
X98940425Y-31981790D01*
X98962186Y-32019480D01*
X98962187Y-32019482D01*
X99019475Y-32118709D01*
X99019481Y-32118717D01*
X99042141Y-32141377D01*
X99075626Y-32202700D01*
X99077782Y-32242009D01*
X99076943Y-32249997D01*
X99076943Y-32250000D01*
X99092071Y-32393935D01*
X99097114Y-32441915D01*
X99097115Y-32441917D01*
X99139939Y-32573719D01*
X99156745Y-32625441D01*
X99253231Y-32792559D01*
X99348940Y-32898855D01*
X99378063Y-32931200D01*
X99382354Y-32935965D01*
X99538471Y-33049391D01*
X99714760Y-33127879D01*
X99903514Y-33168000D01*
X100096486Y-33168000D01*
X100285240Y-33127879D01*
X100461529Y-33049391D01*
X100617646Y-32935965D01*
X100746769Y-32792559D01*
X100843255Y-32625441D01*
X100902886Y-32441914D01*
X100918424Y-32294078D01*
X100945007Y-32229466D01*
X101002305Y-32189481D01*
X101072124Y-32186821D01*
X101092180Y-32193762D01*
X101193659Y-32238943D01*
X101363289Y-32275000D01*
X101536711Y-32275000D01*
X101706342Y-32238943D01*
X101706347Y-32238941D01*
X101830229Y-32183784D01*
X101830229Y-32183783D01*
X101360904Y-31714458D01*
X101327419Y-31653135D01*
X101330280Y-31613123D01*
X101336709Y-31619552D01*
X101410218Y-31650000D01*
X101489782Y-31650000D01*
X101563291Y-31619552D01*
X101619552Y-31563291D01*
X101650000Y-31489782D01*
X101650000Y-31410218D01*
X101619552Y-31336709D01*
X101611020Y-31328177D01*
X101670109Y-31332403D01*
X101714457Y-31360904D01*
X102183350Y-31829797D01*
X102183351Y-31829797D01*
X102207825Y-31787407D01*
X102261414Y-31622476D01*
X102261415Y-31622473D01*
X102279543Y-31450000D01*
X102261415Y-31277527D01*
X102261115Y-31276115D01*
X102261178Y-31275278D01*
X102260736Y-31271065D01*
X102261506Y-31270984D01*
X102266428Y-31206447D01*
X102308562Y-31150712D01*
X102320396Y-31142945D01*
X102376613Y-31110489D01*
X102412319Y-31074783D01*
X102473642Y-31041298D01*
X102543334Y-31046282D01*
X102587681Y-31074783D01*
X102623387Y-31110489D01*
X102726114Y-31169799D01*
X102776684Y-31183349D01*
X102836343Y-31219713D01*
X102866872Y-31282559D01*
X102864364Y-31335215D01*
X102849500Y-31390689D01*
X102849500Y-31390691D01*
X102849500Y-31509309D01*
X102880201Y-31623886D01*
X102939511Y-31726613D01*
X103023387Y-31810489D01*
X103126114Y-31869799D01*
X103240691Y-31900500D01*
X103240694Y-31900500D01*
X103359306Y-31900500D01*
X103359309Y-31900500D01*
X103473886Y-31869799D01*
X103488496Y-31861364D01*
X103556396Y-31844889D01*
X103622423Y-31867740D01*
X103665615Y-31922660D01*
X103674499Y-31968749D01*
X103674499Y-32006529D01*
X103674498Y-32006547D01*
X103674498Y-32172253D01*
X103674497Y-32172253D01*
X103715422Y-32324984D01*
X103715423Y-32324986D01*
X103718984Y-32331154D01*
X103718986Y-32331157D01*
X103794476Y-32461911D01*
X103794480Y-32461916D01*
X103913348Y-32580784D01*
X103913354Y-32580789D01*
X105638181Y-34305616D01*
X105671666Y-34366939D01*
X105674500Y-34393297D01*
X105674500Y-35106703D01*
X105654815Y-35173742D01*
X105638184Y-35194380D01*
X105623636Y-35208929D01*
X105610262Y-35222303D01*
X105548938Y-35255787D01*
X105479246Y-35250801D01*
X105423314Y-35208929D01*
X105398898Y-35143464D01*
X105399361Y-35120741D01*
X105405565Y-35065687D01*
X105395346Y-34974992D01*
X105385369Y-34886437D01*
X105385368Y-34886432D01*
X105336142Y-34745753D01*
X105325789Y-34716165D01*
X105319326Y-34705880D01*
X105246360Y-34589755D01*
X105229816Y-34563425D01*
X105102262Y-34435871D01*
X105049288Y-34402585D01*
X104949521Y-34339897D01*
X104779249Y-34280317D01*
X104692330Y-34270524D01*
X104627916Y-34243457D01*
X104618533Y-34234985D01*
X104296903Y-33913355D01*
X104296901Y-33913352D01*
X104178030Y-33794481D01*
X104178029Y-33794480D01*
X104091217Y-33744360D01*
X104091217Y-33744359D01*
X104091213Y-33744358D01*
X104041098Y-33715423D01*
X103888370Y-33674499D01*
X103730256Y-33674499D01*
X103722660Y-33674499D01*
X103722644Y-33674500D01*
X101730810Y-33674500D01*
X101663771Y-33654815D01*
X101633865Y-33627815D01*
X101629816Y-33622738D01*
X101502262Y-33495184D01*
X101349523Y-33399211D01*
X101179254Y-33339631D01*
X101179249Y-33339630D01*
X101000004Y-33319435D01*
X100999996Y-33319435D01*
X100820750Y-33339630D01*
X100820745Y-33339631D01*
X100650476Y-33399211D01*
X100497737Y-33495184D01*
X100370184Y-33622737D01*
X100274211Y-33775476D01*
X100214631Y-33945745D01*
X100214630Y-33945750D01*
X100194435Y-34124996D01*
X100194435Y-34125003D01*
X100214630Y-34304249D01*
X100214633Y-34304262D01*
X100276510Y-34481094D01*
X100274366Y-34481843D01*
X100283960Y-34540161D01*
X100275612Y-34568595D01*
X100276510Y-34568909D01*
X100214633Y-34745740D01*
X100214630Y-34745753D01*
X100194435Y-34924999D01*
X100194435Y-34925006D01*
X100214630Y-35104252D01*
X100214631Y-35104257D01*
X100274211Y-35274526D01*
X100351789Y-35397989D01*
X100370184Y-35427265D01*
X100497738Y-35554819D01*
X100650478Y-35650792D01*
X100820745Y-35710371D01*
X100820750Y-35710372D01*
X100999996Y-35730568D01*
X101000000Y-35730568D01*
X101000004Y-35730568D01*
X101179249Y-35710372D01*
X101179252Y-35710371D01*
X101179255Y-35710371D01*
X101349522Y-35650792D01*
X101502262Y-35554819D01*
X101629816Y-35427265D01*
X101637398Y-35415197D01*
X101657299Y-35383527D01*
X101709634Y-35337237D01*
X101762292Y-35325500D01*
X102940568Y-35325500D01*
X103007607Y-35345185D01*
X103053362Y-35397989D01*
X103063788Y-35435617D01*
X103077267Y-35555259D01*
X103077268Y-35555264D01*
X103136848Y-35725533D01*
X103215068Y-35850019D01*
X103232821Y-35878272D01*
X103360375Y-36005826D01*
X103513115Y-36101799D01*
X103587413Y-36127797D01*
X103683382Y-36161378D01*
X103683387Y-36161379D01*
X103862633Y-36181575D01*
X103862637Y-36181575D01*
X103862638Y-36181575D01*
X103885079Y-36179046D01*
X103939457Y-36172919D01*
X104008279Y-36184973D01*
X104041022Y-36208457D01*
X104643306Y-36810742D01*
X104643308Y-36810743D01*
X104643312Y-36810746D01*
X104740135Y-36866646D01*
X104780238Y-36889799D01*
X104932965Y-36930723D01*
X104932967Y-36930723D01*
X105098676Y-36930723D01*
X105098692Y-36930722D01*
X105901309Y-36930722D01*
X105901325Y-36930723D01*
X105908921Y-36930723D01*
X106067032Y-36930723D01*
X106067035Y-36930723D01*
X106219763Y-36889799D01*
X106289524Y-36849522D01*
X106356694Y-36810742D01*
X106468498Y-36698938D01*
X106468498Y-36698936D01*
X106478702Y-36688733D01*
X106478705Y-36688728D01*
X107205520Y-35961916D01*
X107284577Y-35824984D01*
X107325501Y-35672257D01*
X107325501Y-35514142D01*
X107325501Y-35506547D01*
X107325500Y-35506529D01*
X107325500Y-34224097D01*
X107345185Y-34157058D01*
X107397989Y-34111303D01*
X107467147Y-34101359D01*
X107530703Y-34130384D01*
X107537181Y-34136416D01*
X109673103Y-36272338D01*
X109706588Y-36333661D01*
X109708642Y-36373902D01*
X109694435Y-36499996D01*
X109694435Y-36500003D01*
X109714630Y-36679249D01*
X109714631Y-36679254D01*
X109760641Y-36810742D01*
X109774211Y-36849522D01*
X109825232Y-36930722D01*
X109870185Y-37002263D01*
X109872445Y-37005097D01*
X109873334Y-37007275D01*
X109873889Y-37008158D01*
X109873734Y-37008255D01*
X109898855Y-37069783D01*
X109899500Y-37082412D01*
X109899500Y-45417587D01*
X109879815Y-45484626D01*
X109872450Y-45494896D01*
X109870186Y-45497734D01*
X109774211Y-45650476D01*
X109714631Y-45820745D01*
X109714630Y-45820750D01*
X109694435Y-45999996D01*
X109694435Y-46000003D01*
X109714630Y-46179249D01*
X109714633Y-46179262D01*
X109774209Y-46349520D01*
X109795356Y-46383175D01*
X109814356Y-46450411D01*
X109810137Y-46481237D01*
X109799499Y-46520938D01*
X109799499Y-46689046D01*
X109799500Y-46689059D01*
X109799500Y-47125500D01*
X109779815Y-47192539D01*
X109727011Y-47238294D01*
X109675500Y-47249500D01*
X109427130Y-47249500D01*
X109427122Y-47249501D01*
X109366377Y-47256031D01*
X109297617Y-47243624D01*
X109247586Y-47197838D01*
X109233712Y-47175344D01*
X109109656Y-47051288D01*
X109106342Y-47049243D01*
X109104546Y-47047248D01*
X109103989Y-47046807D01*
X109104064Y-47046711D01*
X109059618Y-46997297D01*
X109048397Y-46928334D01*
X109076240Y-46864252D01*
X109106348Y-46838165D01*
X109109342Y-46836318D01*
X109233315Y-46712345D01*
X109325356Y-46563124D01*
X109325358Y-46563119D01*
X109380505Y-46396697D01*
X109380506Y-46396690D01*
X109390999Y-46293986D01*
X109391000Y-46293973D01*
X109391000Y-46156500D01*
X106941001Y-46156500D01*
X106941001Y-46293986D01*
X106951494Y-46396697D01*
X107006641Y-46563119D01*
X107006643Y-46563124D01*
X107098684Y-46712345D01*
X107222655Y-46836316D01*
X107222659Y-46836319D01*
X107225656Y-46838168D01*
X107227279Y-46839972D01*
X107228323Y-46840798D01*
X107228181Y-46840976D01*
X107272381Y-46890116D01*
X107283602Y-46959079D01*
X107255759Y-47023161D01*
X107225661Y-47049241D01*
X107222349Y-47051283D01*
X107222343Y-47051288D01*
X107098289Y-47175342D01*
X107006187Y-47324663D01*
X107006185Y-47324668D01*
X106981388Y-47399500D01*
X106951001Y-47491203D01*
X106951001Y-47491204D01*
X106951000Y-47491204D01*
X106940500Y-47593983D01*
X106940500Y-48369001D01*
X106940501Y-48369019D01*
X106951000Y-48471796D01*
X106951001Y-48471799D01*
X106980087Y-48559573D01*
X107006186Y-48638334D01*
X107098288Y-48787656D01*
X107222344Y-48911712D01*
X107371666Y-49003814D01*
X107538203Y-49058999D01*
X107640991Y-49069500D01*
X108354500Y-49069499D01*
X108421539Y-49089183D01*
X108467294Y-49141987D01*
X108478500Y-49193499D01*
X108478500Y-49520499D01*
X108458815Y-49587538D01*
X108406011Y-49633293D01*
X108354500Y-49644499D01*
X107386997Y-49644499D01*
X107386979Y-49644500D01*
X107284202Y-49654999D01*
X107284199Y-49655000D01*
X107117667Y-49710184D01*
X107117662Y-49710186D01*
X106968341Y-49802288D01*
X106844288Y-49926341D01*
X106753770Y-50073096D01*
X106701822Y-50119820D01*
X106648231Y-50131999D01*
X105854171Y-50131999D01*
X105854155Y-50131998D01*
X105846559Y-50131998D01*
X105688444Y-50131998D01*
X105612080Y-50152460D01*
X105535715Y-50172922D01*
X105535710Y-50172925D01*
X105398791Y-50251974D01*
X105398783Y-50251980D01*
X105019481Y-50631282D01*
X105019479Y-50631285D01*
X104969361Y-50718094D01*
X104969359Y-50718096D01*
X104940425Y-50768209D01*
X104940424Y-50768210D01*
X104940423Y-50768215D01*
X104899499Y-50920943D01*
X104899499Y-50920945D01*
X104899499Y-51089046D01*
X104899500Y-51089059D01*
X104899500Y-54413330D01*
X104899499Y-54413348D01*
X104899499Y-54579054D01*
X104899498Y-54579054D01*
X104940423Y-54731785D01*
X104969358Y-54781900D01*
X104969359Y-54781904D01*
X104969360Y-54781904D01*
X105019479Y-54868714D01*
X105019481Y-54868717D01*
X105138349Y-54987585D01*
X105138355Y-54987590D01*
X106105181Y-55954416D01*
X106138666Y-56015739D01*
X106141500Y-56042097D01*
X106141500Y-57314969D01*
X106121815Y-57382008D01*
X106069011Y-57427763D01*
X106064954Y-57429529D01*
X105993558Y-57459103D01*
X105993555Y-57459104D01*
X105772990Y-57594267D01*
X105772985Y-57594270D01*
X105576276Y-57762276D01*
X105408270Y-57958985D01*
X105408267Y-57958990D01*
X105273102Y-58179558D01*
X105174106Y-58418557D01*
X105174102Y-58418569D01*
X105113715Y-58670101D01*
X105093418Y-58928000D01*
X105113715Y-59185898D01*
X105174102Y-59437430D01*
X105174106Y-59437442D01*
X105273102Y-59676441D01*
X105408267Y-59897009D01*
X105408270Y-59897014D01*
X105484426Y-59986181D01*
X105576276Y-60093724D01*
X105623750Y-60134270D01*
X105772985Y-60261729D01*
X105772990Y-60261732D01*
X105993558Y-60396897D01*
X106078057Y-60431897D01*
X106232560Y-60495895D01*
X106484105Y-60556285D01*
X106742000Y-60576582D01*
X106999895Y-60556285D01*
X107251440Y-60495895D01*
X107490441Y-60396897D01*
X107711012Y-60261731D01*
X107907724Y-60093724D01*
X108075731Y-59897012D01*
X108210897Y-59676441D01*
X108309895Y-59437440D01*
X108370285Y-59185895D01*
X108390582Y-58928000D01*
X108370285Y-58670105D01*
X108309895Y-58418560D01*
X108210897Y-58179559D01*
X108210897Y-58179558D01*
X108075732Y-57958990D01*
X108075729Y-57958985D01*
X108015265Y-57888191D01*
X107907724Y-57762276D01*
X107782787Y-57655570D01*
X107711014Y-57594270D01*
X107711009Y-57594267D01*
X107490444Y-57459104D01*
X107490441Y-57459103D01*
X107419046Y-57429529D01*
X107364643Y-57385688D01*
X107342579Y-57319393D01*
X107342500Y-57314969D01*
X107342500Y-55662945D01*
X107342500Y-55662943D01*
X107301577Y-55510216D01*
X107301577Y-55510215D01*
X107301577Y-55510214D01*
X107272639Y-55460095D01*
X107272637Y-55460092D01*
X107222520Y-55373284D01*
X107110716Y-55261480D01*
X107110715Y-55261479D01*
X107106385Y-55257149D01*
X107106374Y-55257139D01*
X106136819Y-54287584D01*
X106103334Y-54226261D01*
X106100500Y-54199903D01*
X106100500Y-53194985D01*
X106687000Y-53194985D01*
X106697493Y-53297696D01*
X106752640Y-53464118D01*
X106752642Y-53464123D01*
X106844683Y-53613344D01*
X106968653Y-53737314D01*
X107117874Y-53829355D01*
X107117879Y-53829357D01*
X107284301Y-53884504D01*
X107284308Y-53884505D01*
X107387018Y-53894998D01*
X107661998Y-53894998D01*
X107661999Y-53894997D01*
X107661999Y-53057499D01*
X106687000Y-53057499D01*
X106687000Y-53194985D01*
X106100500Y-53194985D01*
X106100500Y-51456999D01*
X106120185Y-51389960D01*
X106172989Y-51344205D01*
X106224500Y-51332999D01*
X106648231Y-51332999D01*
X106715270Y-51352684D01*
X106753768Y-51391900D01*
X106844287Y-51538655D01*
X106968343Y-51662711D01*
X106971627Y-51664736D01*
X106971652Y-51664752D01*
X106973444Y-51666745D01*
X106974010Y-51667192D01*
X106973933Y-51667288D01*
X107018378Y-51716698D01*
X107029602Y-51785660D01*
X107001760Y-51849743D01*
X106971664Y-51875825D01*
X106968659Y-51877678D01*
X106968654Y-51877682D01*
X106844683Y-52001653D01*
X106752642Y-52150874D01*
X106752640Y-52150879D01*
X106697493Y-52317301D01*
X106697492Y-52317308D01*
X106686999Y-52420012D01*
X106686999Y-52557499D01*
X107787999Y-52557499D01*
X107855038Y-52577184D01*
X107900793Y-52629988D01*
X107911999Y-52681499D01*
X107911999Y-52807499D01*
X108037999Y-52807499D01*
X108105038Y-52827184D01*
X108150793Y-52879988D01*
X108161999Y-52931499D01*
X108161999Y-53894998D01*
X108436971Y-53894998D01*
X108436985Y-53894997D01*
X108539696Y-53884504D01*
X108706118Y-53829357D01*
X108706123Y-53829355D01*
X108834779Y-53749999D01*
X109803551Y-53749999D01*
X109803552Y-53750000D01*
X110996448Y-53750000D01*
X110996448Y-53749999D01*
X110400000Y-53153552D01*
X109803551Y-53749999D01*
X108834779Y-53749999D01*
X108855341Y-53737316D01*
X108966149Y-53626508D01*
X109027472Y-53593023D01*
X109097164Y-53598007D01*
X109128142Y-53614922D01*
X109187266Y-53659181D01*
X110135543Y-52710905D01*
X110196866Y-52677420D01*
X110266558Y-52682404D01*
X110310905Y-52710905D01*
X110399999Y-52799999D01*
X110489093Y-52710905D01*
X110550416Y-52677420D01*
X110620108Y-52682404D01*
X110664456Y-52710905D01*
X111612733Y-53659182D01*
X111682189Y-53607188D01*
X111768352Y-53492088D01*
X111768354Y-53492086D01*
X111818596Y-53357379D01*
X111818598Y-53357372D01*
X111824999Y-53297844D01*
X111825000Y-53297827D01*
X111825000Y-52629500D01*
X111844685Y-52562461D01*
X111897489Y-52516706D01*
X111949000Y-52505500D01*
X113870500Y-52505500D01*
X113937539Y-52525185D01*
X113983294Y-52577989D01*
X113994500Y-52629500D01*
X113994500Y-56376000D01*
X113994501Y-56376009D01*
X114006052Y-56483450D01*
X114006054Y-56483462D01*
X114017260Y-56534972D01*
X114051383Y-56637497D01*
X114051386Y-56637503D01*
X114129171Y-56758537D01*
X114129179Y-56758548D01*
X114174923Y-56811340D01*
X114174926Y-56811343D01*
X114174930Y-56811347D01*
X114283664Y-56905567D01*
X114414541Y-56965338D01*
X114481580Y-56985023D01*
X114481584Y-56985024D01*
X114624000Y-57005500D01*
X115875500Y-57005500D01*
X115942539Y-57025185D01*
X115988294Y-57077989D01*
X115999500Y-57129500D01*
X115999500Y-75099903D01*
X115979815Y-75166942D01*
X115963181Y-75187584D01*
X114063584Y-77087181D01*
X114002261Y-77120666D01*
X113975903Y-77123500D01*
X108355030Y-77123500D01*
X108287991Y-77103815D01*
X108242236Y-77051011D01*
X108240484Y-77046989D01*
X108210897Y-76975559D01*
X108210895Y-76975556D01*
X108210894Y-76975553D01*
X108075732Y-76754990D01*
X108075729Y-76754985D01*
X108015265Y-76684191D01*
X107907724Y-76558276D01*
X107800181Y-76466426D01*
X107711014Y-76390270D01*
X107711009Y-76390267D01*
X107490441Y-76255102D01*
X107251442Y-76156106D01*
X107251444Y-76156106D01*
X107251440Y-76156105D01*
X107251436Y-76156104D01*
X107251430Y-76156102D01*
X106999898Y-76095715D01*
X106742000Y-76075418D01*
X106484101Y-76095715D01*
X106232569Y-76156102D01*
X106232557Y-76156106D01*
X105993558Y-76255102D01*
X105772990Y-76390267D01*
X105772985Y-76390270D01*
X105576276Y-76558276D01*
X105408270Y-76754985D01*
X105408267Y-76754990D01*
X105273102Y-76975558D01*
X105174106Y-77214557D01*
X105174102Y-77214569D01*
X105113715Y-77466101D01*
X105093418Y-77724000D01*
X105113715Y-77981898D01*
X105174102Y-78233430D01*
X105174106Y-78233442D01*
X105273102Y-78472441D01*
X105408267Y-78693009D01*
X105408270Y-78693014D01*
X105468696Y-78763763D01*
X105576276Y-78889724D01*
X105623750Y-78930270D01*
X105772985Y-79057729D01*
X105772990Y-79057732D01*
X105993558Y-79192897D01*
X106078057Y-79227897D01*
X106232560Y-79291895D01*
X106484105Y-79352285D01*
X106742000Y-79372582D01*
X106999895Y-79352285D01*
X107251440Y-79291895D01*
X107490441Y-79192897D01*
X107711012Y-79057731D01*
X107907724Y-78889724D01*
X108075731Y-78693012D01*
X108210897Y-78472441D01*
X108240470Y-78401045D01*
X108284310Y-78346644D01*
X108350605Y-78324579D01*
X108355030Y-78324500D01*
X114189331Y-78324500D01*
X114189347Y-78324501D01*
X114196943Y-78324501D01*
X114355054Y-78324501D01*
X114355057Y-78324501D01*
X114507785Y-78283577D01*
X114557904Y-78254639D01*
X114644716Y-78204520D01*
X114756520Y-78092716D01*
X114756520Y-78092714D01*
X114766728Y-78082507D01*
X114766730Y-78082504D01*
X116968713Y-75880521D01*
X116968716Y-75880520D01*
X117080520Y-75768716D01*
X117130639Y-75681904D01*
X117159577Y-75631785D01*
X117200500Y-75479058D01*
X117200500Y-75320943D01*
X117200500Y-57129500D01*
X117220185Y-57062461D01*
X117272989Y-57016706D01*
X117324500Y-57005500D01*
X118466150Y-57005500D01*
X118533189Y-57025185D01*
X118578944Y-57077989D01*
X118590150Y-57129500D01*
X118590150Y-83876000D01*
X118570465Y-83943039D01*
X118517661Y-83988794D01*
X118466150Y-84000000D01*
X112000000Y-84000000D01*
X111993187Y-90602435D01*
X111973433Y-90669454D01*
X111920582Y-90715154D01*
X111869187Y-90726307D01*
X59124000Y-90726307D01*
X59056961Y-90706622D01*
X59011206Y-90653818D01*
X59000000Y-90602307D01*
X59000000Y-84000000D01*
X51891693Y-84000000D01*
X51824654Y-83980315D01*
X51778899Y-83927511D01*
X51767693Y-83876000D01*
X51767693Y-80300659D01*
X59695509Y-80300659D01*
X59695509Y-86161751D01*
X72999999Y-86308198D01*
X72999999Y-86308197D01*
X73000000Y-86308198D01*
X72999998Y-80447107D01*
X72999997Y-80447106D01*
X64360768Y-80352011D01*
X64293949Y-80331590D01*
X64248778Y-80278286D01*
X64238516Y-80237753D01*
X64220285Y-80006105D01*
X64159895Y-79754560D01*
X64060897Y-79515559D01*
X64060897Y-79515558D01*
X63925732Y-79294990D01*
X63925729Y-79294985D01*
X63865265Y-79224191D01*
X63757724Y-79098276D01*
X63650181Y-79006426D01*
X63561014Y-78930270D01*
X63561009Y-78930267D01*
X63340441Y-78795102D01*
X63101442Y-78696106D01*
X63101444Y-78696106D01*
X63101440Y-78696105D01*
X63101436Y-78696104D01*
X63101430Y-78696102D01*
X62849898Y-78635715D01*
X62592000Y-78615418D01*
X62334101Y-78635715D01*
X62082569Y-78696102D01*
X62082557Y-78696106D01*
X61843558Y-78795102D01*
X61622990Y-78930267D01*
X61622985Y-78930270D01*
X61426276Y-79098276D01*
X61258270Y-79294985D01*
X61258267Y-79294990D01*
X61123102Y-79515558D01*
X61024106Y-79754557D01*
X61024102Y-79754569D01*
X60966442Y-79994742D01*
X60963715Y-80006105D01*
X60953229Y-80139332D01*
X60948548Y-80198814D01*
X60923664Y-80264102D01*
X60867432Y-80305572D01*
X60823565Y-80313076D01*
X59695509Y-80300659D01*
X51767693Y-80300659D01*
X51767693Y-77724000D01*
X67293418Y-77724000D01*
X67313715Y-77981898D01*
X67374102Y-78233430D01*
X67374106Y-78233442D01*
X67473102Y-78472441D01*
X67608267Y-78693009D01*
X67608270Y-78693014D01*
X67668696Y-78763763D01*
X67776276Y-78889724D01*
X67823750Y-78930270D01*
X67972985Y-79057729D01*
X67972990Y-79057732D01*
X68193558Y-79192897D01*
X68278057Y-79227897D01*
X68432560Y-79291895D01*
X68684105Y-79352285D01*
X68942000Y-79372582D01*
X69199895Y-79352285D01*
X69451440Y-79291895D01*
X69690441Y-79192897D01*
X69911012Y-79057731D01*
X70107724Y-78889724D01*
X70275731Y-78693012D01*
X70410897Y-78472441D01*
X70509895Y-78233440D01*
X70570285Y-77981895D01*
X70590582Y-77724000D01*
X70570285Y-77466105D01*
X70509895Y-77214560D01*
X70410897Y-76975559D01*
X70410897Y-76975558D01*
X70275732Y-76754990D01*
X70275729Y-76754985D01*
X70215265Y-76684191D01*
X70107724Y-76558276D01*
X70000181Y-76466426D01*
X69911014Y-76390270D01*
X69911009Y-76390267D01*
X69690441Y-76255102D01*
X69451442Y-76156106D01*
X69451444Y-76156106D01*
X69451440Y-76156105D01*
X69451436Y-76156104D01*
X69451430Y-76156102D01*
X69199898Y-76095715D01*
X68942000Y-76075418D01*
X68684101Y-76095715D01*
X68432569Y-76156102D01*
X68432557Y-76156106D01*
X68193558Y-76255102D01*
X67972990Y-76390267D01*
X67972985Y-76390270D01*
X67776276Y-76558276D01*
X67608270Y-76754985D01*
X67608267Y-76754990D01*
X67473102Y-76975558D01*
X67374106Y-77214557D01*
X67374102Y-77214569D01*
X67313715Y-77466101D01*
X67293418Y-77724000D01*
X51767693Y-77724000D01*
X51767693Y-61300661D01*
X60195509Y-61300661D01*
X60195509Y-67161752D01*
X73000000Y-67308199D01*
X72999998Y-61800659D01*
X78695509Y-61800659D01*
X78695509Y-67661751D01*
X91999999Y-67808198D01*
X91999999Y-67808197D01*
X92000000Y-67808198D01*
X91999998Y-61947107D01*
X91999997Y-61947106D01*
X86053026Y-61881646D01*
X86022298Y-61877429D01*
X85740798Y-61802001D01*
X85449116Y-61763601D01*
X85449111Y-61763600D01*
X85449106Y-61763600D01*
X85154894Y-61763600D01*
X85154888Y-61763600D01*
X85154883Y-61763601D01*
X84863210Y-61802000D01*
X84863203Y-61802001D01*
X84863200Y-61802002D01*
X84825510Y-61812101D01*
X84641078Y-61861518D01*
X84607620Y-61865735D01*
X83243237Y-61850717D01*
X83176418Y-61830296D01*
X83131248Y-61776992D01*
X83120984Y-61717000D01*
X83140582Y-61468000D01*
X83120285Y-61210105D01*
X83059895Y-60958560D01*
X82960897Y-60719559D01*
X82960897Y-60719558D01*
X82825732Y-60498990D01*
X82825729Y-60498985D01*
X82765265Y-60428191D01*
X82657724Y-60302276D01*
X82550181Y-60210426D01*
X82461014Y-60134270D01*
X82461009Y-60134267D01*
X82240441Y-59999102D01*
X82001442Y-59900106D01*
X82001444Y-59900106D01*
X82001440Y-59900105D01*
X82001436Y-59900104D01*
X82001430Y-59900102D01*
X81749898Y-59839715D01*
X81492000Y-59819418D01*
X81234101Y-59839715D01*
X80982569Y-59900102D01*
X80982557Y-59900106D01*
X80743558Y-59999102D01*
X80522990Y-60134267D01*
X80522985Y-60134270D01*
X80326276Y-60302276D01*
X80158270Y-60498985D01*
X80158267Y-60498990D01*
X80023102Y-60719558D01*
X79924106Y-60958557D01*
X79924102Y-60958569D01*
X79863715Y-61210101D01*
X79845062Y-61447108D01*
X79843418Y-61468000D01*
X79859975Y-61678381D01*
X79845612Y-61746757D01*
X79796561Y-61796514D01*
X79734993Y-61812101D01*
X78695509Y-61800659D01*
X72999998Y-61800659D01*
X72999998Y-61447108D01*
X64344353Y-61348111D01*
X64277543Y-61327661D01*
X64232395Y-61274337D01*
X64222153Y-61233844D01*
X64220285Y-61210105D01*
X64159895Y-60958560D01*
X64060897Y-60719559D01*
X64060897Y-60719558D01*
X63925732Y-60498990D01*
X63925729Y-60498985D01*
X63865265Y-60428191D01*
X63757724Y-60302276D01*
X63650181Y-60210426D01*
X63561014Y-60134270D01*
X63561009Y-60134267D01*
X63340441Y-59999102D01*
X63101442Y-59900106D01*
X63101444Y-59900106D01*
X63101440Y-59900105D01*
X63101436Y-59900104D01*
X63101430Y-59900102D01*
X62849898Y-59839715D01*
X62592000Y-59819418D01*
X62334101Y-59839715D01*
X62082569Y-59900102D01*
X62082557Y-59900106D01*
X61843558Y-59999102D01*
X61622990Y-60134267D01*
X61622985Y-60134270D01*
X61426276Y-60302276D01*
X61258270Y-60498985D01*
X61258267Y-60498990D01*
X61123102Y-60719558D01*
X61024106Y-60958557D01*
X61024102Y-60958569D01*
X60963020Y-61212998D01*
X60928229Y-61273590D01*
X60866203Y-61305754D01*
X60841028Y-61308043D01*
X60195509Y-61300661D01*
X51767693Y-61300661D01*
X51767693Y-47499993D01*
X63094700Y-47499993D01*
X63094700Y-47500006D01*
X63113864Y-47731297D01*
X63113866Y-47731308D01*
X63170842Y-47956300D01*
X63264075Y-48168848D01*
X63391016Y-48363147D01*
X63391019Y-48363151D01*
X63391021Y-48363153D01*
X63548216Y-48533913D01*
X63548219Y-48533915D01*
X63548222Y-48533918D01*
X63731365Y-48676464D01*
X63731371Y-48676468D01*
X63731374Y-48676470D01*
X63864908Y-48748735D01*
X63934652Y-48786479D01*
X63935497Y-48786936D01*
X64049487Y-48826068D01*
X64155015Y-48862297D01*
X64155017Y-48862297D01*
X64155019Y-48862298D01*
X64383951Y-48900500D01*
X64383952Y-48900500D01*
X64616048Y-48900500D01*
X64616049Y-48900500D01*
X64844981Y-48862298D01*
X65064503Y-48786936D01*
X65268626Y-48676470D01*
X65269170Y-48676047D01*
X65334456Y-48625233D01*
X65451784Y-48533913D01*
X65608979Y-48363153D01*
X65646489Y-48305738D01*
X65699635Y-48260382D01*
X65768866Y-48250958D01*
X65832202Y-48280459D01*
X65846914Y-48297437D01*
X65848811Y-48297634D01*
X66435387Y-47711058D01*
X66440889Y-47731591D01*
X66519881Y-47868408D01*
X66631592Y-47980119D01*
X66768409Y-48059111D01*
X66788940Y-48064612D01*
X66201201Y-48652351D01*
X66231649Y-48676050D01*
X66435697Y-48786476D01*
X66435706Y-48786479D01*
X66655139Y-48861811D01*
X66883993Y-48900000D01*
X67116007Y-48900000D01*
X67344860Y-48861811D01*
X67564293Y-48786479D01*
X67564301Y-48786476D01*
X67768355Y-48676047D01*
X67798797Y-48652351D01*
X67798798Y-48652350D01*
X67211060Y-48064612D01*
X67231591Y-48059111D01*
X67368408Y-47980119D01*
X67480119Y-47868408D01*
X67559111Y-47731591D01*
X67564612Y-47711059D01*
X68151186Y-48297634D01*
X68155969Y-48297138D01*
X68199037Y-48260381D01*
X68268269Y-48250957D01*
X68331605Y-48280458D01*
X68353510Y-48305738D01*
X68391016Y-48363147D01*
X68391019Y-48363151D01*
X68391021Y-48363153D01*
X68548216Y-48533913D01*
X68548219Y-48533915D01*
X68548222Y-48533918D01*
X68731365Y-48676464D01*
X68731371Y-48676468D01*
X68731374Y-48676470D01*
X68864908Y-48748735D01*
X68934652Y-48786479D01*
X68935497Y-48786936D01*
X69049487Y-48826068D01*
X69155015Y-48862297D01*
X69155017Y-48862297D01*
X69155019Y-48862298D01*
X69383951Y-48900500D01*
X69383952Y-48900500D01*
X69616048Y-48900500D01*
X69616049Y-48900500D01*
X69844981Y-48862298D01*
X70064503Y-48786936D01*
X70268626Y-48676470D01*
X70269170Y-48676047D01*
X70334456Y-48625233D01*
X70451784Y-48533913D01*
X70608979Y-48363153D01*
X70735924Y-48168849D01*
X70829157Y-47956300D01*
X70886134Y-47731305D01*
X70894422Y-47631281D01*
X70905300Y-47500006D01*
X70905300Y-47499993D01*
X70886135Y-47268702D01*
X70886133Y-47268691D01*
X70829157Y-47043699D01*
X70735924Y-46831151D01*
X70608983Y-46636852D01*
X70608980Y-46636849D01*
X70608979Y-46636847D01*
X70451784Y-46466087D01*
X70451779Y-46466083D01*
X70451777Y-46466081D01*
X70268634Y-46323535D01*
X70268628Y-46323531D01*
X70064504Y-46213064D01*
X70064495Y-46213061D01*
X69844984Y-46137702D01*
X69673282Y-46109050D01*
X69616049Y-46099500D01*
X69383951Y-46099500D01*
X69338164Y-46107140D01*
X69155015Y-46137702D01*
X68935504Y-46213061D01*
X68935495Y-46213064D01*
X68731371Y-46323531D01*
X68731365Y-46323535D01*
X68548222Y-46466081D01*
X68548219Y-46466084D01*
X68548216Y-46466086D01*
X68548216Y-46466087D01*
X68391021Y-46636847D01*
X68391019Y-46636849D01*
X68391017Y-46636852D01*
X68353509Y-46694262D01*
X68300362Y-46739618D01*
X68231131Y-46749041D01*
X68167795Y-46719538D01*
X68153084Y-46702561D01*
X68151186Y-46702364D01*
X67564612Y-47288939D01*
X67559111Y-47268409D01*
X67480119Y-47131592D01*
X67368408Y-47019881D01*
X67231591Y-46940889D01*
X67211058Y-46935387D01*
X67798797Y-46347647D01*
X67798797Y-46347645D01*
X67768360Y-46323955D01*
X67768354Y-46323951D01*
X67564302Y-46213523D01*
X67564293Y-46213520D01*
X67344860Y-46138188D01*
X67116007Y-46100000D01*
X66883993Y-46100000D01*
X66655139Y-46138188D01*
X66435706Y-46213520D01*
X66435697Y-46213523D01*
X66231650Y-46323949D01*
X66201200Y-46347647D01*
X66788941Y-46935387D01*
X66768409Y-46940889D01*
X66631592Y-47019881D01*
X66519881Y-47131592D01*
X66440889Y-47268409D01*
X66435387Y-47288940D01*
X65848811Y-46702364D01*
X65844030Y-46702860D01*
X65800960Y-46739617D01*
X65731729Y-46749041D01*
X65668393Y-46719539D01*
X65646489Y-46694260D01*
X65608983Y-46636852D01*
X65608980Y-46636849D01*
X65608979Y-46636847D01*
X65451784Y-46466087D01*
X65451779Y-46466083D01*
X65451777Y-46466081D01*
X65268634Y-46323535D01*
X65268628Y-46323531D01*
X65064504Y-46213064D01*
X65064495Y-46213061D01*
X64844984Y-46137702D01*
X64673282Y-46109050D01*
X64616049Y-46099500D01*
X64383951Y-46099500D01*
X64338164Y-46107140D01*
X64155015Y-46137702D01*
X63935504Y-46213061D01*
X63935495Y-46213064D01*
X63731371Y-46323531D01*
X63731365Y-46323535D01*
X63548222Y-46466081D01*
X63548219Y-46466084D01*
X63548216Y-46466086D01*
X63548216Y-46466087D01*
X63542970Y-46471786D01*
X63391016Y-46636852D01*
X63264075Y-46831151D01*
X63170842Y-47043699D01*
X63113866Y-47268691D01*
X63113864Y-47268702D01*
X63094700Y-47499993D01*
X51767693Y-47499993D01*
X51767693Y-45275943D01*
X76941852Y-45275943D01*
X76941852Y-45451264D01*
X76982286Y-45621868D01*
X77060971Y-45778544D01*
X77126172Y-45858582D01*
X77126188Y-45858600D01*
X77223394Y-45955806D01*
X77223395Y-45955806D01*
X77912823Y-45266376D01*
X77912823Y-45266375D01*
X77320622Y-44674175D01*
X77126182Y-44868617D01*
X77126172Y-44868628D01*
X77060976Y-44948659D01*
X77060967Y-44948672D01*
X76982286Y-45105339D01*
X76941852Y-45275943D01*
X51767693Y-45275943D01*
X51767693Y-43500000D01*
X66000000Y-43500000D01*
X67000000Y-43500000D01*
X67000000Y-42000000D01*
X66000000Y-42000000D01*
X66000000Y-43500000D01*
X51767693Y-43500000D01*
X51767693Y-39999996D01*
X59369457Y-39999996D01*
X59369457Y-40000003D01*
X59389610Y-40346020D01*
X59389611Y-40346031D01*
X59449794Y-40687343D01*
X59449797Y-40687357D01*
X59549205Y-41019405D01*
X59686485Y-41337656D01*
X59686491Y-41337669D01*
X59859793Y-41637836D01*
X60066768Y-41915852D01*
X60066773Y-41915858D01*
X60169731Y-42024986D01*
X60304627Y-42167968D01*
X60304633Y-42167973D01*
X60304635Y-42167975D01*
X60539779Y-42365285D01*
X60570143Y-42390763D01*
X60859728Y-42581226D01*
X61169467Y-42736783D01*
X61495171Y-42855329D01*
X61495177Y-42855330D01*
X61495179Y-42855331D01*
X61832418Y-42935259D01*
X61832425Y-42935260D01*
X61832434Y-42935262D01*
X62176697Y-42975500D01*
X62176704Y-42975500D01*
X62523296Y-42975500D01*
X62523303Y-42975500D01*
X62867566Y-42935262D01*
X62867575Y-42935259D01*
X62867581Y-42935259D01*
X63139616Y-42870784D01*
X63204829Y-42855329D01*
X63530533Y-42736783D01*
X63840272Y-42581226D01*
X64129857Y-42390763D01*
X64395373Y-42167968D01*
X64633228Y-41915856D01*
X64840207Y-41637835D01*
X64997518Y-41365364D01*
X65048084Y-41317150D01*
X65116691Y-41303927D01*
X65170000Y-41321827D01*
X65217871Y-41351354D01*
X65217880Y-41351358D01*
X65384302Y-41406505D01*
X65384309Y-41406506D01*
X65487019Y-41416999D01*
X65624499Y-41416999D01*
X65624500Y-41416998D01*
X65624500Y-39178000D01*
X66124500Y-39178000D01*
X66124500Y-41416999D01*
X66261972Y-41416999D01*
X66261986Y-41416998D01*
X66364697Y-41406505D01*
X66531119Y-41351358D01*
X66531124Y-41351356D01*
X66680345Y-41259315D01*
X66804318Y-41135342D01*
X66806165Y-41132348D01*
X66807969Y-41130724D01*
X66808798Y-41129677D01*
X66808976Y-41129818D01*
X66858110Y-41085621D01*
X66927073Y-41074396D01*
X66991156Y-41102236D01*
X67017243Y-41132341D01*
X67019288Y-41135656D01*
X67143344Y-41259712D01*
X67292666Y-41351814D01*
X67459203Y-41406999D01*
X67561991Y-41417500D01*
X68337008Y-41417499D01*
X68337016Y-41417498D01*
X68337019Y-41417498D01*
X68393302Y-41411748D01*
X68439797Y-41406999D01*
X68606334Y-41351814D01*
X68755656Y-41259712D01*
X68764250Y-41251117D01*
X68825569Y-41217632D01*
X68895261Y-41222614D01*
X68951196Y-41264483D01*
X68965790Y-41289682D01*
X68986485Y-41337658D01*
X68986489Y-41337666D01*
X69159793Y-41637836D01*
X69366768Y-41915852D01*
X69366773Y-41915858D01*
X69469731Y-42024986D01*
X69604627Y-42167968D01*
X69604633Y-42167973D01*
X69604635Y-42167975D01*
X69839779Y-42365285D01*
X69870143Y-42390763D01*
X70159728Y-42581226D01*
X70469467Y-42736783D01*
X70795171Y-42855329D01*
X70795177Y-42855330D01*
X70795179Y-42855331D01*
X71132418Y-42935259D01*
X71132425Y-42935260D01*
X71132434Y-42935262D01*
X71476697Y-42975500D01*
X71476704Y-42975500D01*
X71823296Y-42975500D01*
X71823303Y-42975500D01*
X72167566Y-42935262D01*
X72167575Y-42935259D01*
X72167581Y-42935259D01*
X72439616Y-42870784D01*
X72504829Y-42855329D01*
X72830533Y-42736783D01*
X73140272Y-42581226D01*
X73429857Y-42390763D01*
X73695373Y-42167968D01*
X73933228Y-41915856D01*
X74140207Y-41637835D01*
X74313511Y-41337665D01*
X74450794Y-41019406D01*
X74456605Y-40999996D01*
X77194435Y-40999996D01*
X77194435Y-41000003D01*
X77214630Y-41179249D01*
X77214631Y-41179254D01*
X77274211Y-41349523D01*
X77358266Y-41483294D01*
X77370184Y-41502262D01*
X77497738Y-41629816D01*
X77510502Y-41637836D01*
X77632721Y-41714632D01*
X77650478Y-41725789D01*
X77788860Y-41774211D01*
X77820745Y-41785368D01*
X77820750Y-41785369D01*
X77999996Y-41805565D01*
X78000000Y-41805565D01*
X78000004Y-41805565D01*
X78179249Y-41785369D01*
X78179252Y-41785368D01*
X78179255Y-41785368D01*
X78349522Y-41725789D01*
X78502262Y-41629816D01*
X78502267Y-41629810D01*
X78505097Y-41627555D01*
X78507275Y-41626665D01*
X78508158Y-41626111D01*
X78508255Y-41626265D01*
X78569783Y-41601145D01*
X78582412Y-41600500D01*
X78913331Y-41600500D01*
X78913347Y-41600501D01*
X78920943Y-41600501D01*
X79079054Y-41600501D01*
X79079057Y-41600501D01*
X79231785Y-41559577D01*
X79281904Y-41530639D01*
X79368716Y-41480520D01*
X79480520Y-41368716D01*
X79480520Y-41368714D01*
X79490728Y-41358507D01*
X79490730Y-41358504D01*
X80118018Y-40731215D01*
X80179339Y-40697732D01*
X80249031Y-40702716D01*
X80304964Y-40744588D01*
X80329381Y-40810052D01*
X80323403Y-40857902D01*
X80285494Y-40972302D01*
X80285493Y-40972309D01*
X80275000Y-41075013D01*
X80275000Y-41212500D01*
X83250000Y-41212500D01*
X83750000Y-41212500D01*
X84724999Y-41212500D01*
X84724999Y-41075028D01*
X84724998Y-41075013D01*
X84714782Y-40975013D01*
X85875000Y-40975013D01*
X85875000Y-41250000D01*
X86712500Y-41250000D01*
X86712500Y-40275000D01*
X86575027Y-40275000D01*
X86575012Y-40275001D01*
X86472302Y-40285494D01*
X86305880Y-40340641D01*
X86305875Y-40340643D01*
X86156654Y-40432684D01*
X86032684Y-40556654D01*
X85940643Y-40705875D01*
X85940641Y-40705880D01*
X85885494Y-40872302D01*
X85885493Y-40872309D01*
X85875000Y-40975013D01*
X84714782Y-40975013D01*
X84714505Y-40972302D01*
X84659358Y-40805880D01*
X84659356Y-40805875D01*
X84567315Y-40656654D01*
X84468418Y-40557757D01*
X84434933Y-40496434D01*
X84439917Y-40426742D01*
X84450560Y-40404979D01*
X84534356Y-40269124D01*
X84534358Y-40269119D01*
X84589505Y-40102697D01*
X84589506Y-40102690D01*
X84599999Y-39999986D01*
X84600000Y-39999973D01*
X84600000Y-39750000D01*
X83750000Y-39750000D01*
X83750000Y-41212500D01*
X83250000Y-41212500D01*
X83250000Y-39250000D01*
X83750000Y-39250000D01*
X84599999Y-39250000D01*
X84599999Y-39000028D01*
X84599998Y-39000013D01*
X84589505Y-38897302D01*
X84534358Y-38730880D01*
X84534356Y-38730875D01*
X84450560Y-38595020D01*
X84432120Y-38527627D01*
X84453043Y-38460964D01*
X84468418Y-38442241D01*
X84567317Y-38343342D01*
X84659356Y-38194124D01*
X84659358Y-38194119D01*
X84714505Y-38027697D01*
X84714506Y-38027690D01*
X84724999Y-37924986D01*
X84725000Y-37924973D01*
X84725000Y-37787500D01*
X83750000Y-37787500D01*
X83750000Y-39250000D01*
X83250000Y-39250000D01*
X83250000Y-37787500D01*
X80275001Y-37787500D01*
X80275001Y-37924986D01*
X80285494Y-38027697D01*
X80340641Y-38194119D01*
X80340643Y-38194124D01*
X80432684Y-38343345D01*
X80531218Y-38441879D01*
X80564703Y-38503202D01*
X80559719Y-38572894D01*
X80549076Y-38594656D01*
X80465189Y-38730659D01*
X80465186Y-38730666D01*
X80429130Y-38839475D01*
X80389357Y-38896919D01*
X80343520Y-38920244D01*
X80268218Y-38940422D01*
X80268209Y-38940426D01*
X80131290Y-39019475D01*
X80131282Y-39019481D01*
X80074927Y-39075837D01*
X80019480Y-39131284D01*
X80019478Y-39131286D01*
X79400765Y-39750000D01*
X78787584Y-40363181D01*
X78726261Y-40396666D01*
X78699903Y-40399500D01*
X78582412Y-40399500D01*
X78515373Y-40379815D01*
X78505097Y-40372445D01*
X78502263Y-40370185D01*
X78502262Y-40370184D01*
X78445496Y-40334515D01*
X78349523Y-40274211D01*
X78179254Y-40214631D01*
X78179249Y-40214630D01*
X78000004Y-40194435D01*
X77999996Y-40194435D01*
X77820750Y-40214630D01*
X77820745Y-40214631D01*
X77650476Y-40274211D01*
X77497737Y-40370184D01*
X77370184Y-40497737D01*
X77274211Y-40650476D01*
X77214631Y-40820745D01*
X77214630Y-40820750D01*
X77194435Y-40999996D01*
X74456605Y-40999996D01*
X74550202Y-40687361D01*
X74610390Y-40346020D01*
X74628930Y-40027690D01*
X74630543Y-40000003D01*
X74630543Y-39999996D01*
X74626173Y-39924973D01*
X74610390Y-39653980D01*
X74550202Y-39312639D01*
X74450794Y-38980594D01*
X74313511Y-38662335D01*
X74160431Y-38397193D01*
X74140206Y-38362163D01*
X73933231Y-38084147D01*
X73933226Y-38084141D01*
X73783058Y-37924973D01*
X73695373Y-37832032D01*
X73695366Y-37832026D01*
X73695364Y-37832024D01*
X73429860Y-37609239D01*
X73412772Y-37598000D01*
X73140272Y-37418774D01*
X73135024Y-37416138D01*
X72830540Y-37263220D01*
X72830534Y-37263217D01*
X72504841Y-37144675D01*
X72504820Y-37144668D01*
X72167581Y-37064740D01*
X72167566Y-37064738D01*
X71823303Y-37024500D01*
X71476697Y-37024500D01*
X71175466Y-37059708D01*
X71132433Y-37064738D01*
X71132418Y-37064740D01*
X70795179Y-37144668D01*
X70795158Y-37144675D01*
X70469465Y-37263217D01*
X70469459Y-37263220D01*
X70159731Y-37418772D01*
X69870139Y-37609239D01*
X69604635Y-37832024D01*
X69604625Y-37832034D01*
X69366773Y-38084141D01*
X69366765Y-38084151D01*
X69307961Y-38163138D01*
X69252138Y-38205156D01*
X69182460Y-38210324D01*
X69121049Y-38177001D01*
X69087403Y-38115766D01*
X69084499Y-38089095D01*
X69084499Y-37347992D01*
X69073999Y-37245203D01*
X69018814Y-37078666D01*
X68926712Y-36929344D01*
X68802656Y-36805288D01*
X68672486Y-36724999D01*
X68653336Y-36713187D01*
X68653331Y-36713185D01*
X68651862Y-36712698D01*
X68486797Y-36658001D01*
X68486795Y-36658000D01*
X68384010Y-36647500D01*
X67583998Y-36647500D01*
X67583980Y-36647501D01*
X67481203Y-36658000D01*
X67481200Y-36658001D01*
X67314668Y-36713185D01*
X67314663Y-36713187D01*
X67165345Y-36805287D01*
X67071327Y-36899305D01*
X67010003Y-36932789D01*
X66940312Y-36927805D01*
X66895965Y-36899304D01*
X66802345Y-36805684D01*
X66653124Y-36713643D01*
X66653119Y-36713641D01*
X66486697Y-36658494D01*
X66486690Y-36658493D01*
X66383986Y-36648000D01*
X66234000Y-36648000D01*
X66234000Y-39054000D01*
X66214315Y-39121039D01*
X66161511Y-39166794D01*
X66128531Y-39173968D01*
X66124500Y-39178000D01*
X65624500Y-39178000D01*
X65624500Y-38961000D01*
X65644185Y-38893961D01*
X65696989Y-38848206D01*
X65729968Y-38841031D01*
X65734000Y-38837000D01*
X65734000Y-38098000D01*
X64884001Y-38098000D01*
X64847682Y-38134319D01*
X64844420Y-38131057D01*
X64811512Y-38159573D01*
X64742354Y-38169517D01*
X64678798Y-38140492D01*
X64660538Y-38120827D01*
X64633231Y-38084147D01*
X64633226Y-38084141D01*
X64483058Y-37924973D01*
X64395373Y-37832032D01*
X64395366Y-37832026D01*
X64395364Y-37832024D01*
X64129860Y-37609239D01*
X64112772Y-37598000D01*
X63840272Y-37418774D01*
X63835024Y-37416138D01*
X63699376Y-37348013D01*
X64884000Y-37348013D01*
X64884000Y-37598000D01*
X65734000Y-37598000D01*
X65734000Y-36648000D01*
X65584027Y-36648000D01*
X65584012Y-36648001D01*
X65481302Y-36658494D01*
X65314880Y-36713641D01*
X65314875Y-36713643D01*
X65165654Y-36805684D01*
X65041684Y-36929654D01*
X64949643Y-37078875D01*
X64949641Y-37078880D01*
X64894494Y-37245302D01*
X64894493Y-37245309D01*
X64884000Y-37348013D01*
X63699376Y-37348013D01*
X63530540Y-37263220D01*
X63530534Y-37263217D01*
X63204841Y-37144675D01*
X63204820Y-37144668D01*
X62867581Y-37064740D01*
X62867566Y-37064738D01*
X62523303Y-37024500D01*
X62176697Y-37024500D01*
X61875466Y-37059708D01*
X61832433Y-37064738D01*
X61832418Y-37064740D01*
X61495179Y-37144668D01*
X61495158Y-37144675D01*
X61169465Y-37263217D01*
X61169459Y-37263220D01*
X60859731Y-37418772D01*
X60570139Y-37609239D01*
X60304635Y-37832024D01*
X60304625Y-37832034D01*
X60066773Y-38084141D01*
X60066768Y-38084147D01*
X59859793Y-38362163D01*
X59686491Y-38662330D01*
X59686485Y-38662343D01*
X59549205Y-38980594D01*
X59449797Y-39312642D01*
X59449794Y-39312656D01*
X59389611Y-39653968D01*
X59389610Y-39653979D01*
X59369457Y-39999996D01*
X51767693Y-39999996D01*
X51767693Y-32928489D01*
X51787378Y-32861450D01*
X51840182Y-32815695D01*
X51891688Y-32804489D01*
X58500000Y-32804489D01*
X58500000Y-26278500D01*
X58519685Y-26211461D01*
X58572489Y-26165706D01*
X58624000Y-26154500D01*
X61430343Y-26154500D01*
X61497382Y-26174185D01*
G37*
G04 #@! TD.AperFunction*
G04 #@! TA.AperFunction,Conductor*
G36*
X111942236Y-26174185D02*
G01*
X111987991Y-26226989D01*
X111999196Y-26278627D01*
X111992462Y-32804491D01*
X118466150Y-32804489D01*
X118533189Y-32824174D01*
X118578944Y-32876978D01*
X118590150Y-32928489D01*
X118590150Y-45370500D01*
X118570465Y-45437539D01*
X118517661Y-45483294D01*
X118466150Y-45494500D01*
X117215358Y-45494500D01*
X117148319Y-45474815D01*
X117102564Y-45422011D01*
X117095583Y-45402594D01*
X117059577Y-45268216D01*
X117048988Y-45249875D01*
X116980524Y-45131290D01*
X116980518Y-45131282D01*
X116868717Y-45019481D01*
X116868709Y-45019475D01*
X116731790Y-44940426D01*
X116731786Y-44940424D01*
X116731784Y-44940423D01*
X116579057Y-44899500D01*
X116579056Y-44899500D01*
X114300098Y-44899500D01*
X114233059Y-44879815D01*
X114212417Y-44863181D01*
X113636819Y-44287583D01*
X113603334Y-44226260D01*
X113600500Y-44199902D01*
X113600500Y-43082412D01*
X113620185Y-43015373D01*
X113627555Y-43005097D01*
X113629816Y-43002262D01*
X113646951Y-42974992D01*
X113725789Y-42849522D01*
X113785368Y-42679255D01*
X113786932Y-42665375D01*
X113805565Y-42500003D01*
X113805565Y-42499996D01*
X113785369Y-42320750D01*
X113785368Y-42320745D01*
X113767032Y-42268345D01*
X113725789Y-42150478D01*
X113629816Y-41997738D01*
X113502262Y-41870184D01*
X113470117Y-41849986D01*
X113349523Y-41774211D01*
X113179254Y-41714631D01*
X113179249Y-41714630D01*
X113000004Y-41694435D01*
X112999996Y-41694435D01*
X112820750Y-41714630D01*
X112820745Y-41714631D01*
X112650476Y-41774211D01*
X112497737Y-41870184D01*
X112370184Y-41997737D01*
X112274211Y-42150476D01*
X112214631Y-42320745D01*
X112214630Y-42320750D01*
X112194435Y-42499996D01*
X112194435Y-42500003D01*
X112214630Y-42679249D01*
X112214631Y-42679254D01*
X112274211Y-42849523D01*
X112370184Y-43002262D01*
X112372445Y-43005097D01*
X112373334Y-43007275D01*
X112373889Y-43008158D01*
X112373734Y-43008255D01*
X112398855Y-43069783D01*
X112399500Y-43082412D01*
X112399500Y-44413330D01*
X112399499Y-44413348D01*
X112399499Y-44579054D01*
X112399498Y-44579054D01*
X112435793Y-44714505D01*
X112440423Y-44731785D01*
X112452246Y-44752262D01*
X112490777Y-44819000D01*
X112519479Y-44868715D01*
X112638349Y-44987585D01*
X112638354Y-44987589D01*
X113631284Y-45980520D01*
X113631286Y-45980521D01*
X113631290Y-45980524D01*
X113768209Y-46059573D01*
X113768216Y-46059577D01*
X113902597Y-46095585D01*
X113962254Y-46131948D01*
X113992783Y-46194795D01*
X113994500Y-46215358D01*
X113994500Y-48370500D01*
X113974815Y-48437539D01*
X113922011Y-48483294D01*
X113870500Y-48494500D01*
X111949500Y-48494500D01*
X111882461Y-48474815D01*
X111836706Y-48422011D01*
X111825500Y-48370500D01*
X111825499Y-47702129D01*
X111825498Y-47702123D01*
X111819091Y-47642516D01*
X111768797Y-47507671D01*
X111768793Y-47507664D01*
X111682547Y-47392455D01*
X111682544Y-47392452D01*
X111567335Y-47306206D01*
X111567328Y-47306202D01*
X111432482Y-47255908D01*
X111432483Y-47255908D01*
X111372883Y-47249501D01*
X111372881Y-47249500D01*
X111372873Y-47249500D01*
X111372865Y-47249500D01*
X111124500Y-47249500D01*
X111057461Y-47229815D01*
X111011706Y-47177011D01*
X111000500Y-47125500D01*
X111000500Y-46867334D01*
X111017113Y-46805334D01*
X111059577Y-46731784D01*
X111089534Y-46619981D01*
X111100500Y-46579058D01*
X111100500Y-46579053D01*
X111101561Y-46571000D01*
X111103765Y-46571290D01*
X111120185Y-46515373D01*
X111127555Y-46505097D01*
X111129810Y-46502267D01*
X111129816Y-46502262D01*
X111225789Y-46349522D01*
X111285368Y-46179255D01*
X111287932Y-46156500D01*
X111305565Y-46000003D01*
X111305565Y-45999996D01*
X111285369Y-45820750D01*
X111285368Y-45820745D01*
X111261056Y-45751265D01*
X111225789Y-45650478D01*
X111129816Y-45497738D01*
X111129814Y-45497736D01*
X111129813Y-45497734D01*
X111127550Y-45494896D01*
X111126659Y-45492715D01*
X111126111Y-45491842D01*
X111126264Y-45491745D01*
X111101144Y-45430209D01*
X111100500Y-45417587D01*
X111100500Y-37082412D01*
X111120185Y-37015373D01*
X111127555Y-37005097D01*
X111129810Y-37002267D01*
X111129816Y-37002262D01*
X111225789Y-36849522D01*
X111285368Y-36679255D01*
X111285369Y-36679249D01*
X111305565Y-36500003D01*
X111305565Y-36499996D01*
X111285369Y-36320750D01*
X111285368Y-36320745D01*
X111225788Y-36150476D01*
X111146956Y-36025016D01*
X111129816Y-35997738D01*
X111002262Y-35870184D01*
X111002261Y-35870183D01*
X110925723Y-35822091D01*
X110904013Y-35804777D01*
X110864397Y-35765160D01*
X110864374Y-35765139D01*
X108226948Y-33127713D01*
X108209024Y-33094888D01*
X108195058Y-33091075D01*
X108172418Y-33073183D01*
X107581734Y-32482499D01*
X107548249Y-32421176D01*
X107553233Y-32351484D01*
X107595105Y-32295551D01*
X107643634Y-32273528D01*
X107806342Y-32238943D01*
X107806347Y-32238941D01*
X107907819Y-32193763D01*
X107977069Y-32184478D01*
X108040346Y-32214106D01*
X108077559Y-32273241D01*
X108081576Y-32294080D01*
X108097114Y-32441914D01*
X108097115Y-32441917D01*
X108139939Y-32573719D01*
X108156745Y-32625441D01*
X108253231Y-32792559D01*
X108344226Y-32893619D01*
X108352249Y-32902530D01*
X108365069Y-32929245D01*
X108374056Y-32931200D01*
X108387507Y-32939709D01*
X108470499Y-33000006D01*
X108538472Y-33049392D01*
X108561349Y-33059577D01*
X108714760Y-33127879D01*
X108903514Y-33168000D01*
X109096486Y-33168000D01*
X109285240Y-33127879D01*
X109461529Y-33049391D01*
X109617646Y-32935965D01*
X109746769Y-32792559D01*
X109843255Y-32625441D01*
X109902886Y-32441914D01*
X109923057Y-32250000D01*
X109902886Y-32058086D01*
X109843255Y-31874559D01*
X109746769Y-31707441D01*
X109617646Y-31564035D01*
X109461529Y-31450609D01*
X109285240Y-31372121D01*
X109285238Y-31372120D01*
X109096486Y-31332000D01*
X108903514Y-31332000D01*
X108903513Y-31332000D01*
X108745786Y-31365525D01*
X108676119Y-31360209D01*
X108620386Y-31318072D01*
X108596281Y-31252492D01*
X108611458Y-31184290D01*
X108632322Y-31156557D01*
X108685515Y-31103365D01*
X108761281Y-30972135D01*
X108800500Y-30825766D01*
X108800500Y-30674234D01*
X108761281Y-30527865D01*
X108756440Y-30519481D01*
X108729826Y-30473384D01*
X108685515Y-30396635D01*
X108578365Y-30289485D01*
X108498175Y-30243187D01*
X108447136Y-30213719D01*
X108316336Y-30178672D01*
X108300766Y-30174500D01*
X108149234Y-30174500D01*
X108002863Y-30213719D01*
X107871635Y-30289485D01*
X107871632Y-30289487D01*
X107764487Y-30396632D01*
X107764485Y-30396635D01*
X107688719Y-30527863D01*
X107687317Y-30533098D01*
X107650950Y-30592757D01*
X107588102Y-30623284D01*
X107567543Y-30625000D01*
X107463290Y-30625000D01*
X107448741Y-30628092D01*
X107379074Y-30622774D01*
X107323342Y-30580635D01*
X107315577Y-30568802D01*
X107260489Y-30473387D01*
X107176613Y-30389511D01*
X107073886Y-30330201D01*
X106959309Y-30299500D01*
X106840691Y-30299500D01*
X106726114Y-30330201D01*
X106726112Y-30330201D01*
X106726112Y-30330202D01*
X106623387Y-30389511D01*
X106623384Y-30389513D01*
X106587681Y-30425217D01*
X106526358Y-30458702D01*
X106456666Y-30453718D01*
X106412319Y-30425217D01*
X106376615Y-30389513D01*
X106376613Y-30389511D01*
X106273886Y-30330201D01*
X106159309Y-30299500D01*
X106040691Y-30299500D01*
X105926114Y-30330201D01*
X105926112Y-30330201D01*
X105926112Y-30330202D01*
X105823387Y-30389511D01*
X105823384Y-30389513D01*
X105787681Y-30425217D01*
X105726358Y-30458702D01*
X105656666Y-30453718D01*
X105612319Y-30425217D01*
X105576615Y-30389513D01*
X105576613Y-30389511D01*
X105473886Y-30330201D01*
X105359309Y-30299500D01*
X105339574Y-30299500D01*
X105272535Y-30279815D01*
X105226780Y-30227011D01*
X105216836Y-30157853D01*
X105245861Y-30094297D01*
X105274478Y-30069961D01*
X105291668Y-30059358D01*
X105318656Y-30042712D01*
X105442712Y-29918656D01*
X105534814Y-29769334D01*
X105589999Y-29602797D01*
X105600500Y-29500009D01*
X105600499Y-28499992D01*
X105589999Y-28397203D01*
X105534814Y-28230666D01*
X105442712Y-28081344D01*
X105318656Y-27957288D01*
X105169334Y-27865186D01*
X105002797Y-27810001D01*
X105002795Y-27810000D01*
X104900016Y-27799500D01*
X104196011Y-27799500D01*
X104128972Y-27779815D01*
X104083217Y-27727011D01*
X104073273Y-27657853D01*
X104078305Y-27636495D01*
X104089505Y-27602694D01*
X104089506Y-27602690D01*
X104099999Y-27499986D01*
X104100000Y-27499973D01*
X104100000Y-27250000D01*
X104090023Y-27240023D01*
X104056961Y-27230315D01*
X104011206Y-27177511D01*
X104000000Y-27126000D01*
X104000000Y-26874000D01*
X104019685Y-26806961D01*
X104072489Y-26761206D01*
X104093326Y-26756672D01*
X104099999Y-26750000D01*
X104099999Y-26500028D01*
X104099998Y-26500013D01*
X104089505Y-26397302D01*
X104063063Y-26317504D01*
X104060661Y-26247676D01*
X104096393Y-26187634D01*
X104158913Y-26156441D01*
X104180769Y-26154500D01*
X111875197Y-26154500D01*
X111942236Y-26174185D01*
G37*
G04 #@! TD.AperFunction*
G04 #@! TA.AperFunction,Conductor*
G36*
X92766942Y-34120185D02*
G01*
X92787584Y-34136819D01*
X94363181Y-35712416D01*
X94396666Y-35773739D01*
X94399500Y-35800097D01*
X94399500Y-36699901D01*
X94379815Y-36766940D01*
X94363182Y-36787582D01*
X94287584Y-36863181D01*
X94226261Y-36896666D01*
X94199902Y-36899500D01*
X93586670Y-36899500D01*
X93586654Y-36899499D01*
X93579058Y-36899499D01*
X93420943Y-36899499D01*
X93420938Y-36899499D01*
X93417609Y-36899937D01*
X93414801Y-36899499D01*
X93412816Y-36899499D01*
X93412816Y-36899189D01*
X93348575Y-36889167D01*
X93296322Y-36842784D01*
X93284390Y-36817951D01*
X93281867Y-36810742D01*
X93225789Y-36650478D01*
X93129816Y-36497738D01*
X93002262Y-36370184D01*
X92849523Y-36274211D01*
X92679254Y-36214631D01*
X92679249Y-36214630D01*
X92500004Y-36194435D01*
X92499996Y-36194435D01*
X92320750Y-36214630D01*
X92320745Y-36214631D01*
X92150476Y-36274211D01*
X91997737Y-36370184D01*
X91870184Y-36497737D01*
X91774211Y-36650476D01*
X91729255Y-36778955D01*
X91688533Y-36835731D01*
X91623580Y-36861478D01*
X91612213Y-36862000D01*
X90303777Y-36862000D01*
X90236738Y-36842315D01*
X90190983Y-36789511D01*
X90181039Y-36720353D01*
X90210064Y-36656797D01*
X90238678Y-36632462D01*
X90343656Y-36567712D01*
X90467712Y-36443656D01*
X90559814Y-36294334D01*
X90614999Y-36127797D01*
X90625500Y-36025009D01*
X90625499Y-34974992D01*
X90614999Y-34872203D01*
X90559814Y-34705666D01*
X90467712Y-34556344D01*
X90467709Y-34556341D01*
X90463234Y-34550681D01*
X90464287Y-34549847D01*
X90434497Y-34495291D01*
X90439481Y-34425599D01*
X90467982Y-34381252D01*
X90486937Y-34362297D01*
X90575359Y-34273875D01*
X90636681Y-34240391D01*
X90703994Y-34244515D01*
X90820745Y-34285368D01*
X90820750Y-34285369D01*
X90999996Y-34305565D01*
X91000000Y-34305565D01*
X91000004Y-34305565D01*
X91179249Y-34285369D01*
X91179252Y-34285368D01*
X91179255Y-34285368D01*
X91349522Y-34225789D01*
X91502262Y-34129816D01*
X91502267Y-34129810D01*
X91505097Y-34127555D01*
X91507275Y-34126665D01*
X91508158Y-34126111D01*
X91508255Y-34126265D01*
X91569783Y-34101145D01*
X91582412Y-34100500D01*
X92699903Y-34100500D01*
X92766942Y-34120185D01*
G37*
G04 #@! TD.AperFunction*
G04 #@! TA.AperFunction,Conductor*
G36*
X101319334Y-28632414D02*
G01*
X101375267Y-28674286D01*
X101399684Y-28739750D01*
X101400000Y-28748596D01*
X101400000Y-28750000D01*
X102376000Y-28750000D01*
X102443039Y-28769685D01*
X102488794Y-28822489D01*
X102500000Y-28874000D01*
X102500000Y-29000000D01*
X102626000Y-29000000D01*
X102693039Y-29019685D01*
X102738794Y-29072489D01*
X102750000Y-29124000D01*
X102750000Y-30244818D01*
X102730315Y-30311857D01*
X102688002Y-30352204D01*
X102623390Y-30389509D01*
X102623384Y-30389513D01*
X102587681Y-30425217D01*
X102526358Y-30458702D01*
X102456666Y-30453718D01*
X102412319Y-30425217D01*
X102376615Y-30389513D01*
X102376613Y-30389511D01*
X102362364Y-30381284D01*
X102311998Y-30352204D01*
X102263783Y-30301636D01*
X102250000Y-30244818D01*
X102250000Y-29250000D01*
X101400001Y-29250000D01*
X101400001Y-29499986D01*
X101410494Y-29602697D01*
X101465641Y-29769119D01*
X101465643Y-29769124D01*
X101557684Y-29918345D01*
X101681654Y-30042315D01*
X101830875Y-30134356D01*
X101830882Y-30134359D01*
X101844586Y-30138900D01*
X101902031Y-30178672D01*
X101928855Y-30243187D01*
X101916541Y-30311963D01*
X101868998Y-30363164D01*
X101867585Y-30363992D01*
X101823390Y-30389508D01*
X101823384Y-30389513D01*
X101739513Y-30473384D01*
X101739511Y-30473387D01*
X101709912Y-30524652D01*
X101659343Y-30572866D01*
X101590736Y-30586087D01*
X101525872Y-30560118D01*
X101487965Y-30510101D01*
X101440087Y-30394511D01*
X101440080Y-30394498D01*
X101357951Y-30271584D01*
X101357948Y-30271580D01*
X101253419Y-30167051D01*
X101253415Y-30167048D01*
X101130501Y-30084919D01*
X101130488Y-30084912D01*
X100993917Y-30028343D01*
X100993907Y-30028340D01*
X100848920Y-29999500D01*
X100848918Y-29999500D01*
X100701082Y-29999500D01*
X100701080Y-29999500D01*
X100556092Y-30028340D01*
X100556082Y-30028343D01*
X100419511Y-30084912D01*
X100419498Y-30084919D01*
X100293391Y-30169182D01*
X100226713Y-30190060D01*
X100159333Y-30171575D01*
X100112643Y-30119597D01*
X100100500Y-30066080D01*
X100100500Y-29800096D01*
X100120185Y-29733057D01*
X100136814Y-29712420D01*
X101188319Y-28660914D01*
X101249642Y-28627430D01*
X101319334Y-28632414D01*
G37*
G04 #@! TD.AperFunction*
G04 #@! TA.AperFunction,Conductor*
G36*
X67103268Y-26174185D02*
G01*
X67149023Y-26226989D01*
X67158967Y-26296147D01*
X67129942Y-26359703D01*
X67107351Y-26380076D01*
X67074576Y-26403024D01*
X67647765Y-26976212D01*
X67605708Y-26987482D01*
X67480292Y-27059890D01*
X67377890Y-27162292D01*
X67305482Y-27287708D01*
X67294212Y-27329765D01*
X66721024Y-26756576D01*
X66666131Y-26834974D01*
X66660655Y-26846717D01*
X66614480Y-26899154D01*
X66547286Y-26918303D01*
X66480405Y-26898084D01*
X66435894Y-26846713D01*
X66430301Y-26834719D01*
X66297270Y-26644731D01*
X66133269Y-26480730D01*
X65989518Y-26380074D01*
X65945894Y-26325498D01*
X65938702Y-26255999D01*
X65970224Y-26193645D01*
X66030454Y-26158231D01*
X66060643Y-26154500D01*
X67036229Y-26154500D01*
X67103268Y-26174185D01*
G37*
G04 #@! TD.AperFunction*
G04 #@! TA.AperFunction,Conductor*
G36*
X72183268Y-26174185D02*
G01*
X72229023Y-26226989D01*
X72238967Y-26296147D01*
X72209942Y-26359703D01*
X72187351Y-26380076D01*
X72154576Y-26403024D01*
X72727765Y-26976212D01*
X72685708Y-26987482D01*
X72560292Y-27059890D01*
X72457890Y-27162292D01*
X72385482Y-27287708D01*
X72374212Y-27329765D01*
X71801024Y-26756576D01*
X71746131Y-26834974D01*
X71740655Y-26846717D01*
X71694480Y-26899154D01*
X71627286Y-26918303D01*
X71560405Y-26898084D01*
X71515894Y-26846713D01*
X71510301Y-26834719D01*
X71377270Y-26644731D01*
X71213269Y-26480730D01*
X71069518Y-26380074D01*
X71025894Y-26325498D01*
X71018702Y-26255999D01*
X71050224Y-26193645D01*
X71110454Y-26158231D01*
X71140643Y-26154500D01*
X72116229Y-26154500D01*
X72183268Y-26174185D01*
G37*
G04 #@! TD.AperFunction*
G04 #@! TA.AperFunction,Conductor*
G36*
X69642397Y-26174185D02*
G01*
X69688152Y-26226989D01*
X69698096Y-26296147D01*
X69669071Y-26359703D01*
X69646481Y-26380075D01*
X69502735Y-26480726D01*
X69502729Y-26480731D01*
X69338731Y-26644729D01*
X69338726Y-26644735D01*
X69205701Y-26834714D01*
X69205697Y-26834722D01*
X69200104Y-26846716D01*
X69153929Y-26899154D01*
X69086735Y-26918303D01*
X69019855Y-26898084D01*
X68975340Y-26846709D01*
X68969866Y-26834969D01*
X68914974Y-26756576D01*
X68341787Y-27329764D01*
X68330518Y-27287708D01*
X68258110Y-27162292D01*
X68155708Y-27059890D01*
X68030292Y-26987482D01*
X67988233Y-26976212D01*
X68561423Y-26403023D01*
X68528649Y-26380075D01*
X68485024Y-26325499D01*
X68477830Y-26256000D01*
X68509352Y-26193646D01*
X68569582Y-26158231D01*
X68599772Y-26154500D01*
X69575358Y-26154500D01*
X69642397Y-26174185D01*
G37*
G04 #@! TD.AperFunction*
M02*
