M48
; DRILL file {KiCad 8.0.7} date 2025-04-22T23:12:26-0400
; FORMAT={-:-/ absolute / inch / decimal}
; #@! TF.CreationDate,2025-04-22T23:12:26-04:00
; #@! TF.GenerationSoftware,Kicad,Pcbnew,8.0.7
; #@! TF.FileFunction,NonPlated,1,2,NPTH
FMAT,2
INCH
; #@! TA.AperFunction,NonPlated,NPTH,ComponentDrill
T1C0.0256
; #@! TA.AperFunction,NonPlated,NPTH,ComponentDrill
T2C0.0394
; #@! TA.AperFunction,NonPlated,NPTH,ComponentDrill
T3C0.0670
; #@! TA.AperFunction,NonPlated,NPTH,ComponentDrill
T4C0.1260
; #@! TA.AperFunction,NonPlated,NPTH,ComponentDrill
T5C0.1570
%
G90
G05
T1
X4.2608Y-1.2106
T2
X3.9675Y-1.2106
T3
X2.4143Y-2.52
X2.4143Y-3.26
X2.8143Y-2.52
X2.8143Y-3.26
X3.1583Y-2.52
X3.1583Y-3.26
X3.5583Y-2.52
X3.5583Y-3.26
X3.9024Y-2.52
X3.9024Y-3.26
X4.3024Y-2.52
X4.3024Y-3.26
T4
X2.16Y-1.15
X2.1628Y-3.4472
X4.5442Y-1.1544
X4.5442Y-3.4472
T5
X2.6143Y-2.52
X2.6143Y-3.26
X3.3583Y-2.52
X3.3583Y-3.26
X4.1024Y-2.52
X4.1024Y-3.26
M30
