M48
; DRILL file {KiCad 8.0.8} date 2025-04-14T21:43:37-0400
; FORMAT={-:-/ absolute / metric / decimal}
; #@! TF.CreationDate,2025-04-14T21:43:37-04:00
; #@! TF.GenerationSoftware,Kicad,Pcbnew,8.0.8
; #@! TF.FileFunction,Plated,1,2,PTH
FMAT,2
METRIC
; #@! TA.AperFunction,Plated,PTH,ViaDrill
T1C0.300
; #@! TA.AperFunction,Plated,PTH,ComponentDrill
T2C0.400
; #@! TA.AperFunction,Plated,PTH,ComponentDrill
T3C1.100
; #@! TA.AperFunction,Plated,PTH,ComponentDrill
T4C1.200
; #@! TA.AperFunction,Plated,PTH,ComponentDrill
T5C1.210
; #@! TA.AperFunction,Plated,PTH,ComponentDrill
T6C1.499
; #@! TA.AperFunction,Plated,PTH,ViaDrill
T7C3.000
; #@! TA.AperFunction,Plated,PTH,ComponentDrill
T8C3.300
%
G90
G05
T1
X78.0Y-41.0
X78.0Y-43.0
X79.75Y-44.25
X80.5Y-33.5
X81.5Y-32.0
X82.0Y-46.5
X82.5Y-32.0
X87.0Y-46.5
X87.5Y-32.0
X87.5Y-55.0
X89.0Y-30.0
X89.234Y-47.234
X91.0Y-33.5
X92.483Y-42.095
X92.5Y-32.5
X92.5Y-37.0
X93.0Y-43.0
X93.0Y-47.0
X93.5Y-36.0
X93.5Y-39.0
X93.5Y-40.0
X93.5Y-41.0
X94.5Y-30.0
X96.0Y-29.5
X101.0Y-29.5
X101.0Y-34.125
X101.0Y-34.925
X103.863Y-35.376
X104.6Y-35.066
X109.5Y-44.0
X110.5Y-36.5
X110.5Y-46.0
X113.0Y-42.5
X113.5Y-38.0
T2
X101.45Y-31.45
X102.1Y-30.75
X102.9Y-30.75
X103.3Y-31.45
X103.7Y-30.75
X104.1Y-31.45
X104.9Y-31.45
X105.3Y-30.75
X105.7Y-31.45
X106.1Y-30.75
X106.9Y-30.75
X107.55Y-31.45
T3
X62.738Y-32.258
X65.278Y-32.258
X67.818Y-32.258
X70.358Y-32.258
X72.898Y-32.258
T4
X64.088Y-36.808
X64.088Y-51.308
X66.588Y-51.308
X69.088Y-36.808
X69.088Y-51.308
T5
X100.0Y-32.25
X109.0Y-32.25
T6
X62.592Y-61.468
X62.592Y-80.264
X68.942Y-58.928
X68.942Y-77.724
X81.492Y-61.468
X81.492Y-80.264
X87.842Y-58.928
X87.842Y-77.724
X100.392Y-61.468
X100.392Y-80.264
X106.742Y-58.928
X106.742Y-77.724
T7
X54.944Y-60.197
T8
X61.938Y-43.808
X71.238Y-43.808
M30
