G04 #@! TF.GenerationSoftware,KiCad,Pcbnew,8.0.8*
G04 #@! TF.CreationDate,2025-04-12T06:06:45-04:00*
G04 #@! TF.ProjectId,custom-keypad,63757374-6f6d-42d6-9b65-797061642e6b,rev?*
G04 #@! TF.SameCoordinates,Original*
G04 #@! TF.FileFunction,Copper,L1,Top*
G04 #@! TF.FilePolarity,Positive*
%FSLAX46Y46*%
G04 Gerber Fmt 4.6, Leading zero omitted, Abs format (unit mm)*
G04 Created by KiCad (PCBNEW 8.0.8) date 2025-04-12 06:06:45*
%MOMM*%
%LPD*%
G01*
G04 APERTURE LIST*
G04 Aperture macros list*
%AMRoundRect*
0 Rectangle with rounded corners*
0 $1 Rounding radius*
0 $2 $3 $4 $5 $6 $7 $8 $9 X,Y pos of 4 corners*
0 Add a 4 corners polygon primitive as box body*
4,1,4,$2,$3,$4,$5,$6,$7,$8,$9,$2,$3,0*
0 Add four circle primitives for the rounded corners*
1,1,$1+$1,$2,$3*
1,1,$1+$1,$4,$5*
1,1,$1+$1,$6,$7*
1,1,$1+$1,$8,$9*
0 Add four rect primitives between the rounded corners*
20,1,$1+$1,$2,$3,$4,$5,0*
20,1,$1+$1,$4,$5,$6,$7,0*
20,1,$1+$1,$6,$7,$8,$9,0*
20,1,$1+$1,$8,$9,$2,$3,0*%
%AMRotRect*
0 Rectangle, with rotation*
0 The origin of the aperture is its center*
0 $1 length*
0 $2 width*
0 $3 Rotation angle, in degrees counterclockwise*
0 Add horizontal line*
21,1,$1,$2,0,0,$3*%
G04 Aperture macros list end*
G04 #@! TA.AperFunction,SMDPad,CuDef*
%ADD10RoundRect,0.250000X-0.325000X-0.450000X0.325000X-0.450000X0.325000X0.450000X-0.325000X0.450000X0*%
G04 #@! TD*
G04 #@! TA.AperFunction,SMDPad,CuDef*
%ADD11RoundRect,0.250000X0.350000X0.450000X-0.350000X0.450000X-0.350000X-0.450000X0.350000X-0.450000X0*%
G04 #@! TD*
G04 #@! TA.AperFunction,ComponentPad*
%ADD12C,2.286000*%
G04 #@! TD*
G04 #@! TA.AperFunction,SMDPad,CuDef*
%ADD13R,1.200000X0.600000*%
G04 #@! TD*
G04 #@! TA.AperFunction,SMDPad,CuDef*
%ADD14RoundRect,0.250000X0.325000X0.450000X-0.325000X0.450000X-0.325000X-0.450000X0.325000X-0.450000X0*%
G04 #@! TD*
G04 #@! TA.AperFunction,SMDPad,CuDef*
%ADD15RoundRect,0.250000X-0.337500X-0.475000X0.337500X-0.475000X0.337500X0.475000X-0.337500X0.475000X0*%
G04 #@! TD*
G04 #@! TA.AperFunction,ComponentPad*
%ADD16R,1.650000X1.650000*%
G04 #@! TD*
G04 #@! TA.AperFunction,ComponentPad*
%ADD17C,1.650000*%
G04 #@! TD*
G04 #@! TA.AperFunction,SMDPad,CuDef*
%ADD18R,1.550000X1.300000*%
G04 #@! TD*
G04 #@! TA.AperFunction,SMDPad,CuDef*
%ADD19RotRect,0.700000X0.750000X45.000000*%
G04 #@! TD*
G04 #@! TA.AperFunction,SMDPad,CuDef*
%ADD20RoundRect,0.250000X0.565685X0.070711X0.070711X0.565685X-0.565685X-0.070711X-0.070711X-0.565685X0*%
G04 #@! TD*
G04 #@! TA.AperFunction,SMDPad,CuDef*
%ADD21RoundRect,0.250000X-0.097227X0.574524X-0.574524X0.097227X0.097227X-0.574524X0.574524X-0.097227X0*%
G04 #@! TD*
G04 #@! TA.AperFunction,ComponentPad*
%ADD22C,1.800000*%
G04 #@! TD*
G04 #@! TA.AperFunction,ComponentPad*
%ADD23C,4.950000*%
G04 #@! TD*
G04 #@! TA.AperFunction,SMDPad,CuDef*
%ADD24RoundRect,0.250000X-0.350000X-0.450000X0.350000X-0.450000X0.350000X0.450000X-0.350000X0.450000X0*%
G04 #@! TD*
G04 #@! TA.AperFunction,SMDPad,CuDef*
%ADD25RoundRect,0.075000X0.075000X-0.700000X0.075000X0.700000X-0.075000X0.700000X-0.075000X-0.700000X0*%
G04 #@! TD*
G04 #@! TA.AperFunction,SMDPad,CuDef*
%ADD26RoundRect,0.075000X0.700000X-0.075000X0.700000X0.075000X-0.700000X0.075000X-0.700000X-0.075000X0*%
G04 #@! TD*
G04 #@! TA.AperFunction,SMDPad,CuDef*
%ADD27R,0.300000X1.700000*%
G04 #@! TD*
G04 #@! TA.AperFunction,ComponentPad*
%ADD28C,0.650000*%
G04 #@! TD*
G04 #@! TA.AperFunction,ComponentPad*
%ADD29C,1.815000*%
G04 #@! TD*
G04 #@! TA.AperFunction,SMDPad,CuDef*
%ADD30R,1.000000X1.200000*%
G04 #@! TD*
G04 #@! TA.AperFunction,SMDPad,CuDef*
%ADD31RoundRect,0.250000X-0.574524X-0.097227X-0.097227X-0.574524X0.574524X0.097227X0.097227X0.574524X0*%
G04 #@! TD*
G04 #@! TA.AperFunction,ViaPad*
%ADD32C,0.600000*%
G04 #@! TD*
G04 #@! TA.AperFunction,ViaPad*
%ADD33C,6.000000*%
G04 #@! TD*
G04 #@! TA.AperFunction,Conductor*
%ADD34C,0.200000*%
G04 #@! TD*
G04 APERTURE END LIST*
D10*
X115561002Y-38100000D03*
X117611000Y-38100000D03*
D11*
X55610000Y-42418000D03*
X53610000Y-42418000D03*
D12*
X68942000Y-77724000D03*
X62592000Y-80264000D03*
D13*
X93250000Y-30950000D03*
X93250000Y-30000000D03*
X93250000Y-29050000D03*
X90750000Y-29050000D03*
X90750000Y-30000000D03*
X90750000Y-30950000D03*
D12*
X87842000Y-77724000D03*
X81492000Y-80264000D03*
D14*
X55634999Y-38862000D03*
X53585001Y-38862000D03*
D15*
X96462500Y-37500000D03*
X98537500Y-37500000D03*
D16*
X62738000Y-32258000D03*
D17*
X65278000Y-32258000D03*
X67818000Y-32258000D03*
X70358000Y-32258000D03*
X72898000Y-32258000D03*
D11*
X55610000Y-45974000D03*
X53610000Y-45974000D03*
D18*
X96525000Y-40750000D03*
X96525000Y-45250000D03*
X104475000Y-40750000D03*
X104475000Y-45250000D03*
D19*
X82669150Y-50376256D03*
X83623744Y-51330850D03*
X84330850Y-50623744D03*
X83376256Y-49669150D03*
D20*
X86707107Y-49207107D03*
X85292893Y-47792893D03*
D21*
X86733623Y-51766377D03*
X85266377Y-53233623D03*
D22*
X64088000Y-51308000D03*
X69088000Y-51308000D03*
X66588000Y-51308000D03*
X64088000Y-36808000D03*
X69088000Y-36808000D03*
D23*
X61938000Y-43808000D03*
X71238000Y-43808000D03*
D12*
X68942000Y-58928000D03*
X62592000Y-61468000D03*
D24*
X115586000Y-41656000D03*
X117586000Y-41656000D03*
D12*
X106742000Y-77724000D03*
X100392000Y-80264000D03*
D11*
X111490000Y-41656000D03*
X109490000Y-41656000D03*
D25*
X81638000Y-45120000D03*
X82138000Y-45120000D03*
X82638000Y-45120000D03*
X83138000Y-45120000D03*
X83638000Y-45120000D03*
X84138000Y-45120000D03*
X84638000Y-45120000D03*
X85138000Y-45120000D03*
X85638000Y-45120000D03*
X86138000Y-45120000D03*
X86638000Y-45120000D03*
X87138000Y-45120000D03*
X87638000Y-45120000D03*
X88138000Y-45120000D03*
X88638000Y-45120000D03*
X89138000Y-45120000D03*
D26*
X91063000Y-43195000D03*
X91063000Y-42695000D03*
X91063000Y-42195000D03*
X91063000Y-41695000D03*
X91063000Y-41195000D03*
X91063000Y-40695000D03*
X91063000Y-40195000D03*
X91063000Y-39695000D03*
X91063000Y-39195000D03*
X91063000Y-38695000D03*
X91063000Y-38195000D03*
X91063000Y-37695000D03*
X91063000Y-37195000D03*
X91063000Y-36695000D03*
X91063000Y-36195000D03*
X91063000Y-35695000D03*
D25*
X89138000Y-33770000D03*
X88638000Y-33770000D03*
X88138000Y-33770000D03*
X87638000Y-33770000D03*
X87138000Y-33770000D03*
X86638000Y-33770000D03*
X86138000Y-33770000D03*
X85638000Y-33770000D03*
X85138000Y-33770000D03*
X84638000Y-33770000D03*
X84138000Y-33770000D03*
X83638000Y-33770000D03*
X83138000Y-33770000D03*
X82638000Y-33770000D03*
X82138000Y-33770000D03*
X81638000Y-33770000D03*
D26*
X79713000Y-35695000D03*
X79713000Y-36195000D03*
X79713000Y-36695000D03*
X79713000Y-37195000D03*
X79713000Y-37695000D03*
X79713000Y-38195000D03*
X79713000Y-38695000D03*
X79713000Y-39195000D03*
X79713000Y-39695000D03*
X79713000Y-40195000D03*
X79713000Y-40695000D03*
X79713000Y-41195000D03*
X79713000Y-41695000D03*
X79713000Y-42195000D03*
X79713000Y-42695000D03*
X79713000Y-43195000D03*
D27*
X107250000Y-33060000D03*
X106750000Y-33060000D03*
X106250000Y-33060000D03*
X105750000Y-33060000D03*
X105250000Y-33060000D03*
X104750000Y-33060000D03*
X104250000Y-33060000D03*
X103750000Y-33060000D03*
X103250000Y-33060000D03*
X102750000Y-33060000D03*
X102250000Y-33060000D03*
X101750000Y-33060000D03*
D28*
X101450000Y-31450000D03*
X102100000Y-30750000D03*
X102900000Y-30750000D03*
X103300000Y-31450000D03*
X103700000Y-30750000D03*
X104100000Y-31450000D03*
X104900000Y-31450000D03*
X105300000Y-30750000D03*
X105700000Y-31450000D03*
X106100000Y-30750000D03*
X106900000Y-30750000D03*
X107550000Y-31450000D03*
D29*
X109000000Y-32250000D03*
X100000000Y-32250000D03*
D30*
X109600000Y-28250000D03*
X99400000Y-28250000D03*
D24*
X113000000Y-34000000D03*
X115000000Y-34000000D03*
D14*
X55634999Y-49530000D03*
X53585001Y-49530000D03*
D12*
X87842000Y-58928000D03*
X81492000Y-61468000D03*
D31*
X80766377Y-51766377D03*
X82233623Y-53233623D03*
D14*
X111514999Y-38100000D03*
X109465001Y-38100000D03*
D12*
X106742000Y-58928000D03*
X100392000Y-61468000D03*
D32*
X81500000Y-32000000D03*
X113500000Y-38000000D03*
D33*
X54944022Y-60196685D03*
D32*
X96000000Y-29500000D03*
X109500000Y-44000000D03*
X101000000Y-29500000D03*
X93000000Y-43000000D03*
X87000000Y-46500000D03*
X93000000Y-47000000D03*
X87500000Y-55000000D03*
X94500000Y-30000000D03*
X93500000Y-36000000D03*
X87500000Y-32000000D03*
X78000000Y-43000000D03*
X79750000Y-44250000D03*
X80500000Y-33500000D03*
X89233623Y-47233623D03*
X92482802Y-42095000D03*
X82000000Y-46500000D03*
X113000000Y-42500000D03*
X91000000Y-33500000D03*
X92500000Y-37000000D03*
X82500000Y-32000000D03*
X89000000Y-30000000D03*
X110500000Y-36500000D03*
X110500000Y-46000000D03*
X92500000Y-32500000D03*
X78000000Y-41000000D03*
X104600000Y-35065687D03*
X101000000Y-34125000D03*
X103862637Y-35376010D03*
X101000000Y-34925003D03*
X93500000Y-41000000D03*
X93500000Y-40000000D03*
X93500000Y-39000000D03*
D34*
X73805000Y-37195000D02*
X79713000Y-37195000D01*
X73000000Y-37500000D02*
X73500000Y-37500000D01*
X73500000Y-37500000D02*
X73805000Y-37195000D01*
X72000000Y-38500000D02*
X73000000Y-37500000D01*
X56582000Y-42418000D02*
X60500000Y-38500000D01*
X60500000Y-38500000D02*
X72000000Y-38500000D01*
X55610000Y-42418000D02*
X56582000Y-42418000D01*
X93250000Y-30000000D02*
X94500000Y-30000000D01*
X82138000Y-32962590D02*
X82138000Y-33770000D01*
X96525000Y-45250000D02*
X96525000Y-46525000D01*
X82233623Y-53233623D02*
X83500000Y-54500000D01*
X83500000Y-54500000D02*
X84000000Y-54500000D01*
X81500000Y-32000000D02*
X81500000Y-32324590D01*
X92805000Y-36195000D02*
X91063000Y-36195000D01*
X67818000Y-31318000D02*
X67818000Y-32258000D01*
X115561002Y-38100000D02*
X115561002Y-36061002D01*
X55634999Y-59505708D02*
X54944022Y-60196685D01*
X101750000Y-33060000D02*
X101750000Y-31750000D01*
X89800000Y-31500000D02*
X89850000Y-31550000D01*
X111514999Y-38100000D02*
X115561002Y-38100000D01*
X114000000Y-43000000D02*
X113500000Y-43500000D01*
X55610000Y-49505000D02*
X55635000Y-49530000D01*
X64496000Y-30500000D02*
X67000000Y-30500000D01*
X114000000Y-42000000D02*
X114000000Y-43000000D01*
X96525000Y-46525000D02*
X97500000Y-47500000D01*
X92596471Y-42695000D02*
X92901471Y-43000000D01*
X90550000Y-31550000D02*
X93500000Y-34500000D01*
X87032754Y-55000000D02*
X87500000Y-55000000D01*
X87138000Y-45120000D02*
X87138000Y-46362000D01*
X57500000Y-38500000D02*
X57500000Y-34000000D01*
X101000000Y-29500000D02*
X99500000Y-29500000D01*
X78000000Y-43000000D02*
X78305000Y-42695000D01*
X101750000Y-31750000D02*
X101450000Y-31450000D01*
X98537500Y-36537500D02*
X98537500Y-37500000D01*
X107250000Y-33060000D02*
X107550000Y-32760000D01*
X78305000Y-42695000D02*
X79713000Y-42695000D01*
X93000000Y-47000000D02*
X94750000Y-45250000D01*
X97500000Y-47500000D02*
X103000000Y-47500000D01*
X89850000Y-31550000D02*
X90550000Y-31550000D01*
X93500000Y-34500000D02*
X93500000Y-36000000D01*
X96500000Y-30000000D02*
X96000000Y-29500000D01*
X93000000Y-36000000D02*
X92805000Y-36195000D01*
X93000000Y-36000000D02*
X98000000Y-36000000D01*
X115000000Y-35500000D02*
X115000000Y-34000000D01*
X91063000Y-42695000D02*
X92596471Y-42695000D01*
X88000000Y-31500000D02*
X89800000Y-31500000D01*
X57138000Y-38862000D02*
X57500000Y-38500000D01*
X67000000Y-30500000D02*
X67818000Y-31318000D01*
X104475000Y-46025000D02*
X104475000Y-45250000D01*
X115561002Y-36061002D02*
X115000000Y-35500000D01*
X59242000Y-32258000D02*
X62738000Y-32258000D01*
X57500000Y-34000000D02*
X59242000Y-32258000D01*
X94750000Y-45250000D02*
X96525000Y-45250000D01*
X55634999Y-38862000D02*
X57138000Y-38862000D01*
X103000000Y-47500000D02*
X104475000Y-46025000D01*
X85266377Y-53233623D02*
X87032754Y-55000000D01*
X87500000Y-32000000D02*
X88000000Y-31500000D01*
X99000000Y-30000000D02*
X96500000Y-30000000D01*
X98000000Y-36000000D02*
X98537500Y-36537500D01*
X113500000Y-41500000D02*
X113500000Y-38000000D01*
X92901471Y-43000000D02*
X93000000Y-43000000D01*
X107550000Y-32760000D02*
X107550000Y-31450000D01*
X99500000Y-29500000D02*
X99000000Y-30000000D01*
X113500000Y-43500000D02*
X110000000Y-43500000D01*
X87138000Y-46362000D02*
X87000000Y-46500000D01*
X114000000Y-42000000D02*
X113500000Y-41500000D01*
X81500000Y-32324590D02*
X82138000Y-32962590D01*
X84000000Y-54500000D02*
X85266377Y-53233623D01*
X62738000Y-32258000D02*
X64496000Y-30500000D01*
X110000000Y-43500000D02*
X109500000Y-44000000D01*
X55634999Y-49530000D02*
X55634999Y-59505708D01*
X106742000Y-77724000D02*
X87842000Y-77724000D01*
X113000000Y-42000000D02*
X112656000Y-41656000D01*
X92382802Y-42195000D02*
X91063000Y-42195000D01*
X87842000Y-77724000D02*
X68942000Y-77724000D01*
X106742000Y-58928000D02*
X87842000Y-58928000D01*
X82000000Y-46500000D02*
X81638000Y-46138000D01*
X87638000Y-45927410D02*
X87638000Y-45120000D01*
X79713000Y-44213000D02*
X79713000Y-43195000D01*
X112656000Y-41656000D02*
X111490000Y-41656000D01*
X92482802Y-42095000D02*
X92382802Y-42195000D01*
X91000000Y-33500000D02*
X91063000Y-33563000D01*
X81638000Y-46138000D02*
X81638000Y-45120000D01*
X113000000Y-42500000D02*
X113000000Y-42000000D01*
X80770000Y-33770000D02*
X81638000Y-33770000D01*
X88944213Y-47233623D02*
X87638000Y-45927410D01*
X89233623Y-47233623D02*
X88944213Y-47233623D01*
X79750000Y-44250000D02*
X79713000Y-44213000D01*
X91063000Y-33563000D02*
X91063000Y-35695000D01*
X80500000Y-33500000D02*
X80770000Y-33770000D01*
X91063000Y-36695000D02*
X92195000Y-36695000D01*
X92195000Y-36695000D02*
X92500000Y-37000000D01*
X82600000Y-32100000D02*
X82500000Y-32000000D01*
X82638000Y-33770000D02*
X82600000Y-33732000D01*
X82600000Y-33732000D02*
X82600000Y-32100000D01*
X103850000Y-32000000D02*
X103300000Y-31450000D01*
X95500000Y-35000000D02*
X95000000Y-35000000D01*
X105150000Y-32000000D02*
X103850000Y-32000000D01*
X103250000Y-33060000D02*
X103250000Y-31500000D01*
X110500000Y-36500000D02*
X109000000Y-36500000D01*
X105700000Y-31450000D02*
X105150000Y-32000000D01*
X100500000Y-37500000D02*
X98500000Y-35500000D01*
X103250000Y-31500000D02*
X103300000Y-31450000D01*
X105750000Y-31500000D02*
X105700000Y-31450000D01*
X108000000Y-37500000D02*
X100500000Y-37500000D01*
X96000000Y-35500000D02*
X95500000Y-35000000D01*
X90750000Y-30000000D02*
X89000000Y-30000000D01*
X109000000Y-36500000D02*
X108000000Y-37500000D01*
X115586000Y-43914000D02*
X115586000Y-41656000D01*
X110500000Y-46000000D02*
X111500000Y-46000000D01*
X111500000Y-46000000D02*
X113000000Y-44500000D01*
X98500000Y-35500000D02*
X96000000Y-35500000D01*
X95000000Y-35000000D02*
X92500000Y-32500000D01*
X115000000Y-44500000D02*
X115586000Y-43914000D01*
X113000000Y-44500000D02*
X115000000Y-44500000D01*
X105750000Y-33060000D02*
X105750000Y-31500000D01*
X82000000Y-49707106D02*
X82669150Y-50376256D01*
X83638000Y-45120000D02*
X83638000Y-46862000D01*
X81279029Y-51766377D02*
X82669150Y-50376256D01*
X80766377Y-51766377D02*
X81279029Y-51766377D01*
X83638000Y-46862000D02*
X82000000Y-48500000D01*
X82000000Y-48500000D02*
X82000000Y-49707106D01*
X84707106Y-51000000D02*
X85967246Y-51000000D01*
X84954594Y-50000000D02*
X85914214Y-50000000D01*
X85967246Y-51000000D02*
X86733623Y-51766377D01*
X84330850Y-50623744D02*
X84954594Y-50000000D01*
X84330850Y-50623744D02*
X84707106Y-51000000D01*
X85914214Y-50000000D02*
X86707107Y-49207107D01*
X79713000Y-41195000D02*
X78195000Y-41195000D01*
X78195000Y-41195000D02*
X78000000Y-41000000D01*
X84138000Y-46638000D02*
X84138000Y-45120000D01*
X85292893Y-47792893D02*
X84138000Y-46638000D01*
X90750000Y-29050000D02*
X89849999Y-29050000D01*
X83663000Y-32582499D02*
X83638000Y-32607499D01*
X83638000Y-32607499D02*
X83638000Y-33770000D01*
X89849999Y-29050000D02*
X89499999Y-29400000D01*
X88376471Y-29775000D02*
X84406800Y-29775000D01*
X84406800Y-29775000D02*
X83663000Y-30518800D01*
X83663000Y-30518800D02*
X83663000Y-32582499D01*
X88751471Y-29400000D02*
X88376471Y-29775000D01*
X89499999Y-29400000D02*
X88751471Y-29400000D01*
X70358000Y-30642000D02*
X70358000Y-32258000D01*
X81000000Y-29500000D02*
X71500000Y-29500000D01*
X83138000Y-31638000D02*
X81000000Y-29500000D01*
X71500000Y-29500000D02*
X70358000Y-30642000D01*
X83138000Y-33770000D02*
X83138000Y-31638000D01*
X84113000Y-32582499D02*
X84138000Y-32607499D01*
X89849999Y-30950000D02*
X89499999Y-30600000D01*
X88376471Y-30225000D02*
X84593200Y-30225000D01*
X88751471Y-30600000D02*
X88376471Y-30225000D01*
X89499999Y-30600000D02*
X88751471Y-30600000D01*
X90750000Y-30950000D02*
X89849999Y-30950000D01*
X84593200Y-30225000D02*
X84113000Y-30705200D01*
X84138000Y-32607499D02*
X84138000Y-33770000D01*
X84113000Y-30705200D02*
X84113000Y-32582499D01*
X76195000Y-35695000D02*
X74500000Y-34000000D01*
X79713000Y-35695000D02*
X76195000Y-35695000D01*
X65556000Y-34000000D02*
X65278000Y-33722000D01*
X74500000Y-34000000D02*
X65556000Y-34000000D01*
X65278000Y-33722000D02*
X65278000Y-32258000D01*
X104100000Y-31450000D02*
X104274999Y-31275001D01*
X94748529Y-29400000D02*
X93900000Y-29400000D01*
X104600000Y-35065687D02*
X104750000Y-34915687D01*
X93900000Y-29400000D02*
X93550000Y-29050000D01*
X101000000Y-34125000D02*
X99473529Y-34125000D01*
X93550000Y-29050000D02*
X93250000Y-29050000D01*
X104750000Y-34915687D02*
X104750000Y-33060000D01*
X104100000Y-31450000D02*
X104275000Y-31275000D01*
X99473529Y-34125000D02*
X94748529Y-29400000D01*
X104900000Y-31450000D02*
X104725001Y-31275001D01*
X99106804Y-34925003D02*
X94781801Y-30600000D01*
X104275000Y-33792548D02*
X104275000Y-33785000D01*
X104000000Y-34817158D02*
X104275000Y-34542158D01*
X103862637Y-35376010D02*
X104000000Y-35238647D01*
X101000000Y-34925003D02*
X99106804Y-34925003D01*
X104250000Y-33760000D02*
X104250000Y-33060000D01*
X94781801Y-30600000D02*
X93900000Y-30600000D01*
X93900000Y-30600000D02*
X93550000Y-30950000D01*
X104900000Y-31450000D02*
X104725000Y-31275000D01*
X104275000Y-34542158D02*
X104275000Y-33785000D01*
X93550000Y-30950000D02*
X93250000Y-30950000D01*
X104000000Y-35238647D02*
X104000000Y-34817158D01*
X104275000Y-33785000D02*
X104250000Y-33760000D01*
X109465001Y-41631001D02*
X109490000Y-41656000D01*
X109465001Y-38100000D02*
X109465001Y-41631001D01*
X53610000Y-42418000D02*
X53610000Y-38886999D01*
X53610000Y-38886999D02*
X53585001Y-38862000D01*
X53610000Y-49505001D02*
X53585001Y-49530000D01*
X53610000Y-45974000D02*
X53610000Y-49505001D01*
X117611000Y-38100000D02*
X117611000Y-41631000D01*
X117611000Y-41631000D02*
X117586000Y-41656000D01*
X111500000Y-34000000D02*
X110000000Y-35500000D01*
X105500000Y-35500000D02*
X105250000Y-35250000D01*
X105250000Y-33060000D02*
X105250000Y-33760000D01*
X110000000Y-35500000D02*
X105500000Y-35500000D01*
X105250000Y-35250000D02*
X105250000Y-33060000D01*
X113000000Y-34000000D02*
X111500000Y-34000000D01*
X95250000Y-40750000D02*
X94000000Y-42000000D01*
X85276000Y-43000000D02*
X84638000Y-43638000D01*
X96525000Y-40750000D02*
X96525000Y-37562500D01*
X88000000Y-43000000D02*
X85276000Y-43000000D01*
X96525000Y-37562500D02*
X96462500Y-37500000D01*
X94000000Y-43500000D02*
X93500000Y-44000000D01*
X89000000Y-44000000D02*
X88000000Y-43000000D01*
X94000000Y-42000000D02*
X94000000Y-43500000D01*
X84638000Y-43638000D02*
X84638000Y-45120000D01*
X93500000Y-44000000D02*
X89000000Y-44000000D01*
X96525000Y-40750000D02*
X95250000Y-40750000D01*
X69088000Y-50412000D02*
X69500000Y-50000000D01*
X75000000Y-45500000D02*
X75000000Y-40000000D01*
X75000000Y-40000000D02*
X75805000Y-39195000D01*
X69500000Y-50000000D02*
X70500000Y-50000000D01*
X75805000Y-39195000D02*
X79713000Y-39195000D01*
X69088000Y-51308000D02*
X69088000Y-50412000D01*
X70500000Y-50000000D02*
X75000000Y-45500000D01*
X64088000Y-49912000D02*
X65000000Y-49000000D01*
X64088000Y-51308000D02*
X64088000Y-49912000D01*
X74500000Y-39500000D02*
X75305000Y-38695000D01*
X74500000Y-45000000D02*
X74500000Y-39500000D01*
X70500000Y-49000000D02*
X74500000Y-45000000D01*
X75305000Y-38695000D02*
X79713000Y-38695000D01*
X65000000Y-49000000D02*
X70500000Y-49000000D01*
X79713000Y-36195000D02*
X69701000Y-36195000D01*
X69701000Y-36195000D02*
X69088000Y-36808000D01*
X55634999Y-42393001D02*
X55610000Y-42418000D01*
X61500000Y-39000000D02*
X73500000Y-39000000D01*
X57026000Y-45974000D02*
X58000000Y-45000000D01*
X73500000Y-39000000D02*
X74805000Y-37695000D01*
X74805000Y-37695000D02*
X79713000Y-37695000D01*
X58000000Y-42500000D02*
X61500000Y-39000000D01*
X55610000Y-45974000D02*
X57026000Y-45974000D01*
X58000000Y-45000000D02*
X58000000Y-42500000D01*
X75500000Y-40500000D02*
X76305000Y-39695000D01*
X64000000Y-56000000D02*
X68000000Y-56000000D01*
X75500000Y-45565686D02*
X75500000Y-40500000D01*
X73000000Y-48065686D02*
X75500000Y-45565686D01*
X62592000Y-57408000D02*
X64000000Y-56000000D01*
X76305000Y-39695000D02*
X79713000Y-39695000D01*
X68000000Y-56000000D02*
X73000000Y-51000000D01*
X62592000Y-61468000D02*
X62592000Y-57408000D01*
X73000000Y-51000000D02*
X73000000Y-48065686D01*
X77500000Y-49000000D02*
X76500000Y-48000000D01*
X81492000Y-61468000D02*
X77968000Y-61468000D01*
X76500000Y-48000000D02*
X76500000Y-43000000D01*
X77968000Y-61468000D02*
X77500000Y-61000000D01*
X77500000Y-61000000D02*
X77500000Y-49000000D01*
X76500000Y-43000000D02*
X77305000Y-42195000D01*
X77305000Y-42195000D02*
X79713000Y-42195000D01*
X73500000Y-73500000D02*
X76000000Y-71000000D01*
X76000000Y-41000000D02*
X76805000Y-40195000D01*
X62592000Y-74408000D02*
X63500000Y-73500000D01*
X63500000Y-73500000D02*
X73500000Y-73500000D01*
X76000000Y-71000000D02*
X76000000Y-41000000D01*
X76805000Y-40195000D02*
X79713000Y-40195000D01*
X62592000Y-80264000D02*
X62592000Y-74408000D01*
X93195000Y-40695000D02*
X91063000Y-40695000D01*
X93500000Y-41000000D02*
X93195000Y-40695000D01*
X93195000Y-39695000D02*
X91063000Y-39695000D01*
X93500000Y-40000000D02*
X93195000Y-39695000D01*
X93500000Y-39000000D02*
X93195000Y-38695000D01*
X93195000Y-38695000D02*
X91063000Y-38695000D01*
G04 #@! TA.AperFunction,Conductor*
G36*
X99830701Y-37680383D02*
G01*
X99837180Y-37686415D01*
X100015139Y-37864374D01*
X100015149Y-37864385D01*
X100019479Y-37868715D01*
X100019480Y-37868716D01*
X100131284Y-37980520D01*
X100208340Y-38025008D01*
X100268215Y-38059577D01*
X100420943Y-38100500D01*
X107913331Y-38100500D01*
X107913347Y-38100501D01*
X107920943Y-38100501D01*
X108079053Y-38100501D01*
X108079057Y-38100501D01*
X108231785Y-38059577D01*
X108231790Y-38059573D01*
X108233406Y-38059141D01*
X108303256Y-38060804D01*
X108361119Y-38099966D01*
X108388624Y-38164194D01*
X108389501Y-38178916D01*
X108389501Y-38600001D01*
X108389502Y-38600019D01*
X108400001Y-38702796D01*
X108400002Y-38702799D01*
X108440922Y-38826286D01*
X108455187Y-38869334D01*
X108547289Y-39018656D01*
X108671345Y-39142712D01*
X108805598Y-39225519D01*
X108852322Y-39277465D01*
X108864501Y-39331057D01*
X108864501Y-40424941D01*
X108844816Y-40491980D01*
X108805598Y-40530480D01*
X108671342Y-40613289D01*
X108547289Y-40737342D01*
X108455187Y-40886663D01*
X108455186Y-40886666D01*
X108400001Y-41053203D01*
X108400001Y-41053204D01*
X108400000Y-41053204D01*
X108389500Y-41155983D01*
X108389500Y-42156001D01*
X108389501Y-42156019D01*
X108400000Y-42258796D01*
X108400001Y-42258799D01*
X108455185Y-42425331D01*
X108455187Y-42425336D01*
X108482590Y-42469764D01*
X108547288Y-42574656D01*
X108671344Y-42698712D01*
X108820666Y-42790814D01*
X108987203Y-42845999D01*
X109089991Y-42856500D01*
X109494903Y-42856499D01*
X109561941Y-42876183D01*
X109607696Y-42928987D01*
X109617640Y-42998146D01*
X109588615Y-43061702D01*
X109582583Y-43068180D01*
X109481465Y-43169298D01*
X109420142Y-43202783D01*
X109407668Y-43204837D01*
X109320750Y-43214630D01*
X109150478Y-43274210D01*
X108997737Y-43370184D01*
X108870184Y-43497737D01*
X108774211Y-43650476D01*
X108714631Y-43820745D01*
X108714630Y-43820750D01*
X108694435Y-43999996D01*
X108694435Y-44000003D01*
X108714630Y-44179249D01*
X108714631Y-44179254D01*
X108774211Y-44349523D01*
X108864058Y-44492513D01*
X108870184Y-44502262D01*
X108997738Y-44629816D01*
X109029065Y-44649500D01*
X109148426Y-44724500D01*
X109150478Y-44725789D01*
X109316838Y-44784001D01*
X109320745Y-44785368D01*
X109320750Y-44785369D01*
X109499996Y-44805565D01*
X109500000Y-44805565D01*
X109500004Y-44805565D01*
X109679249Y-44785369D01*
X109679252Y-44785368D01*
X109679255Y-44785368D01*
X109849522Y-44725789D01*
X110002262Y-44629816D01*
X110129816Y-44502262D01*
X110225789Y-44349522D01*
X110283867Y-44183545D01*
X110324589Y-44126769D01*
X110389542Y-44101022D01*
X110400909Y-44100500D01*
X112250902Y-44100500D01*
X112317941Y-44120185D01*
X112363696Y-44172989D01*
X112373640Y-44242147D01*
X112344615Y-44305703D01*
X112338583Y-44312181D01*
X111287584Y-45363181D01*
X111226261Y-45396666D01*
X111199903Y-45399500D01*
X111082412Y-45399500D01*
X111015373Y-45379815D01*
X111005097Y-45372445D01*
X111002263Y-45370185D01*
X111002262Y-45370184D01*
X110918117Y-45317312D01*
X110849523Y-45274211D01*
X110679254Y-45214631D01*
X110679249Y-45214630D01*
X110500004Y-45194435D01*
X110499996Y-45194435D01*
X110320750Y-45214630D01*
X110320745Y-45214631D01*
X110150476Y-45274211D01*
X109997737Y-45370184D01*
X109870184Y-45497737D01*
X109774211Y-45650476D01*
X109714631Y-45820745D01*
X109714630Y-45820750D01*
X109694435Y-45999996D01*
X109694435Y-46000003D01*
X109714630Y-46179249D01*
X109714631Y-46179254D01*
X109774211Y-46349523D01*
X109862621Y-46490226D01*
X109870184Y-46502262D01*
X109997738Y-46629816D01*
X110047628Y-46661164D01*
X110107208Y-46698601D01*
X110150478Y-46725789D01*
X110315401Y-46783498D01*
X110320745Y-46785368D01*
X110320750Y-46785369D01*
X110499996Y-46805565D01*
X110500000Y-46805565D01*
X110500004Y-46805565D01*
X110679249Y-46785369D01*
X110679252Y-46785368D01*
X110679255Y-46785368D01*
X110849522Y-46725789D01*
X111002262Y-46629816D01*
X111002267Y-46629810D01*
X111005097Y-46627555D01*
X111007275Y-46626665D01*
X111008158Y-46626111D01*
X111008255Y-46626265D01*
X111069783Y-46601145D01*
X111082412Y-46600500D01*
X111413331Y-46600500D01*
X111413347Y-46600501D01*
X111420943Y-46600501D01*
X111579054Y-46600501D01*
X111579057Y-46600501D01*
X111731785Y-46559577D01*
X111821406Y-46507834D01*
X111868716Y-46480520D01*
X111980520Y-46368716D01*
X111980520Y-46368714D01*
X111990724Y-46358511D01*
X111990727Y-46358506D01*
X113212416Y-45136819D01*
X113273739Y-45103334D01*
X113300097Y-45100500D01*
X114913331Y-45100500D01*
X114913347Y-45100501D01*
X114920943Y-45100501D01*
X115079054Y-45100501D01*
X115079057Y-45100501D01*
X115231785Y-45059577D01*
X115303424Y-45018216D01*
X115368716Y-44980520D01*
X115480520Y-44868716D01*
X115480520Y-44868714D01*
X115490724Y-44858511D01*
X115490728Y-44858506D01*
X115944506Y-44404728D01*
X115944511Y-44404724D01*
X115954714Y-44394520D01*
X115954716Y-44394520D01*
X116066520Y-44282716D01*
X116139207Y-44156818D01*
X116145577Y-44145785D01*
X116186500Y-43993057D01*
X116186500Y-43834943D01*
X116186500Y-42901908D01*
X116206185Y-42834869D01*
X116250271Y-42796363D01*
X116249187Y-42794605D01*
X116255332Y-42790814D01*
X116255334Y-42790814D01*
X116404656Y-42698712D01*
X116498319Y-42605049D01*
X116559642Y-42571564D01*
X116629334Y-42576548D01*
X116673681Y-42605049D01*
X116767344Y-42698712D01*
X116916666Y-42790814D01*
X117083203Y-42845999D01*
X117185991Y-42856500D01*
X117986008Y-42856499D01*
X117986016Y-42856498D01*
X117986019Y-42856498D01*
X118054309Y-42849522D01*
X118088797Y-42845999D01*
X118255334Y-42790814D01*
X118401056Y-42700931D01*
X118468445Y-42682493D01*
X118535109Y-42703415D01*
X118579879Y-42757057D01*
X118590150Y-42806472D01*
X118590150Y-83876000D01*
X118570465Y-83943039D01*
X118517661Y-83988794D01*
X118466150Y-84000000D01*
X112000000Y-84000000D01*
X111993187Y-90602435D01*
X111973433Y-90669454D01*
X111920582Y-90715154D01*
X111869187Y-90726307D01*
X59124000Y-90726307D01*
X59056961Y-90706622D01*
X59011206Y-90653818D01*
X59000000Y-90602307D01*
X59000000Y-84000000D01*
X51891693Y-84000000D01*
X51824654Y-83980315D01*
X51778899Y-83927511D01*
X51767693Y-83876000D01*
X51767693Y-62151377D01*
X51787378Y-62084338D01*
X51840182Y-62038583D01*
X51909340Y-62028639D01*
X51972896Y-62057664D01*
X51995688Y-62083842D01*
X52108169Y-62257049D01*
X52108171Y-62257051D01*
X52339073Y-62542191D01*
X52598516Y-62801634D01*
X52598520Y-62801637D01*
X52883657Y-63032537D01*
X53191365Y-63232364D01*
X53191370Y-63232367D01*
X53518286Y-63398940D01*
X53860823Y-63530427D01*
X54215228Y-63625390D01*
X54577618Y-63682787D01*
X54923756Y-63700926D01*
X54944021Y-63701989D01*
X54944022Y-63701989D01*
X54944023Y-63701989D01*
X54963225Y-63700982D01*
X55310426Y-63682787D01*
X55672816Y-63625390D01*
X56027221Y-63530427D01*
X56369758Y-63398940D01*
X56696674Y-63232367D01*
X57004388Y-63032536D01*
X57289528Y-62801634D01*
X57548971Y-62542191D01*
X57779873Y-62257051D01*
X57979704Y-61949337D01*
X58146277Y-61622421D01*
X58277764Y-61279884D01*
X58372727Y-60925479D01*
X58430124Y-60563089D01*
X58449326Y-60196685D01*
X58430124Y-59830281D01*
X58372727Y-59467891D01*
X58277764Y-59113486D01*
X58146277Y-58770949D01*
X57979704Y-58444033D01*
X57963160Y-58418557D01*
X57779874Y-58136320D01*
X57548974Y-57851183D01*
X57548971Y-57851179D01*
X57289528Y-57591736D01*
X57004388Y-57360834D01*
X57004386Y-57360832D01*
X56696678Y-57161005D01*
X56369761Y-56994431D01*
X56315061Y-56973434D01*
X56259529Y-56931032D01*
X56235736Y-56865338D01*
X56235499Y-56857670D01*
X56235499Y-50761057D01*
X56255184Y-50694018D01*
X56294400Y-50655520D01*
X56428655Y-50572712D01*
X56552711Y-50448656D01*
X56644813Y-50299334D01*
X56699998Y-50132797D01*
X56710499Y-50030009D01*
X56710498Y-49029992D01*
X56699998Y-48927203D01*
X56644813Y-48760666D01*
X56552711Y-48611344D01*
X56428655Y-48487288D01*
X56279333Y-48395186D01*
X56112796Y-48340001D01*
X56112794Y-48340000D01*
X56010009Y-48329500D01*
X55259997Y-48329500D01*
X55259979Y-48329501D01*
X55157202Y-48340000D01*
X55157199Y-48340001D01*
X54990667Y-48395185D01*
X54990662Y-48395187D01*
X54841341Y-48487289D01*
X54717287Y-48611343D01*
X54717285Y-48611346D01*
X54715536Y-48614182D01*
X54713829Y-48615717D01*
X54712806Y-48617011D01*
X54712584Y-48616836D01*
X54663587Y-48660904D01*
X54594624Y-48672124D01*
X54530542Y-48644278D01*
X54504464Y-48614182D01*
X54502714Y-48611346D01*
X54502712Y-48611343D01*
X54378658Y-48487289D01*
X54378657Y-48487288D01*
X54269402Y-48419899D01*
X54222679Y-48367952D01*
X54210500Y-48314361D01*
X54210500Y-47219908D01*
X54230185Y-47152869D01*
X54274271Y-47114363D01*
X54273187Y-47112605D01*
X54279332Y-47108814D01*
X54279334Y-47108814D01*
X54428656Y-47016712D01*
X54522319Y-46923049D01*
X54583642Y-46889564D01*
X54653334Y-46894548D01*
X54697681Y-46923049D01*
X54791344Y-47016712D01*
X54940666Y-47108814D01*
X55107203Y-47163999D01*
X55209991Y-47174500D01*
X56010008Y-47174499D01*
X56010016Y-47174498D01*
X56010019Y-47174498D01*
X56066302Y-47168748D01*
X56112797Y-47163999D01*
X56279334Y-47108814D01*
X56428656Y-47016712D01*
X56552712Y-46892656D01*
X56644814Y-46743334D01*
X56672595Y-46659495D01*
X56712368Y-46602051D01*
X56776884Y-46575228D01*
X56790301Y-46574500D01*
X56939331Y-46574500D01*
X56939347Y-46574501D01*
X56946943Y-46574501D01*
X57105054Y-46574501D01*
X57105057Y-46574501D01*
X57257785Y-46533577D01*
X57312024Y-46502262D01*
X57312025Y-46502262D01*
X57394709Y-46454524D01*
X57394708Y-46454524D01*
X57394716Y-46454520D01*
X57506520Y-46342716D01*
X57506520Y-46342714D01*
X57516724Y-46332511D01*
X57516728Y-46332506D01*
X58358506Y-45490728D01*
X58358511Y-45490724D01*
X58368714Y-45480520D01*
X58368716Y-45480520D01*
X58480520Y-45368716D01*
X58484408Y-45361980D01*
X58538544Y-45268216D01*
X58538545Y-45268214D01*
X58559574Y-45231790D01*
X58559575Y-45231789D01*
X58559575Y-45231787D01*
X58559577Y-45231785D01*
X58600501Y-45079057D01*
X58600501Y-44920943D01*
X58600501Y-44913348D01*
X58600500Y-44913330D01*
X58600500Y-42800097D01*
X58620185Y-42733058D01*
X58636819Y-42712416D01*
X58888519Y-42460716D01*
X59148872Y-42200362D01*
X59210193Y-42166879D01*
X59279884Y-42171863D01*
X59335818Y-42213734D01*
X59360235Y-42279199D01*
X59345383Y-42347472D01*
X59343938Y-42350045D01*
X59274491Y-42470330D01*
X59274485Y-42470343D01*
X59137205Y-42788594D01*
X59037797Y-43120642D01*
X59037794Y-43120656D01*
X58977611Y-43461968D01*
X58977610Y-43461979D01*
X58957457Y-43807996D01*
X58957457Y-43808003D01*
X58977610Y-44154020D01*
X58977611Y-44154031D01*
X59037794Y-44495343D01*
X59037797Y-44495357D01*
X59037798Y-44495361D01*
X59054793Y-44552127D01*
X59137205Y-44827405D01*
X59274485Y-45145656D01*
X59274491Y-45145669D01*
X59447793Y-45445836D01*
X59654768Y-45723852D01*
X59654773Y-45723858D01*
X59774254Y-45850500D01*
X59892627Y-45975968D01*
X59892633Y-45975973D01*
X59892635Y-45975975D01*
X60090886Y-46142328D01*
X60158143Y-46198763D01*
X60447728Y-46389226D01*
X60757467Y-46544783D01*
X61083171Y-46663329D01*
X61083177Y-46663330D01*
X61083179Y-46663331D01*
X61420418Y-46743259D01*
X61420425Y-46743260D01*
X61420434Y-46743262D01*
X61764697Y-46783500D01*
X61764704Y-46783500D01*
X62111296Y-46783500D01*
X62111303Y-46783500D01*
X62455566Y-46743262D01*
X62455575Y-46743259D01*
X62455581Y-46743259D01*
X62727616Y-46678784D01*
X62792829Y-46663329D01*
X63118533Y-46544783D01*
X63428272Y-46389226D01*
X63717857Y-46198763D01*
X63983373Y-45975968D01*
X64221228Y-45723856D01*
X64428207Y-45445835D01*
X64601511Y-45145665D01*
X64738794Y-44827406D01*
X64838202Y-44495361D01*
X64898390Y-44154020D01*
X64917436Y-43827011D01*
X64918543Y-43808003D01*
X64918543Y-43807996D01*
X64910113Y-43663267D01*
X64898390Y-43461980D01*
X64898166Y-43460712D01*
X64838205Y-43120656D01*
X64838204Y-43120653D01*
X64838202Y-43120639D01*
X64738794Y-42788594D01*
X64601511Y-42470335D01*
X64473570Y-42248735D01*
X64428206Y-42170163D01*
X64221231Y-41892147D01*
X64221226Y-41892141D01*
X64094242Y-41757547D01*
X63983373Y-41640032D01*
X63983366Y-41640026D01*
X63983364Y-41640024D01*
X63717860Y-41417239D01*
X63654078Y-41375289D01*
X63428272Y-41226774D01*
X63333642Y-41179249D01*
X63118540Y-41071220D01*
X63118534Y-41071217D01*
X62792841Y-40952675D01*
X62792820Y-40952668D01*
X62455581Y-40872740D01*
X62455566Y-40872738D01*
X62111303Y-40832500D01*
X61764697Y-40832500D01*
X61463466Y-40867708D01*
X61420433Y-40872738D01*
X61420418Y-40872740D01*
X61083179Y-40952668D01*
X61083158Y-40952675D01*
X60757465Y-41071217D01*
X60757459Y-41071220D01*
X60480988Y-41210069D01*
X60412245Y-41222566D01*
X60347659Y-41195913D01*
X60307734Y-41138574D01*
X60305148Y-41068752D01*
X60337654Y-41011580D01*
X61712416Y-39636819D01*
X61773739Y-39603334D01*
X61800097Y-39600500D01*
X73413331Y-39600500D01*
X73413347Y-39600501D01*
X73420943Y-39600501D01*
X73579054Y-39600501D01*
X73579057Y-39600501D01*
X73731785Y-39559577D01*
X73781904Y-39530639D01*
X73868716Y-39480520D01*
X73980520Y-39368716D01*
X73980520Y-39368714D01*
X73990728Y-39358507D01*
X73990729Y-39358504D01*
X75017417Y-38331819D01*
X75078740Y-38298334D01*
X75105098Y-38295500D01*
X78327146Y-38295500D01*
X78394185Y-38315185D01*
X78439940Y-38367989D01*
X78450085Y-38403313D01*
X78453374Y-38428292D01*
X78451593Y-38428526D01*
X78453804Y-38462267D01*
X78450590Y-38486683D01*
X78422325Y-38550580D01*
X78364001Y-38589052D01*
X78327651Y-38594500D01*
X75891669Y-38594500D01*
X75891653Y-38594499D01*
X75884057Y-38594499D01*
X75725943Y-38594499D01*
X75649579Y-38614961D01*
X75573212Y-38635423D01*
X75573209Y-38635425D01*
X75530970Y-38659813D01*
X75530969Y-38659814D01*
X75483626Y-38687147D01*
X75436285Y-38714479D01*
X75436282Y-38714481D01*
X74519481Y-39631282D01*
X74519479Y-39631285D01*
X74505091Y-39656206D01*
X74474294Y-39709549D01*
X74440423Y-39768215D01*
X74399499Y-39920943D01*
X74399499Y-39920945D01*
X74399499Y-40089046D01*
X74399500Y-40089059D01*
X74399500Y-43185204D01*
X74379815Y-43252243D01*
X74327011Y-43297998D01*
X74257853Y-43307942D01*
X74194297Y-43278917D01*
X74156523Y-43220139D01*
X74153384Y-43206737D01*
X74138205Y-43120653D01*
X74138203Y-43120647D01*
X74138202Y-43120639D01*
X74038794Y-42788594D01*
X73901511Y-42470335D01*
X73773570Y-42248735D01*
X73728206Y-42170163D01*
X73521231Y-41892147D01*
X73521226Y-41892141D01*
X73394242Y-41757547D01*
X73283373Y-41640032D01*
X73283366Y-41640026D01*
X73283364Y-41640024D01*
X73017860Y-41417239D01*
X72954078Y-41375289D01*
X72728272Y-41226774D01*
X72633642Y-41179249D01*
X72418540Y-41071220D01*
X72418534Y-41071217D01*
X72092841Y-40952675D01*
X72092820Y-40952668D01*
X71755581Y-40872740D01*
X71755566Y-40872738D01*
X71411303Y-40832500D01*
X71064697Y-40832500D01*
X70763466Y-40867708D01*
X70720433Y-40872738D01*
X70720418Y-40872740D01*
X70383179Y-40952668D01*
X70383158Y-40952675D01*
X70057465Y-41071217D01*
X70057459Y-41071220D01*
X69747731Y-41226772D01*
X69458139Y-41417239D01*
X69192635Y-41640024D01*
X69192625Y-41640034D01*
X68954773Y-41892141D01*
X68954768Y-41892147D01*
X68747793Y-42170163D01*
X68574491Y-42470330D01*
X68574485Y-42470343D01*
X68437205Y-42788594D01*
X68337797Y-43120642D01*
X68337794Y-43120656D01*
X68277611Y-43461968D01*
X68277610Y-43461979D01*
X68257457Y-43807996D01*
X68257457Y-43808003D01*
X68277610Y-44154020D01*
X68277611Y-44154031D01*
X68337794Y-44495343D01*
X68337797Y-44495357D01*
X68337798Y-44495361D01*
X68354793Y-44552127D01*
X68437205Y-44827405D01*
X68574485Y-45145656D01*
X68574491Y-45145669D01*
X68747793Y-45445836D01*
X68954768Y-45723852D01*
X68954773Y-45723858D01*
X69074254Y-45850500D01*
X69192627Y-45975968D01*
X69192633Y-45975973D01*
X69192635Y-45975975D01*
X69390886Y-46142328D01*
X69458143Y-46198763D01*
X69747728Y-46389226D01*
X70057467Y-46544783D01*
X70383171Y-46663329D01*
X70383177Y-46663330D01*
X70383179Y-46663331D01*
X70720418Y-46743259D01*
X70720425Y-46743260D01*
X70720434Y-46743262D01*
X71064697Y-46783500D01*
X71064704Y-46783500D01*
X71411296Y-46783500D01*
X71411303Y-46783500D01*
X71755566Y-46743262D01*
X71755575Y-46743259D01*
X71755581Y-46743259D01*
X72027616Y-46678784D01*
X72092829Y-46663329D01*
X72418533Y-46544783D01*
X72728272Y-46389226D01*
X73017857Y-46198763D01*
X73283373Y-45975968D01*
X73521228Y-45723856D01*
X73728207Y-45445835D01*
X73901511Y-45145665D01*
X74038794Y-44827406D01*
X74138202Y-44495361D01*
X74149587Y-44430795D01*
X74153384Y-44409263D01*
X74184411Y-44346660D01*
X74244358Y-44310769D01*
X74314192Y-44312986D01*
X74371742Y-44352606D01*
X74398736Y-44417051D01*
X74399500Y-44430795D01*
X74399500Y-45199903D01*
X74379815Y-45266942D01*
X74363181Y-45287584D01*
X70287584Y-49363181D01*
X70226261Y-49396666D01*
X70199903Y-49399500D01*
X69586669Y-49399500D01*
X69586653Y-49399499D01*
X69579057Y-49399499D01*
X69420943Y-49399499D01*
X69313587Y-49428265D01*
X69268210Y-49440424D01*
X69268209Y-49440425D01*
X69218096Y-49469359D01*
X69218095Y-49469360D01*
X69174689Y-49494420D01*
X69131285Y-49519479D01*
X69131282Y-49519481D01*
X68719286Y-49931478D01*
X68719276Y-49931482D01*
X68719279Y-49931485D01*
X68705497Y-49945265D01*
X68658086Y-49974858D01*
X68523501Y-50021062D01*
X68523495Y-50021064D01*
X68319371Y-50131531D01*
X68319365Y-50131535D01*
X68136222Y-50274081D01*
X68136219Y-50274084D01*
X68136216Y-50274086D01*
X68136216Y-50274087D01*
X67979538Y-50444286D01*
X67979015Y-50444854D01*
X67941808Y-50501804D01*
X67888662Y-50547161D01*
X67819430Y-50556584D01*
X67756095Y-50527082D01*
X67734192Y-50501804D01*
X67696984Y-50444854D01*
X67696982Y-50444852D01*
X67696979Y-50444847D01*
X67539784Y-50274087D01*
X67539779Y-50274083D01*
X67539777Y-50274081D01*
X67356634Y-50131535D01*
X67356628Y-50131531D01*
X67152504Y-50021064D01*
X67152495Y-50021061D01*
X66932984Y-49945702D01*
X66761282Y-49917050D01*
X66704049Y-49907500D01*
X66471951Y-49907500D01*
X66426164Y-49915140D01*
X66243015Y-49945702D01*
X66023504Y-50021061D01*
X66023495Y-50021064D01*
X65819371Y-50131531D01*
X65819365Y-50131535D01*
X65636222Y-50274081D01*
X65636219Y-50274084D01*
X65636216Y-50274086D01*
X65636216Y-50274087D01*
X65479021Y-50444847D01*
X65479019Y-50444849D01*
X65479017Y-50444852D01*
X65441509Y-50502262D01*
X65388362Y-50547618D01*
X65319131Y-50557041D01*
X65255795Y-50527538D01*
X65241084Y-50510561D01*
X65239186Y-50510364D01*
X64652612Y-51096939D01*
X64647111Y-51076409D01*
X64568119Y-50939592D01*
X64456408Y-50827881D01*
X64319591Y-50748889D01*
X64299058Y-50743387D01*
X64886797Y-50155647D01*
X64886797Y-50155645D01*
X64856360Y-50131955D01*
X64856354Y-50131951D01*
X64652302Y-50021523D01*
X64652293Y-50021520D01*
X64432860Y-49946188D01*
X64204007Y-49908000D01*
X63971993Y-49908000D01*
X63743139Y-49946188D01*
X63523706Y-50021520D01*
X63523697Y-50021523D01*
X63319650Y-50131949D01*
X63289200Y-50155647D01*
X63876941Y-50743387D01*
X63856409Y-50748889D01*
X63719592Y-50827881D01*
X63607881Y-50939592D01*
X63528889Y-51076409D01*
X63523387Y-51096940D01*
X62936812Y-50510365D01*
X62852516Y-50639391D01*
X62852514Y-50639395D01*
X62759317Y-50851864D01*
X62702361Y-51076781D01*
X62683202Y-51307994D01*
X62683202Y-51308005D01*
X62702361Y-51539218D01*
X62759317Y-51764135D01*
X62852516Y-51976609D01*
X62936811Y-52105633D01*
X63523387Y-51519058D01*
X63528889Y-51539591D01*
X63607881Y-51676408D01*
X63719592Y-51788119D01*
X63856409Y-51867111D01*
X63876940Y-51872612D01*
X63289201Y-52460351D01*
X63319649Y-52484050D01*
X63523697Y-52594476D01*
X63523706Y-52594479D01*
X63743139Y-52669811D01*
X63971993Y-52708000D01*
X64204007Y-52708000D01*
X64432860Y-52669811D01*
X64652293Y-52594479D01*
X64652301Y-52594476D01*
X64856355Y-52484047D01*
X64886797Y-52460351D01*
X64886798Y-52460350D01*
X64299060Y-51872612D01*
X64319591Y-51867111D01*
X64456408Y-51788119D01*
X64568119Y-51676408D01*
X64647111Y-51539591D01*
X64652612Y-51519060D01*
X65239186Y-52105634D01*
X65243969Y-52105138D01*
X65287037Y-52068381D01*
X65356269Y-52058957D01*
X65419605Y-52088458D01*
X65441510Y-52113738D01*
X65479016Y-52171147D01*
X65479019Y-52171151D01*
X65479021Y-52171153D01*
X65636216Y-52341913D01*
X65636219Y-52341915D01*
X65636222Y-52341918D01*
X65819365Y-52484464D01*
X65819371Y-52484468D01*
X65819374Y-52484470D01*
X65986860Y-52575109D01*
X66022652Y-52594479D01*
X66023497Y-52594936D01*
X66137487Y-52634068D01*
X66243015Y-52670297D01*
X66243017Y-52670297D01*
X66243019Y-52670298D01*
X66471951Y-52708500D01*
X66471952Y-52708500D01*
X66704048Y-52708500D01*
X66704049Y-52708500D01*
X66932981Y-52670298D01*
X67152503Y-52594936D01*
X67356626Y-52484470D01*
X67357170Y-52484047D01*
X67418129Y-52436600D01*
X67539784Y-52341913D01*
X67696979Y-52171153D01*
X67734191Y-52114196D01*
X67787337Y-52068839D01*
X67856569Y-52059415D01*
X67919904Y-52088917D01*
X67941809Y-52114196D01*
X67979016Y-52171147D01*
X67979019Y-52171151D01*
X67979021Y-52171153D01*
X68136216Y-52341913D01*
X68136219Y-52341915D01*
X68136222Y-52341918D01*
X68319365Y-52484464D01*
X68319371Y-52484468D01*
X68319374Y-52484470D01*
X68486860Y-52575109D01*
X68522652Y-52594479D01*
X68523497Y-52594936D01*
X68637487Y-52634068D01*
X68743015Y-52670297D01*
X68743017Y-52670297D01*
X68743019Y-52670298D01*
X68971951Y-52708500D01*
X68971952Y-52708500D01*
X69204048Y-52708500D01*
X69204049Y-52708500D01*
X69432981Y-52670298D01*
X69652503Y-52594936D01*
X69856626Y-52484470D01*
X69857170Y-52484047D01*
X69918129Y-52436600D01*
X70039784Y-52341913D01*
X70196979Y-52171153D01*
X70323924Y-51976849D01*
X70417157Y-51764300D01*
X70474134Y-51539305D01*
X70474135Y-51539297D01*
X70493300Y-51308006D01*
X70493300Y-51307993D01*
X70474135Y-51076702D01*
X70474133Y-51076691D01*
X70417157Y-50851699D01*
X70383211Y-50774311D01*
X70374308Y-50705011D01*
X70404285Y-50641899D01*
X70463624Y-50605012D01*
X70496767Y-50600501D01*
X70579054Y-50600501D01*
X70579057Y-50600501D01*
X70731785Y-50559577D01*
X70801233Y-50519481D01*
X70868716Y-50480520D01*
X70980520Y-50368716D01*
X70980520Y-50368714D01*
X70990724Y-50358511D01*
X70990727Y-50358506D01*
X72187820Y-49161413D01*
X72249142Y-49127930D01*
X72318834Y-49132914D01*
X72374767Y-49174786D01*
X72399184Y-49240250D01*
X72399500Y-49249096D01*
X72399500Y-50699903D01*
X72379815Y-50766942D01*
X72363181Y-50787584D01*
X67787584Y-55363181D01*
X67726261Y-55396666D01*
X67699903Y-55399500D01*
X64086670Y-55399500D01*
X64086654Y-55399499D01*
X64079058Y-55399499D01*
X63920943Y-55399499D01*
X63844579Y-55419961D01*
X63768214Y-55440423D01*
X63768209Y-55440426D01*
X63631290Y-55519475D01*
X63631282Y-55519481D01*
X62111481Y-57039282D01*
X62111479Y-57039285D01*
X62061361Y-57126094D01*
X62061359Y-57126096D01*
X62032425Y-57176209D01*
X62032424Y-57176210D01*
X62032423Y-57176215D01*
X61991499Y-57328943D01*
X61991499Y-57328945D01*
X61991499Y-57497046D01*
X61991500Y-57497059D01*
X61991500Y-59854969D01*
X61971815Y-59922008D01*
X61919011Y-59967763D01*
X61914954Y-59969529D01*
X61843558Y-59999103D01*
X61843555Y-59999104D01*
X61622990Y-60134267D01*
X61622985Y-60134270D01*
X61426276Y-60302276D01*
X61258270Y-60498985D01*
X61258267Y-60498990D01*
X61123102Y-60719558D01*
X61024106Y-60958557D01*
X61024102Y-60958569D01*
X60963020Y-61212998D01*
X60928229Y-61273590D01*
X60866203Y-61305754D01*
X60841028Y-61308043D01*
X60195509Y-61300661D01*
X60195509Y-67161752D01*
X73000000Y-67308199D01*
X72999998Y-61447108D01*
X64344353Y-61348111D01*
X64277543Y-61327661D01*
X64232395Y-61274337D01*
X64222153Y-61233844D01*
X64221991Y-61231785D01*
X64220285Y-61210105D01*
X64159895Y-60958560D01*
X64060897Y-60719559D01*
X64060897Y-60719558D01*
X63925732Y-60498990D01*
X63925729Y-60498985D01*
X63865265Y-60428191D01*
X63757724Y-60302276D01*
X63634091Y-60196684D01*
X63561014Y-60134270D01*
X63561009Y-60134267D01*
X63340444Y-59999104D01*
X63340441Y-59999103D01*
X63269046Y-59969529D01*
X63214643Y-59925688D01*
X63192579Y-59859393D01*
X63192500Y-59854969D01*
X63192500Y-58928000D01*
X67293418Y-58928000D01*
X67313715Y-59185898D01*
X67374102Y-59437430D01*
X67374106Y-59437442D01*
X67473102Y-59676441D01*
X67608267Y-59897009D01*
X67608270Y-59897014D01*
X67668696Y-59967763D01*
X67776276Y-60093724D01*
X67823750Y-60134270D01*
X67972985Y-60261729D01*
X67972990Y-60261732D01*
X68193558Y-60396897D01*
X68278057Y-60431897D01*
X68432560Y-60495895D01*
X68684105Y-60556285D01*
X68942000Y-60576582D01*
X69199895Y-60556285D01*
X69451440Y-60495895D01*
X69690441Y-60396897D01*
X69911012Y-60261731D01*
X70107724Y-60093724D01*
X70275731Y-59897012D01*
X70410897Y-59676441D01*
X70509895Y-59437440D01*
X70570285Y-59185895D01*
X70590582Y-58928000D01*
X70570285Y-58670105D01*
X70509895Y-58418560D01*
X70410897Y-58179559D01*
X70410897Y-58179558D01*
X70275732Y-57958990D01*
X70275729Y-57958985D01*
X70183654Y-57851179D01*
X70107724Y-57762276D01*
X69984151Y-57656735D01*
X69911014Y-57594270D01*
X69911009Y-57594267D01*
X69690441Y-57459102D01*
X69451442Y-57360106D01*
X69451444Y-57360106D01*
X69451440Y-57360105D01*
X69451436Y-57360104D01*
X69451430Y-57360102D01*
X69199898Y-57299715D01*
X68942000Y-57279418D01*
X68684101Y-57299715D01*
X68432569Y-57360102D01*
X68432557Y-57360106D01*
X68193558Y-57459102D01*
X67972990Y-57594267D01*
X67972985Y-57594270D01*
X67776276Y-57762276D01*
X67608270Y-57958985D01*
X67608267Y-57958990D01*
X67473102Y-58179558D01*
X67374106Y-58418557D01*
X67374102Y-58418569D01*
X67313715Y-58670101D01*
X67293418Y-58928000D01*
X63192500Y-58928000D01*
X63192500Y-57708097D01*
X63212185Y-57641058D01*
X63228819Y-57620416D01*
X64212417Y-56636819D01*
X64273740Y-56603334D01*
X64300098Y-56600500D01*
X67913331Y-56600500D01*
X67913347Y-56600501D01*
X67920943Y-56600501D01*
X68079054Y-56600501D01*
X68079057Y-56600501D01*
X68231785Y-56559577D01*
X68281904Y-56530639D01*
X68368716Y-56480520D01*
X68480520Y-56368716D01*
X68480520Y-56368714D01*
X68490728Y-56358507D01*
X68490730Y-56358504D01*
X73358506Y-51490728D01*
X73358511Y-51490724D01*
X73368714Y-51480520D01*
X73368716Y-51480520D01*
X73480520Y-51368716D01*
X73533665Y-51276665D01*
X73559577Y-51231785D01*
X73600501Y-51079057D01*
X73600501Y-50920943D01*
X73600501Y-50913348D01*
X73600500Y-50913330D01*
X73600500Y-48365783D01*
X73620185Y-48298744D01*
X73636819Y-48278102D01*
X75187819Y-46727102D01*
X75249142Y-46693617D01*
X75318834Y-46698601D01*
X75374767Y-46740473D01*
X75399184Y-46805937D01*
X75399500Y-46814783D01*
X75399500Y-70699903D01*
X75379815Y-70766942D01*
X75363181Y-70787584D01*
X73287584Y-72863181D01*
X73226261Y-72896666D01*
X73199903Y-72899500D01*
X63586669Y-72899500D01*
X63586653Y-72899499D01*
X63579057Y-72899499D01*
X63420943Y-72899499D01*
X63313587Y-72928265D01*
X63268210Y-72940424D01*
X63268209Y-72940425D01*
X63218096Y-72969359D01*
X63218095Y-72969360D01*
X63174689Y-72994420D01*
X63131285Y-73019479D01*
X63131282Y-73019481D01*
X62111481Y-74039282D01*
X62111475Y-74039290D01*
X62076137Y-74100499D01*
X62076137Y-74100501D01*
X62032423Y-74176214D01*
X62032423Y-74176215D01*
X61991499Y-74328943D01*
X61991499Y-74328945D01*
X61991499Y-74497046D01*
X61991500Y-74497059D01*
X61991500Y-78650969D01*
X61971815Y-78718008D01*
X61919011Y-78763763D01*
X61914954Y-78765529D01*
X61843558Y-78795103D01*
X61843555Y-78795104D01*
X61622990Y-78930267D01*
X61622985Y-78930270D01*
X61426276Y-79098276D01*
X61258270Y-79294985D01*
X61258267Y-79294990D01*
X61123102Y-79515558D01*
X61024106Y-79754557D01*
X61024102Y-79754569D01*
X60966442Y-79994742D01*
X60963715Y-80006105D01*
X60953229Y-80139332D01*
X60948548Y-80198814D01*
X60923664Y-80264102D01*
X60867432Y-80305572D01*
X60823565Y-80313076D01*
X59695509Y-80300659D01*
X59695509Y-86161751D01*
X72999999Y-86308198D01*
X72999999Y-86308197D01*
X73000000Y-86308198D01*
X72999998Y-80447107D01*
X72999997Y-80447106D01*
X64360768Y-80352011D01*
X64293949Y-80331590D01*
X64267737Y-80300659D01*
X78695509Y-80300659D01*
X78695509Y-86161751D01*
X91999999Y-86308198D01*
X91999999Y-86308197D01*
X92000000Y-86308198D01*
X91999998Y-80447107D01*
X91999997Y-80447106D01*
X83260681Y-80350910D01*
X83193862Y-80330489D01*
X83168583Y-80300659D01*
X97695509Y-80300659D01*
X97695509Y-86161751D01*
X110999999Y-86308198D01*
X110999999Y-86308197D01*
X111000000Y-86308198D01*
X110999998Y-80447107D01*
X110999997Y-80447106D01*
X102160595Y-80349808D01*
X102093776Y-80329387D01*
X102048605Y-80276083D01*
X102038342Y-80235547D01*
X102020285Y-80006105D01*
X101959895Y-79754560D01*
X101860897Y-79515559D01*
X101860897Y-79515558D01*
X101725732Y-79294990D01*
X101725729Y-79294985D01*
X101665265Y-79224191D01*
X101557724Y-79098276D01*
X101450181Y-79006426D01*
X101361014Y-78930270D01*
X101361009Y-78930267D01*
X101140441Y-78795102D01*
X100901442Y-78696106D01*
X100901444Y-78696106D01*
X100901440Y-78696105D01*
X100901436Y-78696104D01*
X100901430Y-78696102D01*
X100649898Y-78635715D01*
X100392000Y-78615418D01*
X100134101Y-78635715D01*
X99882569Y-78696102D01*
X99882557Y-78696106D01*
X99643558Y-78795102D01*
X99422990Y-78930267D01*
X99422985Y-78930270D01*
X99226276Y-79098276D01*
X99058270Y-79294985D01*
X99058267Y-79294990D01*
X98923102Y-79515558D01*
X98824106Y-79754557D01*
X98824102Y-79754569D01*
X98766442Y-79994742D01*
X98763715Y-80006105D01*
X98754677Y-80120934D01*
X98748721Y-80196614D01*
X98723836Y-80261902D01*
X98667605Y-80303373D01*
X98623738Y-80310876D01*
X97695509Y-80300659D01*
X83168583Y-80300659D01*
X83148691Y-80277185D01*
X83138429Y-80236654D01*
X83120285Y-80006105D01*
X83059895Y-79754560D01*
X82960897Y-79515559D01*
X82960897Y-79515558D01*
X82825732Y-79294990D01*
X82825729Y-79294985D01*
X82765265Y-79224191D01*
X82657724Y-79098276D01*
X82550181Y-79006426D01*
X82461014Y-78930270D01*
X82461009Y-78930267D01*
X82240441Y-78795102D01*
X82001442Y-78696106D01*
X82001444Y-78696106D01*
X82001440Y-78696105D01*
X82001436Y-78696104D01*
X82001430Y-78696102D01*
X81749898Y-78635715D01*
X81492000Y-78615418D01*
X81234101Y-78635715D01*
X80982569Y-78696102D01*
X80982557Y-78696106D01*
X80743558Y-78795102D01*
X80522990Y-78930267D01*
X80522985Y-78930270D01*
X80326276Y-79098276D01*
X80158270Y-79294985D01*
X80158267Y-79294990D01*
X80023102Y-79515558D01*
X79924106Y-79754557D01*
X79924102Y-79754569D01*
X79863715Y-80006101D01*
X79848635Y-80197713D01*
X79823751Y-80263002D01*
X79767519Y-80304472D01*
X79723652Y-80311976D01*
X78695509Y-80300659D01*
X64267737Y-80300659D01*
X64248778Y-80278286D01*
X64238516Y-80237753D01*
X64220285Y-80006105D01*
X64159895Y-79754560D01*
X64060897Y-79515559D01*
X64060897Y-79515558D01*
X63925732Y-79294990D01*
X63925729Y-79294985D01*
X63865265Y-79224191D01*
X63757724Y-79098276D01*
X63650181Y-79006426D01*
X63561014Y-78930270D01*
X63561009Y-78930267D01*
X63340444Y-78795104D01*
X63340441Y-78795103D01*
X63269046Y-78765529D01*
X63214643Y-78721688D01*
X63192579Y-78655393D01*
X63192500Y-78650969D01*
X63192500Y-77724000D01*
X67293418Y-77724000D01*
X67313715Y-77981898D01*
X67374102Y-78233430D01*
X67374106Y-78233442D01*
X67473102Y-78472441D01*
X67608267Y-78693009D01*
X67608270Y-78693014D01*
X67668696Y-78763763D01*
X67776276Y-78889724D01*
X67823750Y-78930270D01*
X67972985Y-79057729D01*
X67972990Y-79057732D01*
X68193558Y-79192897D01*
X68278057Y-79227897D01*
X68432560Y-79291895D01*
X68684105Y-79352285D01*
X68942000Y-79372582D01*
X69199895Y-79352285D01*
X69451440Y-79291895D01*
X69690441Y-79192897D01*
X69911012Y-79057731D01*
X70107724Y-78889724D01*
X70275731Y-78693012D01*
X70410897Y-78472441D01*
X70440470Y-78401045D01*
X70484310Y-78346644D01*
X70550605Y-78324579D01*
X70555030Y-78324500D01*
X86228970Y-78324500D01*
X86296009Y-78344185D01*
X86341764Y-78396989D01*
X86343515Y-78401010D01*
X86370588Y-78466369D01*
X86373105Y-78472446D01*
X86508267Y-78693009D01*
X86508270Y-78693014D01*
X86568696Y-78763763D01*
X86676276Y-78889724D01*
X86723750Y-78930270D01*
X86872985Y-79057729D01*
X86872990Y-79057732D01*
X87093558Y-79192897D01*
X87178057Y-79227897D01*
X87332560Y-79291895D01*
X87584105Y-79352285D01*
X87842000Y-79372582D01*
X88099895Y-79352285D01*
X88351440Y-79291895D01*
X88590441Y-79192897D01*
X88811012Y-79057731D01*
X89007724Y-78889724D01*
X89175731Y-78693012D01*
X89310897Y-78472441D01*
X89340470Y-78401045D01*
X89384310Y-78346644D01*
X89450605Y-78324579D01*
X89455030Y-78324500D01*
X105128970Y-78324500D01*
X105196009Y-78344185D01*
X105241764Y-78396989D01*
X105243515Y-78401010D01*
X105270588Y-78466369D01*
X105273105Y-78472446D01*
X105408267Y-78693009D01*
X105408270Y-78693014D01*
X105468696Y-78763763D01*
X105576276Y-78889724D01*
X105623750Y-78930270D01*
X105772985Y-79057729D01*
X105772990Y-79057732D01*
X105993558Y-79192897D01*
X106078057Y-79227897D01*
X106232560Y-79291895D01*
X106484105Y-79352285D01*
X106742000Y-79372582D01*
X106999895Y-79352285D01*
X107251440Y-79291895D01*
X107490441Y-79192897D01*
X107711012Y-79057731D01*
X107907724Y-78889724D01*
X108075731Y-78693012D01*
X108210897Y-78472441D01*
X108309895Y-78233440D01*
X108370285Y-77981895D01*
X108390582Y-77724000D01*
X108370285Y-77466105D01*
X108309895Y-77214560D01*
X108210897Y-76975559D01*
X108210897Y-76975558D01*
X108075732Y-76754990D01*
X108075729Y-76754985D01*
X108015265Y-76684191D01*
X107907724Y-76558276D01*
X107800181Y-76466426D01*
X107711014Y-76390270D01*
X107711009Y-76390267D01*
X107490441Y-76255102D01*
X107251442Y-76156106D01*
X107251444Y-76156106D01*
X107251440Y-76156105D01*
X107251436Y-76156104D01*
X107251430Y-76156102D01*
X106999898Y-76095715D01*
X106742000Y-76075418D01*
X106484101Y-76095715D01*
X106232569Y-76156102D01*
X106232557Y-76156106D01*
X105993558Y-76255102D01*
X105772990Y-76390267D01*
X105772985Y-76390270D01*
X105576276Y-76558276D01*
X105408270Y-76754985D01*
X105408267Y-76754990D01*
X105273105Y-76975553D01*
X105273103Y-76975559D01*
X105243529Y-77046954D01*
X105199690Y-77101356D01*
X105133395Y-77123421D01*
X105128970Y-77123500D01*
X89455030Y-77123500D01*
X89387991Y-77103815D01*
X89342236Y-77051011D01*
X89340484Y-77046989D01*
X89310897Y-76975559D01*
X89310895Y-76975556D01*
X89310894Y-76975553D01*
X89175732Y-76754990D01*
X89175729Y-76754985D01*
X89115265Y-76684191D01*
X89007724Y-76558276D01*
X88900181Y-76466426D01*
X88811014Y-76390270D01*
X88811009Y-76390267D01*
X88590441Y-76255102D01*
X88351442Y-76156106D01*
X88351444Y-76156106D01*
X88351440Y-76156105D01*
X88351436Y-76156104D01*
X88351430Y-76156102D01*
X88099898Y-76095715D01*
X87842000Y-76075418D01*
X87584101Y-76095715D01*
X87332569Y-76156102D01*
X87332557Y-76156106D01*
X87093558Y-76255102D01*
X86872990Y-76390267D01*
X86872985Y-76390270D01*
X86676276Y-76558276D01*
X86508270Y-76754985D01*
X86508267Y-76754990D01*
X86373105Y-76975553D01*
X86373103Y-76975559D01*
X86343529Y-77046954D01*
X86299690Y-77101356D01*
X86233395Y-77123421D01*
X86228970Y-77123500D01*
X70555030Y-77123500D01*
X70487991Y-77103815D01*
X70442236Y-77051011D01*
X70440484Y-77046989D01*
X70410897Y-76975559D01*
X70410895Y-76975556D01*
X70410894Y-76975553D01*
X70275732Y-76754990D01*
X70275729Y-76754985D01*
X70215265Y-76684191D01*
X70107724Y-76558276D01*
X70000181Y-76466426D01*
X69911014Y-76390270D01*
X69911009Y-76390267D01*
X69690441Y-76255102D01*
X69451442Y-76156106D01*
X69451444Y-76156106D01*
X69451440Y-76156105D01*
X69451436Y-76156104D01*
X69451430Y-76156102D01*
X69199898Y-76095715D01*
X68942000Y-76075418D01*
X68684101Y-76095715D01*
X68432569Y-76156102D01*
X68432557Y-76156106D01*
X68193558Y-76255102D01*
X67972990Y-76390267D01*
X67972985Y-76390270D01*
X67776276Y-76558276D01*
X67608270Y-76754985D01*
X67608267Y-76754990D01*
X67473102Y-76975558D01*
X67374106Y-77214557D01*
X67374102Y-77214569D01*
X67313715Y-77466101D01*
X67293418Y-77724000D01*
X63192500Y-77724000D01*
X63192500Y-74708097D01*
X63212185Y-74641058D01*
X63228819Y-74620416D01*
X63712416Y-74136819D01*
X63773739Y-74103334D01*
X63800097Y-74100500D01*
X73413331Y-74100500D01*
X73413347Y-74100501D01*
X73420943Y-74100501D01*
X73579054Y-74100501D01*
X73579057Y-74100501D01*
X73731785Y-74059577D01*
X73781904Y-74030639D01*
X73868716Y-73980520D01*
X73980520Y-73868716D01*
X73980520Y-73868714D01*
X73990728Y-73858507D01*
X73990730Y-73858504D01*
X76368713Y-71480521D01*
X76368716Y-71480520D01*
X76480520Y-71368716D01*
X76530639Y-71281904D01*
X76559577Y-71231785D01*
X76600501Y-71079057D01*
X76600501Y-70920943D01*
X76600501Y-70913348D01*
X76600500Y-70913330D01*
X76600500Y-49249097D01*
X76620185Y-49182058D01*
X76672989Y-49136303D01*
X76742147Y-49126359D01*
X76805703Y-49155384D01*
X76812181Y-49161416D01*
X76863181Y-49212416D01*
X76896666Y-49273739D01*
X76899500Y-49300097D01*
X76899500Y-60913330D01*
X76899499Y-60913348D01*
X76899499Y-61079054D01*
X76899498Y-61079054D01*
X76899499Y-61079057D01*
X76940423Y-61231785D01*
X76968193Y-61279884D01*
X77019477Y-61368712D01*
X77019481Y-61368717D01*
X77138349Y-61487585D01*
X77138355Y-61487590D01*
X77483139Y-61832374D01*
X77483149Y-61832385D01*
X77487479Y-61836715D01*
X77487480Y-61836716D01*
X77599284Y-61948520D01*
X77672410Y-61990739D01*
X77736215Y-62027577D01*
X77888943Y-62068501D01*
X77888946Y-62068501D01*
X78054653Y-62068501D01*
X78054669Y-62068500D01*
X78571509Y-62068500D01*
X78638548Y-62088185D01*
X78684303Y-62140989D01*
X78695509Y-62192500D01*
X78695509Y-67661751D01*
X91999999Y-67808198D01*
X91999999Y-67808197D01*
X92000000Y-67808198D01*
X91999998Y-61947107D01*
X91999997Y-61947106D01*
X86053026Y-61881646D01*
X86022298Y-61877429D01*
X85740798Y-61802001D01*
X85730604Y-61800659D01*
X97695509Y-61800659D01*
X97695509Y-67661751D01*
X110999999Y-67808198D01*
X110999999Y-67808197D01*
X111000000Y-67808198D01*
X110999998Y-61947107D01*
X110999997Y-61947106D01*
X104948741Y-61880498D01*
X104918013Y-61876281D01*
X104640798Y-61802001D01*
X104349116Y-61763601D01*
X104349111Y-61763600D01*
X104349106Y-61763600D01*
X104054894Y-61763600D01*
X104054888Y-61763600D01*
X104054883Y-61763601D01*
X103763210Y-61802000D01*
X103763203Y-61802001D01*
X103763200Y-61802002D01*
X103723472Y-61812647D01*
X103545023Y-61860461D01*
X103511565Y-61864678D01*
X102143324Y-61849617D01*
X102076505Y-61829196D01*
X102031334Y-61775892D01*
X102021071Y-61715899D01*
X102040582Y-61468000D01*
X102020285Y-61210105D01*
X101959895Y-60958560D01*
X101860897Y-60719559D01*
X101860897Y-60719558D01*
X101725732Y-60498990D01*
X101725729Y-60498985D01*
X101665265Y-60428191D01*
X101557724Y-60302276D01*
X101434091Y-60196684D01*
X101361014Y-60134270D01*
X101361009Y-60134267D01*
X101140441Y-59999102D01*
X100901442Y-59900106D01*
X100901444Y-59900106D01*
X100901440Y-59900105D01*
X100901436Y-59900104D01*
X100901430Y-59900102D01*
X100649898Y-59839715D01*
X100392000Y-59819418D01*
X100134101Y-59839715D01*
X99882569Y-59900102D01*
X99882557Y-59900106D01*
X99643558Y-59999102D01*
X99422990Y-60134267D01*
X99422985Y-60134270D01*
X99226276Y-60302276D01*
X99058270Y-60498985D01*
X99058267Y-60498990D01*
X98923102Y-60719558D01*
X98824106Y-60958557D01*
X98824102Y-60958569D01*
X98763715Y-61210101D01*
X98751232Y-61368712D01*
X98743418Y-61468000D01*
X98755571Y-61622421D01*
X98759889Y-61677278D01*
X98745525Y-61745655D01*
X98696474Y-61795412D01*
X98634906Y-61810999D01*
X97695509Y-61800659D01*
X85730604Y-61800659D01*
X85449116Y-61763601D01*
X85449111Y-61763600D01*
X85449106Y-61763600D01*
X85154894Y-61763600D01*
X85154888Y-61763600D01*
X85154883Y-61763601D01*
X84863210Y-61802000D01*
X84863203Y-61802001D01*
X84863200Y-61802002D01*
X84823472Y-61812647D01*
X84641078Y-61861518D01*
X84607620Y-61865735D01*
X83243237Y-61850717D01*
X83176418Y-61830296D01*
X83131248Y-61776992D01*
X83120984Y-61717000D01*
X83140582Y-61468000D01*
X83120285Y-61210105D01*
X83059895Y-60958560D01*
X82960897Y-60719559D01*
X82960897Y-60719558D01*
X82825732Y-60498990D01*
X82825729Y-60498985D01*
X82765265Y-60428191D01*
X82657724Y-60302276D01*
X82534091Y-60196684D01*
X82461014Y-60134270D01*
X82461009Y-60134267D01*
X82240441Y-59999102D01*
X82001442Y-59900106D01*
X82001444Y-59900106D01*
X82001440Y-59900105D01*
X82001436Y-59900104D01*
X82001430Y-59900102D01*
X81749898Y-59839715D01*
X81492000Y-59819418D01*
X81234101Y-59839715D01*
X80982569Y-59900102D01*
X80982557Y-59900106D01*
X80743558Y-59999102D01*
X80522990Y-60134267D01*
X80522985Y-60134270D01*
X80326276Y-60302276D01*
X80158270Y-60498985D01*
X80158267Y-60498990D01*
X80023105Y-60719553D01*
X80023103Y-60719559D01*
X79993529Y-60790954D01*
X79949690Y-60845356D01*
X79883395Y-60867421D01*
X79878970Y-60867500D01*
X78268097Y-60867500D01*
X78201058Y-60847815D01*
X78180416Y-60831181D01*
X78136819Y-60787584D01*
X78103334Y-60726261D01*
X78100500Y-60699903D01*
X78100500Y-58928000D01*
X86193418Y-58928000D01*
X86213715Y-59185898D01*
X86274102Y-59437430D01*
X86274106Y-59437442D01*
X86373102Y-59676441D01*
X86508267Y-59897009D01*
X86508270Y-59897014D01*
X86568696Y-59967763D01*
X86676276Y-60093724D01*
X86723750Y-60134270D01*
X86872985Y-60261729D01*
X86872990Y-60261732D01*
X87093558Y-60396897D01*
X87178057Y-60431897D01*
X87332560Y-60495895D01*
X87584105Y-60556285D01*
X87842000Y-60576582D01*
X88099895Y-60556285D01*
X88351440Y-60495895D01*
X88590441Y-60396897D01*
X88811012Y-60261731D01*
X89007724Y-60093724D01*
X89175731Y-59897012D01*
X89310897Y-59676441D01*
X89340470Y-59605045D01*
X89384310Y-59550644D01*
X89450605Y-59528579D01*
X89455030Y-59528500D01*
X105128970Y-59528500D01*
X105196009Y-59548185D01*
X105241764Y-59600989D01*
X105243515Y-59605010D01*
X105270588Y-59670369D01*
X105273105Y-59676446D01*
X105408267Y-59897009D01*
X105408270Y-59897014D01*
X105468696Y-59967763D01*
X105576276Y-60093724D01*
X105623750Y-60134270D01*
X105772985Y-60261729D01*
X105772990Y-60261732D01*
X105993558Y-60396897D01*
X106078057Y-60431897D01*
X106232560Y-60495895D01*
X106484105Y-60556285D01*
X106742000Y-60576582D01*
X106999895Y-60556285D01*
X107251440Y-60495895D01*
X107490441Y-60396897D01*
X107711012Y-60261731D01*
X107907724Y-60093724D01*
X108075731Y-59897012D01*
X108210897Y-59676441D01*
X108309895Y-59437440D01*
X108370285Y-59185895D01*
X108390582Y-58928000D01*
X108370285Y-58670105D01*
X108309895Y-58418560D01*
X108210897Y-58179559D01*
X108210897Y-58179558D01*
X108075732Y-57958990D01*
X108075729Y-57958985D01*
X107983654Y-57851179D01*
X107907724Y-57762276D01*
X107784151Y-57656735D01*
X107711014Y-57594270D01*
X107711009Y-57594267D01*
X107490441Y-57459102D01*
X107251442Y-57360106D01*
X107251444Y-57360106D01*
X107251440Y-57360105D01*
X107251436Y-57360104D01*
X107251430Y-57360102D01*
X106999898Y-57299715D01*
X106742000Y-57279418D01*
X106484101Y-57299715D01*
X106232569Y-57360102D01*
X106232557Y-57360106D01*
X105993558Y-57459102D01*
X105772990Y-57594267D01*
X105772985Y-57594270D01*
X105576276Y-57762276D01*
X105408270Y-57958985D01*
X105408267Y-57958990D01*
X105273105Y-58179553D01*
X105273103Y-58179559D01*
X105243529Y-58250954D01*
X105199690Y-58305356D01*
X105133395Y-58327421D01*
X105128970Y-58327500D01*
X89455030Y-58327500D01*
X89387991Y-58307815D01*
X89342236Y-58255011D01*
X89340484Y-58250989D01*
X89310897Y-58179559D01*
X89310895Y-58179556D01*
X89310894Y-58179553D01*
X89175732Y-57958990D01*
X89175729Y-57958985D01*
X89083654Y-57851179D01*
X89007724Y-57762276D01*
X88884151Y-57656735D01*
X88811014Y-57594270D01*
X88811009Y-57594267D01*
X88590441Y-57459102D01*
X88351442Y-57360106D01*
X88351444Y-57360106D01*
X88351440Y-57360105D01*
X88351436Y-57360104D01*
X88351430Y-57360102D01*
X88099898Y-57299715D01*
X87842000Y-57279418D01*
X87584101Y-57299715D01*
X87332569Y-57360102D01*
X87332557Y-57360106D01*
X87093558Y-57459102D01*
X86872990Y-57594267D01*
X86872985Y-57594270D01*
X86676276Y-57762276D01*
X86508270Y-57958985D01*
X86508267Y-57958990D01*
X86373102Y-58179558D01*
X86274106Y-58418557D01*
X86274102Y-58418569D01*
X86213715Y-58670101D01*
X86193418Y-58928000D01*
X78100500Y-58928000D01*
X78100500Y-51851290D01*
X78120185Y-51784251D01*
X78172989Y-51738496D01*
X78242147Y-51728552D01*
X78305703Y-51757577D01*
X78312167Y-51763595D01*
X83582917Y-57034345D01*
X85719794Y-54718669D01*
X85779721Y-54682752D01*
X85849557Y-54684936D01*
X85898601Y-54715082D01*
X86547893Y-55364374D01*
X86547903Y-55364385D01*
X86552233Y-55368715D01*
X86552234Y-55368716D01*
X86664038Y-55480520D01*
X86731512Y-55519475D01*
X86750849Y-55530639D01*
X86750851Y-55530641D01*
X86800967Y-55559576D01*
X86800969Y-55559577D01*
X86941719Y-55597290D01*
X86991740Y-55626170D01*
X86992295Y-55625475D01*
X86996909Y-55629155D01*
X86997306Y-55629384D01*
X86997738Y-55629816D01*
X87150478Y-55725789D01*
X87320745Y-55785368D01*
X87320750Y-55785369D01*
X87499996Y-55805565D01*
X87500000Y-55805565D01*
X87500004Y-55805565D01*
X87679249Y-55785369D01*
X87679252Y-55785368D01*
X87679255Y-55785368D01*
X87849522Y-55725789D01*
X88002262Y-55629816D01*
X88129816Y-55502262D01*
X88225789Y-55349522D01*
X88285368Y-55179255D01*
X88305565Y-55000000D01*
X88285368Y-54820745D01*
X88225789Y-54650478D01*
X88209032Y-54623810D01*
X88129815Y-54497737D01*
X88002262Y-54370184D01*
X87849523Y-54274211D01*
X87679254Y-54214631D01*
X87679249Y-54214630D01*
X87500004Y-54194435D01*
X87499996Y-54194435D01*
X87320747Y-54214631D01*
X87228257Y-54246994D01*
X87158478Y-54250555D01*
X87099622Y-54217633D01*
X86706694Y-53824705D01*
X86673209Y-53763382D01*
X86678193Y-53693690D01*
X86703244Y-53652933D01*
X89558631Y-50558631D01*
X89558630Y-50558630D01*
X89558631Y-50558630D01*
X88040274Y-49040274D01*
X88007298Y-48981190D01*
X87982833Y-48877965D01*
X87982832Y-48877963D01*
X87904095Y-48721182D01*
X87904091Y-48721177D01*
X87904090Y-48721175D01*
X87838847Y-48641085D01*
X87838846Y-48641084D01*
X87838838Y-48641074D01*
X87273140Y-48075378D01*
X87193032Y-48010119D01*
X87036251Y-47931382D01*
X87036250Y-47931381D01*
X87036247Y-47931380D01*
X86933021Y-47906914D01*
X86873938Y-47873938D01*
X86626060Y-47626060D01*
X86593084Y-47566976D01*
X86568619Y-47463751D01*
X86568618Y-47463749D01*
X86543754Y-47414241D01*
X86531259Y-47345500D01*
X86557912Y-47280913D01*
X86615252Y-47240989D01*
X86685073Y-47238403D01*
X86695521Y-47241551D01*
X86820737Y-47285366D01*
X86820743Y-47285367D01*
X86820745Y-47285368D01*
X86820746Y-47285368D01*
X86820750Y-47285369D01*
X86999996Y-47305565D01*
X87000000Y-47305565D01*
X87000004Y-47305565D01*
X87179249Y-47285369D01*
X87179252Y-47285368D01*
X87179255Y-47285368D01*
X87349522Y-47225789D01*
X87502262Y-47129816D01*
X87629816Y-47002262D01*
X87637308Y-46990338D01*
X87689640Y-46944047D01*
X87758693Y-46933397D01*
X87822542Y-46961770D01*
X87829983Y-46968628D01*
X88459352Y-47597997D01*
X88459373Y-47598020D01*
X88575493Y-47714140D01*
X88575495Y-47714141D01*
X88575497Y-47714143D01*
X88576895Y-47714950D01*
X88602577Y-47734655D01*
X88603806Y-47735884D01*
X88603807Y-47735885D01*
X88731361Y-47863439D01*
X88884101Y-47959412D01*
X88944430Y-47980522D01*
X89054368Y-48018991D01*
X89054373Y-48018992D01*
X89233619Y-48039188D01*
X89233623Y-48039188D01*
X89233627Y-48039188D01*
X89412872Y-48018992D01*
X89412875Y-48018991D01*
X89412878Y-48018991D01*
X89583145Y-47959412D01*
X89735885Y-47863439D01*
X89863439Y-47735885D01*
X89959412Y-47583145D01*
X90018991Y-47412878D01*
X90018992Y-47412872D01*
X90039188Y-47233626D01*
X90039188Y-47233619D01*
X90018992Y-47054373D01*
X90018991Y-47054368D01*
X89999965Y-46999996D01*
X92194435Y-46999996D01*
X92194435Y-47000003D01*
X92214630Y-47179249D01*
X92214631Y-47179254D01*
X92274211Y-47349523D01*
X92345986Y-47463751D01*
X92370184Y-47502262D01*
X92497738Y-47629816D01*
X92588080Y-47686582D01*
X92631943Y-47714143D01*
X92650478Y-47725789D01*
X92820745Y-47785368D01*
X92820750Y-47785369D01*
X92999996Y-47805565D01*
X93000000Y-47805565D01*
X93000004Y-47805565D01*
X93179249Y-47785369D01*
X93179252Y-47785368D01*
X93179255Y-47785368D01*
X93349522Y-47725789D01*
X93502262Y-47629816D01*
X93629816Y-47502262D01*
X93725789Y-47349522D01*
X93785368Y-47179255D01*
X93795161Y-47092329D01*
X93822226Y-47027918D01*
X93830690Y-47018543D01*
X94962417Y-45886819D01*
X95023740Y-45853334D01*
X95050098Y-45850500D01*
X95127649Y-45850500D01*
X95194688Y-45870185D01*
X95240443Y-45922989D01*
X95250939Y-45961248D01*
X95255908Y-46007483D01*
X95306202Y-46142328D01*
X95306206Y-46142335D01*
X95392452Y-46257544D01*
X95392455Y-46257547D01*
X95507664Y-46343793D01*
X95507671Y-46343797D01*
X95547095Y-46358501D01*
X95642517Y-46394091D01*
X95702127Y-46400500D01*
X95800499Y-46400499D01*
X95867537Y-46420183D01*
X95913293Y-46472986D01*
X95924499Y-46524499D01*
X95924499Y-46604054D01*
X95924498Y-46604054D01*
X95924499Y-46604057D01*
X95965423Y-46756785D01*
X95980847Y-46783500D01*
X96044477Y-46893712D01*
X96044481Y-46893717D01*
X96163349Y-47012585D01*
X96163355Y-47012590D01*
X97015139Y-47864374D01*
X97015149Y-47864385D01*
X97019479Y-47868715D01*
X97019480Y-47868716D01*
X97131284Y-47980520D01*
X97207767Y-48024677D01*
X97268215Y-48059577D01*
X97420942Y-48100500D01*
X97420943Y-48100500D01*
X102913331Y-48100500D01*
X102913347Y-48100501D01*
X102920943Y-48100501D01*
X103079054Y-48100501D01*
X103079057Y-48100501D01*
X103231785Y-48059577D01*
X103292233Y-48024677D01*
X103368716Y-47980520D01*
X103480520Y-47868716D01*
X103480520Y-47868714D01*
X103490724Y-47858511D01*
X103490728Y-47858506D01*
X104833505Y-46515729D01*
X104833510Y-46515725D01*
X104843714Y-46505520D01*
X104843716Y-46505520D01*
X104912417Y-46436817D01*
X104973740Y-46403333D01*
X105000099Y-46400499D01*
X105297871Y-46400499D01*
X105297872Y-46400499D01*
X105357483Y-46394091D01*
X105492331Y-46343796D01*
X105607546Y-46257546D01*
X105693796Y-46142331D01*
X105744091Y-46007483D01*
X105750500Y-45947873D01*
X105750499Y-44552128D01*
X105744091Y-44492517D01*
X105739616Y-44480520D01*
X105693797Y-44357671D01*
X105693793Y-44357664D01*
X105607547Y-44242455D01*
X105607544Y-44242452D01*
X105492335Y-44156206D01*
X105492328Y-44156202D01*
X105357482Y-44105908D01*
X105357483Y-44105908D01*
X105297883Y-44099501D01*
X105297881Y-44099500D01*
X105297873Y-44099500D01*
X105297864Y-44099500D01*
X103652129Y-44099500D01*
X103652123Y-44099501D01*
X103592516Y-44105908D01*
X103457671Y-44156202D01*
X103457664Y-44156206D01*
X103342455Y-44242452D01*
X103342452Y-44242455D01*
X103256206Y-44357664D01*
X103256202Y-44357671D01*
X103205908Y-44492517D01*
X103199501Y-44552116D01*
X103199501Y-44552123D01*
X103199500Y-44552135D01*
X103199500Y-45947870D01*
X103199501Y-45947876D01*
X103205908Y-46007483D01*
X103256202Y-46142328D01*
X103256203Y-46142330D01*
X103299796Y-46200562D01*
X103324213Y-46266026D01*
X103309362Y-46334299D01*
X103288210Y-46362554D01*
X102787584Y-46863181D01*
X102726261Y-46896666D01*
X102699903Y-46899500D01*
X97800097Y-46899500D01*
X97733058Y-46879815D01*
X97712416Y-46863181D01*
X97424355Y-46575120D01*
X97390870Y-46513797D01*
X97395854Y-46444105D01*
X97437726Y-46388172D01*
X97468704Y-46371257D01*
X97542326Y-46343798D01*
X97542326Y-46343797D01*
X97542331Y-46343796D01*
X97657546Y-46257546D01*
X97743796Y-46142331D01*
X97794091Y-46007483D01*
X97800500Y-45947873D01*
X97800499Y-44552128D01*
X97794091Y-44492517D01*
X97789616Y-44480520D01*
X97743797Y-44357671D01*
X97743793Y-44357664D01*
X97657547Y-44242455D01*
X97657544Y-44242452D01*
X97542335Y-44156206D01*
X97542328Y-44156202D01*
X97407482Y-44105908D01*
X97407483Y-44105908D01*
X97347883Y-44099501D01*
X97347881Y-44099500D01*
X97347873Y-44099500D01*
X97347864Y-44099500D01*
X95702129Y-44099500D01*
X95702123Y-44099501D01*
X95642516Y-44105908D01*
X95507671Y-44156202D01*
X95507664Y-44156206D01*
X95392455Y-44242452D01*
X95392452Y-44242455D01*
X95306206Y-44357664D01*
X95306202Y-44357671D01*
X95255910Y-44492513D01*
X95255909Y-44492517D01*
X95250937Y-44538757D01*
X95224201Y-44603306D01*
X95166809Y-44643154D01*
X95127649Y-44649500D01*
X94836670Y-44649500D01*
X94836654Y-44649499D01*
X94829058Y-44649499D01*
X94670943Y-44649499D01*
X94594579Y-44669961D01*
X94518214Y-44690423D01*
X94518209Y-44690426D01*
X94381290Y-44769475D01*
X94381282Y-44769481D01*
X92981465Y-46169298D01*
X92920142Y-46202783D01*
X92907668Y-46204837D01*
X92820750Y-46214630D01*
X92650478Y-46274210D01*
X92497737Y-46370184D01*
X92370184Y-46497737D01*
X92274211Y-46650476D01*
X92214631Y-46820745D01*
X92214630Y-46820750D01*
X92194435Y-46999996D01*
X89999965Y-46999996D01*
X89988989Y-46968628D01*
X89959412Y-46884101D01*
X89863439Y-46731361D01*
X89735885Y-46603807D01*
X89689243Y-46574500D01*
X89583144Y-46507833D01*
X89579082Y-46506412D01*
X89522306Y-46465690D01*
X89496558Y-46400738D01*
X89510014Y-46332176D01*
X89544546Y-46290996D01*
X89623451Y-46230451D01*
X89715698Y-46110233D01*
X89773687Y-45970236D01*
X89788500Y-45857720D01*
X89788500Y-44724500D01*
X89808185Y-44657461D01*
X89860989Y-44611706D01*
X89912500Y-44600500D01*
X93413331Y-44600500D01*
X93413347Y-44600501D01*
X93420943Y-44600501D01*
X93579054Y-44600501D01*
X93579057Y-44600501D01*
X93731785Y-44559577D01*
X93809860Y-44514500D01*
X93868716Y-44480520D01*
X93980520Y-44368716D01*
X93980521Y-44368714D01*
X94480520Y-43868716D01*
X94559577Y-43731784D01*
X94600501Y-43579057D01*
X94600501Y-43420942D01*
X94600501Y-43413347D01*
X94600500Y-43413329D01*
X94600500Y-42300096D01*
X94620185Y-42233057D01*
X94636815Y-42212419D01*
X95162503Y-41686730D01*
X95223826Y-41653246D01*
X95293518Y-41658230D01*
X95349450Y-41700101D01*
X95392452Y-41757544D01*
X95392455Y-41757547D01*
X95507664Y-41843793D01*
X95507671Y-41843797D01*
X95642517Y-41894091D01*
X95642516Y-41894091D01*
X95649444Y-41894835D01*
X95702127Y-41900500D01*
X97347872Y-41900499D01*
X97407483Y-41894091D01*
X97542331Y-41843796D01*
X97657546Y-41757546D01*
X97743796Y-41642331D01*
X97794091Y-41507483D01*
X97800500Y-41447873D01*
X97800499Y-40052135D01*
X103199500Y-40052135D01*
X103199500Y-41447870D01*
X103199501Y-41447876D01*
X103205908Y-41507483D01*
X103256202Y-41642328D01*
X103256206Y-41642335D01*
X103342452Y-41757544D01*
X103342455Y-41757547D01*
X103457664Y-41843793D01*
X103457671Y-41843797D01*
X103592517Y-41894091D01*
X103592516Y-41894091D01*
X103599444Y-41894835D01*
X103652127Y-41900500D01*
X105297872Y-41900499D01*
X105357483Y-41894091D01*
X105492331Y-41843796D01*
X105607546Y-41757546D01*
X105693796Y-41642331D01*
X105744091Y-41507483D01*
X105750500Y-41447873D01*
X105750499Y-40052128D01*
X105745224Y-40003055D01*
X105744091Y-39992516D01*
X105693797Y-39857671D01*
X105693793Y-39857664D01*
X105607547Y-39742455D01*
X105607544Y-39742452D01*
X105492335Y-39656206D01*
X105492328Y-39656202D01*
X105357482Y-39605908D01*
X105357483Y-39605908D01*
X105297883Y-39599501D01*
X105297881Y-39599500D01*
X105297873Y-39599500D01*
X105297864Y-39599500D01*
X103652129Y-39599500D01*
X103652123Y-39599501D01*
X103592516Y-39605908D01*
X103457671Y-39656202D01*
X103457664Y-39656206D01*
X103342455Y-39742452D01*
X103342452Y-39742455D01*
X103256206Y-39857664D01*
X103256202Y-39857671D01*
X103205908Y-39992517D01*
X103199514Y-40051998D01*
X103199501Y-40052123D01*
X103199500Y-40052135D01*
X97800499Y-40052135D01*
X97800499Y-40052128D01*
X97795224Y-40003055D01*
X97794091Y-39992516D01*
X97743797Y-39857671D01*
X97743793Y-39857664D01*
X97657547Y-39742455D01*
X97657544Y-39742452D01*
X97542335Y-39656206D01*
X97542328Y-39656202D01*
X97407482Y-39605908D01*
X97407483Y-39605908D01*
X97347883Y-39599501D01*
X97347881Y-39599500D01*
X97347873Y-39599500D01*
X97347865Y-39599500D01*
X97249500Y-39599500D01*
X97182461Y-39579815D01*
X97136706Y-39527011D01*
X97125500Y-39475500D01*
X97125500Y-38725217D01*
X97145185Y-38658178D01*
X97184405Y-38619678D01*
X97268651Y-38567715D01*
X97268654Y-38567713D01*
X97268653Y-38567713D01*
X97268656Y-38567712D01*
X97392712Y-38443656D01*
X97394461Y-38440819D01*
X97396169Y-38439283D01*
X97397193Y-38437989D01*
X97397414Y-38438163D01*
X97446406Y-38394096D01*
X97515368Y-38382872D01*
X97579451Y-38410713D01*
X97605537Y-38440817D01*
X97607288Y-38443656D01*
X97731344Y-38567712D01*
X97880666Y-38659814D01*
X98047203Y-38714999D01*
X98149991Y-38725500D01*
X98925008Y-38725499D01*
X98925016Y-38725498D01*
X98925019Y-38725498D01*
X98981302Y-38719748D01*
X99027797Y-38714999D01*
X99194334Y-38659814D01*
X99343656Y-38567712D01*
X99467712Y-38443656D01*
X99559814Y-38294334D01*
X99614999Y-38127797D01*
X99625500Y-38025009D01*
X99625499Y-37774094D01*
X99645183Y-37707057D01*
X99697987Y-37661302D01*
X99767146Y-37651358D01*
X99830701Y-37680383D01*
G37*
G04 #@! TD.AperFunction*
M02*
