ISO-10303-21;
HEADER;
/* Generated by software containing ST-Developer
 * from STEP Tools, Inc. (www.steptools.com) 
 */

FILE_DESCRIPTION(
/* description */ (''),
/* implementation_level */ '2;1');

FILE_NAME(
/* name */ 'top.step',
/* time_stamp */ '2025-07-21T06:43:55-05:00',
/* author */ (''),
/* organization */ (''),
/* preprocessor_version */ 'ST-DEVELOPER v20.1',
/* originating_system */ 'Autodesk Translation Framework v14.10.0.0',
/* authorisation */ '');

FILE_SCHEMA (('AUTOMOTIVE_DESIGN { 1 0 10303 214 3 1 1 }'));
ENDSEC;

DATA;
#10=MECHANICAL_DESIGN_GEOMETRIC_PRESENTATION_REPRESENTATION('',(#13),#1871);
#11=SHAPE_REPRESENTATION_RELATIONSHIP('SRR','None',#1878,#12);
#12=ADVANCED_BREP_SHAPE_REPRESENTATION('',(#14),#1870);
#13=STYLED_ITEM('',(#1887),#14);
#14=MANIFOLD_SOLID_BREP('Body1',#1034);
#15=TOROIDAL_SURFACE('',#1098,4.15,2.);
#16=TOROIDAL_SURFACE('',#1104,4.15,2.);
#17=TOROIDAL_SURFACE('',#1114,4.15,2.);
#18=TOROIDAL_SURFACE('',#1119,4.15,2.);
#19=LINE('',#1492,#99);
#20=LINE('',#1495,#100);
#21=LINE('',#1506,#101);
#22=LINE('',#1507,#102);
#23=LINE('',#1517,#103);
#24=LINE('',#1518,#104);
#25=LINE('',#1533,#105);
#26=LINE('',#1544,#106);
#27=LINE('',#1545,#107);
#28=LINE('',#1558,#108);
#29=LINE('',#1559,#109);
#30=LINE('',#1570,#110);
#31=LINE('',#1587,#111);
#32=LINE('',#1596,#112);
#33=LINE('',#1607,#113);
#34=LINE('',#1622,#114);
#35=LINE('',#1623,#115);
#36=LINE('',#1632,#116);
#37=LINE('',#1636,#117);
#38=LINE('',#1638,#118);
#39=LINE('',#1640,#119);
#40=LINE('',#1641,#120);
#41=LINE('',#1644,#121);
#42=LINE('',#1646,#122);
#43=LINE('',#1647,#123);
#44=LINE('',#1653,#124);
#45=LINE('',#1656,#125);
#46=LINE('',#1658,#126);
#47=LINE('',#1659,#127);
#48=LINE('',#1665,#128);
#49=LINE('',#1668,#129);
#50=LINE('',#1670,#130);
#51=LINE('',#1671,#131);
#52=LINE('',#1690,#132);
#53=LINE('',#1701,#133);
#54=LINE('',#1702,#134);
#55=LINE('',#1713,#135);
#56=LINE('',#1716,#136);
#57=LINE('',#1718,#137);
#58=LINE('',#1719,#138);
#59=LINE('',#1725,#139);
#60=LINE('',#1728,#140);
#61=LINE('',#1730,#141);
#62=LINE('',#1731,#142);
#63=LINE('',#1734,#143);
#64=LINE('',#1736,#144);
#65=LINE('',#1737,#145);
#66=LINE('',#1749,#146);
#67=LINE('',#1763,#147);
#68=LINE('',#1771,#148);
#69=LINE('',#1779,#149);
#70=LINE('',#1782,#150);
#71=LINE('',#1787,#151);
#72=LINE('',#1792,#152);
#73=LINE('',#1797,#153);
#74=LINE('',#1803,#154);
#75=LINE('',#1805,#155);
#76=LINE('',#1807,#156);
#77=LINE('',#1808,#157);
#78=LINE('',#1811,#158);
#79=LINE('',#1813,#159);
#80=LINE('',#1814,#160);
#81=LINE('',#1820,#161);
#82=LINE('',#1823,#162);
#83=LINE('',#1825,#163);
#84=LINE('',#1826,#164);
#85=LINE('',#1829,#165);
#86=LINE('',#1831,#166);
#87=LINE('',#1832,#167);
#88=LINE('',#1836,#168);
#89=LINE('',#1841,#169);
#90=LINE('',#1843,#170);
#91=LINE('',#1848,#171);
#92=LINE('',#1851,#172);
#93=LINE('',#1852,#173);
#94=LINE('',#1856,#174);
#95=LINE('',#1859,#175);
#96=LINE('',#1860,#176);
#97=LINE('',#1863,#177);
#98=LINE('',#1864,#178);
#99=VECTOR('',#1185,10.);
#100=VECTOR('',#1188,10.);
#101=VECTOR('',#1191,10.);
#102=VECTOR('',#1192,10.);
#103=VECTOR('',#1195,10.);
#104=VECTOR('',#1196,10.);
#105=VECTOR('',#1201,10.);
#106=VECTOR('',#1204,10.);
#107=VECTOR('',#1205,10.);
#108=VECTOR('',#1208,10.);
#109=VECTOR('',#1209,10.);
#110=VECTOR('',#1212,10.);
#111=VECTOR('',#1217,10.);
#112=VECTOR('',#1220,10.);
#113=VECTOR('',#1223,10.);
#114=VECTOR('',#1226,10.);
#115=VECTOR('',#1227,10.);
#116=VECTOR('',#1230,10.);
#117=VECTOR('',#1233,10.);
#118=VECTOR('',#1234,10.);
#119=VECTOR('',#1235,10.);
#120=VECTOR('',#1236,10.);
#121=VECTOR('',#1239,10.);
#122=VECTOR('',#1240,10.);
#123=VECTOR('',#1241,10.);
#124=VECTOR('',#1248,10.);
#125=VECTOR('',#1251,10.);
#126=VECTOR('',#1252,10.);
#127=VECTOR('',#1253,10.);
#128=VECTOR('',#1260,10.);
#129=VECTOR('',#1263,10.);
#130=VECTOR('',#1264,10.);
#131=VECTOR('',#1265,10.);
#132=VECTOR('',#1268,10.);
#133=VECTOR('',#1273,10.);
#134=VECTOR('',#1274,10.);
#135=VECTOR('',#1277,10.);
#136=VECTOR('',#1280,10.);
#137=VECTOR('',#1281,10.);
#138=VECTOR('',#1282,10.);
#139=VECTOR('',#1289,10.);
#140=VECTOR('',#1292,10.);
#141=VECTOR('',#1293,10.);
#142=VECTOR('',#1294,10.);
#143=VECTOR('',#1297,10.);
#144=VECTOR('',#1298,10.);
#145=VECTOR('',#1299,10.);
#146=VECTOR('',#1318,2.15);
#147=VECTOR('',#1339,2.15);
#148=VECTOR('',#1350,2.15);
#149=VECTOR('',#1361,2.15);
#150=VECTOR('',#1364,1.35);
#151=VECTOR('',#1371,1.35);
#152=VECTOR('',#1378,1.35);
#153=VECTOR('',#1385,1.35);
#154=VECTOR('',#1392,10.);
#155=VECTOR('',#1393,10.);
#156=VECTOR('',#1394,10.);
#157=VECTOR('',#1395,10.);
#158=VECTOR('',#1398,10.);
#159=VECTOR('',#1399,10.);
#160=VECTOR('',#1400,10.);
#161=VECTOR('',#1407,10.);
#162=VECTOR('',#1410,10.);
#163=VECTOR('',#1411,10.);
#164=VECTOR('',#1412,10.);
#165=VECTOR('',#1415,10.);
#166=VECTOR('',#1416,10.);
#167=VECTOR('',#1417,10.);
#168=VECTOR('',#1420,10.);
#169=VECTOR('',#1425,10.);
#170=VECTOR('',#1426,10.);
#171=VECTOR('',#1433,10.);
#172=VECTOR('',#1436,10.);
#173=VECTOR('',#1437,10.);
#174=VECTOR('',#1442,10.);
#175=VECTOR('',#1445,10.);
#176=VECTOR('',#1446,10.);
#177=VECTOR('',#1449,10.);
#178=VECTOR('',#1450,10.);
#179=B_SPLINE_CURVE_WITH_KNOTS('',3,(#1481,#1482,#1483,#1484,#1485,#1486,
#1487,#1488,#1489,#1490),.UNSPECIFIED.,.F.,.F.,(4,2,2,2,4),(0.,0.143865525169653,
0.287612860749063,0.42303663641472,0.558849881290385),.UNSPECIFIED.);
#180=B_SPLINE_CURVE_WITH_KNOTS('',3,(#1499,#1500,#1501,#1502,#1503,#1504),
 .UNSPECIFIED.,.F.,.F.,(4,2,4),(1.11986090775587,1.22897980767591,1.28036595672745),
 .UNSPECIFIED.);
#181=B_SPLINE_CURVE_WITH_KNOTS('',3,(#1510,#1511,#1512,#1513,#1514,#1515),
 .UNSPECIFIED.,.F.,.F.,(4,2,4),(1.1033284547817,1.11141651580287,1.12224478057988),
 .UNSPECIFIED.);
#182=B_SPLINE_CURVE_WITH_KNOTS('',3,(#1521,#1522,#1523,#1524,#1525,#1526,
#1527,#1528,#1529,#1530),.UNSPECIFIED.,.F.,.F.,(4,2,2,2,4),(0.,0.143855322556839,
0.287791209587019,0.422769492494345,0.558859924573932),.UNSPECIFIED.);
#183=B_SPLINE_CURVE_WITH_KNOTS('',3,(#1537,#1538,#1539,#1540,#1541,#1542),
 .UNSPECIFIED.,.F.,.F.,(4,2,4),(0.941179610175923,0.994945387756472,1.1103474166382),
 .UNSPECIFIED.);
#184=B_SPLINE_CURVE_WITH_KNOTS('',3,(#1549,#1550,#1551,#1552,#1553,#1554,
#1555,#1556),.UNSPECIFIED.,.F.,.F.,(4,2,2,4),(-1.13150875187126,-1.13055061129653,
-0.998293290584117,-0.939316050644423),.UNSPECIFIED.);
#185=B_SPLINE_CURVE_WITH_KNOTS('',3,(#1562,#1563,#1564,#1565,#1566,#1567,
#1568,#1569),.UNSPECIFIED.,.F.,.F.,(4,2,2,4),(0.939183440633308,0.998705141241956,
1.13196697565405,1.14141816106387),.UNSPECIFIED.);
#186=B_SPLINE_CURVE_WITH_KNOTS('',3,(#1573,#1574,#1575,#1576,#1577,#1578,
#1579,#1580,#1581,#1582,#1583,#1584),.UNSPECIFIED.,.F.,.F.,(4,2,2,2,2,4),
(0.,0.14285687590994,0.285664905022291,0.428492778279166,0.503100302751974,
0.577523811267713),.UNSPECIFIED.);
#187=B_SPLINE_CURVE_WITH_KNOTS('',3,(#1590,#1591,#1592,#1593,#1594,#1595),
 .UNSPECIFIED.,.F.,.F.,(4,2,4),(0.941148222853234,0.994888966888027,1.11442867987534),
 .UNSPECIFIED.);
#188=B_SPLINE_CURVE_WITH_KNOTS('',3,(#1599,#1600,#1601,#1602,#1603,#1604,
#1605,#1606),.UNSPECIFIED.,.F.,.F.,(4,2,2,4),(0.940380781927219,0.995975272371783,
1.12184896832676,1.13266778150512),.UNSPECIFIED.);
#189=B_SPLINE_CURVE_WITH_KNOTS('',3,(#1610,#1611,#1612,#1613,#1614,#1615),
 .UNSPECIFIED.,.F.,.F.,(4,2,4),(1.09465934671111,1.10908409229945,1.11149668027126),
 .UNSPECIFIED.);
#190=B_SPLINE_CURVE_WITH_KNOTS('',3,(#1617,#1618,#1619,#1620),
 .UNSPECIFIED.,.F.,.F.,(4,4),(1.11149668027126,1.11350616973178),
 .UNSPECIFIED.);
#191=B_SPLINE_CURVE_WITH_KNOTS('',3,(#1626,#1627,#1628,#1629,#1630,#1631),
 .UNSPECIFIED.,.F.,.F.,(4,2,4),(1.1111381436207,1.22485698574527,1.27531728535278),
 .UNSPECIFIED.);
#192=B_SPLINE_CURVE_WITH_KNOTS('',3,(#1674,#1675,#1676,#1677),
 .UNSPECIFIED.,.F.,.F.,(4,4),(0.,0.00700139130639549),.UNSPECIFIED.);
#193=B_SPLINE_CURVE_WITH_KNOTS('',3,(#1679,#1680,#1681,#1682,#1683,#1684,
#1685,#1686,#1687,#1688),.UNSPECIFIED.,.F.,.F.,(4,2,2,2,4),(0.00700139130639549,
0.142500473591491,0.284971002562939,0.427519838731877,0.558855793864743),
 .UNSPECIFIED.);
#194=B_SPLINE_CURVE_WITH_KNOTS('',3,(#1694,#1695,#1696,#1697,#1698,#1699),
 .UNSPECIFIED.,.F.,.F.,(4,2,4),(1.11957430293428,1.13699449742021,1.1383785911132),
 .UNSPECIFIED.);
#195=B_SPLINE_CURVE_WITH_KNOTS('',3,(#1705,#1706,#1707,#1708,#1709,#1710,
#1711,#1712),.UNSPECIFIED.,.F.,.F.,(4,2,2,4),(-1.13791062143794,-1.13699222752802,
-1.00023977439026,-0.938797571239404),.UNSPECIFIED.);
#196=CYLINDRICAL_SURFACE('',#1060,3.66567675807399);
#197=CYLINDRICAL_SURFACE('',#1064,3.66555842508378);
#198=CYLINDRICAL_SURFACE('',#1069,3.66773690133718);
#199=CYLINDRICAL_SURFACE('',#1077,4.66555842508378);
#200=CYLINDRICAL_SURFACE('',#1081,4.66773690133719);
#201=CYLINDRICAL_SURFACE('',#1085,3.66571254513882);
#202=CYLINDRICAL_SURFACE('',#1090,4.66571254513882);
#203=CYLINDRICAL_SURFACE('',#1095,4.66567675807399);
#204=CYLINDRICAL_SURFACE('',#1103,2.15);
#205=CYLINDRICAL_SURFACE('',#1113,2.15);
#206=CYLINDRICAL_SURFACE('',#1118,2.15);
#207=CYLINDRICAL_SURFACE('',#1123,2.15);
#208=CYLINDRICAL_SURFACE('',#1124,1.35);
#209=CYLINDRICAL_SURFACE('',#1126,1.35);
#210=CYLINDRICAL_SURFACE('',#1129,1.35);
#211=CYLINDRICAL_SURFACE('',#1132,1.35);
#212=CYLINDRICAL_SURFACE('',#1138,8.66567675807399);
#213=CYLINDRICAL_SURFACE('',#1147,8.66555842508378);
#214=CYLINDRICAL_SURFACE('',#1150,8.66773690133718);
#215=CYLINDRICAL_SURFACE('',#1154,8.66571254513882);
#216=FACE_BOUND('',#286,.T.);
#217=FACE_BOUND('',#288,.T.);
#218=FACE_BOUND('',#290,.T.);
#219=FACE_BOUND('',#292,.T.);
#220=FACE_BOUND('',#323,.T.);
#221=FACE_BOUND('',#324,.T.);
#222=FACE_BOUND('',#325,.T.);
#223=FACE_BOUND('',#326,.T.);
#224=FACE_BOUND('',#353,.T.);
#225=FACE_OUTER_BOUND('',#285,.T.);
#226=FACE_OUTER_BOUND('',#287,.T.);
#227=FACE_OUTER_BOUND('',#289,.T.);
#228=FACE_OUTER_BOUND('',#291,.T.);
#229=FACE_OUTER_BOUND('',#293,.T.);
#230=FACE_OUTER_BOUND('',#294,.T.);
#231=FACE_OUTER_BOUND('',#295,.T.);
#232=FACE_OUTER_BOUND('',#296,.T.);
#233=FACE_OUTER_BOUND('',#297,.T.);
#234=FACE_OUTER_BOUND('',#298,.T.);
#235=FACE_OUTER_BOUND('',#299,.T.);
#236=FACE_OUTER_BOUND('',#300,.T.);
#237=FACE_OUTER_BOUND('',#301,.T.);
#238=FACE_OUTER_BOUND('',#302,.T.);
#239=FACE_OUTER_BOUND('',#303,.T.);
#240=FACE_OUTER_BOUND('',#304,.T.);
#241=FACE_OUTER_BOUND('',#305,.T.);
#242=FACE_OUTER_BOUND('',#306,.T.);
#243=FACE_OUTER_BOUND('',#307,.T.);
#244=FACE_OUTER_BOUND('',#308,.T.);
#245=FACE_OUTER_BOUND('',#309,.T.);
#246=FACE_OUTER_BOUND('',#310,.T.);
#247=FACE_OUTER_BOUND('',#311,.T.);
#248=FACE_OUTER_BOUND('',#312,.T.);
#249=FACE_OUTER_BOUND('',#313,.T.);
#250=FACE_OUTER_BOUND('',#314,.T.);
#251=FACE_OUTER_BOUND('',#315,.T.);
#252=FACE_OUTER_BOUND('',#316,.T.);
#253=FACE_OUTER_BOUND('',#317,.T.);
#254=FACE_OUTER_BOUND('',#318,.T.);
#255=FACE_OUTER_BOUND('',#319,.T.);
#256=FACE_OUTER_BOUND('',#320,.T.);
#257=FACE_OUTER_BOUND('',#321,.T.);
#258=FACE_OUTER_BOUND('',#322,.T.);
#259=FACE_OUTER_BOUND('',#327,.T.);
#260=FACE_OUTER_BOUND('',#328,.T.);
#261=FACE_OUTER_BOUND('',#329,.T.);
#262=FACE_OUTER_BOUND('',#330,.T.);
#263=FACE_OUTER_BOUND('',#331,.T.);
#264=FACE_OUTER_BOUND('',#332,.T.);
#265=FACE_OUTER_BOUND('',#333,.T.);
#266=FACE_OUTER_BOUND('',#334,.T.);
#267=FACE_OUTER_BOUND('',#335,.T.);
#268=FACE_OUTER_BOUND('',#336,.T.);
#269=FACE_OUTER_BOUND('',#337,.T.);
#270=FACE_OUTER_BOUND('',#338,.T.);
#271=FACE_OUTER_BOUND('',#339,.T.);
#272=FACE_OUTER_BOUND('',#340,.T.);
#273=FACE_OUTER_BOUND('',#341,.T.);
#274=FACE_OUTER_BOUND('',#342,.T.);
#275=FACE_OUTER_BOUND('',#343,.T.);
#276=FACE_OUTER_BOUND('',#344,.T.);
#277=FACE_OUTER_BOUND('',#345,.T.);
#278=FACE_OUTER_BOUND('',#346,.T.);
#279=FACE_OUTER_BOUND('',#347,.T.);
#280=FACE_OUTER_BOUND('',#348,.T.);
#281=FACE_OUTER_BOUND('',#349,.T.);
#282=FACE_OUTER_BOUND('',#350,.T.);
#283=FACE_OUTER_BOUND('',#351,.T.);
#284=FACE_OUTER_BOUND('',#352,.T.);
#285=EDGE_LOOP('',(#646));
#286=EDGE_LOOP('',(#647));
#287=EDGE_LOOP('',(#648));
#288=EDGE_LOOP('',(#649));
#289=EDGE_LOOP('',(#650));
#290=EDGE_LOOP('',(#651));
#291=EDGE_LOOP('',(#652));
#292=EDGE_LOOP('',(#653));
#293=EDGE_LOOP('',(#654,#655,#656,#657));
#294=EDGE_LOOP('',(#658,#659,#660));
#295=EDGE_LOOP('',(#661,#662,#663,#664));
#296=EDGE_LOOP('',(#665,#666,#667,#668));
#297=EDGE_LOOP('',(#669,#670,#671));
#298=EDGE_LOOP('',(#672,#673,#674));
#299=EDGE_LOOP('',(#675,#676,#677));
#300=EDGE_LOOP('',(#678,#679,#680,#681));
#301=EDGE_LOOP('',(#682,#683,#684));
#302=EDGE_LOOP('',(#685,#686,#687));
#303=EDGE_LOOP('',(#688,#689,#690,#691,#692));
#304=EDGE_LOOP('',(#693,#694,#695));
#305=EDGE_LOOP('',(#696,#697,#698,#699));
#306=EDGE_LOOP('',(#700,#701,#702,#703));
#307=EDGE_LOOP('',(#704,#705,#706,#707));
#308=EDGE_LOOP('',(#708,#709,#710,#711));
#309=EDGE_LOOP('',(#712,#713,#714,#715));
#310=EDGE_LOOP('',(#716,#717,#718,#719));
#311=EDGE_LOOP('',(#720,#721,#722,#723,#724));
#312=EDGE_LOOP('',(#725,#726,#727,#728));
#313=EDGE_LOOP('',(#729,#730,#731));
#314=EDGE_LOOP('',(#732,#733,#734,#735));
#315=EDGE_LOOP('',(#736,#737,#738,#739));
#316=EDGE_LOOP('',(#740,#741,#742,#743));
#317=EDGE_LOOP('',(#744,#745,#746,#747));
#318=EDGE_LOOP('',(#748,#749,#750,#751));
#319=EDGE_LOOP('',(#752,#753,#754,#755,#756,#757,#758,#759,#760));
#320=EDGE_LOOP('',(#761,#762,#763,#764));
#321=EDGE_LOOP('',(#765,#766,#767,#768,#769,#770,#771,#772,#773));
#322=EDGE_LOOP('',(#774,#775,#776,#777,#778,#779,#780,#781,#782,#783,#784));
#323=EDGE_LOOP('',(#785,#786,#787,#788,#789,#790));
#324=EDGE_LOOP('',(#791,#792,#793,#794,#795));
#325=EDGE_LOOP('',(#796,#797,#798,#799,#800));
#326=EDGE_LOOP('',(#801,#802,#803,#804,#805));
#327=EDGE_LOOP('',(#806,#807,#808,#809,#810));
#328=EDGE_LOOP('',(#811,#812,#813,#814,#815,#816,#817,#818,#819,#820));
#329=EDGE_LOOP('',(#821,#822,#823,#824,#825));
#330=EDGE_LOOP('',(#826,#827,#828,#829,#830,#831,#832,#833,#834,#835));
#331=EDGE_LOOP('',(#836,#837,#838,#839,#840));
#332=EDGE_LOOP('',(#841,#842,#843,#844));
#333=EDGE_LOOP('',(#845,#846,#847,#848));
#334=EDGE_LOOP('',(#849));
#335=EDGE_LOOP('',(#850,#851,#852,#853));
#336=EDGE_LOOP('',(#854));
#337=EDGE_LOOP('',(#855,#856,#857,#858));
#338=EDGE_LOOP('',(#859));
#339=EDGE_LOOP('',(#860));
#340=EDGE_LOOP('',(#861,#862,#863,#864));
#341=EDGE_LOOP('',(#865,#866,#867,#868));
#342=EDGE_LOOP('',(#869,#870,#871,#872));
#343=EDGE_LOOP('',(#873,#874,#875,#876));
#344=EDGE_LOOP('',(#877,#878,#879,#880));
#345=EDGE_LOOP('',(#881,#882,#883,#884,#885,#886,#887,#888,#889,#890,#891));
#346=EDGE_LOOP('',(#892,#893,#894,#895));
#347=EDGE_LOOP('',(#896,#897,#898,#899));
#348=EDGE_LOOP('',(#900,#901,#902,#903));
#349=EDGE_LOOP('',(#904,#905,#906,#907));
#350=EDGE_LOOP('',(#908,#909,#910,#911));
#351=EDGE_LOOP('',(#912,#913,#914,#915));
#352=EDGE_LOOP('',(#916,#917,#918,#919,#920,#921,#922,#923,#924,#925,#926));
#353=EDGE_LOOP('',(#927,#928,#929,#930,#931,#932,#933,#934,#935,#936,#937));
#354=CIRCLE('',#1049,2.15);
#355=CIRCLE('',#1050,1.35);
#356=CIRCLE('',#1052,2.15);
#357=CIRCLE('',#1053,1.35);
#358=CIRCLE('',#1055,2.15);
#359=CIRCLE('',#1056,1.35);
#360=CIRCLE('',#1058,2.15);
#361=CIRCLE('',#1059,1.35);
#362=CIRCLE('',#1061,3.66567675807399);
#363=CIRCLE('',#1065,3.66555842508378);
#364=CIRCLE('',#1070,3.66773690133718);
#365=CIRCLE('',#1078,4.66555842508378);
#366=CIRCLE('',#1079,4.66555842508378);
#367=CIRCLE('',#1082,4.66773690133719);
#368=CIRCLE('',#1083,4.66773690133719);
#369=CIRCLE('',#1086,3.66571254513882);
#370=CIRCLE('',#1091,4.66571254513882);
#371=CIRCLE('',#1092,4.66571254513882);
#372=CIRCLE('',#1096,4.66567675807399);
#373=CIRCLE('',#1097,4.66567675807399);
#374=CIRCLE('',#1099,2.15);
#375=CIRCLE('',#1100,2.);
#376=CIRCLE('',#1101,4.15);
#377=CIRCLE('',#1102,4.15);
#378=CIRCLE('',#1105,2.15);
#379=CIRCLE('',#1106,2.);
#380=CIRCLE('',#1107,4.15);
#381=CIRCLE('',#1108,4.15);
#382=CIRCLE('',#1109,2.15);
#383=CIRCLE('',#1111,4.15);
#384=CIRCLE('',#1112,4.15);
#385=CIRCLE('',#1115,2.15);
#386=CIRCLE('',#1116,2.);
#387=CIRCLE('',#1117,2.15);
#388=CIRCLE('',#1120,2.15);
#389=CIRCLE('',#1121,2.);
#390=CIRCLE('',#1122,2.15);
#391=CIRCLE('',#1125,1.35);
#392=CIRCLE('',#1127,1.35);
#393=CIRCLE('',#1130,1.35);
#394=CIRCLE('',#1133,1.35);
#395=CIRCLE('',#1139,8.66567675807399);
#396=CIRCLE('',#1140,8.66567675807399);
#397=CIRCLE('',#1144,8.66555842508378);
#398=CIRCLE('',#1145,8.66571254513882);
#399=CIRCLE('',#1146,8.66773690133718);
#400=CIRCLE('',#1148,8.66555842508378);
#401=CIRCLE('',#1151,8.66773690133718);
#402=CIRCLE('',#1155,8.66571254513882);
#403=VERTEX_POINT('',#1459);
#404=VERTEX_POINT('',#1461);
#405=VERTEX_POINT('',#1464);
#406=VERTEX_POINT('',#1466);
#407=VERTEX_POINT('',#1469);
#408=VERTEX_POINT('',#1471);
#409=VERTEX_POINT('',#1474);
#410=VERTEX_POINT('',#1476);
#411=VERTEX_POINT('',#1479);
#412=VERTEX_POINT('',#1480);
#413=VERTEX_POINT('',#1491);
#414=VERTEX_POINT('',#1493);
#415=VERTEX_POINT('',#1497);
#416=VERTEX_POINT('',#1498);
#417=VERTEX_POINT('',#1505);
#418=VERTEX_POINT('',#1509);
#419=VERTEX_POINT('',#1516);
#420=VERTEX_POINT('',#1520);
#421=VERTEX_POINT('',#1531);
#422=VERTEX_POINT('',#1535);
#423=VERTEX_POINT('',#1536);
#424=VERTEX_POINT('',#1543);
#425=VERTEX_POINT('',#1547);
#426=VERTEX_POINT('',#1548);
#427=VERTEX_POINT('',#1557);
#428=VERTEX_POINT('',#1561);
#429=VERTEX_POINT('',#1572);
#430=VERTEX_POINT('',#1585);
#431=VERTEX_POINT('',#1589);
#432=VERTEX_POINT('',#1598);
#433=VERTEX_POINT('',#1609);
#434=VERTEX_POINT('',#1616);
#435=VERTEX_POINT('',#1621);
#436=VERTEX_POINT('',#1625);
#437=VERTEX_POINT('',#1634);
#438=VERTEX_POINT('',#1635);
#439=VERTEX_POINT('',#1637);
#440=VERTEX_POINT('',#1639);
#441=VERTEX_POINT('',#1643);
#442=VERTEX_POINT('',#1645);
#443=VERTEX_POINT('',#1649);
#444=VERTEX_POINT('',#1651);
#445=VERTEX_POINT('',#1655);
#446=VERTEX_POINT('',#1657);
#447=VERTEX_POINT('',#1661);
#448=VERTEX_POINT('',#1663);
#449=VERTEX_POINT('',#1667);
#450=VERTEX_POINT('',#1669);
#451=VERTEX_POINT('',#1673);
#452=VERTEX_POINT('',#1678);
#453=VERTEX_POINT('',#1689);
#454=VERTEX_POINT('',#1693);
#455=VERTEX_POINT('',#1700);
#456=VERTEX_POINT('',#1704);
#457=VERTEX_POINT('',#1715);
#458=VERTEX_POINT('',#1717);
#459=VERTEX_POINT('',#1721);
#460=VERTEX_POINT('',#1723);
#461=VERTEX_POINT('',#1727);
#462=VERTEX_POINT('',#1729);
#463=VERTEX_POINT('',#1733);
#464=VERTEX_POINT('',#1735);
#465=VERTEX_POINT('',#1742);
#466=VERTEX_POINT('',#1744);
#467=VERTEX_POINT('',#1751);
#468=VERTEX_POINT('',#1752);
#469=VERTEX_POINT('',#1754);
#470=VERTEX_POINT('',#1765);
#471=VERTEX_POINT('',#1766);
#472=VERTEX_POINT('',#1773);
#473=VERTEX_POINT('',#1774);
#474=VERTEX_POINT('',#1781);
#475=VERTEX_POINT('',#1785);
#476=VERTEX_POINT('',#1790);
#477=VERTEX_POINT('',#1795);
#478=VERTEX_POINT('',#1801);
#479=VERTEX_POINT('',#1802);
#480=VERTEX_POINT('',#1804);
#481=VERTEX_POINT('',#1806);
#482=VERTEX_POINT('',#1810);
#483=VERTEX_POINT('',#1812);
#484=VERTEX_POINT('',#1816);
#485=VERTEX_POINT('',#1818);
#486=VERTEX_POINT('',#1822);
#487=VERTEX_POINT('',#1824);
#488=VERTEX_POINT('',#1828);
#489=VERTEX_POINT('',#1830);
#490=VERTEX_POINT('',#1834);
#491=VERTEX_POINT('',#1835);
#492=VERTEX_POINT('',#1838);
#493=VERTEX_POINT('',#1840);
#494=VERTEX_POINT('',#1842);
#495=VERTEX_POINT('',#1846);
#496=VERTEX_POINT('',#1850);
#497=VERTEX_POINT('',#1854);
#498=VERTEX_POINT('',#1858);
#499=VERTEX_POINT('',#1862);
#500=EDGE_CURVE('',#403,#403,#354,.T.);
#501=EDGE_CURVE('',#404,#404,#355,.T.);
#502=EDGE_CURVE('',#405,#405,#356,.T.);
#503=EDGE_CURVE('',#406,#406,#357,.T.);
#504=EDGE_CURVE('',#407,#407,#358,.T.);
#505=EDGE_CURVE('',#408,#408,#359,.T.);
#506=EDGE_CURVE('',#409,#409,#360,.T.);
#507=EDGE_CURVE('',#410,#410,#361,.T.);
#508=EDGE_CURVE('',#411,#412,#179,.T.);
#509=EDGE_CURVE('',#412,#413,#19,.T.);
#510=EDGE_CURVE('',#413,#414,#362,.T.);
#511=EDGE_CURVE('',#411,#414,#20,.T.);
#512=EDGE_CURVE('',#415,#416,#180,.T.);
#513=EDGE_CURVE('',#416,#417,#21,.T.);
#514=EDGE_CURVE('',#415,#417,#22,.T.);
#515=EDGE_CURVE('',#418,#415,#181,.T.);
#516=EDGE_CURVE('',#417,#419,#23,.T.);
#517=EDGE_CURVE('',#418,#419,#24,.T.);
#518=EDGE_CURVE('',#420,#418,#182,.T.);
#519=EDGE_CURVE('',#419,#421,#363,.T.);
#520=EDGE_CURVE('',#420,#421,#25,.T.);
#521=EDGE_CURVE('',#422,#423,#183,.T.);
#522=EDGE_CURVE('',#423,#424,#26,.T.);
#523=EDGE_CURVE('',#424,#422,#27,.T.);
#524=EDGE_CURVE('',#425,#426,#184,.T.);
#525=EDGE_CURVE('',#426,#427,#28,.T.);
#526=EDGE_CURVE('',#425,#427,#29,.T.);
#527=EDGE_CURVE('',#428,#420,#185,.T.);
#528=EDGE_CURVE('',#421,#428,#30,.T.);
#529=EDGE_CURVE('',#429,#425,#186,.T.);
#530=EDGE_CURVE('',#427,#430,#364,.T.);
#531=EDGE_CURVE('',#429,#430,#31,.T.);
#532=EDGE_CURVE('',#431,#429,#187,.T.);
#533=EDGE_CURVE('',#430,#431,#32,.T.);
#534=EDGE_CURVE('',#432,#411,#188,.T.);
#535=EDGE_CURVE('',#414,#432,#33,.T.);
#536=EDGE_CURVE('',#412,#433,#189,.T.);
#537=EDGE_CURVE('',#433,#434,#190,.T.);
#538=EDGE_CURVE('',#434,#435,#34,.T.);
#539=EDGE_CURVE('',#435,#413,#35,.T.);
#540=EDGE_CURVE('',#434,#436,#191,.T.);
#541=EDGE_CURVE('',#436,#435,#36,.T.);
#542=EDGE_CURVE('',#437,#438,#37,.T.);
#543=EDGE_CURVE('',#439,#438,#38,.T.);
#544=EDGE_CURVE('',#440,#439,#39,.T.);
#545=EDGE_CURVE('',#440,#437,#40,.T.);
#546=EDGE_CURVE('',#441,#437,#41,.T.);
#547=EDGE_CURVE('',#442,#440,#42,.T.);
#548=EDGE_CURVE('',#442,#441,#43,.T.);
#549=EDGE_CURVE('',#443,#441,#365,.T.);
#550=EDGE_CURVE('',#444,#442,#366,.T.);
#551=EDGE_CURVE('',#444,#443,#44,.T.);
#552=EDGE_CURVE('',#445,#443,#45,.T.);
#553=EDGE_CURVE('',#446,#444,#46,.T.);
#554=EDGE_CURVE('',#446,#445,#47,.T.);
#555=EDGE_CURVE('',#447,#445,#367,.T.);
#556=EDGE_CURVE('',#448,#446,#368,.T.);
#557=EDGE_CURVE('',#448,#447,#48,.T.);
#558=EDGE_CURVE('',#449,#447,#49,.T.);
#559=EDGE_CURVE('',#450,#448,#50,.T.);
#560=EDGE_CURVE('',#450,#449,#51,.T.);
#561=EDGE_CURVE('',#423,#451,#192,.T.);
#562=EDGE_CURVE('',#451,#452,#193,.T.);
#563=EDGE_CURVE('',#452,#453,#52,.T.);
#564=EDGE_CURVE('',#453,#424,#369,.T.);
#565=EDGE_CURVE('',#452,#454,#194,.T.);
#566=EDGE_CURVE('',#454,#455,#53,.T.);
#567=EDGE_CURVE('',#455,#453,#54,.T.);
#568=EDGE_CURVE('',#454,#456,#195,.T.);
#569=EDGE_CURVE('',#456,#455,#55,.T.);
#570=EDGE_CURVE('',#457,#449,#56,.T.);
#571=EDGE_CURVE('',#458,#450,#57,.T.);
#572=EDGE_CURVE('',#458,#457,#58,.T.);
#573=EDGE_CURVE('',#459,#457,#370,.T.);
#574=EDGE_CURVE('',#460,#458,#371,.T.);
#575=EDGE_CURVE('',#460,#459,#59,.T.);
#576=EDGE_CURVE('',#461,#459,#60,.T.);
#577=EDGE_CURVE('',#462,#460,#61,.T.);
#578=EDGE_CURVE('',#462,#461,#62,.T.);
#579=EDGE_CURVE('',#463,#461,#63,.T.);
#580=EDGE_CURVE('',#464,#462,#64,.T.);
#581=EDGE_CURVE('',#464,#463,#65,.T.);
#582=EDGE_CURVE('',#438,#463,#372,.T.);
#583=EDGE_CURVE('',#439,#464,#373,.T.);
#584=EDGE_CURVE('',#465,#465,#374,.T.);
#585=EDGE_CURVE('',#465,#466,#375,.T.);
#586=EDGE_CURVE('',#466,#416,#376,.T.);
#587=EDGE_CURVE('',#428,#466,#377,.T.);
#588=EDGE_CURVE('',#407,#465,#66,.T.);
#589=EDGE_CURVE('',#467,#468,#378,.T.);
#590=EDGE_CURVE('',#468,#469,#379,.T.);
#591=EDGE_CURVE('',#469,#426,#380,.T.);
#592=EDGE_CURVE('',#431,#469,#381,.T.);
#593=EDGE_CURVE('',#468,#467,#382,.T.);
#594=EDGE_CURVE('',#432,#436,#383,.T.);
#595=EDGE_CURVE('',#422,#456,#384,.T.);
#596=EDGE_CURVE('',#467,#403,#67,.T.);
#597=EDGE_CURVE('',#470,#471,#385,.T.);
#598=EDGE_CURVE('',#471,#451,#386,.T.);
#599=EDGE_CURVE('',#471,#470,#387,.T.);
#600=EDGE_CURVE('',#470,#409,#68,.T.);
#601=EDGE_CURVE('',#472,#473,#388,.T.);
#602=EDGE_CURVE('',#473,#433,#389,.T.);
#603=EDGE_CURVE('',#473,#472,#390,.T.);
#604=EDGE_CURVE('',#472,#405,#69,.T.);
#605=EDGE_CURVE('',#408,#474,#70,.T.);
#606=EDGE_CURVE('',#474,#474,#391,.T.);
#607=EDGE_CURVE('',#475,#475,#392,.T.);
#608=EDGE_CURVE('',#475,#404,#71,.T.);
#609=EDGE_CURVE('',#476,#476,#393,.T.);
#610=EDGE_CURVE('',#476,#410,#72,.T.);
#611=EDGE_CURVE('',#477,#477,#394,.T.);
#612=EDGE_CURVE('',#477,#406,#73,.T.);
#613=EDGE_CURVE('',#478,#479,#74,.T.);
#614=EDGE_CURVE('',#480,#478,#75,.T.);
#615=EDGE_CURVE('',#481,#480,#76,.T.);
#616=EDGE_CURVE('',#481,#479,#77,.T.);
#617=EDGE_CURVE('',#479,#482,#78,.T.);
#618=EDGE_CURVE('',#483,#481,#79,.T.);
#619=EDGE_CURVE('',#483,#482,#80,.T.);
#620=EDGE_CURVE('',#482,#484,#395,.T.);
#621=EDGE_CURVE('',#485,#483,#396,.T.);
#622=EDGE_CURVE('',#485,#484,#81,.T.);
#623=EDGE_CURVE('',#484,#486,#82,.T.);
#624=EDGE_CURVE('',#487,#485,#83,.T.);
#625=EDGE_CURVE('',#487,#486,#84,.T.);
#626=EDGE_CURVE('',#486,#488,#85,.T.);
#627=EDGE_CURVE('',#489,#487,#86,.T.);
#628=EDGE_CURVE('',#489,#488,#87,.T.);
#629=EDGE_CURVE('',#490,#491,#88,.T.);
#630=EDGE_CURVE('',#491,#489,#397,.T.);
#631=EDGE_CURVE('',#480,#492,#398,.T.);
#632=EDGE_CURVE('',#492,#493,#89,.T.);
#633=EDGE_CURVE('',#493,#494,#90,.T.);
#634=EDGE_CURVE('',#494,#490,#399,.T.);
#635=EDGE_CURVE('',#488,#495,#400,.T.);
#636=EDGE_CURVE('',#495,#491,#91,.T.);
#637=EDGE_CURVE('',#495,#496,#92,.T.);
#638=EDGE_CURVE('',#490,#496,#93,.T.);
#639=EDGE_CURVE('',#496,#497,#401,.T.);
#640=EDGE_CURVE('',#494,#497,#94,.T.);
#641=EDGE_CURVE('',#497,#498,#95,.T.);
#642=EDGE_CURVE('',#493,#498,#96,.T.);
#643=EDGE_CURVE('',#498,#499,#97,.T.);
#644=EDGE_CURVE('',#492,#499,#98,.T.);
#645=EDGE_CURVE('',#499,#478,#402,.T.);
#646=ORIENTED_EDGE('',*,*,#500,.F.);
#647=ORIENTED_EDGE('',*,*,#501,.F.);
#648=ORIENTED_EDGE('',*,*,#502,.F.);
#649=ORIENTED_EDGE('',*,*,#503,.F.);
#650=ORIENTED_EDGE('',*,*,#504,.F.);
#651=ORIENTED_EDGE('',*,*,#505,.F.);
#652=ORIENTED_EDGE('',*,*,#506,.F.);
#653=ORIENTED_EDGE('',*,*,#507,.F.);
#654=ORIENTED_EDGE('',*,*,#508,.T.);
#655=ORIENTED_EDGE('',*,*,#509,.T.);
#656=ORIENTED_EDGE('',*,*,#510,.T.);
#657=ORIENTED_EDGE('',*,*,#511,.F.);
#658=ORIENTED_EDGE('',*,*,#512,.T.);
#659=ORIENTED_EDGE('',*,*,#513,.T.);
#660=ORIENTED_EDGE('',*,*,#514,.F.);
#661=ORIENTED_EDGE('',*,*,#515,.T.);
#662=ORIENTED_EDGE('',*,*,#514,.T.);
#663=ORIENTED_EDGE('',*,*,#516,.T.);
#664=ORIENTED_EDGE('',*,*,#517,.F.);
#665=ORIENTED_EDGE('',*,*,#518,.T.);
#666=ORIENTED_EDGE('',*,*,#517,.T.);
#667=ORIENTED_EDGE('',*,*,#519,.T.);
#668=ORIENTED_EDGE('',*,*,#520,.F.);
#669=ORIENTED_EDGE('',*,*,#521,.T.);
#670=ORIENTED_EDGE('',*,*,#522,.T.);
#671=ORIENTED_EDGE('',*,*,#523,.T.);
#672=ORIENTED_EDGE('',*,*,#524,.T.);
#673=ORIENTED_EDGE('',*,*,#525,.T.);
#674=ORIENTED_EDGE('',*,*,#526,.F.);
#675=ORIENTED_EDGE('',*,*,#527,.T.);
#676=ORIENTED_EDGE('',*,*,#520,.T.);
#677=ORIENTED_EDGE('',*,*,#528,.T.);
#678=ORIENTED_EDGE('',*,*,#529,.T.);
#679=ORIENTED_EDGE('',*,*,#526,.T.);
#680=ORIENTED_EDGE('',*,*,#530,.T.);
#681=ORIENTED_EDGE('',*,*,#531,.F.);
#682=ORIENTED_EDGE('',*,*,#532,.T.);
#683=ORIENTED_EDGE('',*,*,#531,.T.);
#684=ORIENTED_EDGE('',*,*,#533,.T.);
#685=ORIENTED_EDGE('',*,*,#534,.T.);
#686=ORIENTED_EDGE('',*,*,#511,.T.);
#687=ORIENTED_EDGE('',*,*,#535,.T.);
#688=ORIENTED_EDGE('',*,*,#536,.T.);
#689=ORIENTED_EDGE('',*,*,#537,.T.);
#690=ORIENTED_EDGE('',*,*,#538,.T.);
#691=ORIENTED_EDGE('',*,*,#539,.T.);
#692=ORIENTED_EDGE('',*,*,#509,.F.);
#693=ORIENTED_EDGE('',*,*,#540,.T.);
#694=ORIENTED_EDGE('',*,*,#541,.T.);
#695=ORIENTED_EDGE('',*,*,#538,.F.);
#696=ORIENTED_EDGE('',*,*,#542,.T.);
#697=ORIENTED_EDGE('',*,*,#543,.F.);
#698=ORIENTED_EDGE('',*,*,#544,.F.);
#699=ORIENTED_EDGE('',*,*,#545,.T.);
#700=ORIENTED_EDGE('',*,*,#546,.T.);
#701=ORIENTED_EDGE('',*,*,#545,.F.);
#702=ORIENTED_EDGE('',*,*,#547,.F.);
#703=ORIENTED_EDGE('',*,*,#548,.T.);
#704=ORIENTED_EDGE('',*,*,#549,.T.);
#705=ORIENTED_EDGE('',*,*,#548,.F.);
#706=ORIENTED_EDGE('',*,*,#550,.F.);
#707=ORIENTED_EDGE('',*,*,#551,.T.);
#708=ORIENTED_EDGE('',*,*,#552,.T.);
#709=ORIENTED_EDGE('',*,*,#551,.F.);
#710=ORIENTED_EDGE('',*,*,#553,.F.);
#711=ORIENTED_EDGE('',*,*,#554,.T.);
#712=ORIENTED_EDGE('',*,*,#555,.T.);
#713=ORIENTED_EDGE('',*,*,#554,.F.);
#714=ORIENTED_EDGE('',*,*,#556,.F.);
#715=ORIENTED_EDGE('',*,*,#557,.T.);
#716=ORIENTED_EDGE('',*,*,#558,.T.);
#717=ORIENTED_EDGE('',*,*,#557,.F.);
#718=ORIENTED_EDGE('',*,*,#559,.F.);
#719=ORIENTED_EDGE('',*,*,#560,.T.);
#720=ORIENTED_EDGE('',*,*,#561,.T.);
#721=ORIENTED_EDGE('',*,*,#562,.T.);
#722=ORIENTED_EDGE('',*,*,#563,.T.);
#723=ORIENTED_EDGE('',*,*,#564,.T.);
#724=ORIENTED_EDGE('',*,*,#522,.F.);
#725=ORIENTED_EDGE('',*,*,#565,.T.);
#726=ORIENTED_EDGE('',*,*,#566,.T.);
#727=ORIENTED_EDGE('',*,*,#567,.T.);
#728=ORIENTED_EDGE('',*,*,#563,.F.);
#729=ORIENTED_EDGE('',*,*,#568,.T.);
#730=ORIENTED_EDGE('',*,*,#569,.T.);
#731=ORIENTED_EDGE('',*,*,#566,.F.);
#732=ORIENTED_EDGE('',*,*,#570,.T.);
#733=ORIENTED_EDGE('',*,*,#560,.F.);
#734=ORIENTED_EDGE('',*,*,#571,.F.);
#735=ORIENTED_EDGE('',*,*,#572,.T.);
#736=ORIENTED_EDGE('',*,*,#573,.T.);
#737=ORIENTED_EDGE('',*,*,#572,.F.);
#738=ORIENTED_EDGE('',*,*,#574,.F.);
#739=ORIENTED_EDGE('',*,*,#575,.T.);
#740=ORIENTED_EDGE('',*,*,#576,.T.);
#741=ORIENTED_EDGE('',*,*,#575,.F.);
#742=ORIENTED_EDGE('',*,*,#577,.F.);
#743=ORIENTED_EDGE('',*,*,#578,.T.);
#744=ORIENTED_EDGE('',*,*,#579,.T.);
#745=ORIENTED_EDGE('',*,*,#578,.F.);
#746=ORIENTED_EDGE('',*,*,#580,.F.);
#747=ORIENTED_EDGE('',*,*,#581,.T.);
#748=ORIENTED_EDGE('',*,*,#582,.T.);
#749=ORIENTED_EDGE('',*,*,#581,.F.);
#750=ORIENTED_EDGE('',*,*,#583,.F.);
#751=ORIENTED_EDGE('',*,*,#543,.T.);
#752=ORIENTED_EDGE('',*,*,#584,.T.);
#753=ORIENTED_EDGE('',*,*,#585,.T.);
#754=ORIENTED_EDGE('',*,*,#586,.T.);
#755=ORIENTED_EDGE('',*,*,#512,.F.);
#756=ORIENTED_EDGE('',*,*,#515,.F.);
#757=ORIENTED_EDGE('',*,*,#518,.F.);
#758=ORIENTED_EDGE('',*,*,#527,.F.);
#759=ORIENTED_EDGE('',*,*,#587,.T.);
#760=ORIENTED_EDGE('',*,*,#585,.F.);
#761=ORIENTED_EDGE('',*,*,#504,.T.);
#762=ORIENTED_EDGE('',*,*,#588,.T.);
#763=ORIENTED_EDGE('',*,*,#584,.F.);
#764=ORIENTED_EDGE('',*,*,#588,.F.);
#765=ORIENTED_EDGE('',*,*,#589,.T.);
#766=ORIENTED_EDGE('',*,*,#590,.T.);
#767=ORIENTED_EDGE('',*,*,#591,.T.);
#768=ORIENTED_EDGE('',*,*,#524,.F.);
#769=ORIENTED_EDGE('',*,*,#529,.F.);
#770=ORIENTED_EDGE('',*,*,#532,.F.);
#771=ORIENTED_EDGE('',*,*,#592,.T.);
#772=ORIENTED_EDGE('',*,*,#590,.F.);
#773=ORIENTED_EDGE('',*,*,#593,.T.);
#774=ORIENTED_EDGE('',*,*,#558,.F.);
#775=ORIENTED_EDGE('',*,*,#570,.F.);
#776=ORIENTED_EDGE('',*,*,#573,.F.);
#777=ORIENTED_EDGE('',*,*,#576,.F.);
#778=ORIENTED_EDGE('',*,*,#579,.F.);
#779=ORIENTED_EDGE('',*,*,#582,.F.);
#780=ORIENTED_EDGE('',*,*,#542,.F.);
#781=ORIENTED_EDGE('',*,*,#546,.F.);
#782=ORIENTED_EDGE('',*,*,#549,.F.);
#783=ORIENTED_EDGE('',*,*,#552,.F.);
#784=ORIENTED_EDGE('',*,*,#555,.F.);
#785=ORIENTED_EDGE('',*,*,#587,.F.);
#786=ORIENTED_EDGE('',*,*,#528,.F.);
#787=ORIENTED_EDGE('',*,*,#519,.F.);
#788=ORIENTED_EDGE('',*,*,#516,.F.);
#789=ORIENTED_EDGE('',*,*,#513,.F.);
#790=ORIENTED_EDGE('',*,*,#586,.F.);
#791=ORIENTED_EDGE('',*,*,#535,.F.);
#792=ORIENTED_EDGE('',*,*,#510,.F.);
#793=ORIENTED_EDGE('',*,*,#539,.F.);
#794=ORIENTED_EDGE('',*,*,#541,.F.);
#795=ORIENTED_EDGE('',*,*,#594,.F.);
#796=ORIENTED_EDGE('',*,*,#592,.F.);
#797=ORIENTED_EDGE('',*,*,#533,.F.);
#798=ORIENTED_EDGE('',*,*,#530,.F.);
#799=ORIENTED_EDGE('',*,*,#525,.F.);
#800=ORIENTED_EDGE('',*,*,#591,.F.);
#801=ORIENTED_EDGE('',*,*,#523,.F.);
#802=ORIENTED_EDGE('',*,*,#564,.F.);
#803=ORIENTED_EDGE('',*,*,#567,.F.);
#804=ORIENTED_EDGE('',*,*,#569,.F.);
#805=ORIENTED_EDGE('',*,*,#595,.F.);
#806=ORIENTED_EDGE('',*,*,#589,.F.);
#807=ORIENTED_EDGE('',*,*,#596,.T.);
#808=ORIENTED_EDGE('',*,*,#500,.T.);
#809=ORIENTED_EDGE('',*,*,#596,.F.);
#810=ORIENTED_EDGE('',*,*,#593,.F.);
#811=ORIENTED_EDGE('',*,*,#597,.T.);
#812=ORIENTED_EDGE('',*,*,#598,.T.);
#813=ORIENTED_EDGE('',*,*,#561,.F.);
#814=ORIENTED_EDGE('',*,*,#521,.F.);
#815=ORIENTED_EDGE('',*,*,#595,.T.);
#816=ORIENTED_EDGE('',*,*,#568,.F.);
#817=ORIENTED_EDGE('',*,*,#565,.F.);
#818=ORIENTED_EDGE('',*,*,#562,.F.);
#819=ORIENTED_EDGE('',*,*,#598,.F.);
#820=ORIENTED_EDGE('',*,*,#599,.T.);
#821=ORIENTED_EDGE('',*,*,#597,.F.);
#822=ORIENTED_EDGE('',*,*,#600,.T.);
#823=ORIENTED_EDGE('',*,*,#506,.T.);
#824=ORIENTED_EDGE('',*,*,#600,.F.);
#825=ORIENTED_EDGE('',*,*,#599,.F.);
#826=ORIENTED_EDGE('',*,*,#601,.T.);
#827=ORIENTED_EDGE('',*,*,#602,.T.);
#828=ORIENTED_EDGE('',*,*,#536,.F.);
#829=ORIENTED_EDGE('',*,*,#508,.F.);
#830=ORIENTED_EDGE('',*,*,#534,.F.);
#831=ORIENTED_EDGE('',*,*,#594,.T.);
#832=ORIENTED_EDGE('',*,*,#540,.F.);
#833=ORIENTED_EDGE('',*,*,#537,.F.);
#834=ORIENTED_EDGE('',*,*,#602,.F.);
#835=ORIENTED_EDGE('',*,*,#603,.T.);
#836=ORIENTED_EDGE('',*,*,#601,.F.);
#837=ORIENTED_EDGE('',*,*,#604,.T.);
#838=ORIENTED_EDGE('',*,*,#502,.T.);
#839=ORIENTED_EDGE('',*,*,#604,.F.);
#840=ORIENTED_EDGE('',*,*,#603,.F.);
#841=ORIENTED_EDGE('',*,*,#505,.T.);
#842=ORIENTED_EDGE('',*,*,#605,.T.);
#843=ORIENTED_EDGE('',*,*,#606,.F.);
#844=ORIENTED_EDGE('',*,*,#605,.F.);
#845=ORIENTED_EDGE('',*,*,#607,.F.);
#846=ORIENTED_EDGE('',*,*,#608,.T.);
#847=ORIENTED_EDGE('',*,*,#501,.T.);
#848=ORIENTED_EDGE('',*,*,#608,.F.);
#849=ORIENTED_EDGE('',*,*,#606,.T.);
#850=ORIENTED_EDGE('',*,*,#609,.F.);
#851=ORIENTED_EDGE('',*,*,#610,.T.);
#852=ORIENTED_EDGE('',*,*,#507,.T.);
#853=ORIENTED_EDGE('',*,*,#610,.F.);
#854=ORIENTED_EDGE('',*,*,#607,.T.);
#855=ORIENTED_EDGE('',*,*,#611,.F.);
#856=ORIENTED_EDGE('',*,*,#612,.T.);
#857=ORIENTED_EDGE('',*,*,#503,.T.);
#858=ORIENTED_EDGE('',*,*,#612,.F.);
#859=ORIENTED_EDGE('',*,*,#609,.T.);
#860=ORIENTED_EDGE('',*,*,#611,.T.);
#861=ORIENTED_EDGE('',*,*,#613,.F.);
#862=ORIENTED_EDGE('',*,*,#614,.F.);
#863=ORIENTED_EDGE('',*,*,#615,.F.);
#864=ORIENTED_EDGE('',*,*,#616,.T.);
#865=ORIENTED_EDGE('',*,*,#617,.F.);
#866=ORIENTED_EDGE('',*,*,#616,.F.);
#867=ORIENTED_EDGE('',*,*,#618,.F.);
#868=ORIENTED_EDGE('',*,*,#619,.T.);
#869=ORIENTED_EDGE('',*,*,#620,.F.);
#870=ORIENTED_EDGE('',*,*,#619,.F.);
#871=ORIENTED_EDGE('',*,*,#621,.F.);
#872=ORIENTED_EDGE('',*,*,#622,.T.);
#873=ORIENTED_EDGE('',*,*,#623,.F.);
#874=ORIENTED_EDGE('',*,*,#622,.F.);
#875=ORIENTED_EDGE('',*,*,#624,.F.);
#876=ORIENTED_EDGE('',*,*,#625,.T.);
#877=ORIENTED_EDGE('',*,*,#626,.F.);
#878=ORIENTED_EDGE('',*,*,#625,.F.);
#879=ORIENTED_EDGE('',*,*,#627,.F.);
#880=ORIENTED_EDGE('',*,*,#628,.T.);
#881=ORIENTED_EDGE('',*,*,#629,.T.);
#882=ORIENTED_EDGE('',*,*,#630,.T.);
#883=ORIENTED_EDGE('',*,*,#627,.T.);
#884=ORIENTED_EDGE('',*,*,#624,.T.);
#885=ORIENTED_EDGE('',*,*,#621,.T.);
#886=ORIENTED_EDGE('',*,*,#618,.T.);
#887=ORIENTED_EDGE('',*,*,#615,.T.);
#888=ORIENTED_EDGE('',*,*,#631,.T.);
#889=ORIENTED_EDGE('',*,*,#632,.T.);
#890=ORIENTED_EDGE('',*,*,#633,.T.);
#891=ORIENTED_EDGE('',*,*,#634,.T.);
#892=ORIENTED_EDGE('',*,*,#635,.F.);
#893=ORIENTED_EDGE('',*,*,#628,.F.);
#894=ORIENTED_EDGE('',*,*,#630,.F.);
#895=ORIENTED_EDGE('',*,*,#636,.F.);
#896=ORIENTED_EDGE('',*,*,#637,.F.);
#897=ORIENTED_EDGE('',*,*,#636,.T.);
#898=ORIENTED_EDGE('',*,*,#629,.F.);
#899=ORIENTED_EDGE('',*,*,#638,.T.);
#900=ORIENTED_EDGE('',*,*,#639,.F.);
#901=ORIENTED_EDGE('',*,*,#638,.F.);
#902=ORIENTED_EDGE('',*,*,#634,.F.);
#903=ORIENTED_EDGE('',*,*,#640,.T.);
#904=ORIENTED_EDGE('',*,*,#641,.F.);
#905=ORIENTED_EDGE('',*,*,#640,.F.);
#906=ORIENTED_EDGE('',*,*,#633,.F.);
#907=ORIENTED_EDGE('',*,*,#642,.T.);
#908=ORIENTED_EDGE('',*,*,#643,.F.);
#909=ORIENTED_EDGE('',*,*,#642,.F.);
#910=ORIENTED_EDGE('',*,*,#632,.F.);
#911=ORIENTED_EDGE('',*,*,#644,.T.);
#912=ORIENTED_EDGE('',*,*,#645,.F.);
#913=ORIENTED_EDGE('',*,*,#644,.F.);
#914=ORIENTED_EDGE('',*,*,#631,.F.);
#915=ORIENTED_EDGE('',*,*,#614,.T.);
#916=ORIENTED_EDGE('',*,*,#635,.T.);
#917=ORIENTED_EDGE('',*,*,#637,.T.);
#918=ORIENTED_EDGE('',*,*,#639,.T.);
#919=ORIENTED_EDGE('',*,*,#641,.T.);
#920=ORIENTED_EDGE('',*,*,#643,.T.);
#921=ORIENTED_EDGE('',*,*,#645,.T.);
#922=ORIENTED_EDGE('',*,*,#613,.T.);
#923=ORIENTED_EDGE('',*,*,#617,.T.);
#924=ORIENTED_EDGE('',*,*,#620,.T.);
#925=ORIENTED_EDGE('',*,*,#623,.T.);
#926=ORIENTED_EDGE('',*,*,#626,.T.);
#927=ORIENTED_EDGE('',*,*,#544,.T.);
#928=ORIENTED_EDGE('',*,*,#583,.T.);
#929=ORIENTED_EDGE('',*,*,#580,.T.);
#930=ORIENTED_EDGE('',*,*,#577,.T.);
#931=ORIENTED_EDGE('',*,*,#574,.T.);
#932=ORIENTED_EDGE('',*,*,#571,.T.);
#933=ORIENTED_EDGE('',*,*,#559,.T.);
#934=ORIENTED_EDGE('',*,*,#556,.T.);
#935=ORIENTED_EDGE('',*,*,#553,.T.);
#936=ORIENTED_EDGE('',*,*,#550,.T.);
#937=ORIENTED_EDGE('',*,*,#547,.T.);
#938=PLANE('',#1048);
#939=PLANE('',#1051);
#940=PLANE('',#1054);
#941=PLANE('',#1057);
#942=PLANE('',#1062);
#943=PLANE('',#1063);
#944=PLANE('',#1066);
#945=PLANE('',#1067);
#946=PLANE('',#1068);
#947=PLANE('',#1071);
#948=PLANE('',#1072);
#949=PLANE('',#1073);
#950=PLANE('',#1074);
#951=PLANE('',#1075);
#952=PLANE('',#1076);
#953=PLANE('',#1080);
#954=PLANE('',#1084);
#955=PLANE('',#1087);
#956=PLANE('',#1088);
#957=PLANE('',#1089);
#958=PLANE('',#1093);
#959=PLANE('',#1094);
#960=PLANE('',#1110);
#961=PLANE('',#1128);
#962=PLANE('',#1131);
#963=PLANE('',#1134);
#964=PLANE('',#1135);
#965=PLANE('',#1136);
#966=PLANE('',#1137);
#967=PLANE('',#1141);
#968=PLANE('',#1142);
#969=PLANE('',#1143);
#970=PLANE('',#1149);
#971=PLANE('',#1152);
#972=PLANE('',#1153);
#973=PLANE('',#1156);
#974=ADVANCED_FACE('',(#225,#216),#938,.T.);
#975=ADVANCED_FACE('',(#226,#217),#939,.T.);
#976=ADVANCED_FACE('',(#227,#218),#940,.T.);
#977=ADVANCED_FACE('',(#228,#219),#941,.T.);
#978=ADVANCED_FACE('',(#229),#196,.T.);
#979=ADVANCED_FACE('',(#230),#942,.F.);
#980=ADVANCED_FACE('',(#231),#943,.F.);
#981=ADVANCED_FACE('',(#232),#197,.T.);
#982=ADVANCED_FACE('',(#233),#944,.F.);
#983=ADVANCED_FACE('',(#234),#945,.F.);
#984=ADVANCED_FACE('',(#235),#946,.F.);
#985=ADVANCED_FACE('',(#236),#198,.T.);
#986=ADVANCED_FACE('',(#237),#947,.F.);
#987=ADVANCED_FACE('',(#238),#948,.F.);
#988=ADVANCED_FACE('',(#239),#949,.F.);
#989=ADVANCED_FACE('',(#240),#950,.F.);
#990=ADVANCED_FACE('',(#241),#951,.F.);
#991=ADVANCED_FACE('',(#242),#952,.F.);
#992=ADVANCED_FACE('',(#243),#199,.F.);
#993=ADVANCED_FACE('',(#244),#953,.F.);
#994=ADVANCED_FACE('',(#245),#200,.F.);
#995=ADVANCED_FACE('',(#246),#954,.F.);
#996=ADVANCED_FACE('',(#247),#201,.T.);
#997=ADVANCED_FACE('',(#248),#955,.F.);
#998=ADVANCED_FACE('',(#249),#956,.F.);
#999=ADVANCED_FACE('',(#250),#957,.F.);
#1000=ADVANCED_FACE('',(#251),#202,.F.);
#1001=ADVANCED_FACE('',(#252),#958,.F.);
#1002=ADVANCED_FACE('',(#253),#959,.F.);
#1003=ADVANCED_FACE('',(#254),#203,.F.);
#1004=ADVANCED_FACE('',(#255),#15,.F.);
#1005=ADVANCED_FACE('',(#256),#204,.T.);
#1006=ADVANCED_FACE('',(#257),#16,.F.);
#1007=ADVANCED_FACE('',(#258,#220,#221,#222,#223),#960,.F.);
#1008=ADVANCED_FACE('',(#259),#205,.T.);
#1009=ADVANCED_FACE('',(#260),#17,.F.);
#1010=ADVANCED_FACE('',(#261),#206,.T.);
#1011=ADVANCED_FACE('',(#262),#18,.F.);
#1012=ADVANCED_FACE('',(#263),#207,.T.);
#1013=ADVANCED_FACE('',(#264),#208,.F.);
#1014=ADVANCED_FACE('',(#265),#209,.F.);
#1015=ADVANCED_FACE('',(#266),#961,.F.);
#1016=ADVANCED_FACE('',(#267),#210,.F.);
#1017=ADVANCED_FACE('',(#268),#962,.F.);
#1018=ADVANCED_FACE('',(#269),#211,.F.);
#1019=ADVANCED_FACE('',(#270),#963,.F.);
#1020=ADVANCED_FACE('',(#271),#964,.F.);
#1021=ADVANCED_FACE('',(#272),#965,.T.);
#1022=ADVANCED_FACE('',(#273),#966,.T.);
#1023=ADVANCED_FACE('',(#274),#212,.T.);
#1024=ADVANCED_FACE('',(#275),#967,.T.);
#1025=ADVANCED_FACE('',(#276),#968,.T.);
#1026=ADVANCED_FACE('',(#277),#969,.F.);
#1027=ADVANCED_FACE('',(#278),#213,.T.);
#1028=ADVANCED_FACE('',(#279),#970,.T.);
#1029=ADVANCED_FACE('',(#280),#214,.T.);
#1030=ADVANCED_FACE('',(#281),#971,.T.);
#1031=ADVANCED_FACE('',(#282),#972,.T.);
#1032=ADVANCED_FACE('',(#283),#215,.T.);
#1033=ADVANCED_FACE('',(#284,#224),#973,.T.);
#1034=CLOSED_SHELL('',(#974,#975,#976,#977,#978,#979,#980,#981,#982,#983,
#984,#985,#986,#987,#988,#989,#990,#991,#992,#993,#994,#995,#996,#997,#998,
#999,#1000,#1001,#1002,#1003,#1004,#1005,#1006,#1007,#1008,#1009,#1010,
#1011,#1012,#1013,#1014,#1015,#1016,#1017,#1018,#1019,#1020,#1021,#1022,
#1023,#1024,#1025,#1026,#1027,#1028,#1029,#1030,#1031,#1032,#1033));
#1035=DERIVED_UNIT_ELEMENT(#1037,1.);
#1036=DERIVED_UNIT_ELEMENT(#1873,-3.);
#1037=(
MASS_UNIT()
NAMED_UNIT(*)
SI_UNIT(.KILO.,.GRAM.)
);
#1038=DERIVED_UNIT((#1035,#1036));
#1039=MEASURE_REPRESENTATION_ITEM('density measure',
POSITIVE_RATIO_MEASURE(7850.),#1038);
#1040=PROPERTY_DEFINITION_REPRESENTATION(#1045,#1042);
#1041=PROPERTY_DEFINITION_REPRESENTATION(#1046,#1043);
#1042=REPRESENTATION('material name',(#1044),#1870);
#1043=REPRESENTATION('density',(#1039),#1870);
#1044=DESCRIPTIVE_REPRESENTATION_ITEM('Steel','Steel');
#1045=PROPERTY_DEFINITION('material property','material name',#1880);
#1046=PROPERTY_DEFINITION('material property','density of part',#1880);
#1047=AXIS2_PLACEMENT_3D('',#1457,#1157,#1158);
#1048=AXIS2_PLACEMENT_3D('',#1458,#1159,#1160);
#1049=AXIS2_PLACEMENT_3D('',#1460,#1161,#1162);
#1050=AXIS2_PLACEMENT_3D('',#1462,#1163,#1164);
#1051=AXIS2_PLACEMENT_3D('',#1463,#1165,#1166);
#1052=AXIS2_PLACEMENT_3D('',#1465,#1167,#1168);
#1053=AXIS2_PLACEMENT_3D('',#1467,#1169,#1170);
#1054=AXIS2_PLACEMENT_3D('',#1468,#1171,#1172);
#1055=AXIS2_PLACEMENT_3D('',#1470,#1173,#1174);
#1056=AXIS2_PLACEMENT_3D('',#1472,#1175,#1176);
#1057=AXIS2_PLACEMENT_3D('',#1473,#1177,#1178);
#1058=AXIS2_PLACEMENT_3D('',#1475,#1179,#1180);
#1059=AXIS2_PLACEMENT_3D('',#1477,#1181,#1182);
#1060=AXIS2_PLACEMENT_3D('',#1478,#1183,#1184);
#1061=AXIS2_PLACEMENT_3D('',#1494,#1186,#1187);
#1062=AXIS2_PLACEMENT_3D('',#1496,#1189,#1190);
#1063=AXIS2_PLACEMENT_3D('',#1508,#1193,#1194);
#1064=AXIS2_PLACEMENT_3D('',#1519,#1197,#1198);
#1065=AXIS2_PLACEMENT_3D('',#1532,#1199,#1200);
#1066=AXIS2_PLACEMENT_3D('',#1534,#1202,#1203);
#1067=AXIS2_PLACEMENT_3D('',#1546,#1206,#1207);
#1068=AXIS2_PLACEMENT_3D('',#1560,#1210,#1211);
#1069=AXIS2_PLACEMENT_3D('',#1571,#1213,#1214);
#1070=AXIS2_PLACEMENT_3D('',#1586,#1215,#1216);
#1071=AXIS2_PLACEMENT_3D('',#1588,#1218,#1219);
#1072=AXIS2_PLACEMENT_3D('',#1597,#1221,#1222);
#1073=AXIS2_PLACEMENT_3D('',#1608,#1224,#1225);
#1074=AXIS2_PLACEMENT_3D('',#1624,#1228,#1229);
#1075=AXIS2_PLACEMENT_3D('',#1633,#1231,#1232);
#1076=AXIS2_PLACEMENT_3D('',#1642,#1237,#1238);
#1077=AXIS2_PLACEMENT_3D('',#1648,#1242,#1243);
#1078=AXIS2_PLACEMENT_3D('',#1650,#1244,#1245);
#1079=AXIS2_PLACEMENT_3D('',#1652,#1246,#1247);
#1080=AXIS2_PLACEMENT_3D('',#1654,#1249,#1250);
#1081=AXIS2_PLACEMENT_3D('',#1660,#1254,#1255);
#1082=AXIS2_PLACEMENT_3D('',#1662,#1256,#1257);
#1083=AXIS2_PLACEMENT_3D('',#1664,#1258,#1259);
#1084=AXIS2_PLACEMENT_3D('',#1666,#1261,#1262);
#1085=AXIS2_PLACEMENT_3D('',#1672,#1266,#1267);
#1086=AXIS2_PLACEMENT_3D('',#1691,#1269,#1270);
#1087=AXIS2_PLACEMENT_3D('',#1692,#1271,#1272);
#1088=AXIS2_PLACEMENT_3D('',#1703,#1275,#1276);
#1089=AXIS2_PLACEMENT_3D('',#1714,#1278,#1279);
#1090=AXIS2_PLACEMENT_3D('',#1720,#1283,#1284);
#1091=AXIS2_PLACEMENT_3D('',#1722,#1285,#1286);
#1092=AXIS2_PLACEMENT_3D('',#1724,#1287,#1288);
#1093=AXIS2_PLACEMENT_3D('',#1726,#1290,#1291);
#1094=AXIS2_PLACEMENT_3D('',#1732,#1295,#1296);
#1095=AXIS2_PLACEMENT_3D('',#1738,#1300,#1301);
#1096=AXIS2_PLACEMENT_3D('',#1739,#1302,#1303);
#1097=AXIS2_PLACEMENT_3D('',#1740,#1304,#1305);
#1098=AXIS2_PLACEMENT_3D('',#1741,#1306,#1307);
#1099=AXIS2_PLACEMENT_3D('',#1743,#1308,#1309);
#1100=AXIS2_PLACEMENT_3D('',#1745,#1310,#1311);
#1101=AXIS2_PLACEMENT_3D('',#1746,#1312,#1313);
#1102=AXIS2_PLACEMENT_3D('',#1747,#1314,#1315);
#1103=AXIS2_PLACEMENT_3D('',#1748,#1316,#1317);
#1104=AXIS2_PLACEMENT_3D('',#1750,#1319,#1320);
#1105=AXIS2_PLACEMENT_3D('',#1753,#1321,#1322);
#1106=AXIS2_PLACEMENT_3D('',#1755,#1323,#1324);
#1107=AXIS2_PLACEMENT_3D('',#1756,#1325,#1326);
#1108=AXIS2_PLACEMENT_3D('',#1757,#1327,#1328);
#1109=AXIS2_PLACEMENT_3D('',#1758,#1329,#1330);
#1110=AXIS2_PLACEMENT_3D('',#1759,#1331,#1332);
#1111=AXIS2_PLACEMENT_3D('',#1760,#1333,#1334);
#1112=AXIS2_PLACEMENT_3D('',#1761,#1335,#1336);
#1113=AXIS2_PLACEMENT_3D('',#1762,#1337,#1338);
#1114=AXIS2_PLACEMENT_3D('',#1764,#1340,#1341);
#1115=AXIS2_PLACEMENT_3D('',#1767,#1342,#1343);
#1116=AXIS2_PLACEMENT_3D('',#1768,#1344,#1345);
#1117=AXIS2_PLACEMENT_3D('',#1769,#1346,#1347);
#1118=AXIS2_PLACEMENT_3D('',#1770,#1348,#1349);
#1119=AXIS2_PLACEMENT_3D('',#1772,#1351,#1352);
#1120=AXIS2_PLACEMENT_3D('',#1775,#1353,#1354);
#1121=AXIS2_PLACEMENT_3D('',#1776,#1355,#1356);
#1122=AXIS2_PLACEMENT_3D('',#1777,#1357,#1358);
#1123=AXIS2_PLACEMENT_3D('',#1778,#1359,#1360);
#1124=AXIS2_PLACEMENT_3D('',#1780,#1362,#1363);
#1125=AXIS2_PLACEMENT_3D('',#1783,#1365,#1366);
#1126=AXIS2_PLACEMENT_3D('',#1784,#1367,#1368);
#1127=AXIS2_PLACEMENT_3D('',#1786,#1369,#1370);
#1128=AXIS2_PLACEMENT_3D('',#1788,#1372,#1373);
#1129=AXIS2_PLACEMENT_3D('',#1789,#1374,#1375);
#1130=AXIS2_PLACEMENT_3D('',#1791,#1376,#1377);
#1131=AXIS2_PLACEMENT_3D('',#1793,#1379,#1380);
#1132=AXIS2_PLACEMENT_3D('',#1794,#1381,#1382);
#1133=AXIS2_PLACEMENT_3D('',#1796,#1383,#1384);
#1134=AXIS2_PLACEMENT_3D('',#1798,#1386,#1387);
#1135=AXIS2_PLACEMENT_3D('',#1799,#1388,#1389);
#1136=AXIS2_PLACEMENT_3D('',#1800,#1390,#1391);
#1137=AXIS2_PLACEMENT_3D('',#1809,#1396,#1397);
#1138=AXIS2_PLACEMENT_3D('',#1815,#1401,#1402);
#1139=AXIS2_PLACEMENT_3D('',#1817,#1403,#1404);
#1140=AXIS2_PLACEMENT_3D('',#1819,#1405,#1406);
#1141=AXIS2_PLACEMENT_3D('',#1821,#1408,#1409);
#1142=AXIS2_PLACEMENT_3D('',#1827,#1413,#1414);
#1143=AXIS2_PLACEMENT_3D('',#1833,#1418,#1419);
#1144=AXIS2_PLACEMENT_3D('',#1837,#1421,#1422);
#1145=AXIS2_PLACEMENT_3D('',#1839,#1423,#1424);
#1146=AXIS2_PLACEMENT_3D('',#1844,#1427,#1428);
#1147=AXIS2_PLACEMENT_3D('',#1845,#1429,#1430);
#1148=AXIS2_PLACEMENT_3D('',#1847,#1431,#1432);
#1149=AXIS2_PLACEMENT_3D('',#1849,#1434,#1435);
#1150=AXIS2_PLACEMENT_3D('',#1853,#1438,#1439);
#1151=AXIS2_PLACEMENT_3D('',#1855,#1440,#1441);
#1152=AXIS2_PLACEMENT_3D('',#1857,#1443,#1444);
#1153=AXIS2_PLACEMENT_3D('',#1861,#1447,#1448);
#1154=AXIS2_PLACEMENT_3D('',#1865,#1451,#1452);
#1155=AXIS2_PLACEMENT_3D('',#1866,#1453,#1454);
#1156=AXIS2_PLACEMENT_3D('',#1867,#1455,#1456);
#1157=DIRECTION('axis',(0.,0.,1.));
#1158=DIRECTION('refdir',(1.,0.,0.));
#1159=DIRECTION('center_axis',(0.,0.,1.));
#1160=DIRECTION('ref_axis',(1.,0.,0.));
#1161=DIRECTION('center_axis',(0.,0.,-1.));
#1162=DIRECTION('ref_axis',(1.,0.,0.));
#1163=DIRECTION('center_axis',(0.,0.,1.));
#1164=DIRECTION('ref_axis',(1.,0.,0.));
#1165=DIRECTION('center_axis',(0.,0.,1.));
#1166=DIRECTION('ref_axis',(1.,0.,0.));
#1167=DIRECTION('center_axis',(0.,0.,-1.));
#1168=DIRECTION('ref_axis',(1.,0.,0.));
#1169=DIRECTION('center_axis',(0.,0.,1.));
#1170=DIRECTION('ref_axis',(1.,0.,0.));
#1171=DIRECTION('center_axis',(0.,0.,1.));
#1172=DIRECTION('ref_axis',(1.,0.,0.));
#1173=DIRECTION('center_axis',(0.,0.,-1.));
#1174=DIRECTION('ref_axis',(-1.,0.,0.));
#1175=DIRECTION('center_axis',(0.,0.,1.));
#1176=DIRECTION('ref_axis',(-1.,0.,0.));
#1177=DIRECTION('center_axis',(0.,0.,1.));
#1178=DIRECTION('ref_axis',(1.,0.,0.));
#1179=DIRECTION('center_axis',(0.,0.,-1.));
#1180=DIRECTION('ref_axis',(1.,0.,0.));
#1181=DIRECTION('center_axis',(0.,0.,1.));
#1182=DIRECTION('ref_axis',(1.,0.,0.));
#1183=DIRECTION('center_axis',(0.,0.,-1.));
#1184=DIRECTION('ref_axis',(0.998977133301832,0.0452182169048417,0.));
#1185=DIRECTION('',(0.,0.,-1.));
#1186=DIRECTION('center_axis',(0.,0.,1.));
#1187=DIRECTION('ref_axis',(0.998977133301832,0.0452182169048417,0.));
#1188=DIRECTION('',(0.,0.,-1.));
#1189=DIRECTION('center_axis',(1.2554253976366E-14,-1.,0.));
#1190=DIRECTION('ref_axis',(-1.,-1.2554253976366E-14,0.));
#1191=DIRECTION('',(-1.,-1.2554253976366E-14,0.));
#1192=DIRECTION('',(0.,0.,-1.));
#1193=DIRECTION('center_axis',(0.00644519794725562,-0.999979229496003,0.));
#1194=DIRECTION('ref_axis',(-0.999979229496003,-0.00644519794725562,0.));
#1195=DIRECTION('',(-0.999979229496003,-0.00644519794725562,0.));
#1196=DIRECTION('',(0.,0.,-1.));
#1197=DIRECTION('center_axis',(0.,0.,-1.));
#1198=DIRECTION('ref_axis',(-0.0451881147869564,0.998978495405182,0.));
#1199=DIRECTION('center_axis',(0.,0.,1.));
#1200=DIRECTION('ref_axis',(-0.0451881147869564,0.998978495405182,0.));
#1201=DIRECTION('',(0.,0.,-1.));
#1202=DIRECTION('center_axis',(-1.,7.74739838270216E-14,0.));
#1203=DIRECTION('ref_axis',(7.74739838270216E-14,1.,0.));
#1204=DIRECTION('',(0.,0.,-1.));
#1205=DIRECTION('',(7.74739838270216E-14,1.,0.));
#1206=DIRECTION('center_axis',(1.,-4.42272742319611E-15,0.));
#1207=DIRECTION('ref_axis',(-4.42272742319611E-15,-1.,0.));
#1208=DIRECTION('',(-4.42272742319611E-15,-1.,0.));
#1209=DIRECTION('',(0.,0.,-1.));
#1210=DIRECTION('center_axis',(1.,-4.42272742319611E-15,0.));
#1211=DIRECTION('ref_axis',(-4.42272742319611E-15,-1.,0.));
#1212=DIRECTION('',(-4.42272742319611E-15,-1.,0.));
#1213=DIRECTION('center_axis',(0.,0.,-1.));
#1214=DIRECTION('ref_axis',(-0.999978075114886,0.00662187960678538,0.));
#1215=DIRECTION('center_axis',(0.,0.,1.));
#1216=DIRECTION('ref_axis',(-0.999978075114886,0.00662187960678538,0.));
#1217=DIRECTION('',(0.,0.,-1.));
#1218=DIRECTION('center_axis',(-2.93666759681076E-16,1.,0.));
#1219=DIRECTION('ref_axis',(1.,2.93666759681076E-16,0.));
#1220=DIRECTION('',(1.,2.93666759681076E-16,0.));
#1221=DIRECTION('center_axis',(1.2554253976366E-14,-1.,0.));
#1222=DIRECTION('ref_axis',(-1.,-1.2554253976366E-14,0.));
#1223=DIRECTION('',(-1.,-1.2554253976366E-14,0.));
#1224=DIRECTION('center_axis',(-0.999979161899818,-0.00645567704717455,
0.));
#1225=DIRECTION('ref_axis',(-0.00645567704717455,0.999979161899818,0.));
#1226=DIRECTION('',(0.,0.,-1.));
#1227=DIRECTION('',(-0.00645567704717455,0.999979161899818,0.));
#1228=DIRECTION('center_axis',(-1.,7.74739838270216E-14,0.));
#1229=DIRECTION('ref_axis',(7.74739838270216E-14,1.,0.));
#1230=DIRECTION('',(7.74739838270216E-14,1.,0.));
#1231=DIRECTION('center_axis',(-1.25530395291358E-14,1.,0.));
#1232=DIRECTION('ref_axis',(1.,1.25530395291358E-14,0.));
#1233=DIRECTION('',(1.,1.25530395291358E-14,0.));
#1234=DIRECTION('',(0.,0.,-1.));
#1235=DIRECTION('',(1.,1.25530395291358E-14,0.));
#1236=DIRECTION('',(0.,0.,-1.));
#1237=DIRECTION('center_axis',(-0.00644519794725855,0.999979229496003,0.));
#1238=DIRECTION('ref_axis',(0.999979229496003,0.00644519794725855,0.));
#1239=DIRECTION('',(0.999979229496003,0.00644519794725855,0.));
#1240=DIRECTION('',(0.999979229496003,0.00644519794725855,0.));
#1241=DIRECTION('',(0.,0.,-1.));
#1242=DIRECTION('center_axis',(0.,0.,-1.));
#1243=DIRECTION('ref_axis',(-0.0407878809398425,0.999167828129207,0.));
#1244=DIRECTION('center_axis',(0.,0.,-1.));
#1245=DIRECTION('ref_axis',(-0.0407878809398425,0.999167828129207,0.));
#1246=DIRECTION('center_axis',(0.,0.,-1.));
#1247=DIRECTION('ref_axis',(-0.0407878809398425,0.999167828129207,0.));
#1248=DIRECTION('',(0.,0.,-1.));
#1249=DIRECTION('center_axis',(-1.,1.98261886641619E-14,0.));
#1250=DIRECTION('ref_axis',(1.98261886641619E-14,1.,0.));
#1251=DIRECTION('',(1.98261886641619E-14,1.,0.));
#1252=DIRECTION('',(1.98261886641619E-14,1.,0.));
#1253=DIRECTION('',(0.,0.,-1.));
#1254=DIRECTION('center_axis',(0.,0.,-1.));
#1255=DIRECTION('ref_axis',(-0.999982772227335,0.00586985932831374,0.));
#1256=DIRECTION('center_axis',(0.,0.,-1.));
#1257=DIRECTION('ref_axis',(-0.999982772227335,0.00586985932831374,0.));
#1258=DIRECTION('center_axis',(0.,0.,-1.));
#1259=DIRECTION('ref_axis',(-0.999982772227335,0.00586985932831374,0.));
#1260=DIRECTION('',(0.,0.,-1.));
#1261=DIRECTION('center_axis',(2.93635541027145E-16,-1.,0.));
#1262=DIRECTION('ref_axis',(-1.,-2.93635541027145E-16,0.));
#1263=DIRECTION('',(-1.,-2.93635541027145E-16,0.));
#1264=DIRECTION('',(-1.,-2.93635541027145E-16,0.));
#1265=DIRECTION('',(0.,0.,-1.));
#1266=DIRECTION('center_axis',(0.,0.,-1.));
#1267=DIRECTION('ref_axis',(0.0452272131211791,-0.998976726051859,0.));
#1268=DIRECTION('',(0.,0.,-1.));
#1269=DIRECTION('center_axis',(0.,0.,1.));
#1270=DIRECTION('ref_axis',(0.0452272131211791,-0.998976726051859,0.));
#1271=DIRECTION('center_axis',(-0.00645571061404941,0.999979161683116,0.));
#1272=DIRECTION('ref_axis',(0.999979161683116,0.00645571061404941,0.));
#1273=DIRECTION('',(0.,0.,-1.));
#1274=DIRECTION('',(0.999979161683116,0.00645571061404941,0.));
#1275=DIRECTION('center_axis',(-2.93666759681076E-16,1.,0.));
#1276=DIRECTION('ref_axis',(1.,2.93666759681076E-16,0.));
#1277=DIRECTION('',(1.,2.93666759681076E-16,0.));
#1278=DIRECTION('center_axis',(0.00645571061401707,-0.999979161683116,0.));
#1279=DIRECTION('ref_axis',(-0.999979161683116,-0.00645571061401707,0.));
#1280=DIRECTION('',(-0.999979161683116,-0.00645571061401707,0.));
#1281=DIRECTION('',(-0.999979161683116,-0.00645571061401707,0.));
#1282=DIRECTION('',(0.,0.,-1.));
#1283=DIRECTION('center_axis',(0.,0.,-1.));
#1284=DIRECTION('ref_axis',(0.0408238906458661,-0.999166357496355,0.));
#1285=DIRECTION('center_axis',(0.,0.,-1.));
#1286=DIRECTION('ref_axis',(0.0408238906458661,-0.999166357496355,0.));
#1287=DIRECTION('center_axis',(0.,0.,-1.));
#1288=DIRECTION('ref_axis',(0.0408238906458661,-0.999166357496355,0.));
#1289=DIRECTION('',(0.,0.,-1.));
#1290=DIRECTION('center_axis',(1.,-7.71612019437054E-14,0.));
#1291=DIRECTION('ref_axis',(-7.71612019437054E-14,-1.,0.));
#1292=DIRECTION('',(-7.71612019437054E-14,-1.,0.));
#1293=DIRECTION('',(-7.71612019437054E-14,-1.,0.));
#1294=DIRECTION('',(0.,0.,-1.));
#1295=DIRECTION('center_axis',(0.999979161899817,0.00645567704730419,0.));
#1296=DIRECTION('ref_axis',(0.00645567704730419,-0.999979161899817,0.));
#1297=DIRECTION('',(0.00645567704730419,-0.999979161899817,0.));
#1298=DIRECTION('',(0.00645567704730419,-0.999979161899817,0.));
#1299=DIRECTION('',(0.,0.,-1.));
#1300=DIRECTION('center_axis',(0.,0.,-1.));
#1301=DIRECTION('ref_axis',(0.999166684940991,0.0408158756371773,0.));
#1302=DIRECTION('center_axis',(0.,0.,-1.));
#1303=DIRECTION('ref_axis',(0.999166684940991,0.0408158756371773,0.));
#1304=DIRECTION('center_axis',(0.,0.,-1.));
#1305=DIRECTION('ref_axis',(0.999166684940991,0.0408158756371773,0.));
#1306=DIRECTION('center_axis',(0.,0.,-1.));
#1307=DIRECTION('ref_axis',(-1.,0.,0.));
#1308=DIRECTION('center_axis',(0.,0.,-1.));
#1309=DIRECTION('ref_axis',(-1.,0.,0.));
#1310=DIRECTION('center_axis',(0.,-1.,0.));
#1311=DIRECTION('ref_axis',(1.,0.,0.));
#1312=DIRECTION('center_axis',(0.,0.,1.));
#1313=DIRECTION('ref_axis',(-1.,0.,0.));
#1314=DIRECTION('center_axis',(0.,0.,1.));
#1315=DIRECTION('ref_axis',(-1.,0.,0.));
#1316=DIRECTION('center_axis',(0.,0.,1.));
#1317=DIRECTION('ref_axis',(-1.,0.,0.));
#1318=DIRECTION('',(0.,0.,-1.));
#1319=DIRECTION('center_axis',(0.,0.,-1.));
#1320=DIRECTION('ref_axis',(-1.,0.,0.));
#1321=DIRECTION('center_axis',(0.,0.,-1.));
#1322=DIRECTION('ref_axis',(1.,0.,0.));
#1323=DIRECTION('center_axis',(0.,-1.,0.));
#1324=DIRECTION('ref_axis',(1.,0.,0.));
#1325=DIRECTION('center_axis',(0.,0.,1.));
#1326=DIRECTION('ref_axis',(1.,0.,0.));
#1327=DIRECTION('center_axis',(0.,0.,1.));
#1328=DIRECTION('ref_axis',(1.,0.,0.));
#1329=DIRECTION('center_axis',(0.,0.,-1.));
#1330=DIRECTION('ref_axis',(1.,0.,0.));
#1331=DIRECTION('center_axis',(0.,0.,-1.));
#1332=DIRECTION('ref_axis',(1.,0.,0.));
#1333=DIRECTION('center_axis',(0.,0.,1.));
#1334=DIRECTION('ref_axis',(1.,0.,0.));
#1335=DIRECTION('center_axis',(0.,0.,1.));
#1336=DIRECTION('ref_axis',(1.,0.,0.));
#1337=DIRECTION('center_axis',(0.,0.,-1.));
#1338=DIRECTION('ref_axis',(1.,0.,0.));
#1339=DIRECTION('',(0.,0.,1.));
#1340=DIRECTION('center_axis',(0.,0.,-1.));
#1341=DIRECTION('ref_axis',(-1.,0.,0.));
#1342=DIRECTION('center_axis',(0.,0.,-1.));
#1343=DIRECTION('ref_axis',(1.,0.,0.));
#1344=DIRECTION('center_axis',(0.,-1.,0.));
#1345=DIRECTION('ref_axis',(1.,0.,0.));
#1346=DIRECTION('center_axis',(0.,0.,-1.));
#1347=DIRECTION('ref_axis',(1.,0.,0.));
#1348=DIRECTION('center_axis',(0.,0.,-1.));
#1349=DIRECTION('ref_axis',(1.,0.,0.));
#1350=DIRECTION('',(0.,0.,1.));
#1351=DIRECTION('center_axis',(0.,0.,-1.));
#1352=DIRECTION('ref_axis',(-1.,0.,0.));
#1353=DIRECTION('center_axis',(0.,0.,-1.));
#1354=DIRECTION('ref_axis',(1.,0.,0.));
#1355=DIRECTION('center_axis',(0.,-1.,0.));
#1356=DIRECTION('ref_axis',(1.,0.,0.));
#1357=DIRECTION('center_axis',(0.,0.,-1.));
#1358=DIRECTION('ref_axis',(1.,0.,0.));
#1359=DIRECTION('center_axis',(0.,0.,-1.));
#1360=DIRECTION('ref_axis',(1.,0.,0.));
#1361=DIRECTION('',(0.,0.,1.));
#1362=DIRECTION('center_axis',(0.,0.,1.));
#1363=DIRECTION('ref_axis',(-1.,0.,0.));
#1364=DIRECTION('',(0.,0.,-1.));
#1365=DIRECTION('center_axis',(0.,0.,1.));
#1366=DIRECTION('ref_axis',(-1.,0.,0.));
#1367=DIRECTION('center_axis',(0.,0.,-1.));
#1368=DIRECTION('ref_axis',(1.,0.,0.));
#1369=DIRECTION('center_axis',(0.,0.,1.));
#1370=DIRECTION('ref_axis',(1.,0.,0.));
#1371=DIRECTION('',(0.,0.,1.));
#1372=DIRECTION('center_axis',(0.,0.,-1.));
#1373=DIRECTION('ref_axis',(1.,0.,0.));
#1374=DIRECTION('center_axis',(0.,0.,-1.));
#1375=DIRECTION('ref_axis',(1.,0.,0.));
#1376=DIRECTION('center_axis',(0.,0.,1.));
#1377=DIRECTION('ref_axis',(1.,0.,0.));
#1378=DIRECTION('',(0.,0.,1.));
#1379=DIRECTION('center_axis',(0.,0.,-1.));
#1380=DIRECTION('ref_axis',(1.,0.,0.));
#1381=DIRECTION('center_axis',(0.,0.,-1.));
#1382=DIRECTION('ref_axis',(1.,0.,0.));
#1383=DIRECTION('center_axis',(0.,0.,1.));
#1384=DIRECTION('ref_axis',(1.,0.,0.));
#1385=DIRECTION('',(0.,0.,1.));
#1386=DIRECTION('center_axis',(0.,0.,-1.));
#1387=DIRECTION('ref_axis',(1.,0.,0.));
#1388=DIRECTION('center_axis',(0.,0.,-1.));
#1389=DIRECTION('ref_axis',(1.,0.,0.));
#1390=DIRECTION('center_axis',(1.,-7.74378382958147E-14,0.));
#1391=DIRECTION('ref_axis',(7.74378382958147E-14,1.,0.));
#1392=DIRECTION('',(7.74378382958147E-14,1.,0.));
#1393=DIRECTION('',(0.,0.,1.));
#1394=DIRECTION('',(-7.74378382958147E-14,-1.,0.));
#1395=DIRECTION('',(0.,0.,1.));
#1396=DIRECTION('center_axis',(0.999979161899818,0.00645567704715086,0.));
#1397=DIRECTION('ref_axis',(-0.00645567704715086,0.999979161899818,0.));
#1398=DIRECTION('',(-0.00645567704715086,0.999979161899818,0.));
#1399=DIRECTION('',(0.00645567704715086,-0.999979161899818,0.));
#1400=DIRECTION('',(0.,0.,1.));
#1401=DIRECTION('center_axis',(0.,0.,1.));
#1402=DIRECTION('ref_axis',(0.999498367088947,0.0316703992164248,0.));
#1403=DIRECTION('center_axis',(0.,0.,1.));
#1404=DIRECTION('ref_axis',(0.999498367088947,0.0316703992164248,0.));
#1405=DIRECTION('center_axis',(0.,0.,-1.));
#1406=DIRECTION('ref_axis',(0.999498367088947,0.0316703992164248,0.));
#1407=DIRECTION('',(0.,0.,1.));
#1408=DIRECTION('center_axis',(-1.26220076146449E-14,1.,0.));
#1409=DIRECTION('ref_axis',(-1.,-1.26220076146449E-14,0.));
#1410=DIRECTION('',(-1.,-1.26220076146449E-14,0.));
#1411=DIRECTION('',(1.,1.26220076146449E-14,0.));
#1412=DIRECTION('',(0.,0.,1.));
#1413=DIRECTION('center_axis',(-0.00644519794716084,0.999979229496004,0.));
#1414=DIRECTION('ref_axis',(-0.999979229496004,-0.00644519794716084,0.));
#1415=DIRECTION('',(-0.999979229496004,-0.00644519794716084,0.));
#1416=DIRECTION('',(0.999979229496004,0.00644519794716084,0.));
#1417=DIRECTION('',(0.,0.,1.));
#1418=DIRECTION('center_axis',(0.,0.,1.));
#1419=DIRECTION('ref_axis',(-1.,0.,0.));
#1420=DIRECTION('',(4.42288575665649E-15,1.,0.));
#1421=DIRECTION('center_axis',(0.,0.,-1.));
#1422=DIRECTION('ref_axis',(-0.0316469157261351,0.999499110917575,0.));
#1423=DIRECTION('center_axis',(0.,0.,-1.));
#1424=DIRECTION('ref_axis',(0.031676335458571,-0.999498178973787,0.));
#1425=DIRECTION('',(-0.999979161683118,-0.00645571061373258,0.));
#1426=DIRECTION('',(-1.,-2.93523258889097E-16,0.));
#1427=DIRECTION('center_axis',(0.,0.,-1.));
#1428=DIRECTION('ref_axis',(-0.999990722525256,0.00430753565465775,0.));
#1429=DIRECTION('center_axis',(0.,0.,1.));
#1430=DIRECTION('ref_axis',(-0.0316469157261351,0.999499110917575,0.));
#1431=DIRECTION('center_axis',(0.,0.,1.));
#1432=DIRECTION('ref_axis',(-0.0316469157261351,0.999499110917575,0.));
#1433=DIRECTION('',(0.,0.,-1.));
#1434=DIRECTION('center_axis',(-1.,4.42288575665649E-15,0.));
#1435=DIRECTION('ref_axis',(-4.42288575665649E-15,-1.,0.));
#1436=DIRECTION('',(-4.42288575665649E-15,-1.,0.));
#1437=DIRECTION('',(0.,0.,1.));
#1438=DIRECTION('center_axis',(0.,0.,1.));
#1439=DIRECTION('ref_axis',(-0.999990722525256,0.00430753565465775,0.));
#1440=DIRECTION('center_axis',(0.,0.,1.));
#1441=DIRECTION('ref_axis',(-0.999990722525256,0.00430753565465775,0.));
#1442=DIRECTION('',(0.,0.,1.));
#1443=DIRECTION('center_axis',(2.93523258889097E-16,-1.,0.));
#1444=DIRECTION('ref_axis',(1.,2.93523258889097E-16,0.));
#1445=DIRECTION('',(1.,2.93523258889097E-16,0.));
#1446=DIRECTION('',(0.,0.,1.));
#1447=DIRECTION('center_axis',(0.00645571061373258,-0.999979161683118,0.));
#1448=DIRECTION('ref_axis',(0.999979161683118,0.00645571061373258,0.));
#1449=DIRECTION('',(0.999979161683118,0.00645571061373258,0.));
#1450=DIRECTION('',(0.,0.,1.));
#1451=DIRECTION('center_axis',(0.,0.,1.));
#1452=DIRECTION('ref_axis',(0.031676335458571,-0.999498178973787,0.));
#1453=DIRECTION('center_axis',(0.,0.,1.));
#1454=DIRECTION('ref_axis',(0.031676335458571,-0.999498178973787,0.));
#1455=DIRECTION('center_axis',(0.,0.,1.));
#1456=DIRECTION('ref_axis',(1.,0.,0.));
#1457=CARTESIAN_POINT('',(0.,0.,0.));
#1458=CARTESIAN_POINT('Origin',(54.882372542085,-87.5252729363784,-0.2));
#1459=CARTESIAN_POINT('',(52.732372542085,-87.5252729363784,-0.2));
#1460=CARTESIAN_POINT('Origin',(54.882372542085,-87.5252729363784,-0.2));
#1461=CARTESIAN_POINT('',(53.532372542085,-87.5252729363784,-0.2));
#1462=CARTESIAN_POINT('Origin',(54.882372542085,-87.5252729363784,-0.2));
#1463=CARTESIAN_POINT('Origin',(115.363790736813,-58.4898698611104,-0.2));
#1464=CARTESIAN_POINT('',(113.188066512733,-29.3256154515343,-0.2));
#1465=CARTESIAN_POINT('Origin',(115.338066512733,-29.3256154515343,-0.2));
#1466=CARTESIAN_POINT('',(113.988066512733,-29.3256154515343,-0.2));
#1467=CARTESIAN_POINT('Origin',(115.338066512733,-29.3256154515343,-0.2));
#1468=CARTESIAN_POINT('Origin',(54.8730806108239,-29.3924296752791,-0.2));
#1469=CARTESIAN_POINT('',(57.0230806108239,-29.3924296752791,-0.2));
#1470=CARTESIAN_POINT('Origin',(54.8730806108239,-29.3924296752791,-0.2));
#1471=CARTESIAN_POINT('',(56.2230806108239,-29.3924296752791,-0.2));
#1472=CARTESIAN_POINT('Origin',(54.8730806108239,-29.3924296752791,-0.2));
#1473=CARTESIAN_POINT('Origin',(115.363790736813,-58.4898698611104,-0.2));
#1474=CARTESIAN_POINT('',(113.239514960894,-87.6541242706865,-0.2));
#1475=CARTESIAN_POINT('Origin',(115.389514960894,-87.6541242706865,-0.2));
#1476=CARTESIAN_POINT('',(114.039514960894,-87.6541242706865,-0.2));
#1477=CARTESIAN_POINT('Origin',(115.389514960894,-87.6541242706865,-0.2));
#1478=CARTESIAN_POINT('Origin',(115.4274827406,-29.31961936675,0.));
#1479=CARTESIAN_POINT('',(115.447995,-25.6539999999992,-4.34234900473666));
#1480=CARTESIAN_POINT('',(119.089409999992,-29.1538640000004,-4.36066078740956));
#1481=CARTESIAN_POINT('Ctrl Pts',(115.447995,-25.6539999999992,-4.34234900473666));
#1482=CARTESIAN_POINT('Ctrl Pts',(115.927530690188,-25.6566834102185,-4.34521302574347));
#1483=CARTESIAN_POINT('Ctrl Pts',(116.401913700949,-25.7534400903148,-4.34787953628318));
#1484=CARTESIAN_POINT('Ctrl Pts',(117.286118080443,-26.1239586662631,-4.35259244234919));
#1485=CARTESIAN_POINT('Ctrl Pts',(117.687473691863,-26.3940055203436,-4.35459655360849));
#1486=CARTESIAN_POINT('Ctrl Pts',(118.343957052638,-27.0535358468029,-4.35771653878152));
#1487=CARTESIAN_POINT('Ctrl Pts',(118.600593245797,-27.429558968118,-4.35885266509102));
#1488=CARTESIAN_POINT('Ctrl Pts',(118.96486575621,-28.2570499593565,-4.36035533703184));
#1489=CARTESIAN_POINT('Ctrl Pts',(119.068939238739,-28.7016165698035,-4.36070803441649));
#1490=CARTESIAN_POINT('Ctrl Pts',(119.089409999992,-29.1538640000004,-4.36066078740956));
#1491=CARTESIAN_POINT('',(119.089409999992,-29.1538640000004,-4.4));
#1492=CARTESIAN_POINT('',(119.089409999992,-29.1538640000004,0.));
#1493=CARTESIAN_POINT('',(115.447995,-25.6539999999992,-4.4));
#1494=CARTESIAN_POINT('Origin',(115.4274827406,-29.31961936675,-4.4));
#1495=CARTESIAN_POINT('',(115.447995,-25.6539999999992,0.));
#1496=CARTESIAN_POINT('Origin',(115.447995,-25.6539999999992,0.));
#1497=CARTESIAN_POINT('',(54.959132,-25.654,-4.35740235806885));
#1498=CARTESIAN_POINT('',(56.6749250999496,-25.654,-4.4));
#1499=CARTESIAN_POINT('Ctrl Pts',(54.959132,-25.654,-4.35740235806885));
#1500=CARTESIAN_POINT('Ctrl Pts',(55.3325596328129,-25.654,-4.35920486887646));
#1501=CARTESIAN_POINT('Ctrl Pts',(55.7634313752027,-25.654,-4.37724671881982));
#1502=CARTESIAN_POINT('Ctrl Pts',(56.298155836231,-25.654,-4.3949317141529));
#1503=CARTESIAN_POINT('Ctrl Pts',(56.5036379364445,-25.654,-4.4));
#1504=CARTESIAN_POINT('Ctrl Pts',(56.6749250999496,-25.654,-4.4));
#1505=CARTESIAN_POINT('',(54.959132,-25.654,-4.4));
#1506=CARTESIAN_POINT('',(100.313438146322,-25.6539999999994,-4.4));
#1507=CARTESIAN_POINT('',(54.959132,-25.654,0.));
#1508=CARTESIAN_POINT('Origin',(54.959132,-25.654,0.));
#1509=CARTESIAN_POINT('',(54.767055,-25.655238,-4.35725023922583));
#1510=CARTESIAN_POINT('Ctrl Pts',(54.767055,-25.655238,-4.35725023922583));
#1511=CARTESIAN_POINT('Ctrl Pts',(54.7947015551804,-25.6550598087782,-4.35712291106849));
#1512=CARTESIAN_POINT('Ctrl Pts',(54.8220301232158,-25.654883667089,-4.35706132329234));
#1513=CARTESIAN_POINT('Ctrl Pts',(54.885083232871,-25.654477268875,-4.35706132329234));
#1514=CARTESIAN_POINT('Ctrl Pts',(54.9218380554426,-25.6542403718476,-4.35717193615448));
#1515=CARTESIAN_POINT('Ctrl Pts',(54.959132,-25.654,-4.35740235806885));
#1516=CARTESIAN_POINT('',(54.767055,-25.655238,-4.4));
#1517=CARTESIAN_POINT('',(69.9627237377076,-25.557296872758,-4.4));
#1518=CARTESIAN_POINT('',(54.767055,-25.655238,0.));
#1519=CARTESIAN_POINT('Origin',(54.932694674871,-29.31705204031,0.));
#1520=CARTESIAN_POINT('',(51.2671930000003,-29.296655,-4.32492181130857));
#1521=CARTESIAN_POINT('Ctrl Pts',(51.2671930000045,-29.2966550000001,-4.32492181130738));
#1522=CARTESIAN_POINT('Ctrl Pts',(51.2698612350337,-28.8171530810947,-4.32775995202708));
#1523=CARTESIAN_POINT('Ctrl Pts',(51.3665926258793,-28.3428026629181,-4.33090536552896));
#1524=CARTESIAN_POINT('Ctrl Pts',(51.7372947597148,-27.4580408344744,-4.33732479562403));
#1525=CARTESIAN_POINT('Ctrl Pts',(52.0077844960057,-27.0562104028461,-4.34053540191471));
#1526=CARTESIAN_POINT('Ctrl Pts',(52.6670067995174,-26.4006494670551,-4.34639012454065));
#1527=CARTESIAN_POINT('Ctrl Pts',(53.0417344490767,-26.144826082546,-4.34900892628668));
#1528=CARTESIAN_POINT('Ctrl Pts',(53.8684373970641,-25.7801813733046,-4.35365776811292));
#1529=CARTESIAN_POINT('Ctrl Pts',(54.3138865336925,-25.6757367682593,-4.35564492193177));
#1530=CARTESIAN_POINT('Ctrl Pts',(54.767055,-25.655238,-4.35725023922583));
#1531=CARTESIAN_POINT('',(51.2671930000045,-29.296655,-4.4));
#1532=CARTESIAN_POINT('Origin',(54.932694674871,-29.31705204031,-4.4));
#1533=CARTESIAN_POINT('',(51.2671930000045,-29.296655,0.));
#1534=CARTESIAN_POINT('Origin',(119.090649999995,-87.584152,0.));
#1535=CARTESIAN_POINT('',(119.090649999996,-85.7768657849338,-4.4));
#1536=CARTESIAN_POINT('',(119.090649999995,-87.584152,-4.34913148509238));
#1537=CARTESIAN_POINT('Ctrl Pts',(119.090649999996,-85.7768657849338,-4.4));
#1538=CARTESIAN_POINT('Ctrl Pts',(119.090649999996,-85.9560850435356,-4.4));
#1539=CARTESIAN_POINT('Ctrl Pts',(119.090649999996,-86.1710635543644,-4.39396830842011));
#1540=CARTESIAN_POINT('Ctrl Pts',(119.090649999996,-86.7345544394096,-4.37268483396472));
#1541=CARTESIAN_POINT('Ctrl Pts',(119.090649999996,-87.1913151796495,-4.35083898155863));
#1542=CARTESIAN_POINT('Ctrl Pts',(119.090649999995,-87.584152,-4.34913148509238));
#1543=CARTESIAN_POINT('',(119.090649999997,-87.584152,-4.4));
#1544=CARTESIAN_POINT('',(119.090649999997,-87.584152,0.));
#1545=CARTESIAN_POINT('',(119.090649999997,-73.0122777500011,-4.4));
#1546=CARTESIAN_POINT('Origin',(51.2671930000003,-29.296655,0.));
#1547=CARTESIAN_POINT('',(51.267193,-87.534868,-4.32716908897677));
#1548=CARTESIAN_POINT('',(51.267193,-85.4873875425228,-4.4));
#1549=CARTESIAN_POINT('Ctrl Pts',(51.267193,-87.534868,-4.32716908897677));
#1550=CARTESIAN_POINT('Ctrl Pts',(51.267193,-87.5316651151809,-4.32716672993501));
#1551=CARTESIAN_POINT('Ctrl Pts',(51.267193,-87.5284667382942,-4.32716555536767));
#1552=CARTESIAN_POINT('Ctrl Pts',(51.267193,-87.0844152006703,-4.32716555536767));
#1553=CARTESIAN_POINT('Ctrl Pts',(51.267193,-86.556401468664,-4.35992957412543));
#1554=CARTESIAN_POINT('Ctrl Pts',(51.267193,-85.9197311952627,-4.39141922936683));
#1555=CARTESIAN_POINT('Ctrl Pts',(51.267193,-85.6839783423218,-4.4));
#1556=CARTESIAN_POINT('Ctrl Pts',(51.267193,-85.4873875425228,-4.4));
#1557=CARTESIAN_POINT('',(51.267193,-87.534868,-4.4));
#1558=CARTESIAN_POINT('',(51.2671930000002,-43.8685292499998,-4.4));
#1559=CARTESIAN_POINT('',(51.267193,-87.534868,0.));
#1560=CARTESIAN_POINT('Origin',(51.2671930000003,-29.296655,0.));
#1561=CARTESIAN_POINT('',(51.2671930000003,-31.4467116759082,-4.4));
#1562=CARTESIAN_POINT('Ctrl Pts',(51.2671930000003,-31.4467116759082,-4.4));
#1563=CARTESIAN_POINT('Ctrl Pts',(51.2671930000003,-31.2483060072127,-4.4));
#1564=CARTESIAN_POINT('Ctrl Pts',(51.2671930000003,-31.0103850176995,-4.39111584316817));
#1565=CARTESIAN_POINT('Ctrl Pts',(51.2671930000003,-30.3686006266266,-4.35851677043817));
#1566=CARTESIAN_POINT('Ctrl Pts',(51.2671930000003,-29.836635789986,-4.32456273162107));
#1567=CARTESIAN_POINT('Ctrl Pts',(51.2671930000003,-29.360925723913,-4.32456273162107));
#1568=CARTESIAN_POINT('Ctrl Pts',(51.2671930000003,-29.3289797048247,-4.32467977571497));
#1569=CARTESIAN_POINT('Ctrl Pts',(51.2671930000003,-29.296655,-4.32492181130857));
#1570=CARTESIAN_POINT('',(51.2671930000002,-43.8685292499998,-4.4));
#1571=CARTESIAN_POINT('Origin',(54.934849486627,-87.55915531219,0.));
#1572=CARTESIAN_POINT('',(54.909848,-91.226807,-4.34909459842175));
#1573=CARTESIAN_POINT('Ctrl Pts',(54.909848,-91.2268070000002,-4.34909459842179));
#1574=CARTESIAN_POINT('Ctrl Pts',(54.4336720138011,-91.2235610244921,-4.34753487578211));
#1575=CARTESIAN_POINT('Ctrl Pts',(53.962654542265,-91.1276120994811,-4.3457538068695));
#1576=CARTESIAN_POINT('Ctrl Pts',(53.0838038560697,-90.7611112591539,-4.34190143065677));
#1577=CARTESIAN_POINT('Ctrl Pts',(52.6842957037696,-90.4940997868927,-4.3398661643809));
#1578=CARTESIAN_POINT('Ctrl Pts',(52.0095999898801,-89.8223101367165,-4.3358031013117));
#1579=CARTESIAN_POINT('Ctrl Pts',(51.7408390213763,-89.4238945243907,-4.33381438619579));
#1580=CARTESIAN_POINT('Ctrl Pts',(51.4590256830181,-88.7561471922731,-4.33105817153756));
#1581=CARTESIAN_POINT('Ctrl Pts',(51.3858818334159,-88.5177842807795,-4.33016861791318));
#1582=CARTESIAN_POINT('Ctrl Pts',(51.289080289599,-88.030539609893,-4.32854142805743));
#1583=CARTESIAN_POINT('Ctrl Pts',(51.2655502603882,-87.7829401022543,-4.32780767738746));
#1584=CARTESIAN_POINT('Ctrl Pts',(51.267193,-87.534868,-4.32716908897677));
#1585=CARTESIAN_POINT('',(54.909848,-91.2268070000002,-4.4));
#1586=CARTESIAN_POINT('Origin',(54.934849486627,-87.55915531219,-4.4));
#1587=CARTESIAN_POINT('',(54.909848,-91.2268070000002,0.));
#1588=CARTESIAN_POINT('Origin',(54.909848,-91.226807,0.));
#1589=CARTESIAN_POINT('',(56.7588441181685,-91.226807,-4.4));
#1590=CARTESIAN_POINT('Ctrl Pts',(56.7588441181684,-91.226807,-4.4));
#1591=CARTESIAN_POINT('Ctrl Pts',(56.5797083047191,-91.226807,-4.4));
#1592=CARTESIAN_POINT('Ctrl Pts',(56.3648296657086,-91.226807,-4.39397906920954));
#1593=CARTESIAN_POINT('Ctrl Pts',(55.7876385938974,-91.226807,-4.3722078390296));
#1594=CARTESIAN_POINT('Ctrl Pts',(55.3117775016256,-91.226807,-4.34978087455284));
#1595=CARTESIAN_POINT('Ctrl Pts',(54.909848,-91.226807,-4.34909459842175));
#1596=CARTESIAN_POINT('',(70.0443646463225,-91.226807,-4.4));
#1597=CARTESIAN_POINT('Origin',(115.447995,-25.6539999999992,0.));
#1598=CARTESIAN_POINT('',(113.403708744364,-25.6539999999993,-4.4));
#1599=CARTESIAN_POINT('Ctrl Pts',(113.403708744364,-25.6539999999993,-4.4));
#1600=CARTESIAN_POINT('Ctrl Pts',(113.589023712513,-25.6539999999993,-4.4));
#1601=CARTESIAN_POINT('Ctrl Pts',(113.811295990113,-25.6539999999993,-4.39314489279125));
#1602=CARTESIAN_POINT('Ctrl Pts',(114.415665944676,-25.6539999999993,-4.36797239962917));
#1603=CARTESIAN_POINT('Ctrl Pts',(114.918487526216,-25.6539999999993,-4.34194444405343));
#1604=CARTESIAN_POINT('Ctrl Pts',(115.374129223327,-25.6539999999992,-4.34194444405343));
#1605=CARTESIAN_POINT('Ctrl Pts',(115.41080757804,-25.6539999999992,-4.34207585031161));
#1606=CARTESIAN_POINT('Ctrl Pts',(115.447995,-25.6539999999992,-4.34234900473666));
#1607=CARTESIAN_POINT('',(100.313438146322,-25.6539999999994,-4.4));
#1608=CARTESIAN_POINT('Origin',(119.09065,-29.345939,0.));
#1609=CARTESIAN_POINT('',(119.090518795001,-29.3256154515359,-4.36009076629778));
#1610=CARTESIAN_POINT('Ctrl Pts',(119.089409999992,-29.1538640000004,-4.36066078740956));
#1611=CARTESIAN_POINT('Ctrl Pts',(119.08973389149,-29.2040345315214,-4.360263968863));
#1612=CARTESIAN_POINT('Ctrl Pts',(119.09005200368,-29.2533098529133,-4.36007490528746));
#1613=CARTESIAN_POINT('Ctrl Pts',(119.090414324973,-29.309433128587,-4.36007490528746));
#1614=CARTESIAN_POINT('Ctrl Pts',(119.090466456754,-29.3175082993702,-4.36008015099826));
#1615=CARTESIAN_POINT('Ctrl Pts',(119.090518795001,-29.3256154515375,-4.36009076629778));
#1616=CARTESIAN_POINT('',(119.09065,-29.345939,-4.36012853039476));
#1617=CARTESIAN_POINT('Ctrl Pts',(119.090518795001,-29.3256154515375,-4.36009076629778));
#1618=CARTESIAN_POINT('Ctrl Pts',(119.090562388501,-29.3323680495878,-4.36009960797847));
#1619=CARTESIAN_POINT('Ctrl Pts',(119.090606125238,-29.3391428348337,-4.36011217460807));
#1620=CARTESIAN_POINT('Ctrl Pts',(119.09065,-29.345939,-4.36012853039476));
#1621=CARTESIAN_POINT('',(119.09065,-29.345939,-4.4));
#1622=CARTESIAN_POINT('',(119.09065,-29.345939,0.));
#1623=CARTESIAN_POINT('',(119.183853626913,-43.7831055504882,-4.4));
#1624=CARTESIAN_POINT('Origin',(119.090649999995,-87.584152,0.));
#1625=CARTESIAN_POINT('',(119.09065,-31.0977941025432,-4.4));
#1626=CARTESIAN_POINT('Ctrl Pts',(119.09065,-29.345939,-4.36012853039476));
#1627=CARTESIAN_POINT('Ctrl Pts',(119.09065,-29.7275972607434,-4.36054755418841));
#1628=CARTESIAN_POINT('Ctrl Pts',(119.09065,-30.1808121598942,-4.378126256218));
#1629=CARTESIAN_POINT('Ctrl Pts',(119.09065,-30.7278072174269,-4.39527502131986));
#1630=CARTESIAN_POINT('Ctrl Pts',(119.09065,-30.9295931038515,-4.4));
#1631=CARTESIAN_POINT('Ctrl Pts',(119.09065,-31.0977941025432,-4.4));
#1632=CARTESIAN_POINT('',(119.090649999997,-73.0122777500011,-4.4));
#1633=CARTESIAN_POINT('Origin',(54.9559093675585,-24.654,0.));
#1634=CARTESIAN_POINT('',(54.9559093675585,-24.654,-4.4));
#1635=CARTESIAN_POINT('',(115.450624379094,-24.6539999999992,-4.4));
#1636=CARTESIAN_POINT('',(70.0673953301015,-24.6539999999998,-4.4));
#1637=CARTESIAN_POINT('',(115.450624379094,-24.6539999999992,0.));
#1638=CARTESIAN_POINT('',(115.450624379094,-24.6539999999992,0.));
#1639=CARTESIAN_POINT('',(54.9559093675585,-24.654,0.));
#1640=CARTESIAN_POINT('',(70.0673953301015,-24.6539999999998,0.));
#1641=CARTESIAN_POINT('',(54.9559093675585,-24.654,0.));
#1642=CARTESIAN_POINT('Origin',(54.7423964333108,-24.6553761617091,0.));
#1643=CARTESIAN_POINT('',(54.7423964333108,-24.6553761617091,-4.4));
#1644=CARTESIAN_POINT('',(69.8511333553894,-24.5579953388645,-4.4));
#1645=CARTESIAN_POINT('',(54.7423964333108,-24.6553761617091,0.));
#1646=CARTESIAN_POINT('',(69.8511333553894,-24.5579953388645,0.));
#1647=CARTESIAN_POINT('',(54.7423964333108,-24.6553761617091,0.));
#1648=CARTESIAN_POINT('Origin',(54.932694674871,-29.31705204031,0.));
#1649=CARTESIAN_POINT('',(50.2671930000012,-29.2940403116223,-4.4));
#1650=CARTESIAN_POINT('Origin',(54.932694674871,-29.31705204031,-4.4));
#1651=CARTESIAN_POINT('',(50.2671930000012,-29.2940403116223,0.));
#1652=CARTESIAN_POINT('Origin',(54.932694674871,-29.31705204031,0.));
#1653=CARTESIAN_POINT('',(50.2671930000012,-29.2940403116223,0.));
#1654=CARTESIAN_POINT('Origin',(50.267193,-87.5317563531976,0.));
#1655=CARTESIAN_POINT('',(50.267193,-87.5317563531976,-4.4));
#1656=CARTESIAN_POINT('',(50.2671930000003,-72.9860799265983,-4.4));
#1657=CARTESIAN_POINT('',(50.267193,-87.5317563531976,0.));
#1658=CARTESIAN_POINT('',(50.2671930000003,-72.9860799265983,0.));
#1659=CARTESIAN_POINT('',(50.267193,-87.5317563531976,0.));
#1660=CARTESIAN_POINT('Origin',(54.934849486627,-87.55915531219,0.));
#1661=CARTESIAN_POINT('',(54.9066448524435,-92.226807,-4.4));
#1662=CARTESIAN_POINT('Origin',(54.934849486627,-87.55915531219,-4.4));
#1663=CARTESIAN_POINT('',(54.9066448524435,-92.226807,0.));
#1664=CARTESIAN_POINT('Origin',(54.934849486627,-87.55915531219,0.));
#1665=CARTESIAN_POINT('',(54.9066448524435,-92.226807,0.));
#1666=CARTESIAN_POINT('Origin',(115.401938888939,-92.226807,0.));
#1667=CARTESIAN_POINT('',(115.401938888939,-92.226807,-4.4));
#1668=CARTESIAN_POINT('',(100.290410090792,-92.226807,-4.4));
#1669=CARTESIAN_POINT('',(115.401938888939,-92.226807,0.));
#1670=CARTESIAN_POINT('',(100.290410090792,-92.226807,0.));
#1671=CARTESIAN_POINT('',(115.401938888939,-92.226807,0.));
#1672=CARTESIAN_POINT('Origin',(115.42499503748,-87.56360548301,0.));
#1673=CARTESIAN_POINT('',(119.089589805335,-87.6541242708931,-4.34873480863758));
#1674=CARTESIAN_POINT('Ctrl Pts',(119.090649999997,-87.584152,-4.3491314850928));
#1675=CARTESIAN_POINT('Ctrl Pts',(119.090519191485,-87.6074892338832,-4.34899997385363));
#1676=CARTESIAN_POINT('Ctrl Pts',(119.090165581114,-87.6308143599473,-4.34886774412203));
#1677=CARTESIAN_POINT('Ctrl Pts',(119.089589805335,-87.6541242710997,-4.34873480863758));
#1678=CARTESIAN_POINT('',(115.590785,-91.225567,-4.31619324251546));
#1679=CARTESIAN_POINT('Ctrl Pts',(119.089589805335,-87.6541242710997,-4.34873480863758));
#1680=CARTESIAN_POINT('Ctrl Pts',(119.078446721586,-88.1052448314392,-4.34616208625161));
#1681=CARTESIAN_POINT('Ctrl Pts',(118.984089012236,-88.5506666098924,-4.3433212034322));
#1682=CARTESIAN_POINT('Ctrl Pts',(118.629148226653,-89.4065305118132,-4.33718007179707));
#1683=CARTESIAN_POINT('Ctrl Pts',(118.363705231283,-89.8056921457585,-4.33392241155089));
#1684=CARTESIAN_POINT('Ctrl Pts',(117.695174773004,-90.4807105811445,-4.3276059920076));
#1685=CARTESIAN_POINT('Ctrl Pts',(117.298343683694,-90.7501060954087,-4.32460953815683));
#1686=CARTESIAN_POINT('Ctrl Pts',(116.458392004183,-91.1077824545273,-4.3196357734903));
#1687=CARTESIAN_POINT('Ctrl Pts',(116.028120903292,-91.2057672553334,-4.31763991762603));
#1688=CARTESIAN_POINT('Ctrl Pts',(115.590785,-91.225567,-4.31619324251546));
#1689=CARTESIAN_POINT('',(115.590785,-91.225567,-4.4));
#1690=CARTESIAN_POINT('',(115.590785,-91.225567,0.));
#1691=CARTESIAN_POINT('Origin',(115.42499503748,-87.56360548301,-4.4));
#1692=CARTESIAN_POINT('Origin',(115.398711,-91.226807,0.));
#1693=CARTESIAN_POINT('',(115.398711,-91.226807,-4.31486773281722));
#1694=CARTESIAN_POINT('Ctrl Pts',(115.590785,-91.225567,-4.31619324251546));
#1695=CARTESIAN_POINT('Ctrl Pts',(115.530172794127,-91.2259583030149,-4.31529042417583));
#1696=CARTESIAN_POINT('Ctrl Pts',(115.470645174275,-91.2263426041104,-4.31485961753233));
#1697=CARTESIAN_POINT('Ctrl Pts',(115.407965519844,-91.226747254253,-4.31485961753233));
#1698=CARTESIAN_POINT('Ctrl Pts',(115.403342767073,-91.226777098029,-4.31486231216191));
#1699=CARTESIAN_POINT('Ctrl Pts',(115.398711,-91.226807,-4.31486773281722));
#1700=CARTESIAN_POINT('',(115.398711,-91.226807,-4.4));
#1701=CARTESIAN_POINT('',(115.398711,-91.226807,0.));
#1702=CARTESIAN_POINT('',(100.39525343137,-91.3236669986726,-4.4));
#1703=CARTESIAN_POINT('Origin',(54.909848,-91.226807,0.));
#1704=CARTESIAN_POINT('',(113.278013571913,-91.226807,-4.4));
#1705=CARTESIAN_POINT('Ctrl Pts',(115.398711,-91.226807,-4.31486773281722));
#1706=CARTESIAN_POINT('Ctrl Pts',(115.395641638698,-91.226807,-4.31486535093765));
#1707=CARTESIAN_POINT('Ctrl Pts',(115.392576273927,-91.226807,-4.31486416462555));
#1708=CARTESIAN_POINT('Ctrl Pts',(114.933673450434,-91.226807,-4.31486416462555));
#1709=CARTESIAN_POINT('Ctrl Pts',(114.388012965113,-91.226807,-4.35326168780173));
#1710=CARTESIAN_POINT('Ctrl Pts',(113.728385656895,-91.226807,-4.38998665117685));
#1711=CARTESIAN_POINT('Ctrl Pts',(113.48282091575,-91.226807,-4.4));
#1712=CARTESIAN_POINT('Ctrl Pts',(113.278013571913,-91.226807,-4.4));
#1713=CARTESIAN_POINT('',(70.0443646463225,-91.226807,-4.4));
#1714=CARTESIAN_POINT('Origin',(115.615467576208,-92.2254284918614,0.));
#1715=CARTESIAN_POINT('',(115.615467576208,-92.2254284918614,-4.4));
#1716=CARTESIAN_POINT('',(100.506859574781,-92.3229673254444,-4.4));
#1717=CARTESIAN_POINT('',(115.615467576208,-92.2254284918614,0.));
#1718=CARTESIAN_POINT('',(100.506859574781,-92.3229673254444,0.));
#1719=CARTESIAN_POINT('',(115.615467576208,-92.2254284918614,0.));
#1720=CARTESIAN_POINT('Origin',(115.42499503748,-87.56360548301,0.));
#1721=CARTESIAN_POINT('',(120.090649999996,-87.5867857466064,-4.4));
#1722=CARTESIAN_POINT('Origin',(115.42499503748,-87.56360548301,-4.4));
#1723=CARTESIAN_POINT('',(120.090649999996,-87.5867857466064,0.));
#1724=CARTESIAN_POINT('Origin',(115.42499503748,-87.56360548301,0.));
#1725=CARTESIAN_POINT('',(120.090649999996,-87.5867857466064,0.));
#1726=CARTESIAN_POINT('Origin',(120.09065,-29.3427111278432,0.));
#1727=CARTESIAN_POINT('',(120.09065,-29.3427111278432,-4.4));
#1728=CARTESIAN_POINT('',(120.090649999999,-43.8915573139228,-4.4));
#1729=CARTESIAN_POINT('',(120.09065,-29.3427111278432,0.));
#1730=CARTESIAN_POINT('',(120.090649999999,-43.8915573139228,0.));
#1731=CARTESIAN_POINT('',(120.09065,-29.3427111278432,0.));
#1732=CARTESIAN_POINT('Origin',(120.089271519971,-29.1291856844292,0.));
#1733=CARTESIAN_POINT('',(120.089271519971,-29.1291856844292,-4.4));
#1734=CARTESIAN_POINT('',(120.18315396785,-43.6715010541769,-4.4));
#1735=CARTESIAN_POINT('',(120.089271519971,-29.1291856844292,0.));
#1736=CARTESIAN_POINT('',(120.18315396785,-43.6715010541769,0.));
#1737=CARTESIAN_POINT('',(120.089271519971,-29.1291856844292,0.));
#1738=CARTESIAN_POINT('Origin',(115.4274827406,-29.31961936675,0.));
#1739=CARTESIAN_POINT('Origin',(115.4274827406,-29.31961936675,-4.4));
#1740=CARTESIAN_POINT('Origin',(115.4274827406,-29.31961936675,0.));
#1741=CARTESIAN_POINT('Origin',(54.8730806108239,-29.3924296752791,-2.4));
#1742=CARTESIAN_POINT('',(57.0230806108239,-29.3924296752791,-2.4));
#1743=CARTESIAN_POINT('Origin',(54.8730806108239,-29.3924296752791,-2.4));
#1744=CARTESIAN_POINT('',(59.0230806108239,-29.3924296752791,-4.4));
#1745=CARTESIAN_POINT('Origin',(59.0230806108239,-29.3924296752791,-2.4));
#1746=CARTESIAN_POINT('Origin',(54.8730806108239,-29.3924296752791,-4.4));
#1747=CARTESIAN_POINT('Origin',(54.8730806108239,-29.3924296752791,-4.4));
#1748=CARTESIAN_POINT('Origin',(54.8730806108239,-29.3924296752791,-4.4));
#1749=CARTESIAN_POINT('',(57.0230806108239,-29.3924296752791,-4.4));
#1750=CARTESIAN_POINT('Origin',(54.882372542085,-87.5252729363784,-2.4));
#1751=CARTESIAN_POINT('',(52.732372542085,-87.5252729363784,-2.4));
#1752=CARTESIAN_POINT('',(57.032372542085,-87.5252729363784,-2.4));
#1753=CARTESIAN_POINT('Origin',(54.882372542085,-87.5252729363784,-2.4));
#1754=CARTESIAN_POINT('',(59.032372542085,-87.5252729363784,-4.4));
#1755=CARTESIAN_POINT('Origin',(59.032372542085,-87.5252729363784,-2.4));
#1756=CARTESIAN_POINT('Origin',(54.882372542085,-87.5252729363784,-4.4));
#1757=CARTESIAN_POINT('Origin',(54.882372542085,-87.5252729363784,-4.4));
#1758=CARTESIAN_POINT('Origin',(54.882372542085,-87.5252729363784,-2.4));
#1759=CARTESIAN_POINT('Origin',(85.1788812926449,-58.4404034999997,-4.4));
#1760=CARTESIAN_POINT('Origin',(115.338066512733,-29.3256154515343,-4.4));
#1761=CARTESIAN_POINT('Origin',(115.389514960894,-87.6541242706865,-4.4));
#1762=CARTESIAN_POINT('Origin',(54.882372542085,-87.5252729363784,4.6));
#1763=CARTESIAN_POINT('',(52.732372542085,-87.5252729363784,4.6));
#1764=CARTESIAN_POINT('Origin',(115.389514960894,-87.6541242706865,-2.4));
#1765=CARTESIAN_POINT('',(113.239514960894,-87.6541242706865,-2.4));
#1766=CARTESIAN_POINT('',(117.539514960894,-87.6541242706865,-2.4));
#1767=CARTESIAN_POINT('Origin',(115.389514960894,-87.6541242706865,-2.4));
#1768=CARTESIAN_POINT('Origin',(119.539514960894,-87.6541242706865,-2.4));
#1769=CARTESIAN_POINT('Origin',(115.389514960894,-87.6541242706865,-2.4));
#1770=CARTESIAN_POINT('Origin',(115.389514960894,-87.6541242706865,4.6));
#1771=CARTESIAN_POINT('',(113.239514960894,-87.6541242706865,4.6));
#1772=CARTESIAN_POINT('Origin',(115.338066512733,-29.3256154515343,-2.4));
#1773=CARTESIAN_POINT('',(113.188066512733,-29.3256154515343,-2.4));
#1774=CARTESIAN_POINT('',(117.488066512733,-29.3256154515343,-2.4));
#1775=CARTESIAN_POINT('Origin',(115.338066512733,-29.3256154515343,-2.4));
#1776=CARTESIAN_POINT('Origin',(119.488066512733,-29.3256154515343,-2.4));
#1777=CARTESIAN_POINT('Origin',(115.338066512733,-29.3256154515343,-2.4));
#1778=CARTESIAN_POINT('Origin',(115.338066512733,-29.3256154515343,4.6));
#1779=CARTESIAN_POINT('',(113.188066512733,-29.3256154515343,4.6));
#1780=CARTESIAN_POINT('Origin',(54.8730806108239,-29.3924296752791,-4.4));
#1781=CARTESIAN_POINT('',(56.2230806108239,-29.3924296752791,-4.4));
#1782=CARTESIAN_POINT('',(56.2230806108239,-29.3924296752791,-4.4));
#1783=CARTESIAN_POINT('Origin',(54.8730806108239,-29.3924296752791,-4.4));
#1784=CARTESIAN_POINT('Origin',(54.882372542085,-87.5252729363784,4.6));
#1785=CARTESIAN_POINT('',(53.532372542085,-87.5252729363784,-4.4));
#1786=CARTESIAN_POINT('Origin',(54.882372542085,-87.5252729363784,-4.4));
#1787=CARTESIAN_POINT('',(53.532372542085,-87.5252729363784,4.6));
#1788=CARTESIAN_POINT('Origin',(85.1788812926449,-58.4404034999997,-4.4));
#1789=CARTESIAN_POINT('Origin',(115.389514960894,-87.6541242706865,4.6));
#1790=CARTESIAN_POINT('',(114.039514960894,-87.6541242706865,-4.4));
#1791=CARTESIAN_POINT('Origin',(115.389514960894,-87.6541242706865,-4.4));
#1792=CARTESIAN_POINT('',(114.039514960894,-87.6541242706865,4.6));
#1793=CARTESIAN_POINT('Origin',(85.1788812926449,-58.4404034999997,-4.4));
#1794=CARTESIAN_POINT('Origin',(115.338066512733,-29.3256154515343,4.6));
#1795=CARTESIAN_POINT('',(113.988066512733,-29.3256154515343,-4.4));
#1796=CARTESIAN_POINT('Origin',(115.338066512733,-29.3256154515343,-4.4));
#1797=CARTESIAN_POINT('',(113.988066512733,-29.3256154515343,4.6));
#1798=CARTESIAN_POINT('Origin',(85.1788812926449,-58.4404034999997,-4.4));
#1799=CARTESIAN_POINT('Origin',(85.1788812926449,-58.4404034999997,-4.4));
#1800=CARTESIAN_POINT('Origin',(124.090649999995,-87.5951963932101,1.6));
#1801=CARTESIAN_POINT('',(124.090649999995,-87.5951963932101,0.));
#1802=CARTESIAN_POINT('',(124.09065,-29.3297996392243,0.));
#1803=CARTESIAN_POINT('',(124.090649999997,-73.0177999466064,0.));
#1804=CARTESIAN_POINT('',(124.090649999995,-87.5951963932101,-6.4));
#1805=CARTESIAN_POINT('',(124.090649999995,-87.5951963932101,1.6));
#1806=CARTESIAN_POINT('',(124.09065,-29.3297996392243,-6.4));
#1807=CARTESIAN_POINT('',(124.090649999995,-87.5951963932101,-6.4));
#1808=CARTESIAN_POINT('',(124.09065,-29.3297996392243,1.6));
#1809=CARTESIAN_POINT('Origin',(124.09065,-29.3297996392243,1.6));
#1810=CARTESIAN_POINT('',(124.088812510016,-29.0451739243413,0.));
#1811=CARTESIAN_POINT('',(124.183801531662,-43.7588966774829,0.));
#1812=CARTESIAN_POINT('',(124.088812510016,-29.0451739243413,-6.4));
#1813=CARTESIAN_POINT('',(124.09065,-29.3297996392243,-6.4));
#1814=CARTESIAN_POINT('',(124.088812510016,-29.0451739243413,1.6));
#1815=CARTESIAN_POINT('Origin',(115.4274827406,-29.31961936675,1.6));
#1816=CARTESIAN_POINT('',(115.459021066777,-20.6539999999992,0.));
#1817=CARTESIAN_POINT('Origin',(115.4274827406,-29.31961936675,0.));
#1818=CARTESIAN_POINT('',(115.459021066777,-20.6539999999992,-6.4));
#1819=CARTESIAN_POINT('Origin',(115.4274827406,-29.31961936675,-6.4));
#1820=CARTESIAN_POINT('',(115.459021066777,-20.6539999999992,1.6));
#1821=CARTESIAN_POINT('Origin',(115.459021066777,-20.6539999999992,1.6));
#1822=CARTESIAN_POINT('',(54.9430188377927,-20.654,0.));
#1823=CARTESIAN_POINT('',(100.318951179711,-20.6539999999994,0.));
#1824=CARTESIAN_POINT('',(54.9430188377927,-20.654,-6.4));
#1825=CARTESIAN_POINT('',(115.459021066777,-20.6539999999992,-6.4));
#1826=CARTESIAN_POINT('',(54.9430188377927,-20.654,1.6));
#1827=CARTESIAN_POINT('Origin',(54.9430188377927,-20.654,1.6));
#1828=CARTESIAN_POINT('',(54.6584564776725,-20.6558340988344,0.));
#1829=CARTESIAN_POINT('',(69.9385541617377,-20.5573487990194,0.));
#1830=CARTESIAN_POINT('',(54.6584564776725,-20.6558340988344,-6.4));
#1831=CARTESIAN_POINT('',(54.9430188377927,-20.654,-6.4));
#1832=CARTESIAN_POINT('',(54.6584564776725,-20.6558340988344,1.6));
#1833=CARTESIAN_POINT('Origin',(85.1788812926449,-58.4404034999996,-6.4));
#1834=CARTESIAN_POINT('',(46.267193,-87.5218187264423,-6.4));
#1835=CARTESIAN_POINT('',(46.2671930000003,-29.2856905774419,-6.4));
#1836=CARTESIAN_POINT('',(46.2671930000003,-29.2856905774419,-6.4));
#1837=CARTESIAN_POINT('Origin',(54.932694674871,-29.31705204031,-6.4));
#1838=CARTESIAN_POINT('',(115.699493055047,-96.2249693913866,-6.4));
#1839=CARTESIAN_POINT('Origin',(115.42499503748,-87.56360548301,-6.4));
#1840=CARTESIAN_POINT('',(115.414850444693,-96.226807,-6.4));
#1841=CARTESIAN_POINT('',(115.414850444693,-96.226807,-6.4));
#1842=CARTESIAN_POINT('',(54.8964150020216,-96.226807,-6.4));
#1843=CARTESIAN_POINT('',(54.8964150020216,-96.226807,-6.4));
#1844=CARTESIAN_POINT('Origin',(54.934849486627,-87.55915531219,-6.4));
#1845=CARTESIAN_POINT('Origin',(54.932694674871,-29.31705204031,1.6));
#1846=CARTESIAN_POINT('',(46.2671930000003,-29.2856905774419,0.));
#1847=CARTESIAN_POINT('Origin',(54.932694674871,-29.31705204031,0.));
#1848=CARTESIAN_POINT('',(46.2671930000003,-29.2856905774419,1.6));
#1849=CARTESIAN_POINT('Origin',(46.2671930000003,-29.2856905774419,1.6));
#1850=CARTESIAN_POINT('',(46.267193,-87.5218187264423,0.));
#1851=CARTESIAN_POINT('',(46.2671930000002,-43.8630470387207,0.));
#1852=CARTESIAN_POINT('',(46.267193,-87.5218187264423,1.6));
#1853=CARTESIAN_POINT('Origin',(54.934849486627,-87.55915531219,1.6));
#1854=CARTESIAN_POINT('',(54.8964150020216,-96.226807,0.));
#1855=CARTESIAN_POINT('Origin',(54.934849486627,-87.55915531219,0.));
#1856=CARTESIAN_POINT('',(54.8964150020216,-96.226807,1.6));
#1857=CARTESIAN_POINT('Origin',(54.8964150020216,-96.226807,1.6));
#1858=CARTESIAN_POINT('',(115.414850444693,-96.226807,0.));
#1859=CARTESIAN_POINT('',(70.0376481473333,-96.226807,0.));
#1860=CARTESIAN_POINT('',(115.414850444693,-96.226807,1.6));
#1861=CARTESIAN_POINT('Origin',(115.414850444693,-96.226807,1.6));
#1862=CARTESIAN_POINT('',(115.699493055047,-96.2249693913866,0.));
#1863=CARTESIAN_POINT('',(100.419462430246,-96.3236149028757,0.));
#1864=CARTESIAN_POINT('',(115.699493055047,-96.2249693913866,1.6));
#1865=CARTESIAN_POINT('Origin',(115.42499503748,-87.56360548301,1.6));
#1866=CARTESIAN_POINT('Origin',(115.42499503748,-87.56360548301,0.));
#1867=CARTESIAN_POINT('Origin',(85.1788812926449,-58.4404034999996,0.));
#1868=UNCERTAINTY_MEASURE_WITH_UNIT(LENGTH_MEASURE(0.01),#1872,
'DISTANCE_ACCURACY_VALUE',
'Maximum model space distance between geometric entities at asserted c
onnectivities');
#1869=UNCERTAINTY_MEASURE_WITH_UNIT(LENGTH_MEASURE(0.01),#1872,
'DISTANCE_ACCURACY_VALUE',
'Maximum model space distance between geometric entities at asserted c
onnectivities');
#1870=(
GEOMETRIC_REPRESENTATION_CONTEXT(3)
GLOBAL_UNCERTAINTY_ASSIGNED_CONTEXT((#1868))
GLOBAL_UNIT_ASSIGNED_CONTEXT((#1872,#1874,#1875))
REPRESENTATION_CONTEXT('','3D')
);
#1871=(
GEOMETRIC_REPRESENTATION_CONTEXT(3)
GLOBAL_UNCERTAINTY_ASSIGNED_CONTEXT((#1869))
GLOBAL_UNIT_ASSIGNED_CONTEXT((#1872,#1874,#1875))
REPRESENTATION_CONTEXT('','3D')
);
#1872=(
LENGTH_UNIT()
NAMED_UNIT(*)
SI_UNIT(.MILLI.,.METRE.)
);
#1873=(
LENGTH_UNIT()
NAMED_UNIT(*)
SI_UNIT($,.METRE.)
);
#1874=(
NAMED_UNIT(*)
PLANE_ANGLE_UNIT()
SI_UNIT($,.RADIAN.)
);
#1875=(
NAMED_UNIT(*)
SI_UNIT($,.STERADIAN.)
SOLID_ANGLE_UNIT()
);
#1876=SHAPE_DEFINITION_REPRESENTATION(#1877,#1878);
#1877=PRODUCT_DEFINITION_SHAPE('',$,#1880);
#1878=SHAPE_REPRESENTATION('',(#1047),#1870);
#1879=PRODUCT_DEFINITION_CONTEXT('part definition',#1884,'design');
#1880=PRODUCT_DEFINITION('FusionComponent','FusionComponent',#1881,#1879);
#1881=PRODUCT_DEFINITION_FORMATION('',$,#1886);
#1882=PRODUCT_RELATED_PRODUCT_CATEGORY('FusionComponent',
'FusionComponent',(#1886));
#1883=APPLICATION_PROTOCOL_DEFINITION('international standard',
'automotive_design',2009,#1884);
#1884=APPLICATION_CONTEXT(
'Core Data for Automotive Mechanical Design Process');
#1885=PRODUCT_CONTEXT('part definition',#1884,'mechanical');
#1886=PRODUCT('FusionComponent','FusionComponent',$,(#1885));
#1887=PRESENTATION_STYLE_ASSIGNMENT((#1888));
#1888=SURFACE_STYLE_USAGE(.BOTH.,#1889);
#1889=SURFACE_SIDE_STYLE('',(#1890));
#1890=SURFACE_STYLE_FILL_AREA(#1891);
#1891=FILL_AREA_STYLE('Steel - Satin',(#1892));
#1892=FILL_AREA_STYLE_COLOUR('Steel - Satin',#1893);
#1893=COLOUR_RGB('Steel - Satin',0.627450980392157,0.627450980392157,0.627450980392157);
ENDSEC;
END-ISO-10303-21;
